<?xml version="1.0" standalone="no"?>
<!DOCTYPE svg PUBLIC "-//W3C//DTD SVG 1.1//EN" "http://www.w3.org/Graphics/SVG/1.1/DTD/svg11.dtd" >
<svg>
<metadata>
Created by FontForge 20090914 at Thu Jun 25 12:23:06 2020
 By www-data
Copyright (c) 2017 by Alexander Slobzheninov. All rights reserved.
</metadata>
<defs>
<font id="FivoSans-Medium" horiz-adv-x="570" >
  <font-face 
    font-family="Fivo Sans Med"
    font-weight="450"
    font-stretch="normal"
    units-per-em="1000"
    panose-1="0 0 0 0 0 0 0 0 0 0"
    ascent="800"
    descent="-200"
    x-height="499.999"
    cap-height="700"
    bbox="-60 -251.001 1227 960"
    underline-thickness="50"
    underline-position="975"
    unicode-range="U+000D-U+E133"
  />
<missing-glyph horiz-adv-x="200" 
 />
    <glyph glyph-name=".notdef" horiz-adv-x="200" 
 />
    <glyph glyph-name="NULL" horiz-adv-x="783" 
d="M90 700h603v-700h-603v700zM197 599v-498h388v498h-388z" />
    <glyph glyph-name="NULL" horiz-adv-x="783" 
d="M90 700h603v-700h-603v700zM197 599v-498h388v498h-388z" />
    <glyph glyph-name="CR" unicode="&#xd;" horiz-adv-x="250" 
 />
    <glyph glyph-name="space" unicode=" " horiz-adv-x="300" 
 />
    <glyph glyph-name="exclam" unicode="!" horiz-adv-x="282" 
d="M140 131c25.333 0 43.667 -5.66699 55 -17s17 -29.333 17 -54c0 -46.667 -24 -70 -72 -70c-24.667 0 -42.5 5.5 -53.5 16.5s-16.5 28.833 -16.5 53.5s5.5 42.667 16.5 54s28.833 17 53.5 17zM81.001 700h119v-190l-23 -258h-73l-23 258v190z" />
    <glyph glyph-name="quotedbl" unicode="&#x22;" horiz-adv-x="352" 
d="M142 700v-140l-12 -195h-78l-12 195v140h102zM312 700v-140l-11 -195h-79l-12 195v140h102z" />
    <glyph glyph-name="numbersign" unicode="#" horiz-adv-x="749" 
d="M390 0l28 193h-131l-28 -193h-84l28 193h-153v82h164l18 128h-153v82h164l31 215h84l-31 -215h131l31 215h85l-31 -215h156v-82h-167l-18 -128h156v-82h-167l-28 -193h-85zM448 403h-131l-18 -128h131z" />
    <glyph glyph-name="dollar" unicode="$" horiz-adv-x="650" 
d="M280 -100l0.00292969 81.0029c-80 4.66699 -138.333 24.5 -175 59.5s-55 87.833 -55 158.5h113c0 -46.667 12.667 -80.334 38 -101.001s66.666 -31 123.999 -31c55.333 0 95 8.83301 119 26.5s36 46.167 36 85.5c0 32.667 -14.5 58.334 -43.5 77.001s-64 32.667 -105 42
s-82 19.833 -123 31.5s-76 31.5 -105 59.5s-43.5 65 -43.5 111c0 70 17.5 122.5 52.5 157.5s90.833 54.833 167.5 59.5v83h90v-83c76.667 -4.66699 132.5 -24.5 167.5 -59.5s52.5 -87.833 52.5 -158.5h-114c0 46.667 -11.833 80.334 -35.5 101.001s-62.167 31 -115.5 31
c-52 0 -89.333 -8.66699 -112 -26s-34 -46 -34 -86c0 -24 10.333 -43.833 31 -59.5s46.667 -26.834 78 -33.501s65.166 -15.334 101.499 -26.001s70.166 -22.334 101.499 -35.001s57.333 -33.334 78 -62.001s31 -63.667 31 -105c0 -70 -18.333 -122.5 -55 -157.5
s-95 -54.833 -175 -59.5v-81h-90z" />
    <glyph glyph-name="percent" unicode="%" horiz-adv-x="873" 
d="M207 710c58.667 0 101.332 -15.5 127.999 -46.5s40 -80.833 40 -149.5s-13.167 -118.5 -39.5 -149.5s-69.166 -46.5 -128.499 -46.5c-58.667 0 -101.167 15.5 -127.5 46.5s-39.5 80.833 -39.5 149.5s13.167 118.5 39.5 149.5s68.833 46.5 127.5 46.5zM206.998 387
c29.333 0 50.5 9.83301 63.5 29.5s19.5 52.167 19.5 97.5c0 44.667 -6.5 76.834 -19.5 96.501s-33.833 29.5 -62.5 29.5c-30 0 -51.5 -9.83301 -64.5 -29.5s-19.5 -51.834 -19.5 -96.501c0 -45.333 6.5 -77.833 19.5 -97.5s34.167 -29.5 63.5 -29.5zM267.998 -30h-103
l440 760h103zM665.998 390c58.667 0 101.167 -15.5 127.5 -46.5s39.5 -80.833 39.5 -149.5s-13.167 -118.5 -39.5 -149.5s-68.833 -46.5 -127.5 -46.5s-101.334 15.5 -128.001 46.5s-40 80.833 -40 149.5s13.333 118.5 40 149.5s69.334 46.5 128.001 46.5zM665.998 67
c29.333 0 50.5 9.83301 63.5 29.5s19.5 52.167 19.5 97.5c0 44.667 -6.5 76.834 -19.5 96.501s-34.167 29.5 -63.5 29.5s-50.5 -9.83301 -63.5 -29.5s-19.5 -51.834 -19.5 -96.501c0 -45.333 6.5 -77.833 19.5 -97.5s34.167 -29.5 63.5 -29.5z" />
    <glyph glyph-name="ampersand" unicode="&#x26;" horiz-adv-x="784" 
d="M764 0h-145l-74 69c-63.333 -59.333 -146.666 -89 -249.999 -89c-81.333 0 -142.5 16.833 -183.5 50.5s-61.5 82.167 -61.5 145.5c0 48 15 88.667 45 122s71 64.666 123 93.999c-52 58.667 -78 109.667 -78 153c0 116.667 68.333 175 205 175c130 0 195 -50.667 195 -152
c0 -20.667 -4.33301 -40 -13 -58s-21.834 -34.667 -39.501 -50s-34.667 -28.5 -51 -39.5s-37.5 -23.5 -63.5 -37.5l168 -165c18 37.333 30.333 81 37 131h90c-7.33301 -77.333 -27 -143.666 -59 -198.999zM302 69c68 0 126 22 174 66l-201 197
c-73.333 -44.667 -110 -92 -110 -142c0 -38.667 12.833 -68.5 38.5 -89.5s58.5 -31.5 98.5 -31.5zM240 557c0 -31.333 23.668 -70.6689 71.001 -118.002c44 22.667 76.833 42.834 98.5 60.501s32.5 37.834 32.5 60.501c0 28.667 -7.83301 49.667 -23.5 63
s-40.834 20 -75.501 20c-36 0 -62.167 -6.83301 -78.5 -20.5s-24.5 -35.5 -24.5 -65.5z" />
    <glyph glyph-name="quotesingle" unicode="'" horiz-adv-x="182" 
d="M142 700v-140l-12 -195h-78l-12 195v140h102z" />
    <glyph glyph-name="parenleft" unicode="(" horiz-adv-x="290" 
d="M179 -200c-86 143.333 -128.999 296.667 -128.999 460c0 26.667 1 52.834 3 78.501s5.33301 49.834 10 72.501s9.16699 43.5 13.5 62.5s10.166 38 17.499 57l18.5 47c5 12.333 11.667 26.333 20 42l17.5 33c3.33301 6.33301 9 15.666 17 27.999s12 18.833 12 19.5h91
c-37.333 -62 -64.333 -117 -81 -165c-28.667 -84.667 -43 -176.334 -43 -275.001c0 -168.667 41.333 -322 124 -460h-91z" />
    <glyph glyph-name="parenright" unicode=")" horiz-adv-x="290" 
d="M111 -200h-90.999c82.667 138 124 291.333 124 460c0 158 -39.667 301.667 -119 431c-2 4 -3.66699 7 -5 9h91c0 -0.666992 4 -7.16699 12 -19.5s13.667 -21.666 17 -27.999l17.5 -33c8.33301 -15.667 15 -29.667 20 -42l18.5 -47c7.33301 -19 13.166 -38 17.499 -57
s8.83301 -39.833 13.5 -62.5s8 -46.834 10 -72.501s3 -51.834 3 -78.501c0 -163.333 -43 -316.666 -129 -459.999z" />
    <glyph glyph-name="asterisk" unicode="*" horiz-adv-x="367" 
d="M156 400v60l6 40v11l-11 -6l-31 -25l-53 -30l-27 49l52 31l38 14l9 5l-10 6l-38 15l-51 30l27 49l52 -30l32 -25l11 -6v12l-6 40v60h55v-60l-6 -40v-12l11 6l32 26l52 29l27 -49l-52 -30l-37 -15l-10 -6l9 -5l38 -15l52 -30l-28 -49l-52 30l-31 25l-11 6v-11l6 -40v-60
h-55z" />
    <glyph glyph-name="plus" unicode="+" horiz-adv-x="600" 
d="M560 301v-88h-214v-213h-91v213h-215v88h215v199h91v-199h214z" />
    <glyph glyph-name="comma" unicode="," horiz-adv-x="221" 
d="M103 130c14 0 26 -2.33398 36 -7.00098s17.5 -10.5 22.5 -17.5s9 -16.167 12 -27.5s4.83301 -21.5 5.5 -30.5s1 -20.167 1 -33.5c0 -59.333 -10.5 -102.5 -31.5 -129.5s-54.167 -40.5 -99.5 -40.5v57c20.667 0 35.667 7 45 21s14 36.667 14 68
c-23.333 0 -40.5 5.33301 -51.5 16s-16.5 28 -16.5 52c0 24.667 4.5 42.834 13.5 54.501s25.5 17.5 49.5 17.5z" />
    <glyph glyph-name="hyphen" unicode="-" horiz-adv-x="410" 
d="M370 223h-330v88h330v-88z" />
    <glyph glyph-name="period" unicode="." horiz-adv-x="222" 
d="M110 131c24.667 0 42.832 -5.66699 54.499 -17s17.5 -29.333 17.5 -54s-5.66699 -42.5 -17 -53.5s-29.666 -16.5 -54.999 -16.5c-24.667 0 -42.5 5.5 -53.5 16.5s-16.5 28.833 -16.5 53.5s5.5 42.667 16.5 54s28.833 17 53.5 17z" />
    <glyph glyph-name="slash" unicode="/" horiz-adv-x="382" 
d="M260 700h102l-240 -700h-102z" />
    <glyph glyph-name="zero" unicode="0" horiz-adv-x="702" 
d="M351 720c105.333 0 181.833 -29.333 229.5 -88s71.5 -152.667 71.5 -282s-23.833 -223.333 -71.5 -282s-124.167 -88 -229.5 -88s-181.833 29.333 -229.5 88s-71.5 152.667 -71.5 282c0 130 23.833 224.167 71.5 282.5s124.167 87.5 229.5 87.5zM351 68
c63.333 0 109.333 22.3291 138 66.9961s43 116.334 43 215.001s-14.333 170.334 -43 215.001s-74.667 67 -138 67c-64 0 -110.333 -22.167 -139 -66.5s-43 -116.166 -43 -215.499s14.333 -171.166 43 -215.499s75 -66.5 139 -66.5z" />
    <glyph glyph-name="one" unicode="1" horiz-adv-x="364" 
d="M40 612v88h234v-700h-114v612h-120z" />
    <glyph glyph-name="two" unicode="2" horiz-adv-x="585" 
d="M204 88l331.003 -0.000976562v-88h-495v72c33.333 29.333 73.166 62.666 119.499 99.999l110.5 89.5c27.333 22.333 54.666 47.333 81.999 75s47.333 54.5 60 80.5s19 53 19 81c0 47.333 -10.333 81.5 -31 102.5s-54.667 31.5 -102 31.5s-81.5 -12.667 -102.5 -38
s-31.5 -66.666 -31.5 -123.999h-114c0 87.333 19.667 150.833 59 190.5s102.333 59.5 189 59.5s149.5 -17.667 188.5 -53s58.5 -91.666 58.5 -168.999c0 -30 -5.33301 -58.5 -16 -85.5s-29 -54.833 -55 -83.5s-49.333 -52.5 -70 -71.5s-53.334 -47 -98.001 -84z" />
    <glyph glyph-name="three" unicode="3" horiz-adv-x="637" 
d="M303 323l-36.999 0.00195312v82h37c53.333 0 92 8.66699 116 26s36 45.333 36 84c0 41.333 -11 71.166 -33 89.499s-58.333 27.5 -109 27.5c-50 0 -86 -11.833 -108 -35.5s-33 -62.5 -33 -116.5h-102c0 84 19.167 145 57.5 183s100.166 57 185.499 57
s147.333 -15.833 186 -47.5s58 -82.167 58 -151.5c0 -28 -4.5 -52.333 -13.5 -73s-19.667 -35.834 -32 -45.501s-24.833 -17.167 -37.5 -22.5s-23.334 -8.33301 -32.001 -9l-14 -1c4 0 9.66699 -0.5 17 -1.5s20.166 -4.83301 38.499 -11.5s34.5 -15.5 48.5 -26.5
s26.667 -28 38 -51s17 -49.833 17 -80.5c0 -76.667 -21.667 -132.334 -65 -167.001s-113 -52 -209 -52c-95.333 0 -164.666 19.833 -207.999 59.5s-65 103.167 -65 190.5h108c0 -57.333 12.833 -98.666 38.5 -123.999s67.834 -38 126.501 -38c56.667 0 97.5 10.333 122.5 31
s37.5 54 37.5 100c0 43.333 -13.5 74.833 -40.5 94.5s-70.167 29.5 -129.5 29.5z" />
    <glyph glyph-name="four" unicode="4" horiz-adv-x="659" 
d="M389 700h130v-429h70v-88h-70v-183h-114v183h-365v104zM141 271h264v315z" />
    <glyph glyph-name="five" unicode="5" horiz-adv-x="626" 
d="M224 612l-0.000976562 1.00293l-28 -165c32.667 21.333 79 32 139 32c84.667 0 146 -19.833 184 -59.5s57 -103.167 57 -190.5s-21.667 -150.833 -65 -190.5s-113.333 -59.5 -210 -59.5c-82.667 0 -143.834 17.333 -183.501 52s-62.167 90.667 -67.5 168h102
c4.66699 -46.667 19.334 -80.334 44.001 -101.001s61.667 -31 111 -31c54.667 0 94.334 12.667 119.001 38s37 66.666 37 123.999s-12 98.666 -36 123.999s-62.667 38 -116 38c-42.667 0 -75 -7.33301 -97 -22s-36.667 -38.667 -44 -72h-96l67 402h385v-88h-302z" />
    <glyph glyph-name="six" unicode="6" horiz-adv-x="637" 
d="M50 340c0 132.667 21.667 229.168 65 289.501s112.666 90.5 207.999 90.5c71.333 0 126.333 -15.833 165 -47.5s65 -82.5 79 -152.5h-108c-10 42 -25.5 72.167 -46.5 90.5s-50.833 27.5 -89.5 27.5c-57.333 0 -98.333 -20.5 -123 -61.5s-37 -108.5 -37 -202.5
c0 2.66699 0.666992 6.5 2 11.5s5.83301 13.5 13.5 25.5s17.834 22.667 30.501 32s31.834 17.833 57.501 25.5s55.834 11.5 90.501 11.5c78 0 135.833 -20 173.5 -60s56.5 -102.667 56.5 -188c0 -88.667 -20.833 -152.834 -62.5 -192.501s-108.834 -59.5 -201.501 -59.5
c-100.667 0 -171.334 28 -212.001 84s-61 148 -61 276zM323 392.001c-52.667 0 -90.834 -12.8291 -114.501 -38.4961s-35.5 -66.834 -35.5 -123.501s11.833 -97.834 35.5 -123.501s61.834 -38.5 114.501 -38.5s90.834 12.667 114.501 38s35.5 66.666 35.5 123.999
s-11.833 98.666 -35.5 123.999s-61.834 38 -114.501 38z" />
    <glyph glyph-name="seven" unicode="7" horiz-adv-x="553" 
d="M513 628l-300 -628h-121l299 612h-351v88h473v-72z" />
    <glyph glyph-name="eight" unicode="8" horiz-adv-x="667" 
d="M79 521c0 69.333 20.167 119.833 60.5 151.5s104.833 47.5 193.5 47.5s153.167 -15.833 193.5 -47.5s60.5 -82.167 60.5 -151.5c0 -74 -28.667 -124.667 -86 -152c77.333 -28 116 -87 116 -177c0 -74 -22.5 -127.833 -67.5 -161.5s-117.167 -50.5 -216.5 -50.5
c-98.667 0 -170.5 16.833 -215.5 50.5s-67.5 87.5 -67.5 161.5c0 90 38.333 149 115 177c-57.333 27.333 -86 78 -86 152zM332 68c60 0 103.333 10.167 130 30.5s40 52.833 40 97.5c0 45.333 -13.167 77.833 -39.5 97.5s-69.833 29.5 -130.5 29.5
c-60 0 -103.333 -10 -130 -30s-40 -52.333 -40 -97c0 -45.333 13.333 -78 40 -98s70 -30 130 -30zM333 632c-51.333 0 -88.333 -9 -111 -27s-34 -47 -34 -87c0 -40.667 11.333 -69.667 34 -87s59.667 -26 111 -26c52 0 89.333 8.66699 112 26s34 46.333 34 87
c0 40 -11.333 69 -34 87s-60 27 -112 27z" />
    <glyph glyph-name="nine" unicode="9" horiz-adv-x="637" 
d="M587 360c0 -133.333 -21.667 -230.002 -65 -290.002s-113 -90 -209 -90c-71.333 0 -126.166 15.833 -164.499 47.5s-64.5 82.5 -78.5 152.5h108c10 -42 25.333 -72.167 46 -90.5s50.334 -27.5 89.001 -27.5c57.333 0 98.333 20.5 123 61.5s37.334 108.5 38.001 202.5
c0 -2.66699 -0.666992 -6.5 -2 -11.5s-5.83301 -13.5 -13.5 -25.5s-17.834 -22.667 -30.501 -32s-31.834 -17.833 -57.501 -25.5s-55.834 -11.5 -90.501 -11.5c-78 0 -135.833 19.833 -173.5 59.5s-56.5 102.5 -56.5 188.5c0 88.667 20.833 152.834 62.5 192.501
s108.5 59.5 200.5 59.5c100.667 0 171.5 -28.167 212.5 -84.5s61.5 -148.166 61.5 -275.499zM313 307.998c52.667 0 90.834 12.8311 114.501 38.498s35.5 66.834 35.5 123.501s-11.833 97.834 -35.5 123.501s-61.834 38.5 -114.501 38.5s-90.834 -12.667 -114.501 -38
s-35.5 -66.666 -35.5 -123.999c0 -56.667 11.833 -97.834 35.5 -123.501s61.834 -38.5 114.501 -38.5z" />
    <glyph glyph-name="colon" unicode=":" horiz-adv-x="222" 
d="M111 131c24.667 0 42.667 -5.5 54 -16.5s17 -29.167 17 -54.5c0 -24 -5.66699 -41.667 -17 -53s-29.333 -17 -54 -17s-42.667 5.5 -54 16.5s-17 28.833 -17 53.5c0 25.333 5.66699 43.5 17 54.5s29.333 16.5 54 16.5zM111 504c24.667 0 42.667 -5.66699 54 -17
s17 -29.333 17 -54c0 -24 -5.66699 -41.667 -17 -53s-29.333 -17 -54 -17s-42.667 5.5 -54 16.5s-17 28.833 -17 53.5s5.66699 42.667 17 54s29.333 17 54 17z" />
    <glyph glyph-name="semicolon" unicode=";" horiz-adv-x="222" 
d="M111 504c24.667 0 42.667 -5.66699 54 -17s17 -29.333 17 -54c0 -24 -5.66699 -41.667 -17 -53s-29.333 -17 -54 -17s-42.667 5.5 -54 16.5s-17 28.833 -17 53.5s5.66699 42.667 17 54s29.333 17 54 17zM105 131c13.333 0 25 -2.5 35 -7.5s17.5 -11 22.5 -18
s9 -16.167 12 -27.5s4.83301 -21.5 5.5 -30.5s1 -20.167 1 -33.5c0 -59.333 -10.5 -102.5 -31.5 -129.5s-54.5 -40.5 -100.5 -40.5v57c20.667 0 35.667 7 45 21s14 36.667 14 68c-23.333 0 -40.5 5.33301 -51.5 16s-16.5 28 -16.5 52c0 48.667 21.667 73 65 73z" />
    <glyph glyph-name="less" unicode="&#x3c;" horiz-adv-x="480" 
d="M40 311l400 189v-108l-301 -142l301 -142v-108l-400 189v122z" />
    <glyph glyph-name="equal" unicode="=" horiz-adv-x="647" 
d="M607 215v-88h-567v88h567zM607 403v-88h-567v88h567z" />
    <glyph glyph-name="greater" unicode="&#x3e;" horiz-adv-x="480" 
d="M40 500l400 -189v-122l-400 -189v108l301 142l-301 142v108z" />
    <glyph glyph-name="question" unicode="?" horiz-adv-x="542" 
d="M262 131c24.667 0 42.667 -5.66699 54 -17s17 -29.333 17 -54c0 -46.667 -23.667 -70 -71 -70c-24.667 0 -42.667 5.5 -54 16.5s-17 28.833 -17 53.5c0 25.333 5.5 43.5 16.5 54.5s29.167 16.5 54.5 16.5zM210 241c0 31.333 4.16406 58.834 12.4971 82.501
s19 41.667 32 54s26.833 24.166 41.5 35.499s28.5 21.166 41.5 29.499s23.667 20 32 35s12.5 32.5 12.5 52.5c0 35.333 -9.33301 61.166 -28 77.499s-48.334 24.5 -89.001 24.5c-41.333 0 -71.333 -11.333 -90 -34s-28 -58.667 -28 -108h-107
c0 80.667 18.333 139.167 55 175.5s95.334 54.5 176.001 54.5s139.334 -15 176.001 -45s55 -78.333 55 -145c0 -33.333 -6.66699 -61.166 -20 -83.499s-29.666 -39.666 -48.999 -51.999l-58 -36c-19.333 -11.667 -35.666 -27.167 -48.999 -46.5s-20 -43 -20 -71h-96z" />
    <glyph glyph-name="at" unicode="@" horiz-adv-x="867" 
d="M626 460l0.000976562 -269.999c0 -35.333 3.83301 -60.833 11.5 -76.5s19.834 -23.5 36.501 -23.5c20.667 0 35.5 12.667 44.5 38s13.5 66 13.5 122c0 113.333 -22.833 195.5 -68.5 246.5s-119.167 76.5 -220.5 76.5c-108.667 0 -187.334 -25.5 -236.001 -76.5
s-73 -133.167 -73 -246.5c0 -109.333 21 -188.833 63 -238.5s109.667 -74.5 203 -74.5c60.667 0 114.334 16.333 161.001 49v-84c-42 -27.333 -95.333 -41 -160 -41c-122.667 -0.666992 -211.834 30 -267.501 92s-83.5 161 -83.5 297c0 139.333 31.167 240.666 93.5 303.999
s162.166 95 299.499 95c130.667 0 225.667 -31.667 285 -95s89 -164.666 89 -303.999c0 -80 -11.667 -138.333 -35 -175s-59.333 -55 -108 -55c-63.333 0 -104.666 24.667 -123.999 74c-28 -36 -75.333 -54 -142 -54c-64.667 0 -111.667 16.667 -141 50
s-44 86.666 -44 159.999c0 76.667 14.667 132.5 44 167.5s76.666 52.5 141.999 52.5c58 0 103.333 -20.333 136 -61l15 51h66zM428.001 110.001c38 0 65.667 10.998 83 32.998s26 57.667 26 107c0 50.667 -8.5 87.334 -25.5 110.001s-44.833 34 -83.5 34
c-40.667 0 -69.834 -11.167 -87.501 -33.5s-26.5 -59.166 -26.5 -110.499c0 -50 8.83301 -85.833 26.5 -107.5s46.834 -32.5 87.501 -32.5z" />
    <glyph glyph-name="A" unicode="A" horiz-adv-x="702" 
d="M540 0l-50 157h-282l-52 -157h-126l240 700h174l228 -700h-132zM351 590l-114 -345h225z" />
    <glyph glyph-name="B" unicode="B" horiz-adv-x="690" 
d="M505 370l14.5 -3c6.33301 -1.33301 17.166 -6 32.499 -14s29 -17.5 41 -28.5s22.833 -27.333 32.5 -49s14.5 -46.167 14.5 -73.5c0 -70.667 -20.5 -122 -61.5 -154s-106.833 -48 -197.5 -48h-291v700h285c82 0 141.667 -14.5 179 -43.5s56 -75.167 56 -138.5
c0 -24 -3.66699 -45.5 -11 -64.5s-16 -33.5 -26 -43.5s-20.167 -18.333 -30.5 -25s-19.166 -11 -26.499 -13zM363 88c51.333 0 88.5 9 111.5 27s34.5 47 34.5 87c0 42.667 -11.5 73.5 -34.5 92.5s-60.167 28.5 -111.5 28.5h-148v-235h148zM215 612v-207h142
c42.667 0 73.667 8.5 93 25.5s29 43.833 29 80.5c0 35.333 -9.66699 61 -29 77s-50.333 24 -93 24h-142z" />
    <glyph glyph-name="C" unicode="C" horiz-adv-x="760" 
d="M585 232h125.001c-23.333 -88 -60.166 -152 -110.499 -192s-119.833 -60 -208.5 -60c-119.333 0 -206 29.333 -260 88s-81 152.667 -81 282s27 223.333 81 282s140.667 88 260 88c96.667 0 170.167 -20 220.5 -60s83.166 -104 98.499 -192h-125
c-13.333 54 -34.833 92.667 -64.5 116s-72.834 35 -129.501 35c-74 0 -127.5 -21.167 -160.5 -63.5s-49.5 -110.833 -49.5 -205.5s16.5 -163.167 49.5 -205.5s86.5 -63.5 160.5 -63.5c52.667 0 94 11.667 124 35s53.333 62 70 116z" />
    <glyph glyph-name="D" unicode="D" horiz-adv-x="732" 
d="M682 350c0 -122.667 -26.667 -211.667 -80 -267s-138.666 -83 -255.999 -83h-256v700h256c117.333 0 202.666 -27.667 255.999 -83s80 -144.333 80 -267zM341 605h-126v-510h126c73.333 0 126.5 20 159.5 60s49.5 105 49.5 195s-16.5 155 -49.5 195s-86.167 60 -159.5 60
z" />
    <glyph glyph-name="E" unicode="E" horiz-adv-x="616" 
d="M576 605h-361v-194h321v-94h-321v-222h361v-95h-486v700h486v-95z" />
    <glyph glyph-name="F" unicode="F" horiz-adv-x="606" 
d="M576 605h-361v-194h321v-94h-321v-317h-125v700h486v-95z" />
    <glyph glyph-name="G" unicode="G" horiz-adv-x="770" 
d="M395 307v88h325v-45c0 -129.333 -25.833 -223.333 -77.5 -282s-134.167 -88 -247.5 -88c-120.667 0 -208.334 29.333 -263.001 88s-82 152.667 -82 282s27.333 223.333 82 282s142.334 88 263.001 88c93.333 0 164.833 -19 214.5 -57s83.167 -99 100.5 -183h-120
c-11.333 48.667 -32.333 84 -63 106s-74.667 33 -132 33c-75.333 0 -129.833 -21.167 -163.5 -63.5s-50.5 -110.833 -50.5 -205.5s16.833 -163.167 50.5 -205.5s88.167 -63.5 163.5 -63.5c72.667 0 125 17.667 157 53s48 93 48 173h-205z" />
    <glyph glyph-name="H" unicode="H" horiz-adv-x="750" 
d="M534 700h126v-700h-126v323h-319v-323h-125v700h125v-277h319v277z" />
    <glyph glyph-name="I" unicode="I" horiz-adv-x="305" 
d="M90 700h125v-700h-125v700z" />
    <glyph glyph-name="J" unicode="J" horiz-adv-x="576" 
d="M40 210l0.00195312 28.999h119v-29c0 -45.333 8.33301 -78.166 25 -98.499s43.667 -30.5 81 -30.5s64.333 10 81 30s25 53 25 99v490h125v-490c0 -78.667 -18.333 -135.667 -55 -171s-95.334 -53 -176.001 -53c-78.667 0 -135.834 17.667 -171.501 53
s-53.5 92.333 -53.5 171z" />
    <glyph glyph-name="K" unicode="K" horiz-adv-x="686" 
d="M215 700v-291l268 291h153l-313 -340l333 -360h-153l-288 311v-311h-125v700h125z" />
    <glyph glyph-name="L" unicode="L" horiz-adv-x="576" 
d="M536 101v-101h-446v700h125v-599h321z" />
    <glyph glyph-name="M" unicode="M" horiz-adv-x="922" 
d="M90 0v700h170l203 -522l204 522h165v-700h-120v539l-212 -539h-79l-212 539v-539h-119z" />
    <glyph glyph-name="N" unicode="N" horiz-adv-x="762" 
d="M552 700h120v-700h-148l-315 537v-537h-119v700h147l315 -537v537z" />
    <glyph glyph-name="O" unicode="O" horiz-adv-x="790" 
d="M395 720c120.667 0 208.334 -29.333 263.001 -88s82 -152.667 82 -282s-27.333 -223.333 -82 -282s-142.334 -88 -263.001 -88s-208.334 29.333 -263.001 88s-82 152.667 -82 282s27.333 223.333 82 282s142.334 88 263.001 88zM395 619
c-75.333 0 -129.833 -21.167 -163.5 -63.5s-50.5 -110.833 -50.5 -205.5s16.833 -163.167 50.5 -205.5s88.167 -63.5 163.5 -63.5s129.833 21.167 163.5 63.5s50.5 110.833 50.5 205.5s-16.833 163.167 -50.5 205.5s-88.167 63.5 -163.5 63.5z" />
    <glyph glyph-name="P" unicode="P" horiz-adv-x="680" 
d="M640 478c0 -69.333 -20.833 -123.832 -62.5 -163.499s-105.834 -59.5 -192.501 -59.5h-170v-255h-125v700h295c86.667 0 150.834 -19.833 192.501 -59.5s62.5 -93.834 62.5 -162.501zM514 478.001c0 84.667 -45 127 -135 127h-164v-255h164c90 0 135 42.667 135 128z" />
    <glyph glyph-name="Q" unicode="Q" horiz-adv-x="790" 
d="M394 720c120 0 207.501 -29.333 262.501 -88s82.5 -152.667 82.5 -282c0 -142 -33 -241.667 -99 -299l100 -121h-116l-62 75c-45.333 -16.667 -101 -25 -167 -25c-120.667 0 -208.334 29.333 -263.001 88s-82 152.667 -82 282s27.167 223.333 81.5 282
s141.833 88 262.5 88zM608.001 350c0 95.333 -16.833 164.166 -50.5 206.499s-88.167 63.5 -163.5 63.5s-129.833 -21.167 -163.5 -63.5s-50.5 -110.833 -50.5 -205.5s16.833 -163.167 50.5 -205.5s88.167 -63.5 163.5 -63.5c36.667 0 67.667 4.33301 93 13l-144 175h116
l101 -123c32 42.667 48 110.334 48 203.001z" />
    <glyph glyph-name="R" unicode="R" horiz-adv-x="712" 
d="M386 261l-171.001 0.000976562v-261h-125v700h309c86.667 0 150.834 -19.833 192.501 -59.5s62.5 -93.834 62.5 -162.501c0 -110.667 -49 -179 -147 -205l155 -273h-133zM214.999 350.001h178c90.667 0 136 42.667 136 128c0 84.667 -45.333 127 -136 127h-178v-255z" />
    <glyph glyph-name="S" unicode="S" horiz-adv-x="650" 
d="M179 520c0 -24 10.3359 -43.8301 31.0029 -59.4971s46.667 -26.834 78 -33.501s65.166 -15.334 101.499 -26.001s70.166 -22.334 101.499 -35.001s57.333 -33.334 78 -62.001s31 -63.667 31 -105c0 -76.667 -21.833 -132.334 -65.5 -167.001s-113.5 -52 -209.5 -52
c-96.667 0 -166.667 17.333 -210 52s-65 90.667 -65 168h113c0 -46.667 12.667 -80.334 38 -101.001s66.666 -31 123.999 -31c55.333 0 95 8.83301 119 26.5s36 46.167 36 85.5c0 32.667 -14.5 58.334 -43.5 77.001s-64 32.667 -105 42s-82 19.833 -123 31.5
s-76 31.5 -105 59.5s-43.5 65 -43.5 111c0 76.667 21 132.334 63 167.001s109.333 52 202 52s160 -17.5 202 -52.5s63 -90.833 63 -167.5h-114c0 46.667 -11.833 80.334 -35.5 101.001s-62.167 31 -115.5 31c-52 0 -89.333 -8.66699 -112 -26s-34 -46 -34 -86z" />
    <glyph glyph-name="T" unicode="T" horiz-adv-x="631" 
d="M591 700v-101h-213v-599h-125v599h-213v101h551z" />
    <glyph glyph-name="U" unicode="U" horiz-adv-x="730" 
d="M80 256l-0.000976562 444h125v-444c0 -61.333 12.5 -105.833 37.5 -133.5s65.833 -41.5 122.5 -41.5c56 0 96.5 13.833 121.5 41.5s37.5 72.167 37.5 133.5v444h126v-444c0 -96.667 -22.667 -166.834 -68 -210.501s-117.666 -65.5 -216.999 -65.5
c-100 0 -172.5 21.833 -217.5 65.5s-67.5 113.834 -67.5 210.501z" />
    <glyph glyph-name="V" unicode="V" horiz-adv-x="696" 
d="M156 700l192 -615l192 615h126l-228 -700h-180l-228 700h126z" />
    <glyph glyph-name="W" unicode="W" horiz-adv-x="1022" 
d="M436 700h150l127 -583l143 583h126l-184 -700h-162l-130 584l-120 -584h-162l-184 700h126l143 -583z" />
    <glyph glyph-name="X" unicode="X" horiz-adv-x="685" 
d="M179 700l166 -268l168 268h132l-218 -340l228 -360h-138l-173 288l-181 -288h-133l227 360l-217 340h139z" />
    <glyph glyph-name="Y" unicode="Y" horiz-adv-x="665" 
d="M395 275v-275h-119v275l-246 425h138l168 -309l167 309h132z" />
    <glyph glyph-name="Z" unicode="Z" horiz-adv-x="627" 
d="M187 95h400v-95h-547v79l390 526h-380v95h527v-79z" />
    <glyph glyph-name="bracketleft" unicode="[" horiz-adv-x="316" 
d="M90 700h205v-88h-110v-724h111v-88h-206v900z" />
    <glyph glyph-name="backslash" unicode="\" horiz-adv-x="382" 
d="M20 700h102l240 -700h-102z" />
    <glyph glyph-name="bracketright" unicode="]" horiz-adv-x="316" 
d="M20 700h206v-900h-206v88h110v724h-110v88z" />
    <glyph glyph-name="asciicircum" unicode="^" horiz-adv-x="490" 
d="M304 670l146 -350h-91l-114 273l-114 -273h-91l146 350h118z" />
    <glyph glyph-name="underscore" unicode="_" horiz-adv-x="520" 
d="M520 0v-88h-520v88h520z" />
    <glyph glyph-name="grave" unicode="`" horiz-adv-x="300" 
d="M156 700l104 -150h-93l-127 150h116z" />
    <glyph glyph-name="a" unicode="a" horiz-adv-x="550" 
d="M386 50c-31.333 -40 -85 -60.001 -161 -60.001c-64.667 0 -111.667 12.333 -141 37s-44 64.334 -44 119.001c0 59.333 18.5 102.5 55.5 129.5s96.167 40.5 177.5 40.5h103v24c0 35.333 -8.16699 60.833 -24.5 76.5s-42.833 23.5 -79.5 23.5c-37.333 0 -64 -7 -80 -21
s-24 -37 -24 -69h-108c0 56 17 96.667 51 122s88.667 38 164 38c74.667 0 129.167 -14.5 163.5 -43.5s51.5 -75.167 51.5 -138.5v-328h-90zM376 246.999l-81 0.000976562c-21.333 0 -39 -0.833008 -53 -2.5s-28.5 -5.5 -43.5 -11.5s-26.333 -15.833 -34 -29.5
s-11.5 -30.834 -11.5 -51.501c0 -28.667 8 -49.167 24 -61.5s42 -18.5 78 -18.5c40 0 69.667 9.5 89 28.5s30 49.167 32 90.5v56z" />
    <glyph glyph-name="b" unicode="b" horiz-adv-x="600" 
d="M344 -10v1c-78 0 -134 22 -168 66l-16 -56h-90v700h113v-248c34 38 87.667 57 161 57c75.333 0 130.166 -20.667 164.499 -62s51.5 -107.333 51.5 -198s-17.167 -156.667 -51.5 -198s-89.166 -62 -164.499 -62zM315 79c46 0 79.333 13.667 100 41s31 71 31 131
s-10.333 103.667 -31 131s-54 41 -100 41s-79.5 -13.667 -100.5 -41s-31.5 -71 -31.5 -131s10.5 -103.667 31.5 -131s54.5 -41 100.5 -41z" />
    <glyph glyph-name="c" unicode="c" 
d="M416 179h114c-8.66699 -66 -31.5 -114 -68.5 -144s-92.5 -45 -166.5 -45c-89.333 0 -154.166 20.5 -194.499 61.5s-60.5 107.167 -60.5 198.5s20.167 157.5 60.5 198.5s105.166 61.5 194.499 61.5c74 0 129.5 -15 166.5 -45s59.833 -78 68.5 -144h-114
c-6.66699 35.333 -19.667 61 -39 77s-46.666 24 -81.999 24c-49.333 0 -85.333 -13.667 -108 -41s-34 -71 -34 -131s11.333 -103.667 34 -131s58.667 -41 108 -41c35.333 0 62.666 8 81.999 24s32.333 41.667 39 77z" />
    <glyph glyph-name="d" unicode="d" horiz-adv-x="600" 
d="M423 56c-34 -44 -90 -66 -168 -66c-75.333 0 -130 20.5 -164 61.5s-51 107.167 -51 198.5s17 157.5 51 198.5s88.667 61.5 164 61.5c73.333 0 127 -19 161 -57v247h114v-700h-90zM285 78c46 0 79.333 13.667 100 41s31 71 31 131s-10.333 103.667 -31 131s-54 41 -100 41
s-79.5 -13.667 -100.5 -41s-31.5 -71 -31.5 -131s10.5 -103.667 31.5 -131s54.5 -41 100.5 -41z" />
    <glyph glyph-name="e" unicode="e" 
d="M530 204h-378c4.66699 -48 17.5 -83 38.5 -105s52.5 -33 94.5 -33c33.333 0 59 6.66699 77 20s31.333 35.333 40 66h108c-11.333 -56.667 -35 -97.834 -71 -123.501s-87.333 -38.5 -154 -38.5c-86 0 -148.333 20.5 -187 61.5s-58 107.167 -58 198.5
s19.333 157.5 58 198.5s101 61.5 187 61.5c85.333 0 147.5 -21.167 186.5 -63.5s58.5 -110.166 58.5 -203.499v-39zM284 434c-44 0 -76.667 -12.833 -98 -38.5s-33.333 -66.5 -36 -122.5h265c0 57.333 -10.333 98.5 -31 123.5s-54 37.5 -100 37.5z" />
    <glyph glyph-name="f" unicode="f" horiz-adv-x="420" 
d="M305 612c-42 0 -63.001 -19 -63.001 -57v-55h148v-76h-148v-424h-114v424h-88v76h88v55c0 45.333 12.833 80.833 38.5 106.5s61.834 38.5 108.501 38.5h115v-88h-85z" />
    <glyph glyph-name="g" unicode="g" horiz-adv-x="600" 
d="M255 -10c-75.333 0 -129.999 20.667 -163.999 62s-51 107.666 -51 198.999c0 90.667 17 156.5 51 197.5s88.667 61.5 164 61.5c79.333 0 136 -22.667 170 -68l15 58h90v-450c0 -90.667 -19.5 -156.667 -58.5 -198s-101.167 -62 -186.5 -62
c-69.333 0 -121.833 12.833 -157.5 38.5s-58.167 66.834 -67.5 123.501h107c6.66699 -30.667 18.667 -52.667 36 -66s42.666 -20 75.999 -20c48.667 0 83.667 13 105 39s32 68 32 126v16c-34 -38 -87.667 -57 -161 -57zM285.001 79c46.667 0 80.167 13.333 100.5 40
s30.5 70.667 30.5 132c0 60.667 -10.167 104.5 -30.5 131.5s-53.833 40.5 -100.5 40.5s-80.334 -13.5 -101.001 -40.5s-31 -70.833 -31 -131.5s10.333 -104.5 31 -131.5s54.334 -40.5 101.001 -40.5z" />
    <glyph glyph-name="h" unicode="h" horiz-adv-x="580" 
d="M70 0h-0.998047v700h113v-240c31.333 33.333 79.666 50 144.999 50c67.333 0 116.166 -19 146.499 -57s45.5 -99 45.5 -183v-270h-114v270c0 54 -8.33301 92.833 -25 116.5s-44 35.5 -82 35.5c-40.667 0 -70.167 -12 -88.5 -36s-27.5 -62.667 -27.5 -116v-270h-112z" />
    <glyph glyph-name="i" unicode="i" horiz-adv-x="282" 
d="M198 0h-114v500h114v-500zM141 715c47.333 0 71.001 -22.333 71.001 -67c0 -23.333 -5.83301 -40.5 -17.5 -51.5s-29.834 -16.5 -54.501 -16.5s-42.5 5.5 -53.5 16.5s-16.5 28.167 -16.5 51.5s5.66699 40.333 17 51s29.333 16 54 16z" />
    <glyph glyph-name="j" unicode="j" horiz-adv-x="278" 
d="M6 -92c24 0 42.334 6.16797 55.001 18.501s19 29.166 19 50.499v523h114v-535c0 -45.333 -12.833 -80.833 -38.5 -106.5s-61.834 -38.5 -108.501 -38.5h-107v88h66zM137.001 715.001c24.667 0 42.667 -5.33301 54 -16s17 -27.667 17 -51s-5.66699 -40.5 -17 -51.5
s-29.333 -16.5 -54 -16.5c-47.333 0 -71 22.667 -71 68c0 23.333 5.66699 40.333 17 51s29.333 16 54 16z" />
    <glyph glyph-name="k" unicode="k" horiz-adv-x="558" 
d="M183 700v-405l200 205h135l-233 -240l253 -260h-135l-220 225v-225h-113v700h113z" />
    <glyph glyph-name="l" unicode="l" horiz-adv-x="253" 
d="M70 0v700h113v-700h-113z" />
    <glyph glyph-name="m" unicode="m" horiz-adv-x="859" 
d="M182 270l0.000976562 -270h-112v500h90l17 -64c26 48.667 73.667 73 143 73c70.667 0 119 -27 145 -81c27.333 54.667 79.333 82 156 82c62.667 0 108 -19 136 -57s42 -99 42 -183v-270h-114v270c0 20 -1 37.5 -3 52.5s-5.83301 30.833 -11.5 47.5
s-15.167 29.5 -28.5 38.5s-30 13.5 -50 13.5c-36 0 -61.833 -11.833 -77.5 -35.5s-23.5 -62.5 -23.5 -116.5v-270h-114v270c0 53.333 -7.33301 92 -22 116s-38.334 36 -71.001 36c-36 0 -62 -12 -78 -36s-24 -62.667 -24 -116z" />
    <glyph glyph-name="n" unicode="n" horiz-adv-x="580" 
d="M175 452c30.667 38.667 81.668 58 153.001 58c67.333 0 116.166 -19 146.499 -57s45.5 -99 45.5 -183v-270h-114v270c0 54 -8.33301 92.833 -25 116.5s-44 35.5 -82 35.5c-40.667 0 -70.167 -12 -88.5 -36s-27.5 -62.667 -27.5 -116v-270h-113v500h90z" />
    <glyph glyph-name="o" unicode="o" horiz-adv-x="590" 
d="M295 510c89.333 0 154.166 -20.667 194.499 -62s60.5 -107.333 60.5 -198s-20.167 -156.667 -60.5 -198s-105.166 -62 -194.499 -62s-154.166 20.5 -194.499 61.5s-60.5 107.167 -60.5 198.5s20.167 157.5 60.5 198.5s105.166 61.5 194.499 61.5zM153 250
c0 -60.667 11.167 -104.5 33.5 -131.5s58.5 -40.5 108.5 -40.5s86 13.5 108 40.5s33 70.833 33 131.5s-11 104.5 -33 131.5s-58 40.5 -108 40.5c-50.667 0 -87 -13.333 -109 -40s-33 -70.667 -33 -132z" />
    <glyph glyph-name="p" unicode="p" horiz-adv-x="600" 
d="M344 510l0.000976562 0.999023c75.333 0 130.166 -20.667 164.499 -62s51.5 -107.333 51.5 -198c0 -91.333 -17.167 -157.666 -51.5 -198.999s-89.166 -62 -164.499 -62c-72.667 0 -126.334 19.333 -161.001 58v-248h-113v700h90l16 -56c34 44 90 66 168 66z
M315.001 422.999c-46 0 -79.5 -13.667 -100.5 -41s-31.5 -71 -31.5 -131s10.5 -103.667 31.5 -131s54.5 -41 100.5 -41s79.333 13.667 100 41s31 71 31 131s-10.333 103.667 -31 131s-54 41 -100 41z" />
    <glyph glyph-name="q" unicode="q" horiz-adv-x="600" 
d="M40 250h-1c0 91.333 17 157.5 51 198.5s88.667 61.5 164 61.5c78.667 0 135 -22 169 -66l17 56h90v-700h-114v247c-34 -38 -87.667 -57 -161 -57c-75.333 0 -130 20.5 -164 61.5s-51 107.167 -51 198.5zM283 422c-46 0 -79.5 -13.667 -100.5 -41s-31.5 -71 -31.5 -131
s10.5 -103.667 31.5 -131s54.5 -41 100.5 -41s79.333 13.667 100 41s31 71 31 131s-10.333 103.667 -31 131s-54 41 -100 41z" />
    <glyph glyph-name="r" unicode="r" horiz-adv-x="393" 
d="M183 250l-0.000976562 -249.999h-113v500h90l16 -52c28 41.333 69.333 62 124 62h63v-101h-63c-45.333 0 -76.166 -11.333 -92.499 -34s-24.5 -64.334 -24.5 -125.001z" />
    <glyph glyph-name="s" unicode="s" horiz-adv-x="504" 
d="M152 373c0 -17.333 7.66992 -31.3311 23.0029 -41.998s34.666 -18 57.999 -22s48.333 -9.16699 75 -15.5s51.667 -13.833 75 -22.5s42.666 -23.334 57.999 -44.001s23 -46.667 23 -78c0 -55.333 -17.333 -95.666 -52 -120.999s-90.334 -38 -167.001 -38
c-72 0 -124.167 12.667 -156.5 38s-48.5 66 -48.5 122h107c0 -32 8 -55 24 -69s42 -21 78 -21s61.833 5.83301 77.5 17.5s23.5 31.167 23.5 58.5c0 22.667 -10.5 39.834 -31.5 51.501s-46.5 20.167 -76.5 25.5s-60 11.666 -90 18.999s-55.5 21.666 -76.5 42.999
s-31.5 50 -31.5 86c0 52 16.167 89.833 48.5 113.5s84.5 35.5 156.5 35.5c69.333 0 119.833 -11.833 151.5 -35.5s47.5 -61.834 47.5 -114.501h-102c0 28.667 -7.5 49.167 -22.5 61.5s-39.833 18.5 -74.5 18.5s-59.5 -5.16699 -74.5 -15.5s-22.5 -27.5 -22.5 -51.5z" />
    <glyph glyph-name="t" unicode="t" horiz-adv-x="402" 
d="M224 157c0 -21.333 6.33203 -38.167 18.999 -50.5s31.334 -18.5 56.001 -18.5h73v-88h-114c-47.333 -0 -83.833 12.833 -109.5 38.5s-38.5 61.167 -38.5 106.5v279h-80v76h80v122h114v-122h148v-76h-148v-267z" />
    <glyph glyph-name="u" unicode="u" horiz-adv-x="580" 
d="M399 48c-30.667 -38.667 -81.668 -58 -153.001 -58c-67.333 0 -116.166 19 -146.499 57s-45.5 99 -45.5 183v270h114v-270c0 -54 8.33301 -92.833 25 -116.5s44 -35.5 82 -35.5c40.667 0 70.167 12 88.5 36s27.5 62.667 27.5 116v270h113v-500h-90z" />
    <glyph glyph-name="v" unicode="v" horiz-adv-x="545" 
d="M275 76l129 424h121l-168 -500h-168l-169 500h121z" />
    <glyph glyph-name="w" unicode="w" horiz-adv-x="857" 
d="M670 0l-1 -1h-138l-103 419l-103 -418h-138l-157 500h115l116 -410l101 410h138l96 -411l116 411h115z" />
    <glyph glyph-name="x" unicode="x" horiz-adv-x="521" 
d="M149 500l110 -176l110 176h122l-161 -240l171 -260h-122l-119 195l-119 -195h-121l170 260l-160 240h119z" />
    <glyph glyph-name="y" unicode="y" horiz-adv-x="531" 
d="M235 4l3 8.99902l-218 487h109l154 -354l119 354h109l-190 -533c-18.667 -51.333 -41.667 -88.666 -69 -111.999s-62.333 -35 -105 -35h-64v76h58c19.333 0 36.5 8.5 51.5 25.5s29.167 44.5 42.5 82.5z" />
    <glyph glyph-name="z" unicode="z" horiz-adv-x="487" 
d="M166 82h291v-82h-427v67l282 351h-272v82h407v-67z" />
    <glyph glyph-name="braceleft" unicode="{" horiz-adv-x="366" 
d="M198 116l-0.000976562 -159.001c0 -24 7.5 -41.5 22.5 -52.5s39.167 -16.5 72.5 -16.5h53v-88h-59c-65.333 0 -112.666 12.167 -141.999 36.5s-44 63.833 -44 118.5v191c0 25.333 -4.83301 43.5 -14.5 54.5s-25.167 16.5 -46.5 16.5v76c21.333 0 36.833 5.5 46.5 16.5
s14.5 28.833 14.5 53.5v183c0 54 13.667 93.167 41 117.5s71.333 36.5 132 36.5h72v-88h-53c-33.333 0 -57.5 -5.5 -72.5 -16.5s-22.5 -28.5 -22.5 -52.5v-151c0 -76 -21 -121.667 -63 -137c42 -15.333 63 -61.666 63 -138.999z" />
    <glyph glyph-name="bar" unicode="|" horiz-adv-x="276" 
d="M90 700h96v-900h-96v900z" />
    <glyph glyph-name="braceright" unicode="}" horiz-adv-x="366" 
d="M190 116c0 77.333 20.999 123.667 62.999 139c-42 15.333 -63 61 -63 137v151c0 24 -7.5 41.5 -22.5 52.5s-39.167 16.5 -72.5 16.5h-53v88h72c60.667 0 104.667 -12.167 132 -36.5s41 -63.5 41 -117.5v-183c0 -24.667 4.83301 -42.5 14.5 -53.5s25.167 -16.5 46.5 -16.5
v-76c-21.333 0 -36.833 -5.5 -46.5 -16.5s-14.5 -29.167 -14.5 -54.5v-191c0 -54.667 -14.667 -94.167 -44 -118.5s-76.666 -36.5 -141.999 -36.5h-59v88h53c33.333 0 57.5 5.5 72.5 16.5s22.5 28.5 22.5 52.5v159z" />
    <glyph glyph-name="asciitilde" unicode="~" horiz-adv-x="680" 
d="M40 219v85c27.333 26 56.5 42.833 87.5 50.5s60.833 8 89.5 1s57.667 -17.167 87 -30.5l87.5 -40c29 -13.333 57.167 -23.666 84.5 -30.999s55.333 -7.33301 84 0s55.334 23.666 80.001 48.999v-84c-27.333 -26.667 -56.5 -44 -87.5 -52s-60.667 -8.5 -89 -1.5
s-57.333 17 -87 30l-88 39.5c-29 13.333 -57.167 23.833 -84.5 31.5s-55.333 8 -84 1s-55.334 -23.167 -80.001 -48.5z" />
    <glyph glyph-name="space_" unicode="&#xa0;" horiz-adv-x="300" 
 />
    <glyph glyph-name="exclamdown" unicode="&#xa1;" horiz-adv-x="282" 
d="M207 -200h-119v190l23 258h73l23 -258v-190zM140 365c-24.667 0 -42.498 5.66699 -53.498 17s-16.5 29.333 -16.5 54s5.5 42.5 16.5 53.5s28.833 16.5 53.5 16.5c25.333 0 43.666 -5.5 54.999 -16.5s17 -28.833 17 -53.5s-5.83301 -42.667 -17.5 -54
s-29.834 -17 -54.501 -17z" />
    <glyph glyph-name="cent" unicode="&#xa2;" horiz-adv-x="569" 
d="M250 -96v88c-73.333 6.66699 -126.666 30.5 -159.999 71.5s-50 103.167 -50 186.5s16.667 145.5 50 186.5s86.666 64.833 159.999 71.5v82h90v-82c58 -5.33301 102.167 -23 132.5 -53s49.166 -74.667 56.499 -134h-114c-6.66699 35.333 -19.667 61 -39 77
s-46.666 24 -81.999 24c-49.333 0 -85.333 -13.667 -108 -41s-34 -71 -34 -131s11.333 -103.667 34 -131s58.667 -41 108 -41c35.333 0 62.666 8 81.999 24s32.333 41.667 39 77h114c-7.33301 -59.333 -26.166 -104 -56.499 -134s-74.5 -47.667 -132.5 -53v-88h-90z" />
    <glyph glyph-name="sterling" unicode="&#xa3;" horiz-adv-x="661" 
d="M621 95l0.00195312 -95h-571v111c35.333 13.333 61 32.666 77 57.999s24 60 24 104v40h-101v88h101v99c0 74.667 16.667 130 50 166s86 54 158 54c81.333 0 140.333 -16.833 177 -50.5s55 -90.167 55 -169.5h-108c0 48.667 -8.33301 83.834 -25 105.501
s-44 32.5 -82 32.5c-42.667 0 -71.834 -11.5 -87.501 -34.5s-23.5 -57.5 -23.5 -103.5v-99h257v-88h-257v-40c0 -48 -8.83301 -86 -26.5 -114s-45.834 -49.333 -84.501 -64h467z" />
    <glyph glyph-name="currency" unicode="&#xa4;" horiz-adv-x="609" 
d="M557 484l-0.999023 -1.00098l-47 -49c33.333 -41.333 50 -103 50 -185s-16.667 -143.667 -50 -185l48 -49l-58 -61l-58 59c-34.667 -15.333 -80 -23 -136 -23s-101.333 7.66699 -136 23l-58 -59l-59 61l48 49c-33.333 41.333 -50 103 -50 185
c0 82.667 16 144.334 48 185.001l-48 49l58 62l58 -59c37.333 16 83.666 24 138.999 24c56 0 101.333 -7.66699 136 -23l58 59zM162.001 249.999c0 -60.667 11.167 -104.5 33.5 -131.5s58.5 -40.5 108.5 -40.5s86 13.5 108 40.5s33 70.833 33 131.5s-11 104.5 -33 131.5
s-58 40.5 -108 40.5c-50.667 0 -87 -13.333 -109 -40s-33 -70.667 -33 -132z" />
    <glyph glyph-name="yen" unicode="&#xa5;" horiz-adv-x="685" 
d="M405 275v-74h209v-82h-209v-119h-119v119h-214v82h214v74l-12 21h-202v82h154l-186 322h138l168 -309l167 309h132l-182 -322h151v-82h-197z" />
    <glyph glyph-name="section" unicode="&#xa7;" horiz-adv-x="647" 
d="M207 539c0 -28 13.3311 -50.4961 39.998 -67.4961s59.167 -30.667 97.5 -41s76.666 -21.833 114.999 -34.5s70.833 -33.167 97.5 -61.5s40 -64.5 40 -108.5c0 -72.667 -25.667 -122 -77 -148c18 -25.333 27 -56.333 27 -93c0 -72 -18.667 -124.167 -56 -156.5
s-97.333 -48.5 -180 -48.5c-77.333 0 -133.5 17.333 -168.5 52s-52.5 90.667 -52.5 168h96c0 -46.667 9.83301 -80.334 29.5 -101.001s51.5 -31 95.5 -31c43.333 0 74.5 7.66699 93.5 23s28.5 40.333 28.5 75c0 30 -13.167 53.833 -39.5 71.5s-58.333 31 -96 40
s-75.167 19.167 -112.5 30.5s-69.166 30.666 -95.499 57.999s-39.5 63 -39.5 107c0 72 29.333 120 88 144c-26 29.333 -39 65.666 -39 108.999c0 68 17.333 117.5 52 148.5s90.334 46.5 167.001 46.5c76 0 131.333 -17.5 166 -52.5s52 -90.833 52 -167.5h-97
c0 47.333 -9.33301 81.166 -28 101.499s-49.667 30.5 -93 30.5c-39.333 0 -67.666 -7.33301 -84.999 -22s-26 -38.667 -26 -72zM487.998 215.004c0 27.333 -12.8311 48.832 -38.498 64.499s-65.167 30.834 -118.5 45.501s-91.666 27.334 -114.999 38.001
c-39.333 -12 -59 -38 -59 -78c0 -22.667 10.167 -41.5 30.5 -56.5s43.666 -25.833 69.999 -32.5s58.666 -15.334 96.999 -26.001s69.166 -22 92.499 -34c27.333 14 41 40.333 41 79z" />
    <glyph glyph-name="dieresis" unicode="&#xa8;" horiz-adv-x="420" 
d="M110 735c24.667 0 42.832 -5.66699 54.499 -17s17.5 -29.333 17.5 -54s-5.66699 -42.5 -17 -53.5s-29.666 -16.5 -54.999 -16.5c-24.667 0 -42.5 5.5 -53.5 16.5s-16.5 28.833 -16.5 53.5s5.5 42.667 16.5 54s28.833 17 53.5 17zM308.998 735
c24.667 0 42.667 -5.66699 54 -17s17 -29.333 17 -54s-5.66699 -42.5 -17 -53.5s-29.333 -16.5 -54 -16.5s-42.667 5.5 -54 16.5s-17 28.833 -17 53.5c0 25.333 5.66699 43.5 17 54.5s29.333 16.5 54 16.5z" />
    <glyph glyph-name="copyright" unicode="&#xa9;" horiz-adv-x="863" 
d="M431 720c134 0 231.167 -29.333 291.5 -88s90.5 -152.667 90.5 -282s-30.167 -223.333 -90.5 -282s-157.5 -88 -291.5 -88c-133.333 0 -230.166 29.333 -290.499 88s-90.5 152.667 -90.5 282s30.167 223.333 90.5 282s157.166 88 290.499 88zM431 56
c106.667 0 184 23.333 232 70s72 121.334 72 224.001s-24 177.334 -72 224.001s-125.333 70 -232 70c-106 0 -183 -23.333 -231 -70s-72 -121.334 -72 -224.001s24 -177.334 72 -224.001s125 -70 231 -70zM432 550c63.333 0 110.833 -12.6689 142.5 -38.002
s51.167 -66 58.5 -122h-90c-6 32.667 -17.667 55.834 -35 69.501s-43 20.5 -77 20.5c-40.667 0 -70 -10.167 -88 -30.5s-27 -53.5 -27 -99.5c0 -44.667 8.33301 -77.5 25 -98.5s46.667 -31.5 90 -31.5c34 0 59.667 6.83301 77 20.5s29 36.834 35 69.501h90
c-7.33301 -56 -26.833 -96.667 -58.5 -122s-79.5 -38 -143.5 -38c-72 0 -124.167 15.833 -156.5 47.5s-48.5 82.5 -48.5 152.5s16.333 120.833 49 152.5s85 47.5 157 47.5z" />
    <glyph glyph-name="guillemotleft" unicode="&#xab;" horiz-adv-x="485" 
d="M164 450h109l-119 -190l119 -200h-109l-124 200zM336 450h109l-119 -190l119 -200h-109l-124 200z" />
    <glyph glyph-name="logicalnot" unicode="&#xac;" horiz-adv-x="610" 
d="M560 311v-218h-90v130h-430v88h520z" />
    <glyph glyph-name="registered" unicode="&#xae;" horiz-adv-x="863" 
d="M431 720c134 0 231.167 -29.333 291.5 -88s90.5 -152.667 90.5 -282s-30.167 -223.333 -90.5 -282s-157.5 -88 -291.5 -88c-133.333 0 -230.166 29.333 -290.499 88s-90.5 152.667 -90.5 282s30.167 223.333 90.5 282s157.166 88 290.499 88zM431 56
c107.333 0 184.833 23.167 232.5 69.5s71.5 121.166 71.5 224.499s-23.833 178.166 -71.5 224.499s-125.167 69.5 -232.5 69.5c-106.667 0 -183.834 -23.167 -231.501 -69.5s-71.5 -121.166 -71.5 -224.499s23.833 -178.166 71.5 -224.499s124.834 -69.5 231.501 -69.5z
M603 415h1.00098c0 -60 -26.667 -96.667 -80 -110l89 -134h-80l-80 128h-101v-128h-71l-1 360h176c51.333 0 88.666 -9.16699 111.999 -27.5s35 -47.833 35 -88.5zM353.001 473v-118h104c26.667 0 45.667 4.5 57 13.5s17 24.167 17 45.5s-5.66699 36.5 -17 45.5
s-30.333 13.5 -57 13.5h-104z" />
    <glyph glyph-name="macron" unicode="&#xaf;" horiz-adv-x="420" 
d="M40 608v69h340v-69h-340z" />
    <glyph glyph-name="degree" unicode="&#xb0;" horiz-adv-x="460" 
d="M40 520c0 66.667 15 115 45 145s78.333 45 145 45s115 -15 145 -45s45 -78.333 45 -145s-15 -115 -45 -145s-78.333 -45 -145 -45s-115 15 -145 45s-45 78.333 -45 145zM112 520c0 -42.667 9.16699 -73.334 27.5 -92.001s48.5 -28 90.5 -28
c41.333 0 71.166 9.33301 89.499 28s27.5 49.334 27.5 92.001s-9.16699 73.334 -27.5 92.001s-48.166 28 -89.499 28c-42 0 -72.167 -9.33301 -90.5 -28s-27.5 -49.334 -27.5 -92.001z" />
    <glyph glyph-name="plusminus" unicode="&#xb1;" horiz-adv-x="600" 
d="M40 0v88h520v-88h-520zM560 368v-88h-214v-145h-91v145h-215v88h215v132h91v-132h214z" />
    <glyph glyph-name="acute" unicode="&#xb4;" horiz-adv-x="300" 
d="M40 550l104 150h116l-128 -150h-92z" />
    <glyph glyph-name="paragraph" unicode="&#xb6;" horiz-adv-x="840" 
d="M671 612v-812h-96v812h-211v-812h-96v500c-76.667 0 -132.167 15.833 -166.5 47.5s-51.5 82.5 -51.5 152.5s19.833 120.833 59.5 152.5s103.167 47.5 190.5 47.5h470v-88h-99z" />
    <glyph glyph-name="periodcentered" unicode="&#xb7;" horiz-adv-x="222" 
d="M110 327c25.333 0 43.666 -5.5 54.999 -16.5s17 -28.833 17 -53.5s-5.66699 -42.5 -17 -53.5s-29.666 -16.5 -54.999 -16.5c-24.667 0 -42.5 5.5 -53.5 16.5s-16.5 28.833 -16.5 53.5s5.5 42.5 16.5 53.5s28.833 16.5 53.5 16.5z" />
    <glyph glyph-name="cedilla" unicode="&#xb8;" horiz-adv-x="281" 
d="M101 25h63.002l-21 -76l10.5 -2.5c4.33301 -1 12.166 -3.66699 23.499 -8s21.333 -9.5 30 -15.5s16.5 -14.5 23.5 -25.5s10.5 -23.5 10.5 -37.5c0 -35.333 -17.333 -62.5 -52 -81.5s-84.334 -28.5 -149.001 -28.5v51c78 0 117 19.667 117 59c0 16 -9.5 27.5 -28.5 34.5
s-39.833 10.5 -62.5 10.5z" />
    <glyph glyph-name="guillemotright" unicode="&#xbb;" horiz-adv-x="490" 
d="M40 450h110l128 -190l-128 -200h-110l123 200zM212 450h110l128 -190l-128 -200h-110l123 200z" />
    <glyph glyph-name="questiondown" unicode="&#xbf;" horiz-adv-x="542" 
d="M332 259c0 -37.333 -5.99805 -68.833 -17.998 -94.5s-26.333 -45 -43 -58s-33.5 -25 -50.5 -36s-31.5 -24.667 -43.5 -41s-18 -36.166 -18 -59.499c0 -35.333 9.33301 -61.166 28 -77.499s48.334 -24.5 89.001 -24.5c41.333 0 71.333 11.333 90 34s28 58.667 28 108h108
c0 -80.667 -18.333 -139.167 -55 -175.5s-95.334 -54.5 -176.001 -54.5s-139.334 15 -176.001 45s-55 78.333 -55 145c0 33.333 6.66699 61.166 20 83.499s29.5 39.666 48.5 51.999l57.5 36c19.333 11.667 35.666 27 48.999 46s20 42.833 20 71.5h97zM284.002 365
c-24.667 0 -42.667 5.66699 -54 17s-17 29.333 -17 54s5.66699 42.5 17 53.5s29.333 16.5 54 16.5s42.5 -5.5 53.5 -16.5s16.5 -28.833 16.5 -53.5s-5.5 -42.667 -16.5 -54s-28.833 -17 -53.5 -17z" />
    <glyph glyph-name="Agrave" unicode="&#xc0;" horiz-adv-x="702" 
d="M540 0l-50 157h-282l-52 -157h-126l240 700h174l228 -700h-132zM351 590l-114 -345h225zM412 750h-87l-123 120h104z" />
    <glyph glyph-name="Aacute" unicode="&#xc1;" horiz-adv-x="702" 
d="M540 0l-50 157h-282l-52 -157h-126l240 700h174l228 -700h-132zM351 590l-114 -345h225zM293 750l100 120h111l-117 -120h-94z" />
    <glyph glyph-name="Acircumflex" unicode="&#xc2;" horiz-adv-x="702" 
d="M540 0l-50 157h-282l-52 -157h-126l240 700h174l228 -700h-132zM351 590l-114 -345h225zM502 750h-81l-68 69l-69 -69h-81l93 120h113z" />
    <glyph glyph-name="Atilde" unicode="&#xc3;" horiz-adv-x="702" 
d="M540 0l-50 157h-282l-52 -157h-126l240 700h174l228 -700h-132zM351 590l-114 -345h225zM191 760c0 33.333 8.83008 59.333 26.4971 78s39.834 28 66.501 28c23.333 0 44 -5 62 -15s33.833 -19.833 47.5 -29.5s26.834 -14.5 39.501 -14.5c9.33301 0 17 3.83301 23 11.5
s9 18.167 9 31.5h49c0 -34 -8.66699 -60.167 -26 -78.5s-39.666 -27.5 -66.999 -27.5c-23.333 0 -44 5 -62 15s-33.667 19.833 -47 29.5s-26.333 14.5 -39 14.5c-10 0 -18 -3.83301 -24 -11.5s-9 -18.167 -9 -31.5h-49z" />
    <glyph glyph-name="Adieresis" unicode="&#xc4;" horiz-adv-x="702" 
d="M540 0l-50 157h-282l-52 -157h-126l240 700h174l228 -700h-132zM351 590l-114 -345h225zM247 863c25.333 0 43.5 -4.83301 54.5 -14.5s16.5 -25.167 16.5 -46.5s-5.66699 -36.833 -17 -46.5s-29.333 -14.5 -54 -14.5c-47.333 0 -71 20.333 -71 61
c0 21.333 5.66699 36.833 17 46.5s29.333 14.5 54 14.5zM458 863c24.667 0 42.667 -4.83301 54 -14.5s17 -25.167 17 -46.5c0 -40.667 -24 -61 -72 -61c-24.667 0 -42.5 4.83301 -53.5 14.5s-16.5 25.167 -16.5 46.5s5.5 36.833 16.5 46.5s29.167 14.5 54.5 14.5z" />
    <glyph glyph-name="Aring" unicode="&#xc5;" horiz-adv-x="702" 
d="M540 0l-50 157h-282l-52 -157h-126l240 700h174l228 -700h-132zM351 590l-114 -345h225zM353 931c40.667 0 70.334 -8.16699 89.001 -24.5s28 -42.166 28 -77.499c0 -36 -9.33301 -62.167 -28 -78.5s-48.667 -24.5 -90 -24.5c-40.667 0 -70.334 8.16699 -89.001 24.5
s-28 42.5 -28 78.5c0 35.333 9.33301 61.166 28 77.499s48.667 24.5 90 24.5zM353 777c20.667 0 35.167 4.00098 43.5 12.001s12.5 21.333 12.5 40c0 18 -4.33301 31 -13 39s-23 12 -43 12c-20.667 0 -35.334 -3.83301 -44.001 -11.5s-13 -20.834 -13 -39.501
s4.33301 -32 13 -40s23.334 -12 44.001 -12z" />
    <glyph glyph-name="AE" unicode="&#xc6;" horiz-adv-x="942" 
d="M902 605h-323v-194h283v-94h-283v-222h323v-95h-437v157h-230l-79 -157h-126l361 700h511v-95zM465 614l-186 -369h186v369z" />
    <glyph glyph-name="Ccedilla" unicode="&#xc7;" horiz-adv-x="760" 
d="M330 -95l22.002 75c-104.667 6 -181.167 38.5 -229.5 97.5s-72.5 149.833 -72.5 272.5c0 129.333 27 223.333 81 282s140.667 88 260 88c96.667 0 170.167 -20 220.5 -60s83.166 -104 98.499 -192h-125c-13.333 54 -34.833 92.667 -64.5 116s-72.834 35 -129.501 35
c-74 0 -127.5 -21.167 -160.5 -63.5s-49.5 -110.833 -49.5 -205.5s16.5 -163.167 49.5 -205.5s86.5 -63.5 160.5 -63.5c52.667 0 94 11.667 124 35s53.333 62 70 116h125c-22 -84 -56.333 -146 -103 -186s-110.334 -61.667 -191.001 -65l-9 -32l10.5 -2.5
c4.33301 -1 12.333 -3.66699 24 -8s21.834 -9.5 30.501 -15.5s16.5 -14.5 23.5 -25.5s10.5 -23.5 10.5 -37.5c0 -35.333 -17.5 -62.5 -52.5 -81.5s-84.833 -28.5 -149.5 -28.5v51c78 0 117 19.667 117 59c0 16 -9.5 27.5 -28.5 34.5s-39.833 10.5 -62.5 10.5z" />
    <glyph glyph-name="Egrave" unicode="&#xc8;" horiz-adv-x="616" 
d="M576 605h-361v-194h321v-94h-321v-222h361v-95h-486v700h486v-95zM392 750h-87l-123 120h105z" />
    <glyph glyph-name="Eacute" unicode="&#xc9;" horiz-adv-x="616" 
d="M576 605h-361v-194h321v-94h-321v-222h361v-95h-486v700h486v-95zM274 750l99 120h111l-117 -120h-93z" />
    <glyph glyph-name="Ecircumflex" unicode="&#xca;" horiz-adv-x="616" 
d="M576 605h-361v-194h321v-94h-321v-222h361v-95h-486v700h486v-95zM482 750h-81l-68 69l-68 -69h-81l92 120h114z" />
    <glyph glyph-name="Edieresis" unicode="&#xcb;" horiz-adv-x="617" 
d="M577 605h-361v-194h321v-94h-321v-222h361v-95h-487v700h487v-95zM229 863c24.667 0 42.667 -4.83301 54 -14.5s17 -25.167 17 -46.5c0 -40.667 -24 -61 -72 -61c-24.667 0 -42.5 4.83301 -53.5 14.5s-16.5 25.167 -16.5 46.5s5.5 36.833 16.5 46.5
s29.167 14.5 54.5 14.5zM439 863c24.667 0 42.667 -4.83301 54 -14.5s17 -25.167 17 -46.5c0 -40.667 -23.667 -61 -71 -61c-24.667 0 -42.667 4.83301 -54 14.5s-17 25.167 -17 46.5s5.5 36.833 16.5 46.5s29.167 14.5 54.5 14.5z" />
    <glyph glyph-name="Igrave" unicode="&#xcc;" horiz-adv-x="314" 
d="M99 700h125v-700h-125v700zM221 750h-88l-123 120h105z" />
    <glyph glyph-name="Iacute" unicode="&#xcd;" horiz-adv-x="313" 
d="M90 700h125v-700h-125v700zM93 750l100 120h110l-117 -120h-93z" />
    <glyph glyph-name="Icircumflex" unicode="&#xce;" horiz-adv-x="318" 
d="M96 700h126v-700h-126v700zM308 750h-81l-68 69l-68 -69h-81l92 120h114z" />
    <glyph glyph-name="Idieresis" unicode="&#xcf;" horiz-adv-x="304" 
d="M89 700h126v-700h-126v700zM51 860c47.333 0 71 -20.6689 71 -62.002c0 -21.333 -5.66699 -36.666 -17 -45.999s-29.333 -14 -54 -14s-42.667 4.83301 -54 14.5s-17 24.834 -17 45.501c0 21.333 5.66699 37 17 47s29.333 15 54 15zM253 859.998
c47.333 0 71 -20.667 71 -62c0 -20.667 -5.66699 -35.834 -17 -45.501s-29.333 -14.5 -54 -14.5s-42.667 4.83301 -54 14.5s-17 24.834 -17 45.501c0 21.333 5.66699 37 17 47s29.333 15 54 15z" />
    <glyph glyph-name="Ntilde" unicode="&#xd1;" horiz-adv-x="762" 
d="M552 700h120v-700h-148l-315 537v-537h-119v700h147l315 -537v537zM219 760c0 33.333 8.83008 59.333 26.4971 78s39.834 28 66.501 28c23.333 0 44 -5 62 -15s33.833 -19.833 47.5 -29.5s26.834 -14.5 39.501 -14.5c9.33301 0 17 3.83301 23 11.5s9 18.167 9 31.5h49
c0 -34 -8.66699 -60.167 -26 -78.5s-39.666 -27.5 -66.999 -27.5c-23.333 0 -44 5 -62 15s-33.667 19.833 -47 29.5s-26.333 14.5 -39 14.5c-10 0 -18 -3.83301 -24 -11.5s-9 -18.167 -9 -31.5h-49z" />
    <glyph glyph-name="Ograve" unicode="&#xd2;" horiz-adv-x="790" 
d="M395 720c120.667 0 208.334 -29.333 263.001 -88s82 -152.667 82 -282s-27.333 -223.333 -82 -282s-142.334 -88 -263.001 -88s-208.334 29.333 -263.001 88s-82 152.667 -82 282s27.333 223.333 82 282s142.334 88 263.001 88zM395 619
c-75.333 0 -129.833 -21.167 -163.5 -63.5s-50.5 -110.833 -50.5 -205.5s16.833 -163.167 50.5 -205.5s88.167 -63.5 163.5 -63.5s129.833 21.167 163.5 63.5s50.5 110.833 50.5 205.5s-16.833 163.167 -50.5 205.5s-88.167 63.5 -163.5 63.5zM454 750h-87l-123 120h105z
" />
    <glyph glyph-name="Oacute" unicode="&#xd3;" horiz-adv-x="790" 
d="M395 720c120.667 0 208.334 -29.333 263.001 -88s82 -152.667 82 -282s-27.333 -223.333 -82 -282s-142.334 -88 -263.001 -88s-208.334 29.333 -263.001 88s-82 152.667 -82 282s27.333 223.333 82 282s142.334 88 263.001 88zM395 619
c-75.333 0 -129.833 -21.167 -163.5 -63.5s-50.5 -110.833 -50.5 -205.5s16.833 -163.167 50.5 -205.5s88.167 -63.5 163.5 -63.5s129.833 21.167 163.5 63.5s50.5 110.833 50.5 205.5s-16.833 163.167 -50.5 205.5s-88.167 63.5 -163.5 63.5zM336 750l99 120h111l-117 -120
h-93z" />
    <glyph glyph-name="Ocircumflex" unicode="&#xd4;" horiz-adv-x="790" 
d="M395 720c120.667 0 208.334 -29.333 263.001 -88s82 -152.667 82 -282s-27.333 -223.333 -82 -282s-142.334 -88 -263.001 -88s-208.334 29.333 -263.001 88s-82 152.667 -82 282s27.333 223.333 82 282s142.334 88 263.001 88zM395 619
c-75.333 0 -129.833 -21.167 -163.5 -63.5s-50.5 -110.833 -50.5 -205.5s16.833 -163.167 50.5 -205.5s88.167 -63.5 163.5 -63.5s129.833 21.167 163.5 63.5s50.5 110.833 50.5 205.5s-16.833 163.167 -50.5 205.5s-88.167 63.5 -163.5 63.5zM544 750h-81l-68 69l-68 -69
h-81l92 120h114z" />
    <glyph glyph-name="Otilde" unicode="&#xd5;" horiz-adv-x="790" 
d="M395 720c120.667 0 208.334 -29.333 263.001 -88s82 -152.667 82 -282s-27.333 -223.333 -82 -282s-142.334 -88 -263.001 -88s-208.334 29.333 -263.001 88s-82 152.667 -82 282s27.333 223.333 82 282s142.334 88 263.001 88zM395 619
c-75.333 0 -129.833 -21.167 -163.5 -63.5s-50.5 -110.833 -50.5 -205.5s16.833 -163.167 50.5 -205.5s88.167 -63.5 163.5 -63.5s129.833 21.167 163.5 63.5s50.5 110.833 50.5 205.5s-16.833 163.167 -50.5 205.5s-88.167 63.5 -163.5 63.5zM233 760
c0 34 8.83008 60.167 26.4971 78.5s40.167 27.5 67.5 27.5c23.333 0 43.833 -5 61.5 -15s33.334 -19.833 47.001 -29.5s26.834 -14.5 39.501 -14.5c9.33301 0 17 3.83301 23 11.5s9 18.167 9 31.5h50c0 -34 -8.83301 -60.167 -26.5 -78.5s-40.167 -27.5 -67.5 -27.5
c-23.333 0 -44 5 -62 15s-33.667 19.833 -47 29.5s-26.333 14.5 -39 14.5c-9.33301 0 -17.166 -3.83301 -23.499 -11.5s-9.5 -18.167 -9.5 -31.5h-49z" />
    <glyph glyph-name="Odieresis" unicode="&#xd6;" horiz-adv-x="790" 
d="M395 720c120.667 0 208.334 -29.333 263.001 -88s82 -152.667 82 -282s-27.333 -223.333 -82 -282s-142.334 -88 -263.001 -88s-208.334 29.333 -263.001 88s-82 152.667 -82 282s27.333 223.333 82 282s142.334 88 263.001 88zM395 619
c-75.333 0 -129.833 -21.167 -163.5 -63.5s-50.5 -110.833 -50.5 -205.5s16.833 -163.167 50.5 -205.5s88.167 -63.5 163.5 -63.5s129.833 21.167 163.5 63.5s50.5 110.833 50.5 205.5s-16.833 163.167 -50.5 205.5s-88.167 63.5 -163.5 63.5zM290 860
c47.333 0 70.999 -20.665 70.999 -61.998c0 -20.667 -5.66699 -35.834 -17 -45.501s-29.666 -14.5 -54.999 -14.5c-24.667 0 -42.5 4.66699 -53.5 14s-16.5 24.666 -16.5 45.999s5.66699 37 17 47s29.333 15 54 15zM499.999 860.002c47.333 0 71 -20.665 71 -61.998
c0 -20.667 -5.66699 -35.834 -17 -45.501s-29.333 -14.5 -54 -14.5s-42.667 4.66699 -54 14s-17 24.666 -17 45.999s5.66699 37 17 47s29.333 15 54 15z" />
    <glyph glyph-name="multiply" unicode="&#xd7;" horiz-adv-x="544" 
d="M104 486l168 -168l168 168l64 -68l-166 -166l166 -166l-64 -68l-168 168l-168 -168l-64 68l166 166l-166 166z" />
    <glyph glyph-name="Oslash" unicode="&#xd8;" horiz-adv-x="790" 
d="M518 780h77.999l-30 -88c60 -23.333 104 -63 132 -119s42 -130.667 42 -224c0 -129.333 -27.333 -223.333 -82 -282s-142.334 -88 -263.001 -88c-29.333 0 -54.666 1.33301 -75.999 4l-22 -63h-79l28 78c-68 20.667 -117.667 59.5 -149 116.5s-47 135.167 -47 234.5
c0 129.333 27.333 223.333 82 282s142.334 88 263.001 88c38 0 71 -2.33301 99 -7zM459.999 613c-18.667 4 -40.333 6 -65 6c-75.333 0 -129.833 -21.167 -163.5 -63.5s-50.5 -110.833 -50.5 -205.5c0 -130.667 33.667 -213 101 -247zM353 83
c17.333 -1.33301 31.333 -2 42 -2c75.333 0 129.833 21.167 163.5 63.5s50.5 110.833 50.5 205.5c0 117.333 -27 195.333 -81 234z" />
    <glyph glyph-name="Ugrave" unicode="&#xd9;" horiz-adv-x="730" 
d="M80 256l-0.000976562 444h125v-444c0 -61.333 12.5 -105.833 37.5 -133.5s65.833 -41.5 122.5 -41.5c56 0 96.5 13.833 121.5 41.5s37.5 72.167 37.5 133.5v444h126v-444c0 -96.667 -22.667 -166.834 -68 -210.501s-117.666 -65.5 -216.999 -65.5
c-100 0 -172.5 21.833 -217.5 65.5s-67.5 113.834 -67.5 210.501zM423.999 750h-87l-123 120h105z" />
    <glyph glyph-name="Uacute" unicode="&#xda;" horiz-adv-x="730" 
d="M80 256l-0.000976562 444h125v-444c0 -61.333 12.5 -105.833 37.5 -133.5s65.833 -41.5 122.5 -41.5c56 0 96.5 13.833 121.5 41.5s37.5 72.167 37.5 133.5v444h126v-444c0 -96.667 -22.667 -166.834 -68 -210.501s-117.666 -65.5 -216.999 -65.5
c-100 0 -172.5 21.833 -217.5 65.5s-67.5 113.834 -67.5 210.501zM305.999 750l99 120h111l-117 -120h-93z" />
    <glyph glyph-name="Ucircumflex" unicode="&#xdb;" horiz-adv-x="730" 
d="M80 256l-0.000976562 444h125v-444c0 -61.333 12.5 -105.833 37.5 -133.5s65.833 -41.5 122.5 -41.5c56 0 96.5 13.833 121.5 41.5s37.5 72.167 37.5 133.5v444h126v-444c0 -96.667 -22.667 -166.834 -68 -210.501s-117.666 -65.5 -216.999 -65.5
c-100 0 -172.5 21.833 -217.5 65.5s-67.5 113.834 -67.5 210.501zM513.999 750h-81l-68 69l-69 -69h-81l93 120h114z" />
    <glyph glyph-name="Udieresis" unicode="&#xdc;" horiz-adv-x="731" 
d="M80 256l-0.000976562 444h126v-444c0 -61.333 12.5 -105.833 37.5 -133.5s65.833 -41.5 122.5 -41.5c56 0 96.5 13.833 121.5 41.5s37.5 72.167 37.5 133.5v444h126v-444c0 -96.667 -22.667 -166.834 -68 -210.501s-117.666 -65.5 -216.999 -65.5
c-100 0 -172.667 21.833 -218 65.5s-68 113.834 -68 210.501zM259.999 860c24.667 0 42.667 -5.00195 54 -15.002s17 -25.667 17 -47s-5.66699 -36.666 -17 -45.999s-29.333 -14 -54 -14s-42.667 4.83301 -54 14.5s-17 24.834 -17 45.501c0 41.333 23.667 62 71 62z
M470.999 859.998c47.333 0 70.999 -20.665 70.999 -61.998c0 -20.667 -5.66699 -35.834 -17 -45.501s-29.666 -14.5 -54.999 -14.5c-24.667 0 -42.5 4.66699 -53.5 14s-16.5 24.666 -16.5 45.999s5.66699 37 17 47s29.333 15 54 15z" />
    <glyph glyph-name="Yacute" unicode="&#xdd;" horiz-adv-x="665" 
d="M395 275v-275h-119v275l-246 425h138l168 -309l167 309h132zM275 750l100 120h110l-117 -120h-93z" />
    <glyph glyph-name="germandbls" unicode="&#xdf;" horiz-adv-x="645" 
d="M326 720c33.333 0 63.333 -3 90 -9s51.667 -16 75 -30s41.333 -33.833 54 -59.5s19 -56.167 19 -91.5c0 -37.333 -10.667 -66.5 -32 -87.5s-54.333 -36.5 -99 -46.5c56.667 -10.667 97.834 -31 123.501 -61s38.5 -73 38.5 -129c0 -72 -15.833 -124.333 -47.5 -157
s-82.167 -49 -151.5 -49c-18.667 0 -36.834 1.66699 -54.501 5s-30.834 6.66602 -39.501 9.99902l-12 5v82c28 -9.33301 53.333 -14 76 -14c40.667 0 70 9.83301 88 29.5s27 51.167 27 94.5c0 52.667 -14.5 88.334 -43.5 107.001s-71.5 28 -127.5 28v85
c52.667 0 90.334 7.5 113.001 22.5s34 39.833 34 74.5c0 35.333 -9.83301 61.333 -29.5 78s-51.5 25 -95.5 25c-49.333 0 -84.833 -12.167 -106.5 -36.5s-32.5 -60.5 -32.5 -108.5v-487h-113v499c0 147.333 82 221 246 221z" />
    <glyph glyph-name="agrave" unicode="&#xe0;" horiz-adv-x="550" 
d="M386 50c-31.333 -40 -85 -60.001 -161 -60.001c-64.667 0 -111.667 12.333 -141 37s-44 64.334 -44 119.001c0 59.333 18.5 102.5 55.5 129.5s96.167 40.5 177.5 40.5h103v24c0 35.333 -8.16699 60.833 -24.5 76.5s-42.833 23.5 -79.5 23.5c-37.333 0 -64 -7 -80 -21
s-24 -37 -24 -69h-108c0 56 17 96.667 51 122s88.667 38 164 38c74.667 0 129.167 -14.5 163.5 -43.5s51.5 -75.167 51.5 -138.5v-328h-90zM376 246.999l-81 0.000976562c-21.333 0 -39 -0.833008 -53 -2.5s-28.5 -5.5 -43.5 -11.5s-26.333 -15.833 -34 -29.5
s-11.5 -30.834 -11.5 -51.501c0 -28.667 8 -49.167 24 -61.5s42 -18.5 78 -18.5c40 0 69.667 9.5 89 28.5s30 49.167 32 90.5v56zM230 700l104 -150h-93l-127 150h116z" />
    <glyph glyph-name="aacute" unicode="&#xe1;" horiz-adv-x="550" 
d="M386 50c-31.333 -40 -85 -60.001 -161 -60.001c-64.667 0 -111.667 12.333 -141 37s-44 64.334 -44 119.001c0 59.333 18.5 102.5 55.5 129.5s96.167 40.5 177.5 40.5h103v24c0 35.333 -8.16699 60.833 -24.5 76.5s-42.833 23.5 -79.5 23.5c-37.333 0 -64 -7 -80 -21
s-24 -37 -24 -69h-108c0 56 17 96.667 51 122s88.667 38 164 38c74.667 0 129.167 -14.5 163.5 -43.5s51.5 -75.167 51.5 -138.5v-328h-90zM376 246.999l-81 0.000976562c-21.333 0 -39 -0.833008 -53 -2.5s-28.5 -5.5 -43.5 -11.5s-26.333 -15.833 -34 -29.5
s-11.5 -30.834 -11.5 -51.501c0 -28.667 8 -49.167 24 -61.5s42 -18.5 78 -18.5c40 0 69.667 9.5 89 28.5s30 49.167 32 90.5v56zM314 700h116l-127 -150h-93z" />
    <glyph glyph-name="acircumflex" unicode="&#xe2;" horiz-adv-x="550" 
d="M386 50c-31.333 -40 -85 -60.001 -161 -60.001c-64.667 0 -111.667 12.333 -141 37s-44 64.334 -44 119.001c0 59.333 18.5 102.5 55.5 129.5s96.167 40.5 177.5 40.5h103v24c0 35.333 -8.16699 60.833 -24.5 76.5s-42.833 23.5 -79.5 23.5c-37.333 0 -64 -7 -80 -21
s-24 -37 -24 -69h-108c0 56 17 96.667 51 122s88.667 38 164 38c74.667 0 129.167 -14.5 163.5 -43.5s51.5 -75.167 51.5 -138.5v-328h-90zM376 246.999l-81 0.000976562c-21.333 0 -39 -0.833008 -53 -2.5s-28.5 -5.5 -43.5 -11.5s-26.333 -15.833 -34 -29.5
s-11.5 -30.834 -11.5 -51.501c0 -28.667 8 -49.167 24 -61.5s42 -18.5 78 -18.5c40 0 69.667 9.5 89 28.5s30 49.167 32 90.5v56zM332 700l88 -150h-75l-70 92l-71 -92h-74l88 150h114z" />
    <glyph glyph-name="atilde" unicode="&#xe3;" horiz-adv-x="550" 
d="M386 50c-31.333 -40 -85 -60.001 -161 -60.001c-64.667 0 -111.667 12.333 -141 37s-44 64.334 -44 119.001c0 59.333 18.5 102.5 55.5 129.5s96.167 40.5 177.5 40.5h103v24c0 35.333 -8.16699 60.833 -24.5 76.5s-42.833 23.5 -79.5 23.5c-37.333 0 -64 -7 -80 -21
s-24 -37 -24 -69h-108c0 56 17 96.667 51 122s88.667 38 164 38c74.667 0 129.167 -14.5 163.5 -43.5s51.5 -75.167 51.5 -138.5v-328h-90zM376 246.999l-81 0.000976562c-21.333 0 -39 -0.833008 -53 -2.5s-28.5 -5.5 -43.5 -11.5s-26.333 -15.833 -34 -29.5
s-11.5 -30.834 -11.5 -51.501c0 -28.667 8 -49.167 24 -61.5s42 -18.5 78 -18.5c40 0 69.667 9.5 89 28.5s30 49.167 32 90.5v56zM113 576c0 34.667 9 63.833 27 87.5s40 35.5 66 35.5c18.667 0 35.667 -4.5 51 -13.5s27.166 -18.667 35.499 -29s17.5 -20 27.5 -29
s19.667 -13.5 29 -13.5s17 4.66699 23 14s9 22 9 38h55c0 -34.667 -9 -63.667 -27 -87s-40 -35 -66 -35c-18.667 0 -35.667 4.5 -51 13.5s-27.166 18.667 -35.499 29s-17.5 20 -27.5 29s-19.333 13.5 -28 13.5c-10 0 -18 -4.66699 -24 -14s-9 -22.333 -9 -39h-55z" />
    <glyph glyph-name="adieresis" unicode="&#xe4;" horiz-adv-x="550" 
d="M386 50c-31.333 -40 -85 -60.001 -161 -60.001c-64.667 0 -111.667 12.333 -141 37s-44 64.334 -44 119.001c0 59.333 18.5 102.5 55.5 129.5s96.167 40.5 177.5 40.5h103v24c0 35.333 -8.16699 60.833 -24.5 76.5s-42.833 23.5 -79.5 23.5c-37.333 0 -64 -7 -80 -21
s-24 -37 -24 -69h-108c0 56 17 96.667 51 122s88.667 38 164 38c74.667 0 129.167 -14.5 163.5 -43.5s51.5 -75.167 51.5 -138.5v-328h-90zM376 246.999l-81 0.000976562c-21.333 0 -39 -0.833008 -53 -2.5s-28.5 -5.5 -43.5 -11.5s-26.333 -15.833 -34 -29.5
s-11.5 -30.834 -11.5 -51.501c0 -28.667 8 -49.167 24 -61.5s42 -18.5 78 -18.5c40 0 69.667 9.5 89 28.5s30 49.167 32 90.5v56zM175 708c24.667 0 42.667 -5.5 54 -16.5s17 -28.833 17 -53.5s-5.66699 -42.5 -17 -53.5s-29.333 -16.5 -54 -16.5s-42.667 5.5 -54 16.5
s-17 28.833 -17 53.5s5.66699 42.5 17 53.5s29.333 16.5 54 16.5zM374 708c24.667 0 42.667 -5.5 54 -16.5s17 -28.833 17 -53.5s-5.66699 -42.5 -17 -53.5s-29.333 -16.5 -54 -16.5s-42.667 5.5 -54 16.5s-17 28.833 -17 53.5s5.66699 42.5 17 53.5s29.333 16.5 54 16.5z
" />
    <glyph glyph-name="aring" unicode="&#xe5;" horiz-adv-x="550" 
d="M386 50c-31.333 -40 -85 -60.001 -161 -60.001c-64.667 0 -111.667 12.333 -141 37s-44 64.334 -44 119.001c0 59.333 18.5 102.5 55.5 129.5s96.167 40.5 177.5 40.5h103v24c0 35.333 -8.16699 60.833 -24.5 76.5s-42.833 23.5 -79.5 23.5c-37.333 0 -64 -7 -80 -21
s-24 -37 -24 -69h-108c0 56 17 96.667 51 122s88.667 38 164 38c74.667 0 129.167 -14.5 163.5 -43.5s51.5 -75.167 51.5 -138.5v-328h-90zM376 246.999l-81 0.000976562c-21.333 0 -39 -0.833008 -53 -2.5s-28.5 -5.5 -43.5 -11.5s-26.333 -15.833 -34 -29.5
s-11.5 -30.834 -11.5 -51.501c0 -28.667 8 -49.167 24 -61.5s42 -18.5 78 -18.5c40 0 69.667 9.5 89 28.5s30 49.167 32 90.5v56zM275 731c40.667 0 70.334 -8.16699 89.001 -24.5s28 -42.166 28 -77.499c0 -36 -9.33301 -62.167 -28 -78.5s-48.334 -24.5 -89.001 -24.5
c-41.333 0 -71.333 8.16699 -90 24.5s-28 42.5 -28 78.5c0 35.333 9.33301 61.166 28 77.499s48.667 24.5 90 24.5zM275 577c20.667 0 35.167 4.00098 43.5 12.001s12.5 21.333 12.5 40c0 18 -4.33301 31 -13 39s-23 12 -43 12c-20.667 0 -35.334 -3.83301 -44.001 -11.5
s-13 -20.834 -13 -39.501s4.33301 -32 13 -40s23.334 -12 44.001 -12z" />
    <glyph glyph-name="ae" unicode="&#xe6;" horiz-adv-x="905" 
d="M865 204l-373.998 -0.000976562c4 -48 16.333 -82.833 37 -104.5s52 -32.5 94 -32.5c33.333 0 59.166 6.66699 77.499 20s31.833 35.333 40.5 66h107c-11.333 -56.667 -34.833 -97.834 -70.5 -123.501s-87.167 -38.5 -154.5 -38.5c-100.667 0 -165.667 38.333 -195 115
c-12 -40 -34.333 -69.333 -67 -88s-77.667 -28 -135 -28c-64.667 0 -111.667 12.333 -141 37s-44 64.334 -44 119.001c0 57.333 17 99.5 51 126.5s88.333 41.5 163 43.5h122v24c0 34.667 -8.83301 59 -26.5 73s-44.5 21 -80.5 21c-36.667 0 -62.834 -6.5 -78.501 -19.5
s-23.167 -34.5 -22.5 -64.5h-108c0 56 17 96.667 51 122s88.667 38 164 38c87.333 0 144 -25.667 170 -77c32.667 51.333 91 77 175 77c86 0 148.333 -21.167 187 -63.5s58 -110.166 58 -203.499v-39zM375.002 246.999l-90.999 0.000976562
c-46.667 0 -80.334 -7.5 -101.001 -22.5s-31 -39.167 -31 -72.5c0 -30 9 -50.833 27 -62.5s43 -17.5 75 -17.5c43.333 0 74.333 9.16699 93 27.5s28 49.166 28 92.499v55zM622.003 435c-44 0 -76.499 -12.667 -97.499 -38s-32.833 -66.333 -35.5 -123h265
c0 57.333 -10.333 98.5 -31 123.5s-54.334 37.5 -101.001 37.5z" />
    <glyph glyph-name="ccedilla" unicode="&#xe7;" 
d="M232 -95l24.001 87.001c-75.333 5.33301 -130.166 28.666 -164.499 69.999s-51.5 104 -51.5 188c0 91.333 20.167 157.5 60.5 198.5s105.166 61.5 194.499 61.5c74 0 129.5 -15 166.5 -45s59.833 -78 68.5 -144h-114c-6.66699 35.333 -19.667 61 -39 77
s-46.666 24 -81.999 24c-49.333 0 -85.333 -13.667 -108 -41s-34 -71 -34 -131s11.333 -103.667 34 -131s58.667 -41 108 -41c35.333 0 62.666 8 81.999 24s32.333 41.667 39 77h114c-8 -62 -28.667 -108.167 -62 -138.5s-82.666 -46.833 -147.999 -49.5l-11 -42l10.5 -2.5
c4.33301 -1 12.166 -3.66699 23.499 -8s21.333 -9.5 30 -15.5s16.5 -14.5 23.5 -25.5s10.5 -23.5 10.5 -37.5c0 -35.333 -17.333 -62.5 -52 -81.5s-84.334 -28.5 -149.001 -28.5v51c78 0 117 19.667 117 59c0 16 -9.5 27.5 -28.5 34.5s-39.833 10.5 -62.5 10.5z" />
    <glyph glyph-name="egrave" unicode="&#xe8;" 
d="M530 204h-378c4.66699 -48 17.5 -83 38.5 -105s52.5 -33 94.5 -33c33.333 0 59 6.66699 77 20s31.333 35.333 40 66h108c-11.333 -56.667 -35 -97.834 -71 -123.501s-87.333 -38.5 -154 -38.5c-86 0 -148.333 20.5 -187 61.5s-58 107.167 -58 198.5
s19.333 157.5 58 198.5s101 61.5 187 61.5c85.333 0 147.5 -21.167 186.5 -63.5s58.5 -110.166 58.5 -203.499v-39zM284 434c-44 0 -76.667 -12.833 -98 -38.5s-33.333 -66.5 -36 -122.5h265c0 57.333 -10.333 98.5 -31 123.5s-54 37.5 -100 37.5zM343 550h-93l-127 150h116
z" />
    <glyph glyph-name="eacute" unicode="&#xe9;" 
d="M530 204h-378c4.66699 -48 17.5 -83 38.5 -105s52.5 -33 94.5 -33c33.333 0 59 6.66699 77 20s31.333 35.333 40 66h108c-11.333 -56.667 -35 -97.834 -71 -123.501s-87.333 -38.5 -154 -38.5c-86 0 -148.333 20.5 -187 61.5s-58 107.167 -58 198.5
s19.333 157.5 58 198.5s101 61.5 187 61.5c85.333 0 147.5 -21.167 186.5 -63.5s58.5 -110.166 58.5 -203.499v-39zM284 434c-44 0 -76.667 -12.833 -98 -38.5s-33.333 -66.5 -36 -122.5h265c0 57.333 -10.333 98.5 -31 123.5s-54 37.5 -100 37.5zM225 550l104 150h116
l-128 -150h-92z" />
    <glyph glyph-name="ecircumflex" unicode="&#xea;" 
d="M530 204h-378c4.66699 -48 17.5 -83 38.5 -105s52.5 -33 94.5 -33c33.333 0 59 6.66699 77 20s31.333 35.333 40 66h108c-11.333 -56.667 -35 -97.834 -71 -123.501s-87.333 -38.5 -154 -38.5c-86 0 -148.333 20.5 -187 61.5s-58 107.167 -58 198.5
s19.333 157.5 58 198.5s101 61.5 187 61.5c85.333 0 147.5 -21.167 186.5 -63.5s58.5 -110.166 58.5 -203.499v-39zM284 434c-44 0 -76.667 -12.833 -98 -38.5s-33.333 -66.5 -36 -122.5h265c0 57.333 -10.333 98.5 -31 123.5s-54 37.5 -100 37.5zM429 550h-75l-70 92
l-71 -92h-74l88 150h114z" />
    <glyph glyph-name="edieresis" unicode="&#xeb;" 
d="M530 204h-378c4.66699 -48 17.5 -83 38.5 -105s52.5 -33 94.5 -33c33.333 0 59 6.66699 77 20s31.333 35.333 40 66h108c-11.333 -56.667 -35 -97.834 -71 -123.501s-87.333 -38.5 -154 -38.5c-86 0 -148.333 20.5 -187 61.5s-58 107.167 -58 198.5
s19.333 157.5 58 198.5s101 61.5 187 61.5c85.333 0 147.5 -21.167 186.5 -63.5s58.5 -110.166 58.5 -203.499v-39zM284 434c-44 0 -76.667 -12.833 -98 -38.5s-33.333 -66.5 -36 -122.5h265c0 57.333 -10.333 98.5 -31 123.5s-54 37.5 -100 37.5zM184 708
c24.667 0 42.667 -5.5 54 -16.5s17 -28.833 17 -53.5s-5.66699 -42.5 -17 -53.5s-29.333 -16.5 -54 -16.5s-42.667 5.5 -54 16.5s-17 28.833 -17 53.5s5.66699 42.5 17 53.5s29.333 16.5 54 16.5zM383 708c24.667 0 42.667 -5.5 54 -16.5s17 -28.833 17 -53.5
s-5.66699 -42.5 -17 -53.5s-29.333 -16.5 -54 -16.5s-42.667 5.5 -54 16.5s-17 28.833 -17 53.5s5.66699 42.5 17 53.5s29.333 16.5 54 16.5z" />
    <glyph glyph-name="igrave" unicode="&#xec;" horiz-adv-x="147" 
d="M174 0h-113v500h113v-500zM177 550h-93l-127 150h116z" />
    <glyph glyph-name="iacute" unicode="&#xed;" horiz-adv-x="265" 
d="M186 0h-113v500h113v-500zM65 550l104 150h116l-128 -150h-92z" />
    <glyph glyph-name="icircumflex" unicode="&#xee;" horiz-adv-x="271" 
d="M192 0h-113v500h113v-500zM281 550h-75l-70 92l-71 -92h-75l89 150h113z" />
    <glyph glyph-name="idieresis" unicode="&#xef;" horiz-adv-x="264" 
d="M193 0h-113v500h113v-500zM41 697c24.667 0 42.667 -5.5 54 -16.5s17 -29.167 17 -54.5c0 -24 -5.66699 -41.667 -17 -53s-29.333 -17 -54 -17s-42.667 5.5 -54 16.5s-17 28.833 -17 53.5s5.66699 42.667 17 54s29.333 17 54 17zM232 697
c24.667 0 42.667 -5.66699 54 -17s17 -29.333 17 -54c0 -46.667 -24 -70 -72 -70c-24.667 0 -42.5 5.5 -53.5 16.5s-16.5 28.833 -16.5 53.5c0 25.333 5.5 43.5 16.5 54.5s29.167 16.5 54.5 16.5z" />
    <glyph glyph-name="ntilde" unicode="&#xf1;" horiz-adv-x="580" 
d="M175 452c30.667 38.667 81.668 58 153.001 58c67.333 0 116.166 -19 146.499 -57s45.5 -99 45.5 -183v-270h-114v270c0 54 -8.33301 92.833 -25 116.5s-44 35.5 -82 35.5c-40.667 0 -70.167 -12 -88.5 -36s-27.5 -62.667 -27.5 -116v-270h-113v500h90zM133.001 576
c0 34.667 9 63.833 27 87.5s40 35.5 66 35.5c18.667 0 35.667 -4.5 51 -13.5s27.166 -18.667 35.499 -29s17.5 -20 27.5 -29s19.667 -13.5 29 -13.5s17 4.66699 23 14s9 22 9 38h55c0 -34.667 -9 -63.667 -27 -87s-40 -35 -66 -35c-18.667 0 -35.667 4.5 -51 13.5
s-27.166 18.667 -35.499 29s-17.5 20 -27.5 29s-19.333 13.5 -28 13.5c-10 0 -18 -4.66699 -24 -14s-9 -22.333 -9 -39h-55z" />
    <glyph glyph-name="ograve" unicode="&#xf2;" horiz-adv-x="590" 
d="M295 510c89.333 0 154.166 -20.667 194.499 -62s60.5 -107.333 60.5 -198s-20.167 -156.667 -60.5 -198s-105.166 -62 -194.499 -62s-154.166 20.5 -194.499 61.5s-60.5 107.167 -60.5 198.5s20.167 157.5 60.5 198.5s105.166 61.5 194.499 61.5zM153 250
c0 -60.667 11.167 -104.5 33.5 -131.5s58.5 -40.5 108.5 -40.5s86 13.5 108 40.5s33 70.833 33 131.5s-11 104.5 -33 131.5s-58 40.5 -108 40.5c-50.667 0 -87 -13.333 -109 -40s-33 -70.667 -33 -132zM354 550h-93l-127 150h116z" />
    <glyph glyph-name="oacute" unicode="&#xf3;" horiz-adv-x="590" 
d="M295 510c89.333 0 154.166 -20.667 194.499 -62s60.5 -107.333 60.5 -198s-20.167 -156.667 -60.5 -198s-105.166 -62 -194.499 -62s-154.166 20.5 -194.499 61.5s-60.5 107.167 -60.5 198.5s20.167 157.5 60.5 198.5s105.166 61.5 194.499 61.5zM153 250
c0 -60.667 11.167 -104.5 33.5 -131.5s58.5 -40.5 108.5 -40.5s86 13.5 108 40.5s33 70.833 33 131.5s-11 104.5 -33 131.5s-58 40.5 -108 40.5c-50.667 0 -87 -13.333 -109 -40s-33 -70.667 -33 -132zM236 550l104 150h116l-128 -150h-92z" />
    <glyph glyph-name="ocircumflex" unicode="&#xf4;" horiz-adv-x="590" 
d="M295 510c89.333 0 154.166 -20.667 194.499 -62s60.5 -107.333 60.5 -198s-20.167 -156.667 -60.5 -198s-105.166 -62 -194.499 -62s-154.166 20.5 -194.499 61.5s-60.5 107.167 -60.5 198.5s20.167 157.5 60.5 198.5s105.166 61.5 194.499 61.5zM153 250
c0 -60.667 11.167 -104.5 33.5 -131.5s58.5 -40.5 108.5 -40.5s86 13.5 108 40.5s33 70.833 33 131.5s-11 104.5 -33 131.5s-58 40.5 -108 40.5c-50.667 0 -87 -13.333 -109 -40s-33 -70.667 -33 -132zM440 550h-75l-70 92l-71 -92h-74l88 150h114z" />
    <glyph glyph-name="otilde" unicode="&#xf5;" horiz-adv-x="590" 
d="M295 510c89.333 0 154.166 -20.667 194.499 -62s60.5 -107.333 60.5 -198s-20.167 -156.667 -60.5 -198s-105.166 -62 -194.499 -62s-154.166 20.5 -194.499 61.5s-60.5 107.167 -60.5 198.5s20.167 157.5 60.5 198.5s105.166 61.5 194.499 61.5zM153 250
c0 -60.667 11.167 -104.5 33.5 -131.5s58.5 -40.5 108.5 -40.5s86 13.5 108 40.5s33 70.833 33 131.5s-11 104.5 -33 131.5s-58 40.5 -108 40.5c-50.667 0 -87 -13.333 -109 -40s-33 -70.667 -33 -132zM133 576c0 34.667 9 63.833 27 87.5s40 35.5 66 35.5
c18.667 0 35.667 -4.5 51 -13.5s27.166 -18.667 35.499 -29s17.5 -20 27.5 -29s19.667 -13.5 29 -13.5s17 4.66699 23 14s9 22 9 38h55c0 -34.667 -9 -63.667 -27 -87s-40 -35 -66 -35c-18.667 0 -35.667 4.5 -51 13.5s-27.166 18.667 -35.499 29s-17.5 20 -27.5 29
s-19.333 13.5 -28 13.5c-10 0 -18 -4.66699 -24 -14s-9 -22.333 -9 -39h-55z" />
    <glyph glyph-name="odieresis" unicode="&#xf6;" horiz-adv-x="590" 
d="M295 510c89.333 0 154.166 -20.667 194.499 -62s60.5 -107.333 60.5 -198s-20.167 -156.667 -60.5 -198s-105.166 -62 -194.499 -62s-154.166 20.5 -194.499 61.5s-60.5 107.167 -60.5 198.5s20.167 157.5 60.5 198.5s105.166 61.5 194.499 61.5zM153 250
c0 -60.667 11.167 -104.5 33.5 -131.5s58.5 -40.5 108.5 -40.5s86 13.5 108 40.5s33 70.833 33 131.5s-11 104.5 -33 131.5s-58 40.5 -108 40.5c-50.667 0 -87 -13.333 -109 -40s-33 -70.667 -33 -132zM195 708c24.667 0 42.667 -5.5 54 -16.5s17 -28.833 17 -53.5
s-5.66699 -42.5 -17 -53.5s-29.333 -16.5 -54 -16.5s-42.667 5.5 -54 16.5s-17 28.833 -17 53.5s5.66699 42.5 17 53.5s29.333 16.5 54 16.5zM394 708c24.667 0 42.667 -5.5 54 -16.5s17 -28.833 17 -53.5s-5.66699 -42.5 -17 -53.5s-29.333 -16.5 -54 -16.5
s-42.667 5.5 -54 16.5s-17 28.833 -17 53.5s5.66699 42.5 17 53.5s29.333 16.5 54 16.5z" />
    <glyph glyph-name="divide" unicode="&#xf7;" horiz-adv-x="600" 
d="M231 62c0 20 6.5 36.333 19.5 49s29.833 19 50.5 19s37.334 -6.33301 50.001 -19s19 -29 19 -49s-6.5 -36.333 -19.5 -49s-29.833 -19 -50.5 -19s-37.334 6.33301 -50.001 19s-19 29 -19 49zM560 219h-520v88h520v-88zM232 464c0 20 6.33301 36.333 19 49
s29.334 19 50.001 19s37.334 -6.33301 50.001 -19s19 -29 19 -49s-6.33301 -36.167 -19 -48.5s-29.334 -18.5 -50.001 -18.5s-37.334 6.16699 -50.001 18.5s-19 28.5 -19 48.5z" />
    <glyph glyph-name="oslash" unicode="&#xf8;" horiz-adv-x="591" 
d="M295 510c28 0 48.332 -0.666992 60.999 -2l22 62h55l-25 -73c49.333 -14.667 85.5 -42 108.5 -82s34.5 -94.667 34.5 -164c0 -90.667 -20.167 -156.667 -60.5 -198s-105.166 -62 -194.499 -62c-21.333 0 -41.666 1 -60.999 3l-22 -64h-55l25 74
c-49.333 14.667 -85.5 42 -108.5 82s-34.5 94.667 -34.5 164c0 91.333 20.167 157.5 60.5 198.5s105.166 61.5 194.499 61.5zM293.999 423c-50.667 0 -87.167 -13.5 -109.5 -40.5s-33.5 -70.833 -33.5 -131.5c0 -80 20.333 -131.667 61 -155l112 325
c-12 1.33301 -22 2 -30 2zM374.999 406l-111.999 -325.001c13.333 -1.33301 23.666 -2 30.999 -2c50 0 86 13.5 108 40.5s33 70.833 33 131.5c0 80.667 -20 132.334 -60 155.001z" />
    <glyph glyph-name="ugrave" unicode="&#xf9;" horiz-adv-x="580" 
d="M399 48c-30.667 -38.667 -81.668 -58 -153.001 -58c-67.333 0 -116.166 19 -146.499 57s-45.5 99 -45.5 183v270h114v-270c0 -54 8.33301 -92.833 25 -116.5s44 -35.5 82 -35.5c40.667 0 70.167 12 88.5 36s27.5 62.667 27.5 116v270h113v-500h-90zM254.999 700l104 -150
h-93l-127 150h116z" />
    <glyph glyph-name="uacute" unicode="&#xfa;" horiz-adv-x="580" 
d="M399 48c-30.667 -38.667 -81.668 -58 -153.001 -58c-67.333 0 -116.166 19 -146.499 57s-45.5 99 -45.5 183v270h114v-270c0 -54 8.33301 -92.833 25 -116.5s44 -35.5 82 -35.5c40.667 0 70.167 12 88.5 36s27.5 62.667 27.5 116v270h113v-500h-90zM303.999 700h116
l-127 -150h-93z" />
    <glyph glyph-name="ucircumflex" unicode="&#xfb;" horiz-adv-x="580" 
d="M399 48c-30.667 -38.667 -81.668 -58 -153.001 -58c-67.333 0 -116.166 19 -146.499 57s-45.5 99 -45.5 183v270h114v-270c0 -54 8.33301 -92.833 25 -116.5s44 -35.5 82 -35.5c40.667 0 70.167 12 88.5 36s27.5 62.667 27.5 116v270h113v-500h-90zM335.999 700l89 -150
h-75l-70 92l-71 -92h-75l89 150h113z" />
    <glyph glyph-name="udieresis" unicode="&#xfc;" horiz-adv-x="580" 
d="M399 48c-30.667 -38.667 -81.668 -58 -153.001 -58c-67.333 0 -116.166 19 -146.499 57s-45.5 99 -45.5 183v270h114v-270c0 -54 8.33301 -92.833 25 -116.5s44 -35.5 82 -35.5c40.667 0 70.167 12 88.5 36s27.5 62.667 27.5 116v270h113v-500h-90zM178.999 708
c24.667 0 42.666 -5.5 53.999 -16.5s17 -28.833 17 -53.5s-5.66699 -42.5 -17 -53.5s-29.666 -16.5 -54.999 -16.5c-24.667 0 -42.5 5.5 -53.5 16.5s-16.5 28.833 -16.5 53.5s5.66699 42.5 17 53.5s29.333 16.5 54 16.5zM376.998 708c24.667 0 42.667 -5.5 54 -16.5
s17 -28.833 17 -53.5s-5.66699 -42.5 -17 -53.5s-29.333 -16.5 -54 -16.5s-42.667 5.5 -54 16.5s-17 28.833 -17 53.5s5.66699 42.5 17 53.5s29.333 16.5 54 16.5z" />
    <glyph glyph-name="yacute" unicode="&#xfd;" horiz-adv-x="531" 
d="M235 4l3 8.99902l-218 487h109l154 -354l119 354h109l-190 -533c-18.667 -51.333 -41.667 -88.666 -69 -111.999s-62.333 -35 -105 -35h-64v76h58c19.333 0 36.5 8.5 51.5 25.5s29.167 44.5 42.5 82.5zM218 549.999l104 150h116l-127 -150h-93z" />
    <glyph glyph-name="ydieresis" unicode="&#xff;" horiz-adv-x="531" 
d="M235 4l3 8.99902l-218 487h109l154 -354l119 354h109l-190 -533c-18.667 -51.333 -41.667 -88.666 -69 -111.999s-62.333 -35 -105 -35h-64v76h58c19.333 0 36.5 8.5 51.5 25.5s29.167 44.5 42.5 82.5zM172 707.999c24.667 0 42.667 -5.5 54 -16.5s17 -28.833 17 -53.5
s-5.66699 -42.5 -17 -53.5s-29.333 -16.5 -54 -16.5s-42.667 5.5 -54 16.5s-17 28.833 -17 53.5s5.66699 42.5 17 53.5s29.333 16.5 54 16.5zM371 707.999c24.667 0 42.666 -5.5 53.999 -16.5s17 -28.833 17 -53.5s-5.66699 -42.5 -17 -53.5s-29.666 -16.5 -54.999 -16.5
c-24.667 0 -42.5 5.5 -53.5 16.5s-16.5 28.833 -16.5 53.5s5.66699 42.5 17 53.5s29.333 16.5 54 16.5z" />
    <glyph glyph-name="Amacron" unicode="&#x100;" horiz-adv-x="702" 
d="M540 0l-50 157h-282l-52 -157h-126l240 700h174l228 -700h-132zM351 590l-114 -345h225zM182 831h340v-70h-340v70z" />
    <glyph glyph-name="amacron" unicode="&#x101;" horiz-adv-x="550" 
d="M386 50c-31.333 -40 -85 -60.001 -161 -60.001c-64.667 0 -111.667 12.333 -141 37s-44 64.334 -44 119.001c0 59.333 18.5 102.5 55.5 129.5s96.167 40.5 177.5 40.5h103v24c0 35.333 -8.16699 60.833 -24.5 76.5s-42.833 23.5 -79.5 23.5c-37.333 0 -64 -7 -80 -21
s-24 -37 -24 -69h-108c0 56 17 96.667 51 122s88.667 38 164 38c74.667 0 129.167 -14.5 163.5 -43.5s51.5 -75.167 51.5 -138.5v-328h-90zM376 246.999l-81 0.000976562c-21.333 0 -39 -0.833008 -53 -2.5s-28.5 -5.5 -43.5 -11.5s-26.333 -15.833 -34 -29.5
s-11.5 -30.834 -11.5 -51.501c0 -28.667 8 -49.167 24 -61.5s42 -18.5 78 -18.5c40 0 69.667 9.5 89 28.5s30 49.167 32 90.5v56zM104 584v69h340v-69h-340z" />
    <glyph glyph-name="Abreve" unicode="&#x102;" horiz-adv-x="702" 
d="M540 0l-50 157h-282l-52 -157h-126l240 700h174l228 -700h-132zM351 590l-114 -345h225zM514 870c0 -42 -12.666 -72.5 -37.999 -91.5s-66.333 -28.5 -123 -28.5s-97.834 9.5 -123.501 28.5s-38.5 49.5 -38.5 91.5h84c0 -21.333 5.16699 -36.833 15.5 -46.5
s27.5 -14.834 51.5 -15.501c2 -0.666992 5.66699 -1 11 -1c27.333 0 47 4.83301 59 14.5s18 25.834 18 48.501h84z" />
    <glyph glyph-name="abreve" unicode="&#x103;" horiz-adv-x="550" 
d="M386 50c-31.333 -40 -85 -60.001 -161 -60.001c-64.667 0 -111.667 12.333 -141 37s-44 64.334 -44 119.001c0 59.333 18.5 102.5 55.5 129.5s96.167 40.5 177.5 40.5h103v24c0 35.333 -8.16699 60.833 -24.5 76.5s-42.833 23.5 -79.5 23.5c-37.333 0 -64 -7 -80 -21
s-24 -37 -24 -69h-108c0 56 17 96.667 51 122s88.667 38 164 38c74.667 0 129.167 -14.5 163.5 -43.5s51.5 -75.167 51.5 -138.5v-328h-90zM376 246.999l-81 0.000976562c-21.333 0 -39 -0.833008 -53 -2.5s-28.5 -5.5 -43.5 -11.5s-26.333 -15.833 -34 -29.5
s-11.5 -30.834 -11.5 -51.501c0 -28.667 8 -49.167 24 -61.5s42 -18.5 78 -18.5c40 0 69.667 9.5 89 28.5s30 49.167 32 90.5v56zM358 700h78.001c0 -52.667 -12.667 -90.834 -38 -114.501s-66.333 -35.5 -123 -35.5s-97.834 11.833 -123.501 35.5
s-38.5 61.834 -38.5 114.501h79c0 -30.667 6.5 -52.834 19.5 -66.501s34.167 -20.5 63.5 -20.5s50.5 6.83301 63.5 20.5s19.5 35.834 19.5 66.501z" />
    <glyph glyph-name="Aogonek" unicode="&#x104;" horiz-adv-x="704" 
d="M639 0c-37.333 -28 -59 -59.333 -65 -94c-4.66699 -30 6 -48 32 -54c4.66699 -0.666992 9.66699 -1 15 -1c8 0 16.5 1.16699 25.5 3.5s15.833 4.83301 20.5 7.5l7 4v-96c-20 -13.333 -43.333 -20 -70 -20c-30 0 -54 9 -72 27s-28.333 39.833 -31 65.5
s2.5 53.167 15.5 82.5s33.167 54.333 60.5 75h-37l-50 157h-282l-52 -157h-126l240 700h174l228 -700h-33zM351 590l-114 -345h225z" />
    <glyph glyph-name="aogonek" unicode="&#x105;" horiz-adv-x="554" 
d="M399 2l-12.999 47.998c-31.333 -40 -85 -60 -161 -60c-64.667 0 -111.667 12.333 -141 37s-44 64.334 -44 119.001c0 59.333 18.5 102.5 55.5 129.5s96.167 40.5 177.5 40.5h103v24c0 35.333 -8.16699 60.833 -24.5 76.5s-42.833 23.5 -79.5 23.5
c-37.333 0 -64 -7 -80 -21s-24 -37 -24 -69h-108c0 56 17 96.667 51 122s88.667 38 164 38c74.667 0 129.167 -14.5 163.5 -43.5s51.5 -75.167 51.5 -138.5v-328h-32c-36.667 -28.667 -58 -60 -64 -94c-4.66699 -30 6 -48 32 -54c4.66699 -0.666992 9.66699 -1 15 -1
c8 0 16.5 1.16699 25.5 3.5s15.833 4.83301 20.5 7.5l7 4v-96c-20 -13.333 -43.333 -20 -70 -20c-40 0 -69.167 14.833 -87.5 44.5s-21.833 64.834 -10.5 105.501s35.666 74.667 72.999 102zM376.001 246.998l-81 0.000976562c-21.333 0 -39 -0.833008 -53 -2.5
s-28.5 -5.5 -43.5 -11.5s-26.333 -15.833 -34 -29.5s-11.5 -30.834 -11.5 -51.501c0 -28.667 8 -49.167 24 -61.5s42 -18.5 78 -18.5c40 0 69.667 9.5 89 28.5s30 49.167 32 90.5v56z" />
    <glyph glyph-name="Cacute" unicode="&#x106;" horiz-adv-x="760" 
d="M585 232h125.001c-23.333 -88 -60.166 -152 -110.499 -192s-119.833 -60 -208.5 -60c-119.333 0 -206 29.333 -260 88s-81 152.667 -81 282s27 223.333 81 282s140.667 88 260 88c96.667 0 170.167 -20 220.5 -60s83.166 -104 98.499 -192h-125
c-13.333 54 -34.833 92.667 -64.5 116s-72.834 35 -129.501 35c-74 0 -127.5 -21.167 -160.5 -63.5s-49.5 -110.833 -49.5 -205.5s16.5 -163.167 49.5 -205.5s86.5 -63.5 160.5 -63.5c52.667 0 94 11.667 124 35s53.333 62 70 116zM336.001 750l99 120h111l-117 -120h-93z
" />
    <glyph glyph-name="cacute" unicode="&#x107;" 
d="M416 179h114c-8.66699 -66 -31.5 -114 -68.5 -144s-92.5 -45 -166.5 -45c-89.333 0 -154.166 20.5 -194.499 61.5s-60.5 107.167 -60.5 198.5s20.167 157.5 60.5 198.5s105.166 61.5 194.499 61.5c74 0 129.5 -15 166.5 -45s59.833 -78 68.5 -144h-114
c-6.66699 35.333 -19.667 61 -39 77s-46.666 24 -81.999 24c-49.333 0 -85.333 -13.667 -108 -41s-34 -71 -34 -131s11.333 -103.667 34 -131s58.667 -41 108 -41c35.333 0 62.666 8 81.999 24s32.333 41.667 39 77zM236 550l104 150h116l-128 -150h-92z" />
    <glyph glyph-name="Ccircumflex" unicode="&#x108;" horiz-adv-x="760" 
d="M585 232h125.001c-23.333 -88 -60.166 -152 -110.499 -192s-119.833 -60 -208.5 -60c-119.333 0 -206 29.333 -260 88s-81 152.667 -81 282s27 223.333 81 282s140.667 88 260 88c96.667 0 170.167 -20 220.5 -60s83.166 -104 98.499 -192h-125
c-13.333 54 -34.833 92.667 -64.5 116s-72.834 35 -129.501 35c-74 0 -127.5 -21.167 -160.5 -63.5s-49.5 -110.833 -49.5 -205.5s16.5 -163.167 49.5 -205.5s86.5 -63.5 160.5 -63.5c52.667 0 94 11.667 124 35s53.333 62 70 116zM544.001 750h-81l-68 69l-68 -69h-81
l92 120h114z" />
    <glyph glyph-name="ccircumflex" unicode="&#x109;" 
d="M416 179h114c-8.66699 -66 -31.5 -114 -68.5 -144s-92.5 -45 -166.5 -45c-89.333 0 -154.166 20.5 -194.499 61.5s-60.5 107.167 -60.5 198.5s20.167 157.5 60.5 198.5s105.166 61.5 194.499 61.5c74 0 129.5 -15 166.5 -45s59.833 -78 68.5 -144h-114
c-6.66699 35.333 -19.667 61 -39 77s-46.666 24 -81.999 24c-49.333 0 -85.333 -13.667 -108 -41s-34 -71 -34 -131s11.333 -103.667 34 -131s58.667 -41 108 -41c35.333 0 62.666 8 81.999 24s32.333 41.667 39 77zM440 550h-75l-70 92l-71 -92h-74l88 150h114z" />
    <glyph glyph-name="Cdotaccent" unicode="&#x10a;" horiz-adv-x="760" 
d="M585 232h125.001c-23.333 -88 -60.166 -152 -110.499 -192s-119.833 -60 -208.5 -60c-119.333 0 -206 29.333 -260 88s-81 152.667 -81 282s27 223.333 81 282s140.667 88 260 88c96.667 0 170.167 -20 220.5 -60s83.166 -104 98.499 -192h-125
c-13.333 54 -34.833 92.667 -64.5 116s-72.834 35 -129.501 35c-74 0 -127.5 -21.167 -160.5 -63.5s-49.5 -110.833 -49.5 -205.5s16.5 -163.167 49.5 -205.5s86.5 -63.5 160.5 -63.5c52.667 0 94 11.667 124 35s53.333 62 70 116zM395.001 870
c47.333 0 71 -20.665 71 -61.998c0 -20.667 -5.66699 -35.834 -17 -45.501s-29.333 -14.5 -54 -14.5s-42.667 4.66699 -54 14s-17 24.666 -17 45.999s5.66699 37 17 47s29.333 15 54 15z" />
    <glyph glyph-name="cdotaccent" unicode="&#x10b;" 
d="M416 179h114c-8.66699 -66 -31.5 -114 -68.5 -144s-92.5 -45 -166.5 -45c-89.333 0 -154.166 20.5 -194.499 61.5s-60.5 107.167 -60.5 198.5s20.167 157.5 60.5 198.5s105.166 61.5 194.499 61.5c74 0 129.5 -15 166.5 -45s59.833 -78 68.5 -144h-114
c-6.66699 35.333 -19.667 61 -39 77s-46.666 24 -81.999 24c-49.333 0 -85.333 -13.667 -108 -41s-34 -71 -34 -131s11.333 -103.667 34 -131s58.667 -41 108 -41c35.333 0 62.666 8 81.999 24s32.333 41.667 39 77zM295 705c47.333 0 70.999 -22.667 70.999 -68
c0 -23.333 -5.66699 -40.333 -17 -51s-29.666 -16 -54.999 -16c-24.667 0 -42.5 5.33301 -53.5 16s-16.5 27.667 -16.5 51s5.66699 40.5 17 51.5s29.333 16.5 54 16.5z" />
    <glyph glyph-name="Ccaron" unicode="&#x10c;" horiz-adv-x="760" 
d="M585 232h125.001c-23.333 -88 -60.166 -152 -110.499 -192s-119.833 -60 -208.5 -60c-119.333 0 -206 29.333 -260 88s-81 152.667 -81 282s27 223.333 81 282s140.667 88 260 88c96.667 0 170.167 -20 220.5 -60s83.166 -104 98.499 -192h-125
c-13.333 54 -34.833 92.667 -64.5 116s-72.834 35 -129.501 35c-74 0 -127.5 -21.167 -160.5 -63.5s-49.5 -110.833 -49.5 -205.5s16.5 -163.167 49.5 -205.5s86.5 -63.5 160.5 -63.5c52.667 0 94 11.667 124 35s53.333 62 70 116zM538.001 870l-92 -120h-114l-92 120h81
l68 -69l68 69h81z" />
    <glyph glyph-name="ccaron" unicode="&#x10d;" 
d="M416 179h114c-8.66699 -66 -31.5 -114 -68.5 -144s-92.5 -45 -166.5 -45c-89.333 0 -154.166 20.5 -194.499 61.5s-60.5 107.167 -60.5 198.5s20.167 157.5 60.5 198.5s105.166 61.5 194.499 61.5c74 0 129.5 -15 166.5 -45s59.833 -78 68.5 -144h-114
c-6.66699 35.333 -19.667 61 -39 77s-46.666 24 -81.999 24c-49.333 0 -85.333 -13.667 -108 -41s-34 -71 -34 -131s11.333 -103.667 34 -131s58.667 -41 108 -41c35.333 0 62.666 8 81.999 24s32.333 41.667 39 77zM440 700l-89 -150h-113l-89 150h75l71 -92l70 92h75z" />
    <glyph glyph-name="Dcaron" unicode="&#x10e;" horiz-adv-x="732" 
d="M682 350c0 -122.667 -26.667 -211.667 -80 -267s-138.666 -83 -255.999 -83h-256v700h256c117.333 0 202.666 -27.667 255.999 -83s80 -144.333 80 -267zM341 605h-126v-510h126c73.333 0 126.5 20 159.5 60s49.5 105 49.5 195s-16.5 155 -49.5 195s-86.167 60 -159.5 60
zM480 870l-93 -120h-113l-93 120h81l69 -69l68 69h81z" />
    <glyph glyph-name="dcaron" unicode="&#x10f;" horiz-adv-x="720" 
d="M423 55c-34 -43.333 -90 -65 -168 -65c-75.333 0 -130 20.5 -164 61.5s-51 107.167 -51 198.5s17 157.5 51 198.5s88.667 61.5 164 61.5c73.333 0 127 -19 161 -57v247h114v-700h-90zM286 78c46 0 79.333 13.667 100 41s31 71 31 131s-10.333 103.667 -31 131
s-54 41 -100 41s-79.5 -13.667 -100.5 -41s-31.5 -71 -31.5 -131s10.5 -103.667 31.5 -131s54.5 -41 100.5 -41zM627 710c16 0 28.167 -4.33203 36.5 -12.999s13.333 -17.834 15 -27.501s2.5 -22.5 2.5 -38.5c0 -36 -7.83301 -62.333 -23.5 -79s-40.167 -25 -73.5 -25v44
c27.333 0 41 16 41 48c-34 0 -51 13.333 -51 40c0 18 4.16699 31 12.5 39s21.833 12 40.5 12z" />
    <glyph glyph-name="Dcroat" unicode="&#x110;" horiz-adv-x="762" 
d="M712 350c0 -122.667 -26.667 -211.667 -80 -267s-138.666 -83 -255.999 -83h-256v350h-90v82h90v268h256c117.333 0 202.666 -27.667 255.999 -83s80 -144.333 80 -267zM371 605h-126v-173h168v-82h-168v-255h126c73.333 0 126.5 20 159.5 60s49.5 105 49.5 195
s-16.5 155 -49.5 195s-86.167 60 -159.5 60z" />
    <glyph glyph-name="dcroat" unicode="&#x111;" horiz-adv-x="651" 
d="M530 630h91v-57h-90v-573h-90l-17 56c-34 -44 -90.333 -66 -169 -66c-75.333 0 -130 20.5 -164 61.5s-51 107.167 -51 198.5s17 157.5 51 198.5s88.667 61.5 164 61.5c73.333 0 127 -19 161 -57v120h-189v57h189v70h114v-70zM285 78c46 0 79.333 13.667 100 41
s31 71 31 131s-10.333 103.667 -31 131s-54 41 -100 41s-79.5 -13.667 -100.5 -41s-31.5 -71 -31.5 -131s10.5 -103.667 31.5 -131s54.5 -41 100.5 -41z" />
    <glyph glyph-name="Emacron" unicode="&#x112;" horiz-adv-x="616" 
d="M576 605h-361v-194h321v-94h-321v-222h361v-95h-486v700h486v-95zM163 831h340v-70h-340v70z" />
    <glyph glyph-name="emacron" unicode="&#x113;" 
d="M530 204h-378c4.66699 -48 17.5 -83 38.5 -105s52.5 -33 94.5 -33c33.333 0 59 6.66699 77 20s31.333 35.333 40 66h108c-11.333 -56.667 -35 -97.834 -71 -123.501s-87.333 -38.5 -154 -38.5c-86 0 -148.333 20.5 -187 61.5s-58 107.167 -58 198.5
s19.333 157.5 58 198.5s101 61.5 187 61.5c85.333 0 147.5 -21.167 186.5 -63.5s58.5 -110.166 58.5 -203.499v-39zM284 434c-44 0 -76.667 -12.833 -98 -38.5s-33.333 -66.5 -36 -122.5h265c0 57.333 -10.333 98.5 -31 123.5s-54 37.5 -100 37.5zM113 653h340v-69h-340v69z
" />
    <glyph glyph-name="Ebreve" unicode="&#x114;" horiz-adv-x="616" 
d="M576 605h-361v-194h321v-94h-321v-222h361v-95h-486v700h486v-95zM495 870c0 -42 -12.8301 -72.5 -38.4971 -91.5s-66.834 -28.5 -123.501 -28.5s-97.834 9.5 -123.501 28.5s-38.5 49.5 -38.5 91.5h85c0 -21.333 5.16699 -36.833 15.5 -46.5
s27.166 -14.834 50.499 -15.501c2 -0.666992 5.66699 -1 11 -1c28 0 47.833 4.83301 59.5 14.5s17.5 25.834 17.5 48.501h85z" />
    <glyph glyph-name="ebreve" unicode="&#x115;" 
d="M530 204h-378c4.66699 -48 17.5 -83 38.5 -105s52.5 -33 94.5 -33c33.333 0 59 6.66699 77 20s31.333 35.333 40 66h108c-11.333 -56.667 -35 -97.834 -71 -123.501s-87.333 -38.5 -154 -38.5c-86 0 -148.333 20.5 -187 61.5s-58 107.167 -58 198.5
s19.333 157.5 58 198.5s101 61.5 187 61.5c85.333 0 147.5 -21.167 186.5 -63.5s58.5 -110.166 58.5 -203.499v-39zM284 434c-44 0 -76.667 -12.833 -98 -38.5s-33.333 -66.5 -36 -122.5h265c0 57.333 -10.333 98.5 -31 123.5s-54 37.5 -100 37.5zM445 700
c0 -52.667 -12.666 -90.834 -37.999 -114.501s-66.333 -35.5 -123 -35.5s-97.834 11.833 -123.501 35.5s-38.5 61.834 -38.5 114.501h79c0 -30.667 6.5 -52.834 19.5 -66.501s34.167 -20.5 63.5 -20.5s50.5 6.83301 63.5 20.5s19.5 35.834 19.5 66.501h78z" />
    <glyph glyph-name="Edotaccent" unicode="&#x116;" horiz-adv-x="616" 
d="M576 605h-361v-194h321v-94h-321v-222h361v-95h-486v700h486v-95zM333 870c47.333 0 71 -20.665 71 -61.998c0 -20.667 -5.66699 -35.834 -17 -45.501s-29.333 -14.5 -54 -14.5s-42.667 4.66699 -54 14s-17 24.666 -17 45.999s5.66699 37 17 47s29.333 15 54 15z" />
    <glyph glyph-name="edotaccent" unicode="&#x117;" 
d="M530 204h-378c4.66699 -48 17.5 -83 38.5 -105s52.5 -33 94.5 -33c33.333 0 59 6.66699 77 20s31.333 35.333 40 66h108c-11.333 -56.667 -35 -97.834 -71 -123.501s-87.333 -38.5 -154 -38.5c-86 0 -148.333 20.5 -187 61.5s-58 107.167 -58 198.5
s19.333 157.5 58 198.5s101 61.5 187 61.5c85.333 0 147.5 -21.167 186.5 -63.5s58.5 -110.166 58.5 -203.499v-39zM284 434c-44 0 -76.667 -12.833 -98 -38.5s-33.333 -66.5 -36 -122.5h265c0 57.333 -10.333 98.5 -31 123.5s-54 37.5 -100 37.5zM287 705
c47.333 0 70.999 -22.667 70.999 -68c0 -23.333 -5.66699 -40.333 -17 -51s-29.666 -16 -54.999 -16c-24.667 0 -42.5 5.33301 -53.5 16s-16.5 27.667 -16.5 51s5.66699 40.5 17 51.5s29.333 16.5 54 16.5z" />
    <glyph glyph-name="Eogonek" unicode="&#x118;" horiz-adv-x="616" 
d="M536 0h-1.00195c-36.667 -28 -57.667 -59.333 -63 -94c-5.33301 -30 5 -48 31 -54c4.66699 -0.666992 9.66699 -1 15 -1c8.66699 0 17.334 1.16699 26.001 3.5s15.334 4.83301 20.001 7.5l7 4v-96c-20 -13.333 -43.333 -20 -70 -20c-30 0 -54 9 -72 27
s-28.333 39.833 -31 65.5s2.5 53.167 15.5 82.5s33.167 54.333 60.5 75h-384v700h486v-95h-361v-194h321v-94h-321v-222h361v-95h-40z" />
    <glyph glyph-name="eogonek" unicode="&#x119;" 
d="M511 151c-18 -86.667 -67.001 -138.336 -147.001 -155.003c-36 -29.333 -56.333 -60.666 -61 -93.999c-3.33301 -30 8.33398 -47 35.001 -51c4 -0.666992 8 -1 12 -1c8 0 16.5 1.33301 25.5 4s15.833 5.33398 20.5 8.00098l7 3v-96c-20 -13.333 -43.333 -20 -70 -20
c-38 0 -66.333 13.833 -85 41.5s-23.667 60.5 -15 98.5s29 71.333 61 100h-9c-86 0 -148.333 20.5 -187 61.5s-58 107.167 -58 198.5s19.333 157.5 58 198.5s101 61.5 187 61.5c85.333 0 147.5 -21.167 186.5 -63.5s58.5 -110.166 58.5 -203.499v-39h-377
c4.66699 -48 17.5 -83 38.5 -105s52.5 -33 94.5 -33c33.333 0 59 6.66699 77 20s31.333 35.333 40 66h108zM286.999 433.998c-44 0 -76.667 -12.833 -98 -38.5s-33.333 -66.5 -36 -122.5h265c0 57.333 -10.333 98.5 -31 123.5s-54 37.5 -100 37.5z" />
    <glyph glyph-name="Ecaron" unicode="&#x11a;" horiz-adv-x="616" 
d="M576 605h-361v-194h321v-94h-321v-222h361v-95h-486v700h486v-95zM476 870l-92 -120h-114l-92 120h81l68 -69l68 69h81z" />
    <glyph glyph-name="ecaron" unicode="&#x11b;" 
d="M530 204h-378c4.66699 -48 17.5 -83 38.5 -105s52.5 -33 94.5 -33c33.333 0 59 6.66699 77 20s31.333 35.333 40 66h108c-11.333 -56.667 -35 -97.834 -71 -123.501s-87.333 -38.5 -154 -38.5c-86 0 -148.333 20.5 -187 61.5s-58 107.167 -58 198.5
s19.333 157.5 58 198.5s101 61.5 187 61.5c85.333 0 147.5 -21.167 186.5 -63.5s58.5 -110.166 58.5 -203.499v-39zM284 434c-44 0 -76.667 -12.833 -98 -38.5s-33.333 -66.5 -36 -122.5h265c0 57.333 -10.333 98.5 -31 123.5s-54 37.5 -100 37.5zM429 700l-88 -150h-114
l-88 150h74l71 -92l70 92h75z" />
    <glyph glyph-name="Gbreve" unicode="&#x11e;" horiz-adv-x="770" 
d="M395 307v88h325v-45c0 -129.333 -25.833 -223.333 -77.5 -282s-134.167 -88 -247.5 -88c-120.667 0 -208.334 29.333 -263.001 88s-82 152.667 -82 282s27.333 223.333 82 282s142.334 88 263.001 88c93.333 0 164.833 -19 214.5 -57s83.167 -99 100.5 -183h-120
c-11.333 48.667 -32.333 84 -63 106s-74.667 33 -132 33c-75.333 0 -129.833 -21.167 -163.5 -63.5s-50.5 -110.833 -50.5 -205.5s16.833 -163.167 50.5 -205.5s88.167 -63.5 163.5 -63.5c72.667 0 125 17.667 157 53s48 93 48 173h-205zM557 870
c0 -42 -12.8311 -72.501 -38.498 -91.501s-66.834 -28.5 -123.501 -28.5s-97.834 9.5 -123.501 28.5s-38.5 49.5 -38.5 91.5h85c0 -24 6.66699 -40.5 20 -49.5s32.333 -13.5 57 -13.5c27.333 0 47 4.83301 59 14.5s18 25.834 18 48.501h85z" />
    <glyph glyph-name="gbreve" unicode="&#x11f;" horiz-adv-x="600" 
d="M255 -10c-75.333 0 -129.999 20.667 -163.999 62s-51 107.666 -51 198.999c0 90.667 17 156.5 51 197.5s88.667 61.5 164 61.5c79.333 0 136 -22.667 170 -68l15 58h90v-450c0 -90.667 -19.5 -156.667 -58.5 -198s-101.167 -62 -186.5 -62
c-69.333 0 -121.833 12.833 -157.5 38.5s-58.167 66.834 -67.5 123.501h107c6.66699 -30.667 18.667 -52.667 36 -66s42.666 -20 75.999 -20c48.667 0 83.667 13 105 39s32 68 32 126v16c-34 -38 -87.667 -57 -161 -57zM285.001 79c46.667 0 80.167 13.333 100.5 40
s30.5 70.667 30.5 132c0 60.667 -10.167 104.5 -30.5 131.5s-53.833 40.5 -100.5 40.5s-80.334 -13.5 -101.001 -40.5s-31 -70.833 -31 -131.5s10.333 -104.5 31 -131.5s54.334 -40.5 101.001 -40.5zM459.001 700c0 -52.667 -12.8311 -90.667 -38.498 -114
s-66.834 -35 -123.501 -35s-97.834 11.667 -123.501 35s-38.5 61.333 -38.5 114h79c0 -30 6.5 -51.833 19.5 -65.5s34.167 -20.5 63.5 -20.5s50.5 6.66699 63.5 20s19.5 35.333 19.5 66h79z" />
    <glyph glyph-name="Gdotaccent" unicode="&#x120;" horiz-adv-x="770" 
d="M395 307v88h325v-45c0 -129.333 -25.833 -223.333 -77.5 -282s-134.167 -88 -247.5 -88c-120.667 0 -208.334 29.333 -263.001 88s-82 152.667 -82 282s27.333 223.333 82 282s142.334 88 263.001 88c93.333 0 164.833 -19 214.5 -57s83.167 -99 100.5 -183h-120
c-11.333 48.667 -32.333 84 -63 106s-74.667 33 -132 33c-75.333 0 -129.833 -21.167 -163.5 -63.5s-50.5 -110.833 -50.5 -205.5s16.833 -163.167 50.5 -205.5s88.167 -63.5 163.5 -63.5c72.667 0 125 17.667 157 53s48 93 48 173h-205zM395 870
c47.333 0 71 -20.665 71 -61.998c0 -20.667 -5.66699 -35.834 -17 -45.501s-29.333 -14.5 -54 -14.5s-42.667 4.66699 -54 14s-17 24.666 -17 45.999s5.66699 37 17 47s29.333 15 54 15z" />
    <glyph glyph-name="gdotaccent" unicode="&#x121;" horiz-adv-x="600" 
d="M255 -10c-75.333 0 -129.999 20.667 -163.999 62s-51 107.666 -51 198.999c0 90.667 17 156.5 51 197.5s88.667 61.5 164 61.5c79.333 0 136 -22.667 170 -68l15 58h90v-450c0 -90.667 -19.5 -156.667 -58.5 -198s-101.167 -62 -186.5 -62
c-69.333 0 -121.833 12.833 -157.5 38.5s-58.167 66.834 -67.5 123.501h107c6.66699 -30.667 18.667 -52.667 36 -66s42.666 -20 75.999 -20c48.667 0 83.667 13 105 39s32 68 32 126v16c-34 -38 -87.667 -57 -161 -57zM285.001 79c46.667 0 80.167 13.333 100.5 40
s30.5 70.667 30.5 132c0 60.667 -10.167 104.5 -30.5 131.5s-53.833 40.5 -100.5 40.5s-80.334 -13.5 -101.001 -40.5s-31 -70.833 -31 -131.5s10.333 -104.5 31 -131.5s54.334 -40.5 101.001 -40.5zM301.001 698c24.667 0 42.667 -5.33301 54 -16s17 -27.667 17 -51
s-5.66699 -40.5 -17 -51.5s-29.333 -16.5 -54 -16.5c-47.333 0 -71 22.667 -71 68c0 23.333 5.66699 40.333 17 51s29.333 16 54 16z" />
    <glyph glyph-name="Gcedilla" unicode="&#x122;" horiz-adv-x="770" 
d="M395 307v88h325v-45c0 -129.333 -25.833 -223.333 -77.5 -282s-134.167 -88 -247.5 -88c-120.667 0 -208.334 29.333 -263.001 88s-82 152.667 -82 282s27.333 223.333 82 282s142.334 88 263.001 88c93.333 0 164.833 -19 214.5 -57s83.167 -99 100.5 -183h-120
c-11.333 48.667 -32.333 84 -63 106s-74.667 33 -132 33c-75.333 0 -129.833 -21.167 -163.5 -63.5s-50.5 -110.833 -50.5 -205.5s16.833 -163.167 50.5 -205.5s88.167 -63.5 163.5 -63.5c72 0 124.167 17.667 156.5 53s48.5 93 48.5 173h-205zM395 -44
c30.667 0 47.999 -17.335 51.999 -52.002c0.666992 -5.33301 1 -14.333 1 -27c-0.666992 -36.667 -8.66699 -63.167 -24 -79.5s-39.666 -24.5 -72.999 -24.5v44c14.667 0 25.167 3.83301 31.5 11.5s9.5 19.834 9.5 36.501c-33.333 0 -50.333 13.333 -51 40
c0 4.66699 0.333008 8.33398 1 11.001c2 26.667 19.667 40 53 40z" />
    <glyph glyph-name="gcedilla" unicode="&#x123;" horiz-adv-x="600" 
d="M254 -10c-75.333 0 -129.999 20.667 -163.999 62s-51 107.666 -51 198.999c0 90.667 17 156.5 51 197.5s88.667 61.5 164 61.5c79.333 0 136 -22.667 170 -68l15 58h90v-450c0 -90.667 -19.5 -156.667 -58.5 -198s-101.167 -62 -186.5 -62
c-69.333 0 -121.833 12.833 -157.5 38.5s-58.167 66.834 -67.5 123.501h107c6.66699 -30.667 18.667 -52.667 36 -66s42.666 -20 75.999 -20c48.667 0 83.667 13 105 39s32 68 32 126v16c-34 -38 -87.667 -57 -161 -57zM284.001 79c46.667 0 80.167 13.333 100.5 40
s30.5 70.667 30.5 132c0 60.667 -10.167 104.5 -30.5 131.5s-53.833 40.5 -100.5 40.5s-80.334 -13.5 -101.001 -40.5s-31 -70.833 -31 -131.5s10.333 -104.5 31 -131.5s54.334 -40.5 101.001 -40.5zM287.001 553h-1.00098c-15.333 0 -27.166 4.33301 -35.499 13
s-13.333 17.834 -15 27.501s-2.5 22.5 -2.5 38.5c0 36.667 7.83301 63.167 23.5 79.5s40.167 24.5 73.5 24.5v-44c-26.667 0 -40 -16 -40 -48c19.333 0 32.5 -3.83301 39.5 -11.5s10.5 -20.834 10.5 -39.501c-2 -26.667 -19.667 -40 -53 -40z" />
    <glyph glyph-name="Itilde" unicode="&#x128;" horiz-adv-x="303" 
d="M89 700h125v-700h-125v700zM-10 760c0 34 8.66992 60.167 26.0029 78.5s39.666 27.5 66.999 27.5c23.333 0 44 -5 62 -15s33.667 -19.833 47 -29.5s26.333 -14.5 39 -14.5c10 0 18 3.83301 24 11.5s9 18.167 9 31.5h49c0 -33.333 -8.83301 -59.333 -26.5 -78
s-39.834 -28 -66.501 -28c-23.333 0 -44 5 -62 15s-33.833 19.833 -47.5 29.5s-26.834 14.5 -39.501 14.5c-9.33301 0 -17 -3.83301 -23 -11.5s-9 -18.167 -9 -31.5h-49z" />
    <glyph glyph-name="itilde" unicode="&#x129;" horiz-adv-x="263" 
d="M188 0h-113v500h113v-500zM-30 576c0 34.667 9 63.833 27 87.5s40 35.5 66 35.5c18.667 0 35.667 -4.5 51 -13.5s27.166 -18.667 35.499 -29s17.5 -20 27.5 -29s19.667 -13.5 29 -13.5s17 4.66699 23 14s9 22 9 38h55c0 -34.667 -9 -63.667 -27 -87s-40 -35 -66 -35
c-18.667 0 -35.667 4.5 -51 13.5s-27.166 18.667 -35.499 29s-17.5 20 -27.5 29s-19.667 13.5 -29 13.5s-17 -4.66699 -23 -14s-9 -22.333 -9 -39h-55z" />
    <glyph glyph-name="Imacron" unicode="&#x12a;" horiz-adv-x="320" 
d="M98 700h125v-700h-125v700zM-10 827h340v-69h-340v69z" />
    <glyph glyph-name="imacron" unicode="&#x12b;" horiz-adv-x="260" 
d="M187 0h-113v500h113v-500zM-40 653h340v-69h-340v69z" />
    <glyph glyph-name="Iogonek" unicode="&#x12e;" horiz-adv-x="314" 
d="M234 -230l-3.00098 -2c-2 -1.33301 -5.16699 -3 -9.5 -5s-9.33301 -4 -15 -6s-12.334 -3.66699 -20.001 -5s-15.167 -2 -22.5 -2c-40 0 -69 14.667 -87 44s-21.667 64 -11 104s34.334 74 71.001 102h-41v700h125v-700h-23c-36.667 -28.667 -57.667 -60 -63 -94
c-4.66699 -30 6 -48 32 -54c4.66699 -0.666992 9.66699 -1 15 -1c8 0 16.333 1.16699 25 3.5s15.334 4.83301 20.001 7.5l7 4v-96z" />
    <glyph glyph-name="iogonek" unicode="&#x12f;" horiz-adv-x="284" 
d="M177 0c-36.667 -28.667 -57.667 -60 -63 -94c-4.66699 -30 6 -48 32 -54c4.66699 -0.666992 9.66699 -1 15 -1c8 0 16.5 1.16699 25.5 3.5s15.833 4.83301 20.5 7.5l7 4v-96c-20.667 -13.333 -44.334 -20 -71.001 -20c-40 0 -69 14.667 -87 44s-21.667 64 -11 104
s34.334 74 71.001 102h-29v500h113v-500h-23zM143 715c24.667 0 42.667 -5.33301 54 -16s17 -27.667 17 -51s-5.66699 -40.5 -17 -51.5s-29.333 -16.5 -54 -16.5c-47.333 0 -71 22.667 -71 68c0 23.333 5.66699 40.333 17 51s29.333 16 54 16z" />
    <glyph glyph-name="Idotaccent" unicode="&#x130;" horiz-adv-x="322" 
d="M99 700h125v-700h-125v700zM161 870c24.667 0 42.667 -5.00195 54 -15.002s17 -25.667 17 -47s-5.66699 -36.666 -17 -45.999s-29.333 -14 -54 -14s-42.667 4.83301 -54 14.5s-17 24.834 -17 45.501c0 41.333 23.667 62 71 62z" />
    <glyph glyph-name="dotlessi" unicode="&#x131;" horiz-adv-x="253" 
d="M183 0h-113v500h113v-500z" />
    <glyph glyph-name="IJ" unicode="&#x132;" horiz-adv-x="866" 
d="M90 700h125v-700h-125v700zM330 210l0.00195312 28.999h119v-29c0 -45.333 8.33301 -78.166 25 -98.499s43.667 -30.5 81 -30.5s64.333 10 81 30s25 53 25 99v490h125v-490c0 -78.667 -18.333 -135.667 -55 -171s-95.334 -53 -176.001 -53
c-78.667 0 -135.834 17.667 -171.501 53s-53.5 92.333 -53.5 171z" />
    <glyph glyph-name="ij" unicode="&#x133;" horiz-adv-x="534" 
d="M198 0h-114v500h114v-500zM261 -92c24.667 0 43.332 6.16797 55.999 18.501s19 29.166 19 50.499v523h113v-535c0 -45.333 -12.667 -80.833 -38 -106.5s-61.666 -38.5 -108.999 -38.5h-106v88h65zM140.998 715.001c47.333 0 71.001 -22.333 71.001 -67
c0 -23.333 -5.83301 -40.5 -17.5 -51.5s-29.834 -16.5 -54.501 -16.5s-42.5 5.5 -53.5 16.5s-16.5 28.167 -16.5 51.5s5.66699 40.333 17 51s29.333 16 54 16zM392.999 715.001c47.333 0 71.001 -22.333 71.001 -67c0 -23.333 -5.83301 -40.5 -17.5 -51.5
s-29.834 -16.5 -54.501 -16.5s-42.5 5.5 -53.5 16.5s-16.5 28.167 -16.5 51.5s5.66699 40.333 17 51s29.333 16 54 16z" />
    <glyph glyph-name="Kcedilla" unicode="&#x136;" horiz-adv-x="687" 
d="M216 700v-290l268 290h153l-313 -340l333 -360h-153l-288 310v-310h-126v700h126zM331 -44c35.333 0 53.001 -26.334 53.001 -79.001c0 -36 -7.83301 -62.333 -23.5 -79s-40.167 -25 -73.5 -25v44c14.667 0 25.167 3.83301 31.5 11.5s9.5 19.834 9.5 36.501
c-34 0 -51 13.333 -51 40c0 18 4.16699 31 12.5 39s22.166 12 41.499 12z" />
    <glyph glyph-name="kcedilla" unicode="&#x137;" horiz-adv-x="559" 
d="M184 700v-405l200 205h135l-233 -240l253 -260h-135l-220 225v-225h-114v700h114zM274 -44c18.667 0 32.167 -6.33496 40.5 -19.002s12.5 -32.667 12.5 -60c0 -18 -1.83301 -33.667 -5.5 -47s-9.5 -24.166 -17.5 -32.499s-18 -14.5 -30 -18.5s-26.333 -6 -43 -6v44
c14.667 0 25.167 3.83301 31.5 11.5s9.5 19.834 9.5 36.501c-17.333 0 -30 3.16699 -38 9.5s-12 16.5 -12 30.5c0 18 4.16699 31 12.5 39s21.5 12 39.5 12z" />
    <glyph glyph-name="Lacute" unicode="&#x139;" horiz-adv-x="576" 
d="M536 101v-101h-446v700h125v-599h321zM99 750l99 120h111l-117 -120h-93z" />
    <glyph glyph-name="lacute" unicode="&#x13a;" horiz-adv-x="260" 
d="M70 0v700h114v-700h-114zM70 750l99 120h111l-117 -120h-93z" />
    <glyph glyph-name="Lcedilla" unicode="&#x13b;" horiz-adv-x="563" 
d="M537 101v-101h-447v700h126v-599h321zM313 -44c12.667 0 22.8311 -2.83496 30.498 -8.50195s13.334 -14.167 17.001 -25.5s5.5 -26.333 5.5 -45c0 -14.667 -1.16699 -27.667 -3.5 -39s-6 -21.166 -11 -29.499s-11.333 -15 -19 -20s-16.667 -8.83301 -27 -11.5
s-22.166 -4 -35.499 -4v44c14.667 0 25.167 3.83301 31.5 11.5s9.5 19.834 9.5 36.501c-17.333 0 -30 3.16699 -38 9.5s-12 16.5 -12 30.5c0 18 4.16699 31 12.5 39s21.5 12 39.5 12z" />
    <glyph glyph-name="lcedilla" unicode="&#x13c;" horiz-adv-x="254" 
d="M70 0v700h114v-700h-114zM127 -44c35.333 0 52.999 -26.333 52.999 -79c0 -36.667 -7.66699 -63.167 -23 -79.5s-39.666 -24.5 -72.999 -24.5v44c27.333 0 41 16 41 48c-34 0 -51 13.333 -51 40c0 18 4.16699 31 12.5 39s21.833 12 40.5 12z" />
    <glyph glyph-name="Lcaron" unicode="&#x13d;" horiz-adv-x="576" 
d="M536 101v-101h-446v700h125v-599h321zM313 710c35.333 0 53.001 -26.334 53.001 -79.001c0 -36 -7.83301 -62.333 -23.5 -79s-40.167 -25 -73.5 -25v44c14.667 0 25.167 3.83301 31.5 11.5s9.5 19.834 9.5 36.501c-34 0 -51 13.333 -51 40c0 18 4.16699 31 12.5 39
s22.166 12 41.499 12z" />
    <glyph glyph-name="lcaron" unicode="&#x13e;" horiz-adv-x="374" 
d="M70 0v700h113v-700h-113zM281 710c18.667 0 32.167 -6.16602 40.5 -18.499s12.5 -32.5 12.5 -60.5c0 -36.667 -7.83301 -63.334 -23.5 -80.001s-40.167 -25 -73.5 -25v45c14.667 0 25.167 3.83301 31.5 11.5s9.5 19.834 9.5 36.501c-33.333 0 -50 13.333 -50 40
c0 15.333 4.66699 27.666 14 36.999s22.333 14 39 14z" />
    <glyph glyph-name="Lslash" unicode="&#x141;" horiz-adv-x="611" 
d="M571 101v-101h-447v307l-94 -57v90l94 57v303h125v-227l220 133v-90l-220 -133v-282h322z" />
    <glyph glyph-name="lslash" unicode="&#x142;" horiz-adv-x="361" 
d="M30 290v90l94 57v263h113v-194l94 57v-89l-94 -57v-417h-113v347z" />
    <glyph glyph-name="Nacute" unicode="&#x143;" horiz-adv-x="762" 
d="M552 700h120v-700h-148l-315 537v-537h-119v700h147l315 -537v537zM321 750l100 120h111l-117 -120h-94z" />
    <glyph glyph-name="nacute" unicode="&#x144;" horiz-adv-x="580" 
d="M175 452c30.667 38.667 81.668 58 153.001 58c67.333 0 116.166 -19 146.499 -57s45.5 -99 45.5 -183v-270h-114v270c0 54 -8.33301 92.833 -25 116.5s-44 35.5 -82 35.5c-40.667 0 -70.167 -12 -88.5 -36s-27.5 -62.667 -27.5 -116v-270h-113v500h90zM340.001 700h116
l-128 -150h-92z" />
    <glyph glyph-name="Ncedilla" unicode="&#x145;" horiz-adv-x="762" 
d="M553 700h119v-700h-147l-315 537v-537h-120v700h148l315 -537v537zM381 -44c18.667 0 32.333 -6.33398 41 -19.001s13 -32.667 13 -60c0 -36 -7.83301 -62.333 -23.5 -79s-40.167 -25 -73.5 -25v44c14.667 0 25.167 3.83301 31.5 11.5s9.5 19.834 9.5 36.501
c-34 0 -51 13.333 -51 40c0 18 4.16699 31 12.5 39s21.833 12 40.5 12z" />
    <glyph glyph-name="ncedilla" unicode="&#x146;" horiz-adv-x="580" 
d="M175 452c30.667 38.667 81.668 58 153.001 58c67.333 0 116.166 -19 146.499 -57s45.5 -99 45.5 -183v-270h-114v270c0 54 -8.33301 92.833 -25 116.5s-44 35.5 -82 35.5c-40.667 0 -70.167 -12 -88.5 -36s-27.5 -62.667 -27.5 -116v-270h-113v500h90zM295.001 -44
c35.333 0 53.001 -26.334 53.001 -79.001c0 -36 -7.83301 -62.333 -23.5 -79s-40.167 -25 -73.5 -25v44c14.667 0 25.167 3.83301 31.5 11.5s9.5 19.834 9.5 36.501c-34 0 -51 13.333 -51 40c0 18 4.16699 31 12.5 39s22.166 12 41.499 12z" />
    <glyph glyph-name="Ncaron" unicode="&#x147;" horiz-adv-x="762" 
d="M552 700h120v-700h-148l-315 537v-537h-119v700h147l315 -537v537zM524 870l-92 -120h-114l-93 120h81l69 -69l68 69h81z" />
    <glyph glyph-name="ncaron" unicode="&#x148;" horiz-adv-x="580" 
d="M175 452c30.667 38.667 81.668 58 153.001 58c67.333 0 116.166 -19 146.499 -57s45.5 -99 45.5 -183v-270h-114v270c0 54 -8.33301 92.833 -25 116.5s-44 35.5 -82 35.5c-40.667 0 -70.167 -12 -88.5 -36s-27.5 -62.667 -27.5 -116v-270h-113v500h90zM352.001 550h-114
l-88 150h74l71 -92l70 92h75z" />
    <glyph glyph-name="Omacron" unicode="&#x14c;" horiz-adv-x="790" 
d="M395 720c120.667 0 208.334 -29.333 263.001 -88s82 -152.667 82 -282s-27.333 -223.333 -82 -282s-142.334 -88 -263.001 -88s-208.334 29.333 -263.001 88s-82 152.667 -82 282s27.333 223.333 82 282s142.334 88 263.001 88zM395 619
c-75.333 0 -129.833 -21.167 -163.5 -63.5s-50.5 -110.833 -50.5 -205.5s16.833 -163.167 50.5 -205.5s88.167 -63.5 163.5 -63.5s129.833 21.167 163.5 63.5s50.5 110.833 50.5 205.5s-16.833 163.167 -50.5 205.5s-88.167 63.5 -163.5 63.5zM225 835h340v-70h-340v70z" />
    <glyph glyph-name="omacron" unicode="&#x14d;" horiz-adv-x="590" 
d="M295 510c89.333 0 154.166 -20.667 194.499 -62s60.5 -107.333 60.5 -198s-20.167 -156.667 -60.5 -198s-105.166 -62 -194.499 -62s-154.166 20.5 -194.499 61.5s-60.5 107.167 -60.5 198.5s20.167 157.5 60.5 198.5s105.166 61.5 194.499 61.5zM153 250
c0 -60.667 11.167 -104.5 33.5 -131.5s58.5 -40.5 108.5 -40.5s86 13.5 108 40.5s33 70.833 33 131.5s-11 104.5 -33 131.5s-58 40.5 -108 40.5c-50.667 0 -87 -13.333 -109 -40s-33 -70.667 -33 -132zM124 635h340v-70h-340v70z" />
    <glyph glyph-name="Obreve" unicode="&#x14e;" horiz-adv-x="790" 
d="M395 720c120.667 0 208.334 -29.333 263.001 -88s82 -152.667 82 -282s-27.333 -223.333 -82 -282s-142.334 -88 -263.001 -88s-208.334 29.333 -263.001 88s-82 152.667 -82 282s27.333 223.333 82 282s142.334 88 263.001 88zM395 619
c-75.333 0 -129.833 -21.167 -163.5 -63.5s-50.5 -110.833 -50.5 -205.5s16.833 -163.167 50.5 -205.5s88.167 -63.5 163.5 -63.5s129.833 21.167 163.5 63.5s50.5 110.833 50.5 205.5s-16.833 163.167 -50.5 205.5s-88.167 63.5 -163.5 63.5zM557 870
c0 -42 -12.8311 -72.5 -38.498 -91.5s-66.834 -28.5 -123.501 -28.5s-97.834 9.5 -123.501 28.5s-38.5 49.5 -38.5 91.5h85c0 -22 6.16699 -38 18.5 -48s31.833 -15 58.5 -15s46.167 5 58.5 15s18.5 26 18.5 48h85z" />
    <glyph glyph-name="obreve" unicode="&#x14f;" horiz-adv-x="590" 
d="M295 510c89.333 0 154.166 -20.667 194.499 -62s60.5 -107.333 60.5 -198s-20.167 -156.667 -60.5 -198s-105.166 -62 -194.499 -62s-154.166 20.5 -194.499 61.5s-60.5 107.167 -60.5 198.5s20.167 157.5 60.5 198.5s105.166 61.5 194.499 61.5zM153 250
c0 -60.667 11.167 -104.5 33.5 -131.5s58.5 -40.5 108.5 -40.5s86 13.5 108 40.5s33 70.833 33 131.5s-11 104.5 -33 131.5s-58 40.5 -108 40.5c-50.667 0 -87 -13.333 -109 -40s-33 -70.667 -33 -132zM456 700c0 -52.667 -12.666 -90.834 -37.999 -114.501
s-66.333 -35.5 -123 -35.5s-97.834 11.833 -123.501 35.5s-38.5 61.834 -38.5 114.501h79c0 -30.667 6.5 -52.834 19.5 -66.501s34.167 -20.5 63.5 -20.5s50.5 6.83301 63.5 20.5s19.5 35.834 19.5 66.501h78z" />
    <glyph glyph-name="Ohungarumlaut" unicode="&#x150;" horiz-adv-x="790" 
d="M395 720c120.667 0 208.334 -29.333 263.001 -88s82 -152.667 82 -282s-27.333 -223.333 -82 -282s-142.334 -88 -263.001 -88s-208.334 29.333 -263.001 88s-82 152.667 -82 282s27.333 223.333 82 282s142.334 88 263.001 88zM395 619
c-75.333 0 -129.833 -21.167 -163.5 -63.5s-50.5 -110.833 -50.5 -205.5s16.833 -163.167 50.5 -205.5s88.167 -63.5 163.5 -63.5s129.833 21.167 163.5 63.5s50.5 110.833 50.5 205.5s-16.833 163.167 -50.5 205.5s-88.167 63.5 -163.5 63.5zM256 750l95 150h110l-118 -150
h-87zM441 750l94 150h110l-118 -150h-86z" />
    <glyph glyph-name="ohungarumlaut" unicode="&#x151;" horiz-adv-x="590" 
d="M295 510c89.333 0 154.166 -20.667 194.499 -62s60.5 -107.333 60.5 -198s-20.167 -156.667 -60.5 -198s-105.166 -62 -194.499 -62s-154.166 20.5 -194.499 61.5s-60.5 107.167 -60.5 198.5s20.167 157.5 60.5 198.5s105.166 61.5 194.499 61.5zM153 250
c0 -60.667 11.167 -104.5 33.5 -131.5s58.5 -40.5 108.5 -40.5s86 13.5 108 40.5s33 70.833 33 131.5s-11 104.5 -33 131.5s-58 40.5 -108 40.5c-50.667 0 -87 -13.333 -109 -40s-33 -70.667 -33 -132zM156 550l95 150h110l-118 -150h-87zM341 550l94 150h110l-118 -150h-86
z" />
    <glyph glyph-name="OE" unicode="&#x152;" horiz-adv-x="1124" 
d="M1084 700h0.999023v-96h-350v-194h310v-94h-310v-222h350v-95h-464v95c-43.333 -76 -117.333 -114 -222 -114c-121.333 0 -209.666 30.167 -264.999 90.5s-83 156.5 -83 288.5c0 126 25.333 217.667 76 275s131.667 86 243 86c64 0 116 -9.33301 156 -28
s71.333 -47.667 94 -87v95h464zM395.999 619c-75.333 0 -129.833 -21.167 -163.5 -63.5s-50.5 -110.833 -50.5 -205.5s16.833 -163.167 50.5 -205.5s88.167 -63.5 163.5 -63.5s129.833 21.167 163.5 63.5s50.5 110.833 50.5 205.5s-16.833 163.167 -50.5 205.5
s-88.167 63.5 -163.5 63.5z" />
    <glyph glyph-name="oe" unicode="&#x153;" horiz-adv-x="956" 
d="M539 204c4.66699 -44 17 -78.002 37 -102.002s51.667 -36 95 -36c62 0 101 28.667 117 86h108c-11.333 -51.333 -36.5 -91.166 -75.5 -119.499s-88.833 -42.5 -149.5 -42.5c-81.333 0 -141.666 24.333 -180.999 73c-35.333 -48.667 -100.333 -73 -195 -73
c-89.333 0 -154.166 20.5 -194.499 61.5s-60.5 107.167 -60.5 198.5s20.167 157.5 60.5 198.5s105.166 61.5 194.499 61.5c94.667 0 159.667 -24.333 195 -73c39.333 48.667 99.666 73 180.999 73c78 0 138.333 -23.167 181 -69.5s64 -112.166 64 -197.499v-39h-377z
M154 249.998c0 -60.667 11.167 -104.5 33.5 -131.5s58.5 -40.5 108.5 -40.5s86 13.5 108 40.5s33 70.833 33 131.5s-11 104.5 -33 131.5s-58 40.5 -108 40.5c-50.667 0 -87 -13.333 -109 -40s-33 -70.667 -33 -132zM671 433.998c-46.667 0 -80.167 -14 -100.5 -42
s-31.5 -67.667 -33.5 -119h265c0 107.333 -43.667 161 -131 161z" />
    <glyph glyph-name="Racute" unicode="&#x154;" horiz-adv-x="712" 
d="M386 261l-171.001 0.000976562v-261h-125v700h309c86.667 0 150.834 -19.833 192.501 -59.5s62.5 -93.834 62.5 -162.501c0 -110.667 -49 -179 -147 -205l155 -273h-133zM214.999 350.001h178c90.667 0 136 42.667 136 128c0 84.667 -45.333 127 -136 127h-178v-255z
M275.999 750.001l99 120h111l-117 -120h-93z" />
    <glyph glyph-name="racute" unicode="&#x155;" horiz-adv-x="399" 
d="M183 250l-0.000976562 -249.999h-113v500h90l16 -52c28 41.333 69.333 62 124 62h63v-101h-63c-45.333 0 -76.166 -11.333 -92.499 -34s-24.5 -64.334 -24.5 -125.001zM148.999 550.001l104 150h116l-127 -150h-93z" />
    <glyph glyph-name="Rcedilla" unicode="&#x156;" horiz-adv-x="713" 
d="M531 0l-144.001 261.001h-171v-261h-126v700h310c86.667 0 150.834 -19.833 192.501 -59.5s62.5 -93.834 62.5 -162.501c0 -110.667 -49 -179 -147 -205l155 -273h-132zM216.999 350.001h178c90 0 135 42.667 135 128c0 84.667 -45 127 -135 127h-178v-255z
M348.999 -43.999c35.333 0 52.999 -26.333 52.999 -79c0 -36 -7.66699 -62.333 -23 -79s-39.666 -25 -72.999 -25v44c26.667 0 40 16 40 48c-33.333 0 -50 13.333 -50 40c0 18 4.16699 31 12.5 39s21.833 12 40.5 12z" />
    <glyph glyph-name="rcedilla" unicode="&#x157;" horiz-adv-x="394" 
d="M184 250l-0.000976562 -249.999h-113v500h90l16 -52c28 41.333 69.333 62 124 62h63v-101h-63c-45.333 0 -76.166 -11.333 -92.499 -34s-24.5 -64.334 -24.5 -125.001zM122.999 -43.999c35.333 0 52.999 -26.333 52.999 -79c0 -36 -7.66699 -62.333 -23 -79
s-39.666 -25 -72.999 -25v44c27.333 0 41 16 41 48c-34 0 -51 13.333 -51 40c0 18 4.16699 31 12.5 39s21.833 12 40.5 12z" />
    <glyph glyph-name="Rcaron" unicode="&#x158;" horiz-adv-x="712" 
d="M382 259v1h-167v-259h-125v700h309c86 0 150 -21.167 192 -63.5s63 -95.166 63 -158.499c0 -50 -12.5 -93.333 -37.5 -130s-63.167 -62.334 -114.5 -77.001l160 -272h-133zM215 350h184c45.333 0 78.333 12.167 99 36.5s31 54.833 31 91.5c0 38 -10.333 68.667 -31 92
s-53.667 35 -99 35h-184v-255zM478 871l-92 -120h-114l-92 120h81l68 -69l68 69h81z" />
    <glyph glyph-name="rcaron" unicode="&#x159;" horiz-adv-x="400" 
d="M190 250l-0.000976562 -249.999h-113v500h90l16 -52c28 41.333 69.333 62 124 62h63v-101h-63c-45.333 0 -76.166 -11.333 -92.499 -34s-24.5 -64.334 -24.5 -125.001zM359.999 700.001l-88 -150h-113l-89 150h74l71 -92l71 92h74z" />
    <glyph glyph-name="Sacute" unicode="&#x15a;" horiz-adv-x="650" 
d="M179 520c0 -24 10.3359 -43.8301 31.0029 -59.4971s46.667 -26.834 78 -33.501s65.166 -15.334 101.499 -26.001s70.166 -22.334 101.499 -35.001s57.333 -33.334 78 -62.001s31 -63.667 31 -105c0 -76.667 -21.833 -132.334 -65.5 -167.001s-113.5 -52 -209.5 -52
c-96.667 0 -166.667 17.333 -210 52s-65 90.667 -65 168h113c0 -46.667 12.667 -80.334 38 -101.001s66.666 -31 123.999 -31c55.333 0 95 8.83301 119 26.5s36 46.167 36 85.5c0 32.667 -14.5 58.334 -43.5 77.001s-64 32.667 -105 42s-82 19.833 -123 31.5
s-76 31.5 -105 59.5s-43.5 65 -43.5 111c0 76.667 21 132.334 63 167.001s109.333 52 202 52s160 -17.5 202 -52.5s63 -90.833 63 -167.5h-114c0 46.667 -11.833 80.334 -35.5 101.001s-62.167 31 -115.5 31c-52 0 -89.333 -8.66699 -112 -26s-34 -46 -34 -86z
M266.003 750.003l99 120h111l-117 -120h-93z" />
    <glyph glyph-name="sacute" unicode="&#x15b;" horiz-adv-x="504" 
d="M152 373c0 -17.333 7.66992 -31.3311 23.0029 -41.998s34.666 -18 57.999 -22s48.333 -9.16699 75 -15.5s51.667 -13.833 75 -22.5s42.666 -23.334 57.999 -44.001s23 -46.667 23 -78c0 -55.333 -17.333 -95.666 -52 -120.999s-90.334 -38 -167.001 -38
c-72 0 -124.167 12.667 -156.5 38s-48.5 66 -48.5 122h107c0 -32 8 -55 24 -69s42 -21 78 -21s61.833 5.83301 77.5 17.5s23.5 31.167 23.5 58.5c0 22.667 -10.5 39.834 -31.5 51.501s-46.5 20.167 -76.5 25.5s-60 11.666 -90 18.999s-55.5 21.666 -76.5 42.999
s-31.5 50 -31.5 86c0 52 16.167 89.833 48.5 113.5s84.5 35.5 156.5 35.5c69.333 0 119.833 -11.833 151.5 -35.5s47.5 -61.834 47.5 -114.501h-102c0 28.667 -7.5 49.167 -22.5 61.5s-39.833 18.5 -74.5 18.5s-59.5 -5.16699 -74.5 -15.5s-22.5 -27.5 -22.5 -51.5z
M190.003 550.002l104 150h116l-128 -150h-92z" />
    <glyph glyph-name="Scircumflex" unicode="&#x15c;" horiz-adv-x="650" 
d="M179 520c0 -24 10.3359 -43.8301 31.0029 -59.4971s46.667 -26.834 78 -33.501s65.166 -15.334 101.499 -26.001s70.166 -22.334 101.499 -35.001s57.333 -33.334 78 -62.001s31 -63.667 31 -105c0 -76.667 -21.833 -132.334 -65.5 -167.001s-113.5 -52 -209.5 -52
c-96.667 0 -166.667 17.333 -210 52s-65 90.667 -65 168h113c0 -46.667 12.667 -80.334 38 -101.001s66.666 -31 123.999 -31c55.333 0 95 8.83301 119 26.5s36 46.167 36 85.5c0 32.667 -14.5 58.334 -43.5 77.001s-64 32.667 -105 42s-82 19.833 -123 31.5
s-76 31.5 -105 59.5s-43.5 65 -43.5 111c0 76.667 21 132.334 63 167.001s109.333 52 202 52s160 -17.5 202 -52.5s63 -90.833 63 -167.5h-114c0 46.667 -11.833 80.334 -35.5 101.001s-62.167 31 -115.5 31c-52 0 -89.333 -8.66699 -112 -26s-34 -46 -34 -86z
M474.003 750.003h-81l-68 69l-68 -69h-81l92 120h114z" />
    <glyph glyph-name="scircumflex" unicode="&#x15d;" horiz-adv-x="504" 
d="M152 373c0 -17.333 7.66992 -31.3311 23.0029 -41.998s34.666 -18 57.999 -22s48.333 -9.16699 75 -15.5s51.667 -13.833 75 -22.5s42.666 -23.334 57.999 -44.001s23 -46.667 23 -78c0 -55.333 -17.333 -95.666 -52 -120.999s-90.334 -38 -167.001 -38
c-72 0 -124.167 12.667 -156.5 38s-48.5 66 -48.5 122h107c0 -32 8 -55 24 -69s42 -21 78 -21s61.833 5.83301 77.5 17.5s23.5 31.167 23.5 58.5c0 22.667 -10.5 39.834 -31.5 51.501s-46.5 20.167 -76.5 25.5s-60 11.666 -90 18.999s-55.5 21.666 -76.5 42.999
s-31.5 50 -31.5 86c0 52 16.167 89.833 48.5 113.5s84.5 35.5 156.5 35.5c69.333 0 119.833 -11.833 151.5 -35.5s47.5 -61.834 47.5 -114.501h-102c0 28.667 -7.5 49.167 -22.5 61.5s-39.833 18.5 -74.5 18.5s-59.5 -5.16699 -74.5 -15.5s-22.5 -27.5 -22.5 -51.5z
M394.003 550.002h-74l-71 92l-71 -92h-74l88 150h114z" />
    <glyph glyph-name="Scedilla" unicode="&#x15e;" horiz-adv-x="650" 
d="M282 -19l1.00195 1.00098c-81.333 4.66699 -140.5 24.334 -177.5 59.001s-55.5 87.667 -55.5 159h113c0 -46.667 12.667 -80.334 38 -101.001s66.666 -31 123.999 -31c55.333 0 95 8.83301 119 26.5s36 46.167 36 85.5c0 32.667 -14.5 58.334 -43.5 77.001
s-64 32.667 -105 42s-82 19.833 -123 31.5s-76 31.5 -105 59.5s-43.5 65 -43.5 111c0 76.667 21 132.334 63 167.001s109.333 52 202 52s160 -17.5 202 -52.5s63 -90.833 63 -167.5h-114c0 46.667 -11.833 80.334 -35.5 101.001s-62.167 31 -115.5 31
c-52 0 -89.333 -8.66699 -112 -26s-34 -46 -34 -86c0 -24 10.333 -43.833 31 -59.5s46.667 -26.834 78 -33.501s65.166 -15.334 101.499 -26.001s70.166 -22.334 101.499 -35.001s57.333 -33.334 78 -62.001s31 -63.667 31 -105c0 -73.333 -20.167 -127.5 -60.5 -162.5
s-104.833 -53.833 -193.5 -56.5l-9 -31l10.5 -2.5c4.33301 -1 12.333 -3.66699 24 -8s21.834 -9.5 30.501 -15.5s16.5 -14.5 23.5 -25.5s10.5 -23.5 10.5 -37.5c0 -35.333 -17.5 -62.5 -52.5 -81.5s-84.833 -28.5 -149.5 -28.5v51c78 0 117 19.667 117 59
c0 16 -9.5 27.5 -28.5 34.5s-39.833 10.5 -62.5 10.5z" />
    <glyph glyph-name="scedilla" unicode="&#x15f;" horiz-adv-x="504" 
d="M210 -9l0.000976562 1.00488c-59.333 4 -102.5 18.667 -129.5 44s-40.5 63.666 -40.5 114.999h107c0 -32 8 -55 24 -69s42 -21 78 -21s61.833 5.83301 77.5 17.5s23.5 31.167 23.5 58.5c0 22.667 -10.5 39.834 -31.5 51.501s-46.5 20.167 -76.5 25.5
s-60 11.666 -90 18.999s-55.5 21.666 -76.5 42.999s-31.5 50 -31.5 86c0 52 16.167 89.833 48.5 113.5s84.5 35.5 156.5 35.5c69.333 0 119.833 -11.833 151.5 -35.5s47.5 -61.834 47.5 -114.501h-102c0 28.667 -7.5 49.167 -22.5 61.5s-39.833 18.5 -74.5 18.5
s-59.5 -5.16699 -74.5 -15.5s-22.5 -27.5 -22.5 -51.5c0 -17.333 7.66699 -31.333 23 -42s34.666 -18 57.999 -22s48.333 -9.16699 75 -15.5s51.667 -13.833 75 -22.5s42.666 -23.334 57.999 -44.001s23 -46.667 23 -78c0 -52 -15.167 -90.833 -45.5 -116.5
s-78.833 -39.834 -145.5 -42.501l-11 -42l10.5 -2.5c4.33301 -1 12.333 -3.66699 24 -8s21.834 -9.5 30.501 -15.5s16.5 -14.5 23.5 -25.5s10.5 -23.5 10.5 -37.5c0 -35.333 -17.5 -62.5 -52.5 -81.5s-84.833 -28.5 -149.5 -28.5v51c78 0 117 19.667 117 59
c0 16 -9.5 27.5 -28.5 34.5s-39.833 10.5 -62.5 10.5z" />
    <glyph glyph-name="Scaron" unicode="&#x160;" horiz-adv-x="650" 
d="M179 520c0 -24 10.3359 -43.8301 31.0029 -59.4971s46.667 -26.834 78 -33.501s65.166 -15.334 101.499 -26.001s70.166 -22.334 101.499 -35.001s57.333 -33.334 78 -62.001s31 -63.667 31 -105c0 -76.667 -21.833 -132.334 -65.5 -167.001s-113.5 -52 -209.5 -52
c-96.667 0 -166.667 17.333 -210 52s-65 90.667 -65 168h113c0 -46.667 12.667 -80.334 38 -101.001s66.666 -31 123.999 -31c55.333 0 95 8.83301 119 26.5s36 46.167 36 85.5c0 32.667 -14.5 58.334 -43.5 77.001s-64 32.667 -105 42s-82 19.833 -123 31.5
s-76 31.5 -105 59.5s-43.5 65 -43.5 111c0 76.667 21 132.334 63 167.001s109.333 52 202 52s160 -17.5 202 -52.5s63 -90.833 63 -167.5h-114c0 46.667 -11.833 80.334 -35.5 101.001s-62.167 31 -115.5 31c-52 0 -89.333 -8.66699 -112 -26s-34 -46 -34 -86z
M468.003 870.003l-92 -120h-114l-92 120h81l68 -69l68 69h81z" />
    <glyph glyph-name="scaron" unicode="&#x161;" horiz-adv-x="504" 
d="M152 373c0 -17.333 7.66992 -31.3311 23.0029 -41.998s34.666 -18 57.999 -22s48.333 -9.16699 75 -15.5s51.667 -13.833 75 -22.5s42.666 -23.334 57.999 -44.001s23 -46.667 23 -78c0 -55.333 -17.333 -95.666 -52 -120.999s-90.334 -38 -167.001 -38
c-72 0 -124.167 12.667 -156.5 38s-48.5 66 -48.5 122h107c0 -32 8 -55 24 -69s42 -21 78 -21s61.833 5.83301 77.5 17.5s23.5 31.167 23.5 58.5c0 22.667 -10.5 39.834 -31.5 51.501s-46.5 20.167 -76.5 25.5s-60 11.666 -90 18.999s-55.5 21.666 -76.5 42.999
s-31.5 50 -31.5 86c0 52 16.167 89.833 48.5 113.5s84.5 35.5 156.5 35.5c69.333 0 119.833 -11.833 151.5 -35.5s47.5 -61.834 47.5 -114.501h-102c0 28.667 -7.5 49.167 -22.5 61.5s-39.833 18.5 -74.5 18.5s-59.5 -5.16699 -74.5 -15.5s-22.5 -27.5 -22.5 -51.5z
M394.003 700.002l-88 -150h-114l-88 150h74l71 -93l71 93h74z" />
    <glyph glyph-name="Tcedilla" unicode="&#x162;" horiz-adv-x="630" 
d="M280 0h-28.001v599h-212v101h550v-101h-212v-599h-36l-14 -51l10.5 -2.5c4.33301 -1 12.333 -3.66699 24 -8s21.834 -9.5 30.501 -15.5s16.5 -14.5 23.5 -25.5s10.5 -23.5 10.5 -37.5c0 -35.333 -17.5 -62.5 -52.5 -81.5s-84.833 -28.5 -149.5 -28.5v51
c78 0 117 19.667 117 59c0 16 -9.5 27.5 -28.5 34.5s-39.5 10.5 -61.5 10.5z" />
    <glyph glyph-name="tcedilla" unicode="&#x163;" horiz-adv-x="402" 
d="M208 6c-65.333 17.333 -98.002 63.666 -98.002 138.999v279h-80v76h80v122h114v-122h148v-76h-148v-267c0 -21.333 6.33301 -38.166 19 -50.499s31.334 -18.5 56.001 -18.5h73v-88h-103l-15 -51l10.5 -2.5c4.33301 -1 12.333 -3.66699 24 -8s21.834 -9.5 30.501 -15.5
s16.5 -14.5 23.5 -25.5s10.5 -23.5 10.5 -37.5c0 -35.333 -17.5 -62.5 -52.5 -81.5s-84.833 -28.5 -149.5 -28.5v51c78.667 0 118 19.667 118 59c0 16 -9.5 27.5 -28.5 34.5s-39.833 10.5 -62.5 10.5z" />
    <glyph glyph-name="Tcaron" unicode="&#x164;" horiz-adv-x="630" 
d="M590 700v-101h-212v-599h-126v599h-212v101h550zM458 870l-92 -120h-114l-92 120h81l68 -69l68 69h81z" />
    <glyph glyph-name="tcaron" unicode="&#x165;" horiz-adv-x="402" 
d="M224 157c0 -21.333 6.33203 -38.167 18.999 -50.5s31.334 -18.5 56.001 -18.5h73v-88h-114c-47.333 -0 -83.833 12.833 -109.5 38.5s-38.5 61.167 -38.5 106.5v279h-80v76h80v122h114v-122h148v-76h-148v-267zM315.999 714.999l-1.00098 -0.000976562
c9.33301 0 17.333 -1.5 24 -4.5s12.167 -7.83301 16.5 -14.5s7.5 -15 9.5 -25s3 -22 3 -36c0 -37.333 -7.66699 -64.666 -23 -81.999s-39.666 -26 -72.999 -26v45c14.667 0 25.167 4 31.5 12s9.5 21.333 9.5 40c-18 0 -30.833 3.33301 -38.5 10s-11.5 18 -11.5 34
c0 31.333 17.333 47 52 47h1z" />
    <glyph glyph-name="Utilde" unicode="&#x168;" horiz-adv-x="730" 
d="M80 256l-0.000976562 444h125v-444c0 -61.333 12.5 -105.833 37.5 -133.5s65.833 -41.5 122.5 -41.5c56 0 96.5 13.833 121.5 41.5s37.5 72.167 37.5 133.5v444h126v-444c0 -96.667 -22.667 -166.834 -68 -210.501s-117.666 -65.5 -216.999 -65.5
c-100 0 -172.5 21.833 -217.5 65.5s-67.5 113.834 -67.5 210.501zM202.999 760c0 33.333 8.83203 59.333 26.499 78s39.834 28 66.501 28c23.333 0 44 -5 62 -15s33.667 -19.833 47 -29.5s26.666 -14.5 39.999 -14.5c9.33301 0 17 3.83301 23 11.5s9 18.167 9 31.5h49
c0 -34 -8.66699 -60.167 -26 -78.5s-39.666 -27.5 -66.999 -27.5c-23.333 0 -44 5 -62 15s-33.667 19.833 -47 29.5s-26.333 14.5 -39 14.5c-10 0 -18 -3.83301 -24 -11.5s-9 -18.167 -9 -31.5h-49z" />
    <glyph glyph-name="utilde" unicode="&#x169;" horiz-adv-x="580" 
d="M399 48c-30.667 -38.667 -81.668 -58 -153.001 -58c-67.333 0 -116.166 19 -146.499 57s-45.5 99 -45.5 183v270h114v-270c0 -54 8.33301 -92.833 25 -116.5s44 -35.5 82 -35.5c40.667 0 70.167 12 88.5 36s27.5 62.667 27.5 116v270h113v-500h-90zM121.999 600
c0 34.667 9 63.667 27 87s40 35 66 35c18.667 0 35.667 -4.5 51 -13.5s27.166 -18.667 35.499 -29s17.5 -20 27.5 -29s19.667 -13.5 29 -13.5s17 4.66699 23 14s9 22.333 9 39h55c0 -34.667 -9 -63.667 -27 -87s-40 -35 -66 -35c-18.667 0 -35.667 4.5 -51 13.5
s-27.166 18.667 -35.499 29s-17.5 20 -27.5 29s-19.333 13.5 -28 13.5c-10 0 -18 -4.66699 -24 -14s-9 -22.333 -9 -39h-55z" />
    <glyph glyph-name="Umacron" unicode="&#x16a;" horiz-adv-x="730" 
d="M80 256l-0.000976562 444h125v-444c0 -61.333 12.5 -105.833 37.5 -133.5s65.833 -41.5 122.5 -41.5c56 0 96.5 13.833 121.5 41.5s37.5 72.167 37.5 133.5v444h126v-444c0 -96.667 -22.667 -166.834 -68 -210.501s-117.666 -65.5 -216.999 -65.5
c-100 0 -172.5 21.833 -217.5 65.5s-67.5 113.834 -67.5 210.501zM193.999 831h340v-70h-340v70z" />
    <glyph glyph-name="umacron" unicode="&#x16b;" horiz-adv-x="580" 
d="M399 48c-30.667 -38.667 -81.668 -58 -153.001 -58c-67.333 0 -116.166 19 -146.499 57s-45.5 99 -45.5 183v270h114v-270c0 -54 8.33301 -92.833 25 -116.5s44 -35.5 82 -35.5c40.667 0 70.167 12 88.5 36s27.5 62.667 27.5 116v270h113v-500h-90zM113.999 584v69h340
v-69h-340z" />
    <glyph glyph-name="Ubreve" unicode="&#x16c;" horiz-adv-x="730" 
d="M80 256l-0.000976562 444h125v-444c0 -61.333 12.5 -105.833 37.5 -133.5s65.833 -41.5 122.5 -41.5c56 0 96.5 13.833 121.5 41.5s37.5 72.167 37.5 133.5v444h126v-444c0 -96.667 -22.667 -166.834 -68 -210.501s-117.666 -65.5 -216.999 -65.5
c-100 0 -172.5 21.833 -217.5 65.5s-67.5 113.834 -67.5 210.501zM525.999 870c0 -42 -12.665 -72.501 -37.998 -91.501s-66.333 -28.5 -123 -28.5s-97.834 9.5 -123.501 28.5s-38.5 49.5 -38.5 91.5h84c0 -22 6.16699 -38 18.5 -48s32.166 -15 59.499 -15
s47 4.83301 59 14.5s18 25.834 18 48.501h84z" />
    <glyph glyph-name="ubreve" unicode="&#x16d;" horiz-adv-x="580" 
d="M399 48c-30.667 -38.667 -81.668 -58 -153.001 -58c-67.333 0 -116.166 19 -146.499 57s-45.5 99 -45.5 183v270h114v-270c0 -54 8.33301 -92.833 25 -116.5s44 -35.5 82 -35.5c40.667 0 70.167 12 88.5 36s27.5 62.667 27.5 116v270h113v-500h-90zM356.999 700h78.001
c0 -52.667 -12.667 -90.834 -38 -114.501s-66.333 -35.5 -123 -35.5s-97.834 11.833 -123.501 35.5s-38.5 61.834 -38.5 114.501h79c0 -30.667 6.5 -52.834 19.5 -66.501s34.167 -20.5 63.5 -20.5s50.5 6.83301 63.5 20.5s19.5 35.834 19.5 66.501z" />
    <glyph glyph-name="Uring" unicode="&#x16e;" horiz-adv-x="730" 
d="M80 256l-0.000976562 444h125v-444c0 -61.333 12.5 -105.833 37.5 -133.5s65.833 -41.5 122.5 -41.5c56 0 96.5 13.833 121.5 41.5s37.5 72.167 37.5 133.5v444h126v-444c0 -96.667 -22.667 -166.834 -68 -210.501s-117.666 -65.5 -216.999 -65.5
c-100 0 -172.5 21.833 -217.5 65.5s-67.5 113.834 -67.5 210.501zM364.999 895c40.667 0 70.334 -8.16699 89.001 -24.5s28 -42.5 28 -78.5c0 -35.333 -9.33301 -61.166 -28 -77.499s-48.334 -24.5 -89.001 -24.5c-41.333 0 -71.333 8.16699 -90 24.5s-28 42.166 -28 77.499
c0 36 9.33301 62.167 28 78.5s48.667 24.5 90 24.5zM364.999 741c20 0 34.333 4 43 12s13 21 13 39c0 18.667 -4.33301 32 -13 40s-23 12 -43 12c-20.667 0 -35.334 -4 -44.001 -12s-13 -21.333 -13 -40c0 -18 4.33301 -31 13 -39s23.334 -12 44.001 -12z" />
    <glyph glyph-name="uring" unicode="&#x16f;" horiz-adv-x="580" 
d="M399 48c-30.667 -38.667 -81.668 -58 -153.001 -58c-67.333 0 -116.166 19 -146.499 57s-45.5 99 -45.5 183v270h114v-270c0 -54 8.33301 -92.833 25 -116.5s44 -35.5 82 -35.5c40.667 0 70.167 12 88.5 36s27.5 62.667 27.5 116v270h113v-500h-90zM280.999 742
c41.333 0 71.168 -8 89.501 -24s27.5 -42 27.5 -78s-9.33301 -62.167 -28 -78.5s-48.334 -24.5 -89.001 -24.5c-41.333 0 -71.333 8.16699 -90 24.5s-28 42.5 -28 78.5s9.33301 62 28 78s48.667 24 90 24zM281.001 589c20.667 0 35.167 3.83301 43.5 11.5
s12.5 20.834 12.5 39.501s-4.16699 31.834 -12.5 39.501s-22.833 11.5 -43.5 11.5s-35.334 -3.83301 -44.001 -11.5s-13 -20.834 -13 -39.501s4.33301 -31.834 13 -39.501s23.334 -11.5 44.001 -11.5z" />
    <glyph glyph-name="Uhungarumlaut" unicode="&#x170;" horiz-adv-x="730" 
d="M80 256l-0.000976562 444h125v-444c0 -61.333 12.5 -105.833 37.5 -133.5s65.833 -41.5 122.5 -41.5c56 0 96.5 13.833 121.5 41.5s37.5 72.167 37.5 133.5v444h126v-444c0 -96.667 -22.667 -166.834 -68 -210.501s-117.666 -65.5 -216.999 -65.5
c-100 0 -172.5 21.833 -217.5 65.5s-67.5 113.834 -67.5 210.501zM225.999 750l95 150h110l-118 -150h-87zM410.999 750l94 150h110l-118 -150h-86z" />
    <glyph glyph-name="uhungarumlaut" unicode="&#x171;" horiz-adv-x="588" 
d="M399 48c-30.667 -38.667 -81.668 -58 -153.001 -58c-67.333 0 -116.166 19 -146.499 57s-45.5 99 -45.5 183v270h114v-270c0 -54 8.33301 -92.833 25 -116.5s44 -35.5 82 -35.5c40.667 0 70.167 12 88.5 36s27.5 62.667 27.5 116v270h113v-500h-90zM223.999 700h110
l-118 -150h-87zM407.999 700h110l-118 -150h-86z" />
    <glyph glyph-name="Uogonek" unicode="&#x172;" horiz-adv-x="730" 
d="M650 255c0 -74.667 -13.5029 -133.334 -40.5029 -176.001s-68.833 -71.334 -125.5 -86.001c-22 -18.667 -38 -39.167 -48 -61.5s-11.667 -41.333 -5 -57s21.334 -23.5 44.001 -23.5c8.66699 0 17.334 1.16699 26.001 3.5s15.334 4.83301 20.001 7.5l7 4v-96
c-20 -13.333 -43.333 -20 -70 -20c-37.333 0 -65.333 13 -84 39s-24.667 57.333 -18 94s24.667 69.334 54 98.001c-18.667 -1.33301 -33.667 -2 -45 -2c-100 0 -172.5 21.833 -217.5 65.5s-67.5 113.834 -67.5 210.501v444h125v-444c0 -61.333 12.5 -105.833 37.5 -133.5
s65.833 -41.5 122.5 -41.5c56 0 96.5 13.833 121.5 41.5s37.5 72.167 37.5 133.5v444h126v-444z" />
    <glyph glyph-name="uogonek" unicode="&#x173;" horiz-adv-x="584" 
d="M417 0h-2.00098l-15 48c-30.667 -38.667 -81.667 -58 -153 -58c-67.333 0 -116.166 19 -146.499 57s-45.5 99 -45.5 183v270h114v-270c0 -54 8.33301 -92.833 25 -116.5s44 -35.5 82 -35.5c40.667 0 70.167 12 88.5 36s27.5 62.667 27.5 116v270h113v-500h-26
c-36.667 -28.667 -58 -60 -64 -94c-4.66699 -30 6 -48 32 -54c4.66699 -0.666992 9.66699 -1 15 -1c8 0 16.5 1.16699 25.5 3.5s15.833 4.83301 20.5 7.5l7 4v-96c-20 -13.333 -43.333 -20 -70 -20c-30 0 -54 9 -72 27s-28.5 39.833 -31.5 65.5s2 53.167 15 82.5
s33.167 54.333 60.5 75z" />
    <glyph glyph-name="Wcircumflex" unicode="&#x174;" horiz-adv-x="1022" 
d="M436 700h150l127 -583l143 583h126l-184 -700h-162l-130 584l-120 -584h-162l-184 700h126l143 -583zM657 750h-81l-68 69l-68 -69h-81l92 120h114z" />
    <glyph glyph-name="wcircumflex" unicode="&#x175;" horiz-adv-x="857" 
d="M670 0l-1 -1h-138l-103 419l-103 -418h-138l-157 500h115l116 -410l101 410h138l96 -411l116 411h115zM572 550h-75l-70 92l-71 -92h-75l89 150h113z" />
    <glyph glyph-name="Ycircumflex" unicode="&#x176;" horiz-adv-x="665" 
d="M395 275v-275h-119v275l-246 425h138l168 -309l167 309h132zM484 750h-81l-69 69l-68 -69h-81l93 120h113z" />
    <glyph glyph-name="ycircumflex" unicode="&#x177;" horiz-adv-x="531" 
d="M235 4l3 8.99902l-218 487h109l154 -354l119 354h109l-190 -533c-18.667 -51.333 -41.667 -88.666 -69 -111.999s-62.333 -35 -105 -35h-64v76h58c19.333 0 36.5 8.5 51.5 25.5s29.167 44.5 42.5 82.5zM416 549.999h-74l-71 92l-70 -92h-75l89 150h113z" />
    <glyph glyph-name="Ydieresis" unicode="&#x178;" horiz-adv-x="665" 
d="M395 275v-275h-119v275l-246 425h138l168 -309l167 309h132zM229 860c47.333 0 71 -20.6689 71 -62.002c0 -21.333 -5.66699 -36.666 -17 -45.999s-29.333 -14 -54 -14s-42.667 4.83301 -54 14.5s-17 24.834 -17 45.501c0 21.333 5.66699 37 17 47s29.333 15 54 15z
M439 859.998c24.667 0 42.667 -5.00195 54 -15.002s17 -25.667 17 -47s-5.66699 -36.666 -17 -45.999s-29.333 -14 -54 -14s-42.667 4.83301 -54 14.5s-17 24.834 -17 45.501c0 41.333 23.667 62 71 62z" />
    <glyph glyph-name="Zacute" unicode="&#x179;" horiz-adv-x="627" 
d="M187 95h400v-95h-547v79l390 526h-380v95h527v-79zM248 750l100 120h111l-118 -120h-93z" />
    <glyph glyph-name="zacute" unicode="&#x17a;" horiz-adv-x="487" 
d="M166 82h291v-82h-427v67l282 351h-272v82h407v-67zM185 550l104 150h116l-128 -150h-92z" />
    <glyph glyph-name="Zdotaccent" unicode="&#x17b;" horiz-adv-x="627" 
d="M187 95h400v-95h-547v79l390 526h-380v95h527v-79zM313 870c24.667 0 42.667 -5.00195 54 -15.002s17 -25.667 17 -47s-5.66699 -36.666 -17 -45.999s-29.333 -14 -54 -14s-42.667 4.83301 -54 14.5s-17 24.834 -17 45.501c0 41.333 23.667 62 71 62z" />
    <glyph glyph-name="zdotaccent" unicode="&#x17c;" horiz-adv-x="487" 
d="M166 82h291v-82h-427v67l282 351h-272v82h407v-67zM244 705c47.333 0 70.999 -22.667 70.999 -68c0 -23.333 -5.66699 -40.333 -17 -51s-29.666 -16 -54.999 -16c-24.667 0 -42.5 5.33301 -53.5 16s-16.5 27.667 -16.5 51s5.66699 40.5 17 51.5s29.333 16.5 54 16.5z" />
    <glyph glyph-name="Zcaron" unicode="&#x17d;" horiz-adv-x="627" 
d="M187 95h400v-95h-547v79l390 526h-380v95h527v-79zM457 870l-93 -120h-113l-93 120h81l69 -69l68 69h81z" />
    <glyph glyph-name="zcaron" unicode="&#x17e;" horiz-adv-x="487" 
d="M166 82h291v-82h-427v67l282 351h-272v82h407v-67zM389 700l-88 -150h-114l-88 150h74l71 -92l70 92h75z" />
    <glyph glyph-name="Aacutering" unicode="&#x1fa;" horiz-adv-x="702" 
d="M30 0l241 700h172l229 -700h-132l-49 157h-286l-50 -157h-125zM233 245h230l-114 367zM407 891c40 -12 60 -38.333 60 -79c0 -27.333 -10.5 -48.5 -31.5 -63.5s-49.5 -22.5 -85.5 -22.5c-36.667 0 -65.5 7.5 -86.5 22.5s-31.5 36.167 -31.5 63.5
c0 28 10.5 49.5 31.5 64.5s49.833 22.5 86.5 22.5l47 61h76zM351 771c41.333 0 62 13.667 62 41c0 28 -20.667 42 -62 42c-42 0 -63 -14 -63 -42c0 -27.333 21 -41 63 -41z" />
    <glyph glyph-name="aacutering" unicode="&#x1fb;" horiz-adv-x="550" 
d="M386 50c-31.333 -40 -85 -60.001 -161 -60.001c-64.667 0 -111.667 12.333 -141 37s-44 64.334 -44 119.001c0 59.333 18.5 102.5 55.5 129.5s96.167 40.5 177.5 40.5h103v24c0 35.333 -8.16699 60.833 -24.5 76.5s-42.833 23.5 -79.5 23.5c-37.333 0 -64 -7 -80 -21
s-24 -37 -24 -69h-108c0 56 17 96.667 51 122s88.667 38 164 38c74.667 0 129.167 -14.5 163.5 -43.5s51.5 -75.167 51.5 -138.5v-328h-90zM376 246.999l-81 0.000976562c-21.333 0 -39 -0.833008 -53 -2.5s-28.5 -5.5 -43.5 -11.5s-26.333 -15.833 -34 -29.5
s-11.5 -30.834 -11.5 -51.501c0 -28.667 8 -49.167 24 -61.5s42 -18.5 78 -18.5c40 0 69.667 9.5 89 28.5s30 49.167 32 90.5v56zM343 788l86 -0.000976562l-82 -78c29.333 -16 44 -42.667 44 -80c0 -30.667 -10 -54.334 -30 -71.001s-49 -25 -87 -25
s-67.167 8.33301 -87.5 25s-30.5 40.334 -30.5 71.001s10.167 54.334 30.5 71.001s49.5 25 87.5 25h14zM275 584.999c20.667 0 35.167 3.5 43.5 10.5s12.5 18.5 12.5 34.5s-4.16699 27.5 -12.5 34.5s-22.833 10.5 -43.5 10.5s-35.334 -3.5 -44.001 -10.5
s-13 -18.5 -13 -34.5s4.33301 -27.5 13 -34.5s23.334 -10.5 44.001 -10.5z" />
    <glyph glyph-name="AEacute" unicode="&#x1fc;" horiz-adv-x="942" 
d="M902 605h-323v-194h283v-94h-283v-222h323v-95h-437v157h-230l-79 -157h-126l361 700h511v-95zM465 614l-186 -369h186v369zM488 750l99 120h111l-117 -120h-93z" />
    <glyph glyph-name="aeacute" unicode="&#x1fd;" horiz-adv-x="905" 
d="M865 204l-373.999 -0.000976562c4 -48 16.333 -82.833 37 -104.5s52 -32.5 94 -32.5c33.333 0 59.166 6.66699 77.499 20s31.833 35.333 40.5 66h107c-11.333 -56.667 -34.833 -97.834 -70.5 -123.501s-87.167 -38.5 -154.5 -38.5c-100.667 0 -165.667 38.333 -195 115
c-12 -40 -34.333 -69.333 -67 -88s-77.667 -28 -135 -28c-64.667 0 -111.667 12.333 -141 37s-44 64.334 -44 119.001c0 58 17 100.833 51 128.5s88.333 41.5 163 41.5h122v24c0 34.667 -8.83301 59 -26.5 73s-44.5 21 -80.5 21c-36.667 0 -62.667 -6.5 -78 -19.5
s-23 -34.5 -23 -64.5h-108c0 56 17 96.667 51 122s88.667 38 164 38c87.333 0 144 -25.667 170 -77c32.667 51.333 91 77 175 77c86 0 148.333 -21.167 187 -63.5s58 -110.166 58 -203.499v-39zM375.001 245.999l-90.999 -0.000976562
c-46.667 0 -80.334 -7.33301 -101.001 -22s-31 -38.667 -31 -72c0 -14.667 2.33301 -27 7 -37s10.334 -17.833 17.001 -23.5s15.667 -10 27 -13s21.666 -4.83301 30.999 -5.5s21 -1 35 -1c36.667 0 63.5 9.83301 80.5 29.5s25.5 49.834 25.5 90.501v54zM622.002 434.998
c-44 0 -76.499 -12.667 -97.499 -38s-32.833 -66.333 -35.5 -123h265c0 57.333 -10.333 98.5 -31 123.5s-54.334 37.5 -101.001 37.5zM387.003 549.998l104 150h116l-128 -150h-92z" />
    <glyph glyph-name="Oslashacute" unicode="&#x1fe;" horiz-adv-x="790" 
d="M518 780h77.999l-30 -88c60 -23.333 104 -63 132 -119s42 -130.667 42 -224c0 -129.333 -27.333 -223.333 -82 -282s-142.334 -88 -263.001 -88c-29.333 0 -54.666 1.33301 -75.999 4l-22 -63h-79l28 78c-68 20.667 -117.667 59.5 -149 116.5s-47 135.167 -47 234.5
c0 129.333 27.333 223.333 82 282s142.334 88 263.001 88c38 0 71 -2.33301 99 -7zM459.999 613c-18.667 4 -40.333 6 -65 6c-75.333 0 -129.833 -21.167 -163.5 -63.5s-50.5 -110.833 -50.5 -205.5c0 -130.667 33.667 -213 101 -247zM353 83
c17.333 -1.33301 31.333 -2 42 -2c75.333 0 129.833 21.167 163.5 63.5s50.5 110.833 50.5 205.5c0 117.333 -27 195.333 -81 234zM317 749l100 120h110l-117 -120h-93z" />
    <glyph glyph-name="oslashacute" unicode="&#x1ff;" horiz-adv-x="591" 
d="M295 510c28 0 48.332 -0.666992 60.999 -2l22 62h55l-25 -73c49.333 -14.667 85.5 -42 108.5 -82s34.5 -94.667 34.5 -164c0 -90.667 -20.167 -156.667 -60.5 -198s-105.166 -62 -194.499 -62c-21.333 0 -41.666 1 -60.999 3l-22 -64h-55l25 74
c-49.333 14.667 -85.5 42 -108.5 82s-34.5 94.667 -34.5 164c0 91.333 20.167 157.5 60.5 198.5s105.166 61.5 194.499 61.5zM293.999 423c-50.667 0 -87.167 -13.5 -109.5 -40.5s-33.5 -70.833 -33.5 -131.5c0 -80 20.333 -131.667 61 -155l112 325
c-12 1.33301 -22 2 -30 2zM374.999 406l-111.999 -325.001c13.333 -1.33301 23.666 -2 30.999 -2c50 0 86 13.5 108 40.5s33 70.833 33 131.5c0 80.667 -20 132.334 -60 155.001zM210 550.999l104 150h116l-127 -150h-93z" />
    <glyph glyph-name="Scommaaccent" unicode="&#x218;" horiz-adv-x="650" 
d="M179 520c0 -24 10.3359 -43.8301 31.0029 -59.4971s46.667 -26.834 78 -33.501s65.166 -15.334 101.499 -26.001s70.166 -22.334 101.499 -35.001s57.333 -33.334 78 -62.001s31 -63.667 31 -105c0 -76.667 -21.833 -132.334 -65.5 -167.001s-113.5 -52 -209.5 -52
c-96.667 0 -166.667 17.333 -210 52s-65 90.667 -65 168h113c0 -46.667 12.667 -80.334 38 -101.001s66.666 -31 123.999 -31c55.333 0 95 8.83301 119 26.5s36 46.167 36 85.5c0 32.667 -14.5 58.334 -43.5 77.001s-64 32.667 -105 42s-82 19.833 -123 31.5
s-76 31.5 -105 59.5s-43.5 65 -43.5 111c0 76.667 21 132.334 63 167.001s109.333 52 202 52s160 -17.5 202 -52.5s63 -90.833 63 -167.5h-114c0 46.667 -11.833 80.334 -35.5 101.001s-62.167 31 -115.5 31c-52 0 -89.333 -8.66699 -112 -26s-34 -46 -34 -86z
M325.003 -43.9971c35.333 0 52.999 -26.333 52.999 -79c-0.666992 -36.667 -8.66699 -63.167 -24 -79.5s-39.666 -24.5 -72.999 -24.5l1 44c26.667 0 40 16 40 48c-33.333 0 -50 13.333 -50 40c0 18 4.16699 31 12.5 39s21.833 12 40.5 12z" />
    <glyph glyph-name="scommaaccent" unicode="&#x219;" horiz-adv-x="505" 
d="M152 373c0 -17.333 7.66992 -31.3311 23.0029 -41.998s34.666 -18 57.999 -22s48.5 -9.16699 75.5 -15.5s52.167 -13.833 75.5 -22.5s42.666 -23.334 57.999 -44.001s23 -46.667 23 -78c0 -55.333 -17.333 -95.666 -52 -120.999s-90.334 -38 -167.001 -38
c-72 0 -124.333 12.667 -157 38s-49 66 -49 122h108c0 -32 8 -55 24 -69s42 -21 78 -21s61.833 5.83301 77.5 17.5s23.5 31.167 23.5 58.5c0 22.667 -10.5 39.834 -31.5 51.501s-46.5 20.167 -76.5 25.5s-60 11.666 -90 18.999s-55.5 21.666 -76.5 42.999s-31.5 50 -31.5 86
c0 52 16.167 89.833 48.5 113.5s84.5 35.5 156.5 35.5c69.333 0 119.833 -11.833 151.5 -35.5s47.5 -61.834 47.5 -114.501h-102c0 28.667 -7.5 49.167 -22.5 61.5s-39.833 18.5 -74.5 18.5s-59.667 -5.16699 -75 -15.5s-23 -27.5 -23 -51.5zM250.003 -43.998
c35.333 0 53 -26.334 53 -79.001c-0.666992 -36.667 -8.66699 -63.167 -24 -79.5s-39.666 -24.5 -72.999 -24.5v44c14.667 0 25.167 3.83301 31.5 11.5s9.5 19.834 9.5 36.501c-34 0 -51 13.333 -51 40c0 18 4.16699 31 12.5 39s22.166 12 41.499 12z" />
    <glyph glyph-name="uni021A" unicode="&#x21a;" horiz-adv-x="630" 
d="M590 700v-101h-213v-599h-125v599h-212v101h550zM315 -44c35.333 0 53 -26.334 53 -79.001c-0.666992 -36.667 -8.66699 -63.167 -24 -79.5s-39.666 -24.5 -72.999 -24.5v44c14.667 0 25.167 3.83301 31.5 11.5s9.5 19.834 9.5 36.501c-34 0 -51 13.333 -51 40
c0 18 4.16699 31 12.5 39s22.166 12 41.499 12z" />
    <glyph glyph-name="uni021B" unicode="&#x21b;" horiz-adv-x="402" 
d="M224 157c0 -21.333 6.33203 -38.167 18.999 -50.5s31.334 -18.5 56.001 -18.5h73v-88h-114c-47.333 -0 -83.833 12.833 -109.5 38.5s-38.5 61.167 -38.5 106.5v279h-80v76h80v122h114v-122h148v-76h-148v-267zM229.999 -44.001c35.333 0 53 -26.334 53 -79.001
c-0.666992 -36.667 -8.66699 -63.167 -24 -79.5s-39.666 -24.5 -72.999 -24.5v44c14.667 0 25.167 3.83301 31.5 11.5s9.5 19.834 9.5 36.501c-34 0 -51 13.333 -51 40c0 18 4.16699 31 12.5 39s22.166 12 41.499 12z" />
    <glyph glyph-name="circumflex" unicode="&#x2c6;" horiz-adv-x="370" 
d="M242 700l88 -150h-75l-70 92l-71 -92h-74l88 150h114z" />
    <glyph glyph-name="caron" unicode="&#x2c7;" horiz-adv-x="370" 
d="M330 700l-88 -150h-114l-88 150h74l71 -92l70 92h75z" />
    <glyph glyph-name="breve" unicode="&#x2d8;" horiz-adv-x="403" 
d="M284 700h79.001c0 -52.667 -12.833 -90.834 -38.5 -114.501s-66.834 -35.5 -123.501 -35.5s-97.667 11.833 -123 35.5s-38 61.834 -38 114.501h78c0 -30.667 6.5 -52.834 19.5 -66.501s34.167 -20.5 63.5 -20.5s50.5 6.83301 63.5 20.5s19.5 35.834 19.5 66.501z" />
    <glyph glyph-name="dotaccent" unicode="&#x2d9;" horiz-adv-x="222" 
d="M110 731c25.333 0 43.666 -5.33301 54.999 -16s17 -27.667 17 -51s-5.66699 -40.333 -17 -51s-29.666 -16 -54.999 -16c-24.667 0 -42.5 5.33301 -53.5 16s-16.5 27.667 -16.5 51s5.5 40.333 16.5 51s28.833 16 53.5 16z" />
    <glyph glyph-name="ring" unicode="&#x2da;" horiz-adv-x="315" 
d="M157 722c41.333 0 71.335 -8 90.002 -24s28 -42 28 -78s-9.33301 -62.167 -28 -78.5s-48.667 -24.5 -90 -24.5c-40.667 0 -70.334 8.16699 -89.001 24.5s-28 42.5 -28 78.5s9.16699 62 27.5 78s48.166 24 89.499 24zM157.002 569c20.667 0 35.334 3.83301 44.001 11.5
s13 20.834 13 39.501s-4.33301 31.834 -13 39.501s-23.334 11.5 -44.001 11.5s-35.167 -3.83301 -43.5 -11.5s-12.5 -20.834 -12.5 -39.501s4.16699 -31.834 12.5 -39.501s22.833 -11.5 43.5 -11.5z" />
    <glyph glyph-name="ogonek" unicode="&#x2db;" horiz-adv-x="253" 
d="M133 12h61c-40 -25.333 -65.667 -56.333 -77 -93c-10.667 -32.667 -4.33398 -54 18.999 -64c6.66699 -2.66699 14.667 -4 24 -4c8 0 16.5 1.16699 25.5 3.5s15.833 4.83301 20.5 7.5l7 4v-96c-20 -13.333 -43.333 -20 -70 -20c-31.333 0 -56.166 9.83301 -74.499 29.5
s-28.166 43.167 -29.499 70.5s6.16699 56.333 22.5 87s40.166 55.667 71.499 75z" />
    <glyph glyph-name="tilde" unicode="&#x2dc;" horiz-adv-x="403" 
d="M40 600c0 34.667 9 63.667 27 87s40 35 66 35c18.667 0 35.667 -4.5 51 -13.5s27.166 -18.667 35.499 -29s17.5 -20 27.5 -29s19.667 -13.5 29 -13.5s17 4.66699 23 14s9 22.333 9 39h55c0 -34.667 -9 -63.667 -27 -87s-40 -35 -66 -35c-18.667 0 -35.667 4.5 -51 13.5
s-27.166 18.667 -35.499 29s-17.5 20 -27.5 29s-19.667 13.5 -29 13.5s-17 -4.66699 -23 -14s-9 -22.333 -9 -39h-55z" />
    <glyph glyph-name="hungarumlaut" unicode="&#x2dd;" horiz-adv-x="468" 
d="M40 550l94 150h110l-118 -150h-86zM224 550l94 150h110l-118 -150h-86z" />
    <glyph glyph-name="Wgrave" unicode="&#x1e80;" horiz-adv-x="1022" 
d="M436 700h150l127 -583l143 583h126l-184 -700h-162l-130 584l-120 -584h-162l-184 700h126l143 -583zM567 750h-87l-123 120h105z" />
    <glyph glyph-name="wgrave" unicode="&#x1e81;" horiz-adv-x="857" 
d="M670 0l-1 -1h-138l-103 419l-103 -418h-138l-157 500h115l116 -410l101 410h138l96 -411l116 411h115zM486 550h-93l-127 150h116z" />
    <glyph glyph-name="Wacute" unicode="&#x1e82;" horiz-adv-x="1022" 
d="M436 700h150l127 -583l143 583h126l-184 -700h-162l-130 584l-120 -584h-162l-184 700h126l143 -583zM449 750l99 120h111l-117 -120h-93z" />
    <glyph glyph-name="wacute" unicode="&#x1e83;" horiz-adv-x="857" 
d="M670 0l-1 -1h-138l-103 419l-103 -418h-138l-157 500h115l116 -410l101 410h138l96 -411l116 411h115zM391 700l104 -150h-92l-128 150h116z" />
    <glyph glyph-name="Wdieresis" unicode="&#x1e84;" horiz-adv-x="1022" 
d="M436 700h150l126 -584l144 584h126l-184 -700h-162l-130 584l-120 -584h-162l-184 700h126l143 -584zM403 860c47.333 0 71 -20.665 71 -61.998c0 -20.667 -5.66699 -35.834 -17 -45.501s-29.333 -14.5 -54 -14.5s-42.667 4.66699 -54 14s-17 24.666 -17 45.999
s5.66699 37 17 47s29.333 15 54 15zM613 860.002c47.333 0 71 -20.665 71 -61.998c0 -20.667 -5.66699 -35.834 -17 -45.501s-29.333 -14.5 -54 -14.5s-42.667 4.66699 -54 14s-17 24.666 -17 45.999s5.66699 37 17 47s29.333 15 54 15z" />
    <glyph glyph-name="wdieresis" unicode="&#x1e85;" horiz-adv-x="857" 
d="M670 0l-1 -1h-138l-103 419l-103 -418h-138l-157 500h115l116 -410l101 410h138l96 -411l116 411h115zM322 707c24.667 0 42.667 -5.5 54 -16.5s17 -28.833 17 -53.5s-5.66699 -42.5 -17 -53.5s-29.333 -16.5 -54 -16.5s-42.667 5.5 -54 16.5s-17 28.833 -17 53.5
s5.66699 42.5 17 53.5s29.333 16.5 54 16.5zM521 707c24.667 0 42.667 -5.5 54 -16.5s17 -28.833 17 -53.5s-5.66699 -42.5 -17 -53.5s-29.333 -16.5 -54 -16.5s-42.667 5.5 -54 16.5s-17 28.833 -17 53.5s5.66699 42.5 17 53.5s29.333 16.5 54 16.5z" />
    <glyph glyph-name="uni1E9E" unicode="&#x1e9e;" horiz-adv-x="645" 
d="M326 720c33.333 0 63.333 -3 90 -9s51.667 -16 75 -30s41.333 -33.833 54 -59.5s19 -56.167 19 -91.5c0 -37.333 -10.667 -66.5 -32 -87.5s-54.333 -36.5 -99 -46.5c56.667 -10.667 97.834 -31 123.501 -61s38.5 -73 38.5 -129c0 -72 -15.833 -124.333 -47.5 -157
s-82.167 -49 -151.5 -49c-18.667 0 -36.834 1.66699 -54.501 5s-30.834 6.66602 -39.501 9.99902l-12 5v82c28 -9.33301 53.333 -14 76 -14c40.667 0 70 9.83301 88 29.5s27 51.167 27 94.5c0 52.667 -14.5 88.334 -43.5 107.001s-71.5 28 -127.5 28v85
c52.667 0 90.334 7.5 113.001 22.5s34 39.833 34 74.5c0 35.333 -9.83301 61.333 -29.5 78s-51.5 25 -95.5 25c-49.333 0 -84.833 -12.167 -106.5 -36.5s-32.5 -60.5 -32.5 -108.5v-487h-113v499c0 147.333 82 221 246 221z" />
    <glyph glyph-name="Ygrave" unicode="&#x1ef2;" horiz-adv-x="665" 
d="M395 275v-275h-119v275l-246 425h138l168 -309l167 309h132zM394 750h-88l-123 120h105z" />
    <glyph glyph-name="ygrave" unicode="&#x1ef3;" horiz-adv-x="531" 
d="M235 4l3 8.99902l-218 487h109l154 -354l119 354h109l-190 -533c-18.667 -51.333 -41.667 -88.666 -69 -111.999s-62.333 -35 -105 -35h-64v76h58c19.333 0 36.5 8.5 51.5 25.5s29.167 44.5 42.5 82.5zM330 549.999h-92l-128 150h117z" />
    <glyph glyph-name="endash" unicode="&#x2013;" horiz-adv-x="600" 
d="M560 311v-88h-520v88h520z" />
    <glyph glyph-name="emdash" unicode="&#x2014;" horiz-adv-x="820" 
d="M780 311v-88h-740v88h740z" />
    <glyph glyph-name="quoteleft" unicode="&#x2018;" horiz-adv-x="222" 
d="M117 413c-26.667 0 -46.167 9.16797 -58.5 27.501s-18.5 48.166 -18.5 89.499c0 59.333 10.5 102.5 31.5 129.5s54.5 40.5 100.5 40.5v-57c-20.667 0 -35.5 -7 -44.5 -21s-13.5 -36.667 -13.5 -68c23.333 0 40.5 -5.33301 51.5 -16s16.5 -28 16.5 -52
c0 -26 -5 -44.667 -15 -56s-26.667 -17 -50 -17z" />
    <glyph glyph-name="quoteright" unicode="&#x2019;" horiz-adv-x="222" 
d="M105 710c27.333 0 47 -9.16602 59 -27.499s18 -47.833 18 -88.5c0 -59.333 -10.5 -102.5 -31.5 -129.5s-54.5 -40.5 -100.5 -40.5v56c20.667 0 35.5 7.16699 44.5 21.5s13.5 37.166 13.5 68.499c-45.333 0 -68 22.333 -68 67c0 26 5 44.667 15 56s26.667 17 50 17z" />
    <glyph glyph-name="quotesinglbase" unicode="&#x201a;" horiz-adv-x="221" 
d="M104 131c27.333 0 47 -9.16797 59 -27.501s18 -48.166 18 -89.499c0 -59.333 -10.5 -102.5 -31.5 -129.5s-54.167 -40.5 -99.5 -40.5v57c20.667 0 35.5 6.83301 44.5 20.5s13.5 36.5 13.5 68.5c-23.333 0 -40.5 5.33301 -51.5 16s-16.5 28 -16.5 52
c0 25.333 5 43.833 15 55.5s26.333 17.5 49 17.5z" />
    <glyph glyph-name="quotedblleft" unicode="&#x201c;" horiz-adv-x="419" 
d="M117 413c-26.667 0 -46.167 9.16797 -58.5 27.501s-18.5 48.166 -18.5 89.499c0 59.333 10.5 102.5 31.5 129.5s54.5 40.5 100.5 40.5v-57c-20.667 0 -35.5 -7 -44.5 -21s-13.5 -36.667 -13.5 -68c23.333 0 40.5 -5.33301 51.5 -16s16.5 -28 16.5 -52
c0 -26 -5 -44.667 -15 -56s-26.667 -17 -50 -17zM315 413.001c-26.667 0 -46.167 9.16797 -58.5 27.501s-18.5 48.166 -18.5 89.499c0 59.333 10.5 102.5 31.5 129.5s54.5 40.5 100.5 40.5v-57c-20.667 0 -35.667 -7 -45 -21s-14 -36.667 -14 -68
c23.333 0 40.5 -5.33301 51.5 -16s16.5 -28 16.5 -52c0 -48.667 -21.333 -73 -64 -73z" />
    <glyph glyph-name="quotedblright" unicode="&#x201d;" horiz-adv-x="419" 
d="M105 710c27.333 0 47 -9.16602 59 -27.499s18 -47.833 18 -88.5c0 -59.333 -10.5 -102.5 -31.5 -129.5s-54.5 -40.5 -100.5 -40.5v56c20.667 0 35.5 7.16699 44.5 21.5s13.5 37.166 13.5 68.499c-45.333 0 -68 22.333 -68 67c0 26 5 44.667 15 56s26.667 17 50 17z
M303 710.001c26.667 0 46 -9.33203 58 -27.999s18 -48 18 -88c0 -59.333 -10.5 -102.5 -31.5 -129.5s-54.167 -40.5 -99.5 -40.5v56c20.667 0 35.5 7.16699 44.5 21.5s13.5 37.166 13.5 68.499c-45.333 0 -68 22.333 -68 67c0 26 5 44.667 15 56s26.667 17 50 17z" />
    <glyph glyph-name="quotedblbase" unicode="&#x201e;" horiz-adv-x="419" 
d="M105 131c26.667 0 46.167 -9.16797 58.5 -27.501s18.5 -48.166 18.5 -89.499c0 -59.333 -10.5 -102.5 -31.5 -129.5s-54.5 -40.5 -100.5 -40.5v57c20.667 0 35.5 7 44.5 21s13.5 36.667 13.5 68c-45.333 0 -68 22.667 -68 68c0 26 5 44.667 15 56s26.667 17 50 17z
M303 130.999c26.667 0 46 -9.33203 58 -27.999s18 -48.334 18 -89.001c0 -59.333 -10.5 -102.5 -31.5 -129.5s-54.167 -40.5 -99.5 -40.5v57c20.667 0 35.5 7 44.5 21s13.5 36.667 13.5 68c-45.333 0 -68 22.667 -68 68c0 26 5 44.667 15 56s26.667 17 50 17z" />
    <glyph glyph-name="ellipsis" unicode="&#x2026;" horiz-adv-x="676" 
d="M110 135c24.667 0 42.832 -5.66699 54.499 -17s17.5 -29.333 17.5 -54s-5.66699 -42.5 -17 -53.5s-29.666 -16.5 -54.999 -16.5c-24.667 0 -42.5 5.5 -53.5 16.5s-16.5 28.833 -16.5 53.5s5.5 42.667 16.5 54s28.833 17 53.5 17zM337.998 135
c47.333 0 70.999 -23.667 70.999 -71c0 -24.667 -5.66699 -42.5 -17 -53.5s-29.666 -16.5 -54.999 -16.5c-24.667 0 -42.5 5.5 -53.5 16.5s-16.5 28.833 -16.5 53.5s5.66699 42.667 17 54s29.333 17 54 17zM564.997 135c47.333 0 70.999 -23.667 70.999 -71
c0 -24.667 -5.66699 -42.5 -17 -53.5s-29.666 -16.5 -54.999 -16.5c-24.667 0 -42.5 5.5 -53.5 16.5s-16.5 28.833 -16.5 53.5s5.66699 42.667 17 54s29.333 17 54 17z" />
    <glyph glyph-name="perthousand" unicode="&#x2030;" horiz-adv-x="1267" 
d="M666 390c58.667 0 101.167 -15.5 127.5 -46.5s39.5 -80.833 39.5 -149.5s-13.167 -118.5 -39.5 -149.5s-68.833 -46.5 -127.5 -46.5s-101.334 15.5 -128.001 46.5s-40 80.833 -40 149.5s13.333 118.5 40 149.5s69.334 46.5 128.001 46.5zM666 67
c29.333 0 50.5 9.83301 63.5 29.5s19.5 52.167 19.5 97.5c0 44.667 -6.5 76.834 -19.5 96.501s-34.167 29.5 -63.5 29.5s-50.5 -9.83301 -63.5 -29.5s-19.5 -51.834 -19.5 -96.501c0 -45.333 6.5 -77.833 19.5 -97.5s34.167 -29.5 63.5 -29.5zM1059 390
c58.667 0 101.332 -15.5 127.999 -46.5s40 -80.833 40 -149.5s-13.167 -118.5 -39.5 -149.5s-69.166 -46.5 -128.499 -46.5c-58.667 0 -101.167 15.5 -127.5 46.5s-39.5 80.833 -39.5 149.5s13.167 118.5 39.5 149.5s68.833 46.5 127.5 46.5zM1059 67
c29.333 0 50.5 9.83301 63.5 29.5s19.5 52.167 19.5 97.5c0 44.667 -6.5 76.834 -19.5 96.501s-33.833 29.5 -62.5 29.5c-30 0 -51.5 -9.83301 -64.5 -29.5s-19.5 -51.834 -19.5 -96.501c0 -45.333 6.5 -77.833 19.5 -97.5s34.167 -29.5 63.5 -29.5zM206.998 710
c58.667 0 101.332 -15.5 127.999 -46.5s40 -80.833 40 -149.5s-13.167 -118.5 -39.5 -149.5s-69.166 -46.5 -128.499 -46.5c-58.667 0 -101.167 15.5 -127.5 46.5s-39.5 80.833 -39.5 149.5s13.167 118.5 39.5 149.5s68.833 46.5 127.5 46.5zM206.996 387
c29.333 0 50.5 9.83301 63.5 29.5s19.5 52.167 19.5 97.5c0 44.667 -6.5 76.834 -19.5 96.501s-33.833 29.5 -62.5 29.5c-30 0 -51.5 -9.83301 -64.5 -29.5s-19.5 -51.834 -19.5 -96.501c0 -45.333 6.5 -77.833 19.5 -97.5s34.167 -29.5 63.5 -29.5zM267.996 -30h-103
l440 760h103z" />
    <glyph glyph-name="guilsinglleft" unicode="&#x2039;" horiz-adv-x="314" 
d="M165 450h109l-119 -190l119 -200h-109l-125 200z" />
    <glyph glyph-name="guilsinglright" unicode="&#x203a;" horiz-adv-x="314" 
d="M40 450h109l125 -190l-125 -200h-109l119 200z" />
    <glyph glyph-name="lira" unicode="&#x20a4;" horiz-adv-x="661" 
d="M621 95l0.000976562 -95.002h-571v111c32.667 12 56.834 28.333 72.501 49s24.5 48 26.5 82h-99v63h100v60h-100v64h100v71c0 74.667 16.667 130 50 166s86 54 158 54c82.667 0 142.167 -16.833 178.5 -50.5s54.5 -90.167 54.5 -169.5h-108
c0 48.667 -8.5 83.834 -25.5 105.501s-44.5 32.5 -82.5 32.5c-42.667 0 -71.834 -11.5 -87.501 -34.5s-23.5 -57.5 -23.5 -103.5v-71h257v-64h-257v-60h257v-63h-258c-2.66699 -38 -12.834 -68.667 -30.501 -92s-44.167 -41.666 -79.5 -54.999h468z" />
    <glyph glyph-name="Euro" unicode="&#x20ac;" horiz-adv-x="871" 
d="M694 240h127.002c-18.667 -91.333 -54.5 -157.5 -107.5 -198.5s-128.833 -61.5 -227.5 -61.5c-108.667 0 -191.334 22 -248.001 66s-91.334 113.667 -104.001 209h-94v64h89v31v35h-89v64h94c12.667 94 47.5 162.667 104.5 206s139.5 65 247.5 65
c105.333 0 184.5 -20.5 237.5 -61.5s85.5 -107.167 97.5 -198.5h-125c-9.33301 56 -30.333 96.5 -63 121.5s-81.667 37.5 -147 37.5c-64 0 -113.833 -13.667 -149.5 -41s-58.834 -70.333 -69.501 -129h283v-64h-290c-0.666992 -7.33301 -1 -19 -1 -35v-31h250v-64h-244
c10.667 -60.667 33.667 -104.834 69 -132.501s85.333 -41.5 150 -41.5c62.667 0 110.334 12.333 143.001 37s55 65.334 67 122.001z" />
    <glyph glyph-name="trademark" unicode="&#x2122;" horiz-adv-x="1249" 
d="M486 700v-95h-169v-405h-108v405h-169v95h446zM570 200v500h148l150 -377l150 377h141v-500h-108v358l-147 -358h-78l-148 358v-358h-108z" />
    <glyph glyph-name="minus" unicode="&#x2212;" horiz-adv-x="410" 
d="M370 223h-330v88h330v-88z" />
    <glyph glyph-name="approxequal" unicode="&#x2248;" horiz-adv-x="680" 
d="M40 137v84c27.333 26 56.5 43 87.5 51s60.833 8.5 89.5 1.5s57.667 -17.167 87 -30.5l87.5 -40c29 -13.333 57.167 -23.666 84.5 -30.999s55.333 -7.33301 84 0s55.334 23.666 80.001 48.999v-84c-27.333 -26.667 -56.5 -44 -87.5 -52s-60.667 -8.5 -89 -1.5
s-57.333 17 -87 30l-88 39.5c-29 13.333 -57.167 23.833 -84.5 31.5s-55.333 8 -84 1s-55.334 -23.167 -80.001 -48.5zM40 329v85c27.333 26 56.5 42.833 87.5 50.5s60.833 8 89.5 1s57.667 -17.167 87 -30.5l87.5 -40c29 -13.333 57.167 -23.666 84.5 -30.999
s55.333 -7.33301 84 0s55.334 23.666 80.001 48.999v-84c-27.333 -26.667 -56.5 -44 -87.5 -52s-60.667 -8.5 -89 -1.5s-57.333 17 -87 30l-88 39.5c-29 13.333 -57.167 23.833 -84.5 31.5s-55.333 8 -84 1s-55.334 -23.167 -80.001 -48.5z" />
    <glyph glyph-name="notequal" unicode="&#x2260;" horiz-adv-x="647" 
d="M196 0l45 127h-201v88h233l36 100h-269v88h300l35 97h67l-35 -97h200v-88h-231l-36 -100h267v-88h-299l-45 -127h-67z" />
    <glyph glyph-name="lessequal" unicode="&#x2264;" horiz-adv-x="480" 
d="M41 0v95h399v-95h-399zM40 511l400 189v-108l-301 -142l301 -142v-108l-400 189v122z" />
    <glyph glyph-name="greaterequal" unicode="&#x2265;" horiz-adv-x="480" 
d="M40 0v95h400v-95h-400zM40 700l400 -189v-122l-400 -189v108l301 142l-301 142v108z" />
    <glyph glyph-name="uniE132" unicode="&#xe132;" horiz-adv-x="510" 
d="M192 0h-114v500h114v-500zM253 -92c24.667 0 43.333 6.16797 56 18.501s19 29.166 19 50.499v523h114v-535c0 -45.333 -12.833 -80.833 -38.5 -106.5s-62.167 -38.5 -109.5 -38.5h-106v88h65zM69.999 550.001l104 150h116l-127 -150h-93zM319.999 550.001l104 150h116
l-127 -150h-93z" />
    <glyph glyph-name="uniE133" unicode="&#xe133;" horiz-adv-x="884" 
d="M90 700h125v-700h-125v700zM330 210l0.00292969 28.999h120v-29c0 -45.333 8.16699 -78.166 24.5 -98.499s43.166 -30.5 80.499 -30.5s64.333 10 81 30s25 53 25 99v490h125v-490c0 -78.667 -18.333 -135.667 -55 -171s-95.334 -53 -176.001 -53
c-78.667 0 -135.834 17.667 -171.501 53s-53.5 92.333 -53.5 171zM93.0029 749.999l100 120h111l-117 -120h-94zM664.003 749.999l100 120h110l-117 -120h-93z" />
    <glyph glyph-name=".null" horiz-adv-x="0" 
 />
    <glyph glyph-name="nonmarkingreturn" horiz-adv-x="333" 
 />
    <glyph glyph-name="a.alt1" horiz-adv-x="601" 
d="M255 -10c-75.333 0 -130 20.5 -164 61.5s-51 107.167 -51 198.5s17 157.5 51 198.5s88.667 61.5 164 61.5c78 0 134 -21.333 168 -64l18 54h90v-500h-90l-18 54c-34 -42.667 -90 -64 -168 -64zM285 78c46 0 79.333 13.667 100 41s31 71 31 131s-10.333 103.667 -31 131
s-54 41 -100 41s-79.5 -13.667 -100.5 -41s-31.5 -71 -31.5 -131s10.5 -103.667 31.5 -131s54.5 -41 100.5 -41z" />
    <glyph glyph-name="aacute.alt1" horiz-adv-x="601" 
d="M255 -10c-75.333 0 -130 20.5 -164 61.5s-51 107.167 -51 198.5s17 157.5 51 198.5s88.667 61.5 164 61.5c78 0 134 -21.333 168 -64l18 54h90v-500h-90l-18 54c-34 -42.667 -90 -64 -168 -64zM285 78c46 0 79.333 13.667 100 41s31 71 31 131s-10.333 103.667 -31 131
s-54 41 -100 41s-79.5 -13.667 -100.5 -41s-31.5 -71 -31.5 -131s10.5 -103.667 31.5 -131s54.5 -41 100.5 -41zM338 700h116l-127 -150h-93z" />
    <glyph glyph-name="aacutering.alt1" horiz-adv-x="601" 
d="M255 -10c-75.333 0 -130 20.5 -164 61.5s-51 107.167 -51 198.5s17 157.5 51 198.5s88.667 61.5 164 61.5c78 0 134 -21.333 168 -64l18 54h90v-500h-90l-18 54c-34 -42.667 -90 -64 -168 -64zM285 78c46 0 79.333 13.667 100 41s31 71 31 131s-10.333 103.667 -31 131
s-54 41 -100 41s-79.5 -13.667 -100.5 -41s-31.5 -71 -31.5 -131s10.5 -103.667 31.5 -131s54.5 -41 100.5 -41zM319 719l53 60.001h87l-81 -77c28.667 -16.667 43 -43.334 43 -80.001c0 -30.667 -10 -54.334 -30 -71.001s-49 -25 -87 -25s-67.167 8.33301 -87.5 25
s-30.5 40.334 -30.5 71.001c0 31.333 10.167 55.333 30.5 72s49.5 25 87.5 25h15zM305 577.001c20.667 0 35.167 3.5 43.5 10.5s12.5 18.5 12.5 34.5s-4.16699 27.667 -12.5 35s-22.833 11 -43.5 11s-35.334 -3.66699 -44.001 -11s-13 -19 -13 -35s4.33301 -27.5 13 -34.5
s23.334 -10.5 44.001 -10.5z" />
    <glyph glyph-name="abreve.alt1" horiz-adv-x="601" 
d="M255 -10c-75.333 0 -130 20.5 -164 61.5s-51 107.167 -51 198.5s17 157.5 51 198.5s88.667 61.5 164 61.5c78 0 134 -21.333 168 -64l18 54h90v-500h-90l-18 54c-34 -42.667 -90 -64 -168 -64zM285 78c46 0 79.333 13.667 100 41s31 71 31 131s-10.333 103.667 -31 131
s-54 41 -100 41s-79.5 -13.667 -100.5 -41s-31.5 -71 -31.5 -131s10.5 -103.667 31.5 -131s54.5 -41 100.5 -41zM388 700h78.001c0 -52.667 -12.667 -90.834 -38 -114.501s-66.333 -35.5 -123 -35.5s-97.834 11.833 -123.501 35.5s-38.5 61.834 -38.5 114.501h79
c0 -30.667 6.5 -52.834 19.5 -66.501s34.167 -20.5 63.5 -20.5s50.5 6.83301 63.5 20.5s19.5 35.834 19.5 66.501z" />
    <glyph glyph-name="acircumflex.alt1" horiz-adv-x="601" 
d="M255 -10c-75.333 0 -130 20.5 -164 61.5s-51 107.167 -51 198.5s17 157.5 51 198.5s88.667 61.5 164 61.5c78 0 134 -21.333 168 -64l18 54h90v-500h-90l-18 54c-34 -42.667 -90 -64 -168 -64zM285 78c46 0 79.333 13.667 100 41s31 71 31 131s-10.333 103.667 -31 131
s-54 41 -100 41s-79.5 -13.667 -100.5 -41s-31.5 -71 -31.5 -131s10.5 -103.667 31.5 -131s54.5 -41 100.5 -41zM362 700l88 -150h-75l-70 92l-71 -92h-74l88 150h114z" />
    <glyph glyph-name="acute.case" horiz-adv-x="290" 
d="M40 550l99 120h111l-117 -120h-93z" />
    <glyph glyph-name="adieresis.alt1" horiz-adv-x="601" 
d="M255 -10c-75.333 0 -130 20.5 -164 61.5s-51 107.167 -51 198.5s17 157.5 51 198.5s88.667 61.5 164 61.5c78 0 134 -21.333 168 -64l18 54h90v-500h-90l-18 54c-34 -42.667 -90 -64 -168 -64zM285 78c46 0 79.333 13.667 100 41s31 71 31 131s-10.333 103.667 -31 131
s-54 41 -100 41s-79.5 -13.667 -100.5 -41s-31.5 -71 -31.5 -131s10.5 -103.667 31.5 -131s54.5 -41 100.5 -41zM205 708c24.667 0 42.667 -5.5 54 -16.5s17 -28.833 17 -53.5s-5.66699 -42.5 -17 -53.5s-29.333 -16.5 -54 -16.5s-42.667 5.5 -54 16.5s-17 28.833 -17 53.5
s5.66699 42.5 17 53.5s29.333 16.5 54 16.5zM404 708c24.667 0 42.667 -5.5 54 -16.5s17 -28.833 17 -53.5s-5.66699 -42.5 -17 -53.5s-29.333 -16.5 -54 -16.5s-42.667 5.5 -54 16.5s-17 28.833 -17 53.5s5.66699 42.5 17 53.5s29.333 16.5 54 16.5z" />
    <glyph glyph-name="agrave.alt1" horiz-adv-x="601" 
d="M255 -10c-75.333 0 -130 20.5 -164 61.5s-51 107.167 -51 198.5s17 157.5 51 198.5s88.667 61.5 164 61.5c78 0 134 -21.333 168 -64l18 54h90v-500h-90l-18 54c-34 -42.667 -90 -64 -168 -64zM285 78c46 0 79.333 13.667 100 41s31 71 31 131s-10.333 103.667 -31 131
s-54 41 -100 41s-79.5 -13.667 -100.5 -41s-31.5 -71 -31.5 -131s10.5 -103.667 31.5 -131s54.5 -41 100.5 -41zM242 700l104 -150h-92l-128 150h116z" />
    <glyph glyph-name="amacron.alt1" horiz-adv-x="601" 
d="M255 -10c-75.333 0 -130 20.5 -164 61.5s-51 107.167 -51 198.5s17 157.5 51 198.5s88.667 61.5 164 61.5c78 0 134 -21.333 168 -64l18 54h90v-500h-90l-18 54c-34 -42.667 -90 -64 -168 -64zM285 78c46 0 79.333 13.667 100 41s31 71 31 131s-10.333 103.667 -31 131
s-54 41 -100 41s-79.5 -13.667 -100.5 -41s-31.5 -71 -31.5 -131s10.5 -103.667 31.5 -131s54.5 -41 100.5 -41zM134 595v70h340v-70h-340z" />
    <glyph glyph-name="aogonek.alt1" horiz-adv-x="601" 
d="M438 6l-15.001 48c-34 -42.667 -90 -64 -168 -64c-75.333 0 -130 20.5 -164 61.5s-51 107.167 -51 198.5s17 157.5 51 198.5s88.667 61.5 164 61.5c78 0 134 -21.333 168 -64l18 54h90v-500h-38c-37.333 -28 -59 -59.333 -65 -94c-4.66699 -30 6 -48 32 -54
c4.66699 -0.666992 9.66699 -1 15 -1c8.66699 0 17.334 1.16699 26.001 3.5s15.334 4.83301 20.001 7.5l7 4v-96c-20 -13.333 -43.333 -20 -70 -20c-40.667 0 -70.167 15.333 -88.5 46s-21.333 66.5 -9 107.5s38.166 75.167 77.499 102.5zM284.999 78
c46 0 79.333 13.667 100 41s31 71 31 131s-10.333 103.667 -31 131s-54 41 -100 41s-79.5 -13.667 -100.5 -41s-31.5 -71 -31.5 -131s10.5 -103.667 31.5 -131s54.5 -41 100.5 -41z" />
    <glyph glyph-name="aring.alt1" horiz-adv-x="601" 
d="M255 -10c-75.333 0 -130 20.5 -164 61.5s-51 107.167 -51 198.5s17 157.5 51 198.5s88.667 61.5 164 61.5c78 0 134 -21.333 168 -64l18 54h90v-500h-90l-18 54c-34 -42.667 -90 -64 -168 -64zM285 78c46 0 79.333 13.667 100 41s31 71 31 131s-10.333 103.667 -31 131
s-54 41 -100 41s-79.5 -13.667 -100.5 -41s-31.5 -71 -31.5 -131s10.5 -103.667 31.5 -131s54.5 -41 100.5 -41zM305 742c41.333 0 71.168 -8 89.501 -24s27.5 -42 27.5 -78s-9.33301 -62.167 -28 -78.5s-48.334 -24.5 -89.001 -24.5c-41.333 0 -71.333 8.16699 -90 24.5
s-28 42.5 -28 78.5s9.33301 62 28 78s48.667 24 90 24zM305.002 589c20.667 0 35.167 3.83301 43.5 11.5s12.5 20.834 12.5 39.501s-4.33301 31.834 -13 39.501s-23 11.5 -43 11.5c-20.667 0 -35.334 -3.83301 -44.001 -11.5s-13 -20.834 -13 -39.501
s4.33301 -31.834 13 -39.501s23.334 -11.5 44.001 -11.5z" />
    <glyph glyph-name="atilde.alt1" horiz-adv-x="601" 
d="M255 -10c-75.333 0 -130 20.5 -164 61.5s-51 107.167 -51 198.5s17 157.5 51 198.5s88.667 61.5 164 61.5c78 0 134 -21.333 168 -64l18 54h90v-500h-90l-18 54c-34 -42.667 -90 -64 -168 -64zM285 78c46 0 79.333 13.667 100 41s31 71 31 131s-10.333 103.667 -31 131
s-54 41 -100 41s-79.5 -13.667 -100.5 -41s-31.5 -71 -31.5 -131s10.5 -103.667 31.5 -131s54.5 -41 100.5 -41zM143 576c0 34.667 9 63.833 27 87.5s40 35.5 66 35.5c18.667 0 35.667 -4.5 51 -13.5s27.166 -18.667 35.499 -29s17.5 -20 27.5 -29s19.667 -13.5 29 -13.5
s17 4.66699 23 14s9 22 9 38h55c0 -34.667 -9 -63.667 -27 -87s-40 -35 -66 -35c-18.667 0 -35.667 4.5 -51 13.5s-27.166 18.667 -35.499 29s-17.5 20 -27.5 29s-19.333 13.5 -28 13.5c-10 0 -18 -4.66699 -24 -14s-9 -22.333 -9 -39h-55z" />
    <glyph glyph-name="breve.case" horiz-adv-x="403" 
d="M279 670l84.001 -0.000976562c0 -42 -12.833 -72.5 -38.5 -91.5s-66.834 -28.5 -123.501 -28.5s-97.667 9.5 -123 28.5s-38 49.5 -38 91.5h84c0 -22 6.16699 -38 18.5 -48s31.833 -15 58.5 -15c28 0 48 4.83301 60 14.5s18 25.834 18 48.501z" />
    <glyph glyph-name="caron.case" horiz-adv-x="378" 
d="M338 670l-92 -120h-114l-92 120h81l68 -69l68 69h81z" />
    <glyph glyph-name="circumflex.case" horiz-adv-x="378" 
d="M246 670l92 -120h-81l-68 69l-68 -69h-81l92 120h114z" />
    <glyph glyph-name="commaaccent" horiz-adv-x="186" 
d="M93 -44c30.667 0 48 -17.333 52 -52c0.666992 -5.33301 1 -14.333 1 -27c-0.666992 -36.667 -8.5 -63.167 -23.5 -79.5s-39.167 -24.5 -72.5 -24.5v44c26.667 0 40 16 40 48c-32.667 0 -49.334 13.333 -50.001 40v11c2.66699 26.667 20.334 40 53.001 40z" />
    <glyph glyph-name="dieresis.case" horiz-adv-x="432" 
d="M110 712c25.333 0 43.667 -4.83301 55 -14.5s17 -25.167 17 -46.5c0 -40.667 -24 -61 -72 -61c-24.667 0 -42.5 4.83301 -53.5 14.5s-16.5 25.167 -16.5 46.5s5.5 36.833 16.5 46.5s28.833 14.5 53.5 14.5zM321.001 712c24.667 0 42.667 -4.83301 54 -14.5
s17 -25.167 17 -46.5c0 -40.667 -23.667 -61 -71 -61c-24.667 0 -42.667 4.83301 -54 14.5s-17 25.167 -17 46.5s5.5 36.833 16.5 46.5s29.167 14.5 54.5 14.5z" />
    <glyph glyph-name="dotaccent.case" horiz-adv-x="222" 
d="M110 676c25.333 0 43.666 -4.83301 54.999 -14.5s17 -25.167 17 -46.5s-5.66699 -36.833 -17 -46.5s-29.666 -14.5 -54.999 -14.5c-24.667 0 -42.5 4.83301 -53.5 14.5s-16.5 25.167 -16.5 46.5s5.5 36.833 16.5 46.5s28.833 14.5 53.5 14.5z" />
    <glyph glyph-name="grave.case" horiz-adv-x="290" 
d="M144 670l106 -120h-87l-123 120h104z" />
    <glyph glyph-name="hungarumlaut.case" horiz-adv-x="457" 
d="M40 550l93 120h105l-111 -120h-87zM218 550l94 120h105l-111 -120h-88z" />
    <glyph glyph-name="tilde.case" horiz-adv-x="403" 
d="M40 580c0 34 8.66992 60.167 26.0029 78.5s39.666 27.5 66.999 27.5c23.333 0 44 -5 62 -15s33.667 -19.833 47 -29.5s26.333 -14.5 39 -14.5c10 0 18 3.83301 24 11.5s9 18.167 9 31.5h49c0 -33.333 -8.83301 -59.333 -26.5 -78s-39.834 -28 -66.501 -28
c-23.333 0 -44 5 -62 15s-33.833 19.833 -47.5 29.5s-26.834 14.5 -39.501 14.5c-9.33301 0 -17 -3.83301 -23 -11.5s-9 -18.167 -9 -31.5h-49z" />
    </font>
</defs>
</svg>
