<?xml version="1.0" standalone="no"?>
<!DOCTYPE svg PUBLIC "-//W3C//DTD SVG 1.1//EN" "http://www.w3.org/Graphics/SVG/1.1/DTD/svg11.dtd" >
<svg>
<metadata>
Created by FontForge 20090914 at Thu Jun 25 12:22:45 2020
 By www-data
Copyright (c) 2017 by Alexander Slobzheninov. All rights reserved.
</metadata>
<defs>
<font id="FivoSans-Bold" horiz-adv-x="576" >
  <font-face 
    font-family="Fivo Sans"
    font-weight="700"
    font-stretch="normal"
    units-per-em="1000"
    panose-1="0 0 0 0 0 0 0 0 0 0"
    ascent="800"
    descent="-200"
    x-height="500"
    cap-height="700"
    bbox="-80 -251 1261 960"
    underline-thickness="50"
    underline-position="975"
    unicode-range="U+000D-U+E133"
  />
<missing-glyph horiz-adv-x="200" 
 />
    <glyph glyph-name=".notdef" horiz-adv-x="200" 
 />
    <glyph glyph-name="NULL" horiz-adv-x="772" 
d="M80 700h612v-700h-612v700zM220 575v-450h331v450h-331z" />
    <glyph glyph-name="NULL" horiz-adv-x="772" 
d="M80 700h612v-700h-612v700zM220 575v-450h331v450h-331z" />
    <glyph glyph-name="CR" unicode="&#xd;" horiz-adv-x="250" 
 />
    <glyph glyph-name="space" unicode=" " horiz-adv-x="300" 
 />
    <glyph glyph-name="exclam" unicode="!" horiz-adv-x="292" 
d="M146 155c30 0 51.833 -6.66699 65.5 -20s20.5 -34.333 20.5 -63s-6.83301 -49.5 -20.5 -62.5s-35.5 -19.5 -65.5 -19.5s-51.833 6.5 -65.5 19.5s-20.5 33.833 -20.5 62.5s6.83301 49.667 20.5 63s35.5 20 65.5 20zM68 700h156v-190l-32 -254h-92l-32 254v190z" />
    <glyph glyph-name="quotedbl" unicode="&#x22;" horiz-adv-x="389" 
d="M163 700v-140l-17 -216h-100l-16 216v140h133zM359 700v-140l-16 -216h-100l-17 216v140h133z" />
    <glyph glyph-name="numbersign" unicode="#" horiz-adv-x="730" 
d="M370 0l26 182h-110l-26 -182h-108l26 182h-138v100h152l16 110h-138v100h152l30 208h108l-30 -208h110l30 208h108l-30 -208h142v-100h-156l-16 -110h142v-100h-156l-26 -182h-108zM426 392h-110l-16 -110h110z" />
    <glyph glyph-name="dollar" unicode="$" horiz-adv-x="656" 
d="M270 -100l0.00292969 83.0029c-80 6 -138.333 26.333 -175 61s-55 86.667 -55 156h148c0 -39.333 11 -67.833 33 -85.5s57.667 -26.5 107 -26.5c46.667 0 80.334 7.33301 101.001 22s31 38 31 70c0 21.333 -7.5 39.5 -22.5 54.5s-34.667 26.667 -59 35s-51 16 -80 23
s-58 15.333 -87 25s-55.667 21.167 -80 34.5s-44 32.166 -59 56.499s-22.5 53.5 -22.5 87.5c0 70 17.5 122.667 52.5 158s90.833 56.333 167.5 63v83h116v-83c76.667 -6.66699 132.5 -27.167 167.5 -61.5s52.5 -86.166 52.5 -155.499h-148
c0 38.667 -10.333 66.834 -31 84.501s-53.667 26.5 -99 26.5c-43.333 0 -74.5 -7.16699 -93.5 -21.5s-28.5 -37.833 -28.5 -70.5c0 -20.667 10.167 -37.834 30.5 -51.501s45.666 -23.834 75.999 -30.501s63.166 -15.334 98.499 -26.001s68.166 -22.834 98.499 -36.501
s55.666 -35.167 75.999 -64.5s30.5 -65 30.5 -107c0 -70.667 -18.333 -123.667 -55 -159s-95 -56 -175 -62v-82h-116z" />
    <glyph glyph-name="percent" unicode="%" horiz-adv-x="888" 
d="M204 710c61.333 0 105.666 -15.667 132.999 -47s41 -81.666 41 -150.999s-13.667 -119.666 -41 -150.999s-71.666 -47 -132.999 -47s-105.666 15.667 -132.999 47s-41 81.666 -41 150.999s13.667 119.666 41 150.999s71.666 47 132.999 47zM204 398
c23.333 0 40.166 9 50.499 27s15.5 47 15.5 87s-5.16699 69 -15.5 87s-27.166 27 -50.499 27s-40.166 -9 -50.499 -27s-15.5 -47 -15.5 -87s5.16699 -69 15.5 -87s27.166 -27 50.499 -27zM291 -30h-134l440 760h134zM684 390c61.333 0 105.666 -15.667 132.999 -47
s41 -81.666 41 -150.999s-13.667 -119.666 -41 -150.999s-71.666 -47 -132.999 -47s-105.666 15.667 -132.999 47s-41 81.666 -41 150.999s13.667 119.666 41 150.999s71.666 47 132.999 47zM684 78c23.333 0 40.166 9 50.499 27s15.5 47 15.5 87s-5.16699 69 -15.5 87
s-26.833 27 -49.5 27c-23.333 0 -40.166 -9 -50.499 -27s-15.5 -47 -15.5 -87s5.16699 -69 15.5 -87s26.833 -27 49.5 -27z" />
    <glyph glyph-name="ampersand" unicode="&#x26;" horiz-adv-x="794" 
d="M784 0l-191 0.000976562l-52 51c-60.667 -47.333 -141.667 -71 -243 -71c-88 0 -153 16.167 -195 48.5s-63 81.833 -63 148.5c0 47.333 14.333 87.833 43 121.5s68 64.5 118 92.5c-47.333 54.667 -71 103.334 -71 146.001c0 66 18.833 113 56.5 141s91.5 42 161.5 42
c72 0 124.667 -12.833 158 -38.5s50 -65.167 50 -118.5c0 -39.333 -14 -72.833 -42 -100.5s-67.667 -55.834 -119 -84.501l142 -139c12.667 31.333 21.667 68.333 27 111h116c-8 -78.667 -26.333 -144.334 -55 -197.001zM314 88.001c55.333 0 103.333 15.332 144 45.999
l-180 178c-55.333 -37.333 -82.666 -76.666 -81.999 -117.999c0.666992 -33.333 11.167 -59.333 31.5 -78s49.166 -28 86.499 -28zM320 452c37.333 18.667 65.333 36.168 84 52.501s28 35.166 28 56.499c0 44.667 -28 67 -84 67c-30 0 -51.833 -5.83301 -65.5 -17.5
s-20.5 -30.5 -20.5 -56.5c0 -28 19.333 -62 58 -102z" />
    <glyph glyph-name="quotesingle" unicode="'" horiz-adv-x="193" 
d="M163 700v-140l-17 -216h-100l-16 216v140h133z" />
    <glyph glyph-name="parenleft" unicode="(" horiz-adv-x="296" 
d="M169 -200c-86 143.333 -129.002 296.665 -129.002 459.998c0 26.667 1 52.834 3 78.501s5.33301 49.834 10 72.501s9.16699 43.5 13.5 62.5s10.166 38 17.499 57l18.5 47c5 12.333 11.667 26.333 20 42l17.5 33c3.33301 6.33301 9 15.666 17 27.999s12 18.833 12 19.5
h117l-25.5 -42.5c-4.33301 -7 -14.166 -27 -29.499 -60s-26.666 -63.167 -33.999 -90.5s-14.666 -63.5 -21.999 -108.5s-11 -91.167 -11 -138.5c0 -171.333 40.667 -324.666 122 -459.999h-117z" />
    <glyph glyph-name="parenright" unicode=")" horiz-adv-x="296" 
d="M127 -200l-117.002 0.000976562c81.333 135.333 122 288.666 122 459.999c0 47.333 -3.66699 93.5 -11 138.5s-14.666 81.167 -21.999 108.5s-18.666 57.5 -33.999 90.5s-25.166 53 -29.499 60l-25.5 42.5h117c0 -0.666992 4 -7.16699 12 -19.5
s13.667 -21.666 17 -27.999l17.5 -33c8.33301 -15.667 15 -29.667 20 -42l18.5 -47c7.33301 -19 13.166 -38 17.499 -57s8.83301 -39.833 13.5 -62.5s8 -46.834 10 -72.501s3 -51.834 3 -78.501c0 -163.333 -43 -316.666 -129 -459.999z" />
    <glyph glyph-name="asterisk" unicode="*" horiz-adv-x="354" 
d="M143 400v60l8 40v4l-4 -2l-31 -27l-52 -30l-34 59l52 30l39 13l4 2l-5 3l-38 13l-52 30l34 59l52 -30l30 -27l5 -3v6l-8 40v60h68v-60l-8 -40v-5l4 2l31 27l52 30l34 -59l-52 -30l-38 -13l-5 -3l4 -2l39 -13l52 -30l-34 -59l-52 30l-31 27l-4 2v-4l8 -40v-60h-68z" />
    <glyph glyph-name="plus" unicode="+" horiz-adv-x="580" 
d="M550 310v-108h-202v-202h-116v202h-202v108h202v190h116v-190h202z" />
    <glyph glyph-name="comma" unicode="," horiz-adv-x="232" 
d="M108 155c38 0 63.168 -11.834 75.501 -35.501s18.5 -56.167 18.5 -97.5c0 -68 -12.833 -117.333 -38.5 -148s-66.834 -46 -123.501 -46v67c24.667 0 42.5 7.5 53.5 22.5s16.167 39.167 15.5 72.5c-27.333 0 -47.333 6.33301 -60 19s-19 33.334 -19 62.001
c0 28 6 49 18 63s32 21 60 21z" />
    <glyph glyph-name="hyphen" unicode="-" horiz-adv-x="390" 
d="M360 212h-330v108h330v-108z" />
    <glyph glyph-name="period" unicode="." horiz-adv-x="232" 
d="M116 155c30 0 51.833 -6.66699 65.5 -20s20.5 -34.333 20.5 -63s-6.83301 -49.5 -20.5 -62.5s-35.5 -19.5 -65.5 -19.5s-51.833 6.5 -65.5 19.5s-20.5 33.833 -20.5 62.5s6.83301 49.667 20.5 63s35.5 20 65.5 20z" />
    <glyph glyph-name="slash" unicode="/" horiz-adv-x="393" 
d="M250 700h133l-240 -700h-133z" />
    <glyph glyph-name="zero" unicode="0" horiz-adv-x="712" 
d="M356 720c110.667 0 191 -29.333 241 -88s75 -152.667 75 -282s-25 -223.333 -75 -282s-130.333 -88 -241 -88s-191 29.333 -241 88s-75 152.667 -75 282c0 130 25 224.167 75 282.5s130.333 87.5 241 87.5zM356 88c56 0 96.667 20.667 122 62s38 108 38 200
s-12.667 158.667 -38 200s-66 62 -122 62s-96.667 -20.667 -122 -62s-38 -108 -38 -200s12.667 -158.667 38 -200s66 -62 122 -62z" />
    <glyph glyph-name="one" unicode="1" horiz-adv-x="378" 
d="M30 592v108h268v-700h-148v592h-120z" />
    <glyph glyph-name="two" unicode="2" horiz-adv-x="578" 
d="M239 108h299.002v-108h-508v90c33.333 30 72.5 63.333 117.5 100l105 86.5c25 21 50.167 44.333 75.5 70s43.5 50.167 54.5 73.5s16.5 48 16.5 74c0 41.333 -8.33301 71.333 -25 90s-43.334 28 -80.001 28c-37.333 0 -64.333 -11.167 -81 -33.5s-25 -58.5 -25 -108.5
h-148c0 87.333 20.167 150.833 60.5 190.5s104.833 59.5 193.5 59.5s153.167 -17.833 193.5 -53.5s60.5 -93.167 60.5 -172.5c0 -20 -2.16699 -39.167 -6.5 -57.5s-12.333 -36.833 -24 -55.5s-22.834 -35 -33.501 -49s-27 -31.333 -49 -52l-55.5 -50.5l-68 -58.5z" />
    <glyph glyph-name="three" unicode="3" horiz-adv-x="634" 
d="M302 312l-44.002 0.000976562v100h44c45.333 0 78.333 7.66699 99 23s31 39.666 31 72.999c0 36.667 -9.5 63.167 -28.5 79.5s-49.5 24.5 -91.5 24.5s-72.5 -10.333 -91.5 -31s-28.5 -54.334 -28.5 -101.001h-132c0 84 19.833 145 59.5 183s103.834 57 192.501 57
c88 0 152 -16.167 192 -48.5s60 -84.166 60 -155.499c0 -26 -3.83301 -49 -11.5 -69s-17.167 -34.667 -28.5 -44s-22.666 -16.666 -33.999 -21.999s-20.666 -8.33301 -27.999 -9l-12 -2l15.5 -2.5c6.33301 -1 17.833 -5 34.5 -12s31.334 -15.833 44.001 -26.5
s24.167 -27 34.5 -49s15.5 -47.333 15.5 -76c0 -78.667 -22.333 -135.667 -67 -171s-116.334 -53 -215.001 -53s-170.334 19.833 -215.001 59.5s-67 103.167 -67 190.5h140c0 -50 11.167 -86.167 33.5 -108.5s58.5 -33.5 108.5 -33.5c46.667 0 80.5 9.16699 101.5 27.5
s31.5 47.833 31.5 88.5c0 37.333 -11.333 64.666 -34 81.999s-59 26 -109 26z" />
    <glyph glyph-name="four" unicode="4" horiz-adv-x="660" 
d="M364 700h166v-420h70v-108h-70v-172h-148v172h-352v126zM160 280h222v270z" />
    <glyph glyph-name="five" unicode="5" horiz-adv-x="604" 
d="M228 592l0.00292969 -1.00098l-24 -136c31.333 16.667 72.666 25 123.999 25c86 0 148.5 -19.833 187.5 -59.5s58.5 -103.167 58.5 -190.5s-22.833 -150.833 -68.5 -190.5s-118.834 -59.5 -219.501 -59.5c-84 0 -146.333 17.5 -187 52.5s-63.667 90.833 -69 167.5h132
c5.33301 -39.333 18.333 -67.833 39 -85.5s51.667 -26.5 93 -26.5c46 0 79.5 11.167 100.5 33.5s31.5 58.5 31.5 108.5s-10.333 86.167 -31 108.5s-53.667 33.5 -99 33.5c-36 0 -63.333 -6.16699 -82 -18.5s-31.334 -32.166 -38.001 -59.499h-124l68 406h404v-108h-296z" />
    <glyph glyph-name="six" unicode="6" horiz-adv-x="634" 
d="M40 340c0 133.333 22.3311 229.999 66.998 289.999s116.334 90 215.001 90c74 0 131 -15.833 171 -47.5s67 -82.5 81 -152.5h-140c-8.66699 35.333 -21.667 60.833 -39 76.5s-41.666 23.5 -72.999 23.5c-47.333 0 -81.5 -17.5 -102.5 -52.5s-31.5 -92.167 -31.5 -171.5
l3 9c1.33301 4 5.83301 10.833 13.5 20.5s17.167 18.167 28.5 25.5s28.666 14 51.999 20s50 9 80 9c77.333 0 134.833 -20 172.5 -60s56.5 -103.333 56.5 -190c0 -87.333 -21.5 -150.833 -64.5 -190.5s-112.167 -59.5 -207.5 -59.5c-101.333 0 -173.666 28.333 -216.999 85
s-65 148.334 -65 275.001zM321.998 371.999c-43.333 0 -74.833 -11.333 -94.5 -34s-29.5 -58.667 -29.5 -108s9.83301 -85.333 29.5 -108s51.167 -34 94.5 -34s74.666 11.167 93.999 33.5s29 58.5 29 108.5s-9.66699 86.167 -29 108.5s-50.666 33.5 -93.999 33.5z" />
    <glyph glyph-name="seven" unicode="7" horiz-adv-x="552" 
d="M522 610l-300 -610h-157l299 592h-334v108h492v-90z" />
    <glyph glyph-name="eight" unicode="8" horiz-adv-x="664" 
d="M149 369c-52.667 28 -79 77 -79 147c0 71.333 20.667 123.166 62 155.499s108 48.5 200 48.5c91.333 0 157.833 -16.167 199.5 -48.5s62.5 -84.166 62.5 -155.499c0 -70 -26.333 -119 -79 -147c72.667 -29.333 109 -87 109 -173
c0 -75.333 -23.167 -130.166 -69.5 -164.499s-120.5 -51.5 -222.5 -51.5c-102.667 0 -177 17.167 -223 51.5s-69 89.166 -69 164.499c0 86 36.333 143.667 109 173zM333 88c50 0 86.334 9 109.001 27s34 46.333 34 85c0 40 -11.167 68.667 -33.5 86s-58.833 26 -109.5 26
s-87.334 -8.66699 -110.001 -26s-34 -46 -34 -86c0 -38.667 11.5 -67 34.5 -85s59.5 -27 109.5 -27zM332.001 612c-42.667 0 -73.667 -8 -93 -24s-29 -41.333 -29 -76c0 -36 9.5 -61.667 28.5 -77s50.167 -23 93.5 -23s74.5 7.66699 93.5 23s28.5 41 28.5 77
c0 34.667 -9.66699 60 -29 76s-50.333 24 -93 24z" />
    <glyph glyph-name="nine" unicode="9" horiz-adv-x="634" 
d="M594 360c0 -132.667 -22.3301 -229.166 -66.9971 -289.499s-116.334 -90.5 -215.001 -90.5c-74.667 0 -131.834 15.833 -171.501 47.5s-66.5 82.5 -80.5 152.5h140c8.66699 -35.333 21.667 -60.833 39 -76.5s41.666 -23.5 72.999 -23.5c47.333 0 81.5 17.5 102.5 52.5
s31.5 92.167 31.5 171.5l-3 -9c-1.33301 -4 -5.83301 -10.833 -13.5 -20.5s-17.167 -18.167 -28.5 -25.5s-28.666 -14 -51.999 -20s-50 -9 -80 -9c-77.333 0 -134.833 20 -172.5 60s-56.5 103.333 -56.5 190c0 87.333 21.5 150.833 64.5 190.5s112.167 59.5 207.5 59.5
c101.333 0 173.666 -28.333 216.999 -85s65 -148.334 65 -275.001zM312.003 328.001c42.667 0 73.834 11.333 93.501 34s29.5 58.667 29.5 108s-9.83301 85.333 -29.5 108s-50.834 34 -93.501 34c-43.333 0 -74.833 -11.167 -94.5 -33.5s-29.5 -58.5 -29.5 -108.5
c0 -49.333 9.83301 -85.333 29.5 -108s51.167 -34 94.5 -34z" />
    <glyph glyph-name="colon" unicode=":" horiz-adv-x="233" 
d="M116 155c30.667 0 52.833 -6.5 66.5 -19.5s20.5 -34.167 20.5 -63.5c0 -28.667 -7 -49.5 -21 -62.5s-36 -19.5 -66 -19.5s-51.833 6.5 -65.5 19.5s-20.5 33.833 -20.5 62.5s6.83301 49.667 20.5 63s35.5 20 65.5 20zM115.999 502c30.667 0 52.833 -6.5 66.5 -19.5
s20.5 -33.833 20.5 -62.5s-7 -49.5 -21 -62.5s-36 -19.5 -66 -19.5s-51.833 6.5 -65.5 19.5s-20.5 33.833 -20.5 62.5s6.83301 49.5 20.5 62.5s35.5 19.5 65.5 19.5z" />
    <glyph glyph-name="semicolon" unicode=";" horiz-adv-x="233" 
d="M116 502c30.667 0 52.833 -6.5 66.5 -19.5s20.5 -33.833 20.5 -62.5s-7 -49.5 -21 -62.5s-36 -19.5 -66 -19.5s-51.833 6.5 -65.5 19.5s-20.5 33.833 -20.5 62.5s6.83301 49.5 20.5 62.5s35.5 19.5 65.5 19.5zM107.999 155c36.667 0 61.502 -12.168 74.502 -36.501
s19.5 -56.5 19.5 -96.5c0 -68 -12.833 -117.333 -38.5 -148s-66.834 -46 -123.501 -46v67c24.667 0 42.5 7.5 53.5 22.5s16.5 39.167 16.5 72.5c-27.333 0 -47.333 6.33301 -60 19s-19.334 33.334 -20.001 62.001c0 28 6 49 18 63s32 21 60 21z" />
    <glyph glyph-name="less" unicode="&#x3c;" horiz-adv-x="460" 
d="M30 325l400 175v-133l-267 -117l267 -117v-133l-400 175v150z" />
    <glyph glyph-name="equal" unicode="=" horiz-adv-x="644" 
d="M614 222v-108h-584v108h584zM614 416v-108h-584v108h584z" />
    <glyph glyph-name="greater" unicode="&#x3e;" horiz-adv-x="460" 
d="M30 500l400 -175v-150l-400 -175v133l267 117l-267 117v133z" />
    <glyph glyph-name="question" unicode="?" horiz-adv-x="552" 
d="M264 155c30 0 51.833 -6.66699 65.5 -20s20.5 -34.333 20.5 -63s-6.83301 -49.5 -20.5 -62.5s-35.5 -19.5 -65.5 -19.5c-30.667 0 -52.667 6.5 -66 19.5s-20 33.833 -20 62.5s6.83301 49.667 20.5 63s35.5 20 65.5 20zM200 250c0 32 4.16602 59.8311 12.499 83.498
s18.5 41.667 30.5 54s25.333 24 40 35s28 20.167 40 27.5s22.167 17.833 30.5 31.5s12.5 29.834 12.5 48.501c0 28.667 -7.83301 49.5 -23.5 62.5s-40.5 19.5 -74.5 19.5s-58.833 -9.66699 -74.5 -29s-23.5 -50.333 -23.5 -93h-140c0 80.667 19.5 139.167 58.5 175.5
s101.5 54.5 187.5 54.5c86.667 0 149.334 -15 188.001 -45s58 -78.333 58 -145c0 -33.333 -6.83301 -61.166 -20.5 -83.499s-30.167 -39.333 -49.5 -51l-58 -34c-19.333 -11 -35.833 -25.5 -49.5 -43.5s-20.5 -40.667 -20.5 -68h-124z" />
    <glyph glyph-name="at" unicode="@" horiz-adv-x="891" 
d="M643 460l1 0.00195312l1 -270c-0.666992 -57.333 13.666 -86 42.999 -86c18.667 0 32.334 11.5 41.001 34.5s13 60.167 13 111.5c0 109.333 -22.833 188.666 -68.5 237.999s-119.5 74 -221.5 74c-106.667 0 -184 -24.667 -232 -74s-71.667 -128.666 -71 -237.999
c-0.666992 -105.333 19.333 -182 60 -230s106.334 -72 197.001 -72c68.667 0 122 16.667 160 50v-102c-11.333 -8.66699 -31.333 -17.5 -60 -26.5s-62 -13.5 -100 -13.5c-128 -0.666992 -221 30.166 -279 92.499s-87 162.833 -87 301.5c0 141.333 32.667 244 98 308
s170 96 314 96c139.333 0 240.666 -32 303.999 -96s95 -166.667 95 -308c0 -79.333 -13.5 -137.5 -40.5 -174.5s-67.833 -55.5 -122.5 -55.5c-70 0 -116.667 22.333 -140 67c-29.333 -31.333 -75.666 -47 -138.999 -47c-65.333 0 -112.833 16.667 -142.5 50
s-44.5 86.666 -44.5 159.999c0 77.333 14.833 133.333 44.5 168s77.5 52 143.5 52c53.333 0 96.666 -18.333 129.999 -55l19 45h84zM433 124.002c32.667 0 56.5 10.001 71.5 30.001s22.5 52 22.5 96c0 44.667 -7.33301 77.167 -22 97.5s-38.667 30.5 -72 30.5
s-57.666 -10.167 -72.999 -30.5s-23 -52.833 -23 -97.5s7.66699 -76.834 23 -96.501s39.666 -29.5 72.999 -29.5z" />
    <glyph glyph-name="A" unicode="A" horiz-adv-x="692" 
d="M510 0l-42 144h-249l-44 -144h-165l229 700h230l213 -700h-172zM346 564l-94 -312h185z" />
    <glyph glyph-name="B" unicode="B" horiz-adv-x="696" 
d="M535 370c3.33301 -0.666992 7.66699 -2.00195 13 -4.00195s15 -7.16699 29 -15.5s26.333 -18 37 -29s20.334 -26.667 29.001 -47s13 -43.166 13 -68.499c0 -72 -21.333 -124.333 -64 -157s-111.334 -49 -206.001 -49h-306v700h298c86.667 0 149.667 -14.667 189 -44
s59 -76.666 59 -141.999c0 -35.333 -7.66699 -65 -23 -89s-30.333 -39 -45 -45zM362.001 107.998c42.667 0 73.667 7.66699 93 23s29 40.333 29 75c0 36.667 -9.66699 63.5 -29 80.5s-50.333 25.5 -93 25.5h-117v-204h117zM245.001 591.998v-180h109
c34.667 0 60 7.5 76 22.5s24 38.833 24 71.5c0 30 -8 51.833 -24 65.5s-41.333 20.5 -76 20.5h-109z" />
    <glyph glyph-name="C" unicode="C" horiz-adv-x="766" 
d="M562 236h164c-21.333 -89.333 -58 -154.333 -110 -195s-125.333 -61 -220 -61c-124.667 0 -215.167 29.333 -271.5 88s-84.5 152.667 -84.5 282s28.167 223.333 84.5 282s146.833 88 271.5 88c102 0 179 -20.333 231 -61s85 -105.667 99 -195h-164
c-10 46.667 -28 80.167 -54 100.5s-63.333 30.5 -112 30.5c-64 0 -110.5 -19.333 -139.5 -58s-43.5 -101 -43.5 -187s14.5 -148.333 43.5 -187s75.5 -58 139.5 -58c46.667 0 83 10.167 109 30.5s45 53.833 57 100.5z" />
    <glyph glyph-name="D" unicode="D" horiz-adv-x="742" 
d="M702 350c0 -122.667 -27.5 -211.667 -82.5 -267s-143.5 -83 -265.5 -83h-274v700h274c122 0 210.5 -27.667 265.5 -83s82.5 -144.333 82.5 -267zM346 584h-101v-468h101c64.667 0 111.5 18.5 140.5 55.5s43.5 96.5 43.5 178.5s-14.5 141.5 -43.5 178.5
s-75.833 55.5 -140.5 55.5z" />
    <glyph glyph-name="E" unicode="E" horiz-adv-x="614" 
d="M584 584h-339v-164h299v-116h-299v-188h339v-116h-504v700h504v-116z" />
    <glyph glyph-name="F" unicode="F" horiz-adv-x="604" 
d="M584 584h-339v-164h299v-116h-299v-304h-165v700h504v-116z" />
    <glyph glyph-name="G" unicode="G" horiz-adv-x="776" 
d="M398 294v107.999h338v-52c0 -129.333 -26.667 -223.333 -80 -282s-139.333 -88 -258 -88c-125.333 0 -216.333 29.333 -273 88s-85 152.667 -85 282s28.333 223.333 85 282s147.667 88 273 88c98 0 173 -19 225 -57s86.333 -99 103 -183h-156
c-10 40.667 -28.5 70 -55.5 88s-65.833 27 -116.5 27c-65.333 0 -112.5 -19.167 -141.5 -57.5s-43.5 -100.833 -43.5 -187.5c0 -86 14.667 -148.333 44 -187s76.333 -58 141 -58c64 0 110.333 14.833 139 44.5s43 77.834 43 144.501h-182z" />
    <glyph glyph-name="H" unicode="H" horiz-adv-x="756" 
d="M512 700h164v-700h-164v312h-267v-312h-165v700h165v-264h267v264z" />
    <glyph glyph-name="I" unicode="I" horiz-adv-x="325" 
d="M80 700h165v-700h-165v700z" />
    <glyph glyph-name="J" unicode="J" horiz-adv-x="574" 
d="M20 210l-0.000976562 34h156v-34c0 -37.333 6.5 -64.166 19.5 -80.499s33.833 -24.5 62.5 -24.5c29.333 0 50.333 8.16699 63 24.5s19 43.166 19 80.499v490h164v-490c0 -78 -19.667 -135.833 -59 -173.5s-101.666 -56.5 -186.999 -56.5c-82.667 0 -143 18.833 -181 56.5
s-57 95.5 -57 173.5z" />
    <glyph glyph-name="K" unicode="K" horiz-adv-x="711" 
d="M245 700v-272l237 272h199l-296 -340l316 -360h-199l-257 293v-293h-165v700h165z" />
    <glyph glyph-name="L" unicode="L" horiz-adv-x="574" 
d="M544 125v-125h-464v700h165v-575h299z" />
    <glyph glyph-name="M" unicode="M" horiz-adv-x="932" 
d="M80 0v700h223l167 -477l167 477h215v-700h-156v499l-180 -499h-100l-179 499v-499h-157z" />
    <glyph glyph-name="N" unicode="N" horiz-adv-x="772" 
d="M536 700h156v-700h-190l-265 495v-495h-157v700h191l265 -495v495z" />
    <glyph glyph-name="O" unicode="O" horiz-adv-x="796" 
d="M398 720c125.333 0 216.333 -29.333 273 -88s85 -152.667 85 -282s-28.333 -223.333 -85 -282s-147.667 -88 -273 -88s-216.333 29.333 -273 88s-85 152.667 -85 282s28.333 223.333 85 282s147.667 88 273 88zM398 595c-64.667 0 -111.667 -19.333 -141 -58
s-44 -101 -44 -187s14.667 -148.333 44 -187s76.333 -58 141 -58c65.333 0 112.666 19.333 141.999 58s44 101 44 187s-14.667 148.333 -44 187s-76.666 58 -141.999 58z" />
    <glyph glyph-name="P" unicode="P" horiz-adv-x="686" 
d="M656 474c0 -67.333 -22 -121.833 -66 -163.5s-111.333 -62.5 -202 -62.5h-143v-248h-165v700h308c90.667 0 158 -20.833 202 -62.5s66 -96.167 66 -163.5zM492 474c0 34.667 -9.33301 61.667 -28 81s-46.667 29 -84 29h-135v-220h135c37.333 0 65.333 9.66699 84 29
s28 46.333 28 81z" />
    <glyph glyph-name="Q" unicode="Q" horiz-adv-x="795" 
d="M397 720c125.333 0 216.332 -29.333 272.999 -88s85 -152.667 85 -282c0 -140.667 -33.667 -239.667 -101 -297l101 -123h-150l-56 68c-42.667 -12 -93 -18 -151 -18c-125.333 0 -216.333 29.333 -273 88s-85 152.667 -85 282s28.333 223.333 85 282
s147.334 88 272.001 88zM582.999 350c0 86 -15 148.333 -45 187s-77.667 58 -143 58c-64.667 0 -111.667 -19.333 -141 -58s-44 -101 -44 -187s14.667 -148.333 44 -187s76.333 -58 141 -58c22 0 42 2 60 6l-131 159h150l75 -91c22.667 39.333 34 96.333 34 171z" />
    <glyph glyph-name="R" unicode="R" horiz-adv-x="722" 
d="M369 256l-124 -0.000976562v-256h-165v700h320c90.667 0 158 -20.833 202 -62.5s66 -96.167 66 -163.5c0 -105.333 -47.667 -172.666 -143 -201.999l157 -272h-173zM245 363.999h147c37.333 0 65.333 9.66699 84 29s28 46.333 28 81s-9.33301 61.667 -28 81
s-46.667 29 -84 29h-147v-220z" />
    <glyph glyph-name="S" unicode="S" horiz-adv-x="656" 
d="M206 520c0 -20.667 10.1719 -37.8291 30.5049 -51.4961s45.666 -23.834 75.999 -30.501s63.166 -15.334 98.499 -26.001s68.166 -22.834 98.499 -36.501s55.666 -35.167 75.999 -64.5s30.5 -65 30.5 -107c0 -78.667 -22.833 -135.667 -68.5 -171
s-118.834 -53 -219.501 -53s-173.834 17.333 -219.501 52s-68.5 90.667 -68.5 168h148c0 -39.333 11 -67.833 33 -85.5s57.667 -26.5 107 -26.5c46.667 0 80.334 7.33301 101.001 22s31 38 31 70c0 21.333 -7.5 39.5 -22.5 54.5s-34.667 26.667 -59 35s-51 16 -80 23
s-58 15.333 -87 25s-55.667 21.167 -80 34.5s-44 32.166 -59 56.499s-22.5 53.5 -22.5 87.5c0 78.667 22 135.667 66 171s114.667 53 212 53s168 -17.333 212 -52s66 -90.667 66 -168h-148c0 39.333 -10.333 67.833 -31 85.5s-53.667 26.5 -99 26.5
c-43.333 0 -74.5 -7.16699 -93.5 -21.5s-28.5 -37.833 -28.5 -70.5z" />
    <glyph glyph-name="T" unicode="T" horiz-adv-x="636" 
d="M606 700v-125h-206v-575h-164v575h-206v125h576z" />
    <glyph glyph-name="U" unicode="U" horiz-adv-x="736" 
d="M70 258v442h165v-442c0 -54 10.5 -93 31.5 -117s54.833 -36 101.5 -36c47.333 0 81.5 12 102.5 36s31.5 63 31.5 117v442h164v-442c0 -97.333 -23.5 -168 -70.5 -212s-122.833 -66 -227.5 -66s-180.5 22 -227.5 66s-70.5 114.667 -70.5 212z" />
    <glyph glyph-name="V" unicode="V" horiz-adv-x="684" 
d="M175 700l167 -592l167 592h165l-213 -700h-238l-213 700h165z" />
    <glyph glyph-name="W" unicode="W" horiz-adv-x="1012" 
d="M407 700h197h1l103 -542l119 542h165l-171 -700h-214l-107 540l-95 -540h-214l-171 700h165l119 -542z" />
    <glyph glyph-name="X" unicode="X" horiz-adv-x="684" 
d="M201 700l143 -243l147 243h173l-213 -340l223 -360h-181l-151 262l-159 -262h-173l218 360l-208 340h181z" />
    <glyph glyph-name="Y" unicode="Y" horiz-adv-x="664" 
d="M414 268v-268h-156v268l-248 432h181l145 -279l145 279h173z" />
    <glyph glyph-name="Z" unicode="Z" horiz-adv-x="624" 
d="M221 116h373v-116h-564v99l363 485h-353v116h544v-99z" />
    <glyph glyph-name="bracketleft" unicode="[" horiz-adv-x="324" 
d="M80 700h234v-108l-110 -1v-683h110v-108h-234v900z" />
    <glyph glyph-name="backslash" unicode="\" horiz-adv-x="393" 
d="M10 700h133l240 -700h-133z" />
    <glyph glyph-name="bracketright" unicode="]" horiz-adv-x="325" 
d="M10 700h235v-900h-235v108h110v683l-110 1v108z" />
    <glyph glyph-name="asciicircum" unicode="^" horiz-adv-x="496" 
d="M323 670l143 -350h-117l-101 248l-101 -248h-117l143 350h150z" />
    <glyph glyph-name="underscore" unicode="_" horiz-adv-x="520" 
d="M520 0v-108h-520v108h520z" />
    <glyph glyph-name="grave" unicode="`" horiz-adv-x="306" 
d="M180 700l96 -150h-117l-129 150h150z" />
    <glyph glyph-name="a" unicode="a" horiz-adv-x="556" 
d="M373 42c-30.667 -34.667 -82.335 -51.999 -155.002 -51.999c-66 0 -113.833 12.5 -143.5 37.5s-44.5 65.167 -44.5 120.5c0 59.333 19.167 102.5 57.5 129.5s99.833 40.5 184.5 40.5h86v22c0 30 -6.66699 51.833 -20 65.5s-34.666 20.5 -63.999 20.5
s-50.666 -6 -63.999 -18s-19.666 -31.333 -18.999 -58h-141c0 56 18 96.667 54 122s94 38 174 38c79.333 0 137.166 -14.833 173.499 -44.5s54.5 -76.834 54.5 -141.501v-324h-116zM357.999 234.001l-65.002 0.000976562c-17.333 0 -31.666 -0.833008 -42.999 -2.5
s-23.166 -4.83398 -35.499 -9.50098s-21.5 -12.5 -27.5 -23.5s-9 -25.167 -9 -42.5c0 -24 6.16699 -41 18.5 -51s32.833 -15 61.5 -15c38 0 64.167 10 78.5 30s21.5 49.667 21.5 89v25z" />
    <glyph glyph-name="b" unicode="b" horiz-adv-x="605" 
d="M358 -10c-72.667 0 -126.667 19 -162 57l-20 -47h-116v700h148v-235c34 30 83.667 45 149 45c76.667 0 132.167 -20.5 166.5 -61.5s51.5 -107.167 51.5 -198.5c0 -60.667 -7.5 -110 -22.5 -148s-38.5 -66.167 -70.5 -84.5s-73.333 -27.5 -124 -27.5zM318 98
c38.667 0 66.667 12 84 36s26 62.667 26 116s-8.66699 92 -26 116s-45.333 36 -84 36s-66.667 -12 -84 -36s-26 -62.667 -26 -116s8.66699 -92 26 -116s45.333 -36 84 -36z" />
    <glyph glyph-name="c" unicode="c" 
d="M398 184h148c-7.33301 -68 -30.666 -117.333 -69.999 -148s-98.666 -46 -177.999 -46c-94 0 -162.167 20.5 -204.5 61.5s-63.5 107.167 -63.5 198.5s21.167 157.5 63.5 198.5s110.5 61.5 204.5 61.5c79.333 0 138.666 -15.333 177.999 -46s62.666 -80 69.999 -148h-148
c-5.33301 30 -16 51.833 -32 65.5s-38.667 20.5 -68 20.5c-42 0 -72.5 -12 -91.5 -36s-28.5 -62.667 -28.5 -116s9.5 -92 28.5 -116s49.5 -36 91.5 -36c28.667 0 51 6.83301 67 20.5s27 35.5 33 65.5z" />
    <glyph glyph-name="d" unicode="d" horiz-adv-x="606" 
d="M248 -10c-76.667 0 -132.167 20.5 -166.5 61.5s-51.5 107.167 -51.5 198.5s17.167 157.5 51.5 198.5s89.833 61.5 166.5 61.5c66 0 116 -15 150 -45v235h148v-700h-116l-20 47c-34 -38 -88 -57 -162 -57zM288 98c38.667 0 66.667 12 84 36s26 62.667 26 116
s-8.66699 92 -26 116s-45.333 36 -84 36s-66.667 -12 -84 -36s-26 -62.667 -26 -116s8.66699 -92 26 -116s45.333 -36 84 -36z" />
    <glyph glyph-name="e" unicode="e" 
d="M179 202c4 -41.333 14.665 -71.666 31.998 -90.999s43 -29 77 -29c28.667 0 50.5 5.83301 65.5 17.5s25.833 30.5 32.5 56.5h140c-11.333 -58 -35.666 -100.167 -72.999 -126.5s-92.333 -39.5 -165 -39.5c-90.667 0 -156.334 20.5 -197.001 61.5s-61 107.167 -61 198.5
s20.333 157.5 61 198.5s106.334 61.5 197.001 61.5s156.334 -20.833 197.001 -62.5s61 -108.834 61 -201.501v-44h-367zM288.998 418c-35.333 0 -61.833 -10.501 -79.5 -31.501s-28.167 -54.5 -31.5 -100.5h221c0 46.667 -8.66699 80.334 -26 101.001s-45.333 31 -84 31z
" />
    <glyph glyph-name="f" unicode="f" horiz-adv-x="436" 
d="M308 592c-30.667 0 -46 -14.667 -46 -44v-48h144v-92h-144v-408h-148v408h-84v92h84v48c0 47.333 13.5 84.5 40.5 111.5s64.833 40.5 113.5 40.5h138v-108h-98z" />
    <glyph glyph-name="g" unicode="g" horiz-adv-x="607" 
d="M249 -10c-76.667 0 -132.333 20.667 -167 62s-52 107.333 -52 198c0 91.333 17.167 157.5 51.5 198.5s89.833 61.5 166.5 61.5c74.667 0 129.334 -19.333 164.001 -58l19 48h116v-450c0 -91.333 -20.333 -157.5 -61 -198.5s-106.334 -61.5 -197.001 -61.5
c-74.667 0 -130.667 13.167 -168 39.5s-60.666 68.5 -69.999 126.5h140c5.33301 -26 15.166 -44.833 29.499 -56.5s34.5 -17.5 60.5 -17.5c41.333 0 71.333 11.333 90 34s28 59 28 109v10c-34 -30 -84 -45 -150 -45zM288.001 98c38.667 0 66.667 12 84 36s26 62.667 26 116
s-8.66699 92 -26 116s-45.333 36 -84 36s-66.667 -12 -84 -36s-26 -62.667 -26 -116s8.66699 -92 26 -116s45.333 -36 84 -36z" />
    <glyph glyph-name="h" unicode="h" horiz-adv-x="587" 
d="M61 0h-0.999023v700h148v-227c31.333 24.667 75.666 37 132.999 37c68.667 0 118.5 -19 149.5 -57s46.5 -99 46.5 -183v-270h-148v270c0 46.667 -6.83301 80.334 -20.5 101.001s-36.167 31 -67.5 31c-32.667 0 -56.167 -10.333 -70.5 -31s-21.5 -54.334 -21.5 -101.001
l1 -270l-1 4v-4h-148z" />
    <glyph glyph-name="i" unicode="i" horiz-adv-x="272" 
d="M210 0h-148v500h148v-500zM136 722c30 0 51.833 -6.16699 65.5 -18.5s20.5 -32.166 20.5 -59.499s-6.83301 -47.166 -20.5 -59.499s-35.5 -18.5 -65.5 -18.5s-51.833 6.16699 -65.5 18.5s-20.5 32.166 -20.5 59.499s6.83301 47.166 20.5 59.499s35.5 18.5 65.5 18.5z" />
    <glyph glyph-name="j" unicode="j" horiz-adv-x="270" 
d="M-2 -72c20 0 35.333 5.33203 46 15.999s16 25.334 16 44.001v512h149v-528c0 -47.333 -13.667 -84.5 -41 -111.5s-65.333 -40.5 -114 -40.5h-134v108h78zM134 721.999c30 0 51.833 -6.16699 65.5 -18.5s20.5 -32.166 20.5 -59.499s-6.83301 -47.166 -20.5 -59.499
s-35.5 -18.5 -65.5 -18.5s-51.833 6.16699 -65.5 18.5s-20.5 32.166 -20.5 59.499s6.83301 47.166 20.5 59.499s35.5 18.5 65.5 18.5z" />
    <glyph glyph-name="k" unicode="k" horiz-adv-x="587" 
d="M208 700v-393l174 193h175l-216 -240l236 -260h-175l-194 214v-214h-148v700h148z" />
    <glyph glyph-name="l" unicode="l" horiz-adv-x="268" 
d="M60 0v700h148v-700h-148z" />
    <glyph glyph-name="m" unicode="m" horiz-adv-x="867" 
d="M208 271v-271.001h-148v500h116l23 -56c26 44.667 71.667 67 137 67c68.667 0 116.667 -23.333 144 -70c29.333 46.667 80.333 70 153 70c64.667 0 111.5 -19 140.5 -57s43.5 -99 43.5 -183v-270h-148v270c0 46 -6 79.5 -18 100.5s-31.333 31.5 -58 31.5
c-28 0 -48.333 -10.5 -61 -31.5s-19 -54.5 -19 -100.5v-270h-148v270c0 46.667 -6 80.334 -18 101.001s-31.333 31 -58 31c-28 0 -48.5 -10.5 -61.5 -31.5s-19.5 -54.5 -19.5 -100.5z" />
    <glyph glyph-name="n" unicode="n" horiz-adv-x="586" 
d="M176 500l-1 -1.00098l18 -39c32.667 33.333 81.667 50 147 50c68.667 0 118.5 -19 149.5 -57s46.5 -99 46.5 -183v-270h-148v270c0 46.667 -7 80.334 -21 101.001s-36.333 31 -67 31c-32 0 -55.333 -9.5 -70 -28.5s-22 -49.5 -22 -91.5v-282h-148v500h116z" />
    <glyph glyph-name="o" unicode="o" horiz-adv-x="596" 
d="M298 510c94 0 162.167 -20.5 204.5 -61.5s63.5 -107.167 63.5 -198.5s-21.167 -157.5 -63.5 -198.5s-110.5 -61.5 -204.5 -61.5s-162.167 20.5 -204.5 61.5s-63.5 107.167 -63.5 198.5s21.167 157.5 63.5 198.5s110.5 61.5 204.5 61.5zM178 250
c0 -53.333 9.5 -92 28.5 -116s49.5 -36 91.5 -36s72.5 12 91.5 36s28.5 62.667 28.5 116s-9.5 92 -28.5 116s-49.5 36 -91.5 36s-72.5 -12 -91.5 -36s-28.5 -62.667 -28.5 -116z" />
    <glyph glyph-name="p" unicode="p" horiz-adv-x="605" 
d="M356 510c76.667 0 132.167 -20.667 166.5 -62s51.5 -107.333 51.5 -198c0 -91.333 -17.167 -157.5 -51.5 -198.5s-89.833 -61.5 -166.5 -61.5c-65.333 0 -115 15 -149 45v-235h-148v700h116l20 -47c35.333 38 89 57 161 57zM315 401c-38.667 0 -66.667 -12 -84 -36
s-26 -62.333 -26 -115c0 -53.333 8.66699 -92 26 -116s45.333 -36 84 -36s66.667 12 84 36s26 62.667 26 116c0 52.667 -8.66699 91 -26 115s-45.333 36 -84 36z" />
    <glyph glyph-name="q" unicode="q" horiz-adv-x="606" 
d="M248 510c74 0 128 -19 162 -57l20 47h116v-700h-148v235c-34 -30 -84 -45 -150 -45c-76.667 0 -132.167 20.5 -166.5 61.5s-51.5 107.167 -51.5 198.5s17.167 157.5 51.5 198.5s89.833 61.5 166.5 61.5zM288 401c-38.667 0 -66.667 -12 -84 -36s-26 -62.333 -26 -115
c0 -53.333 8.66699 -92 26 -116s45.333 -36 84 -36s66.667 12 84 36s26 62.667 26 116c0 52.667 -8.66699 91 -26 115s-45.333 36 -84 36z" />
    <glyph glyph-name="r" unicode="r" horiz-adv-x="407" 
d="M315 385h-1c-37.333 0 -64.5 -10.667 -81.5 -32s-25.5 -55.333 -25.5 -102v-250h-148v500h116l20 -47c30.667 37.333 70.667 56 120 56h72v-125h-72z" />
    <glyph glyph-name="s" unicode="s" horiz-adv-x="508" 
d="M172 372c0 -15.333 7.49414 -27.499 22.4941 -36.499s33.833 -15.333 56.5 -19s47.334 -8.83398 74.001 -15.501s51.334 -14.5 74.001 -23.5s41.5 -24 56.5 -45s22.5 -47.167 22.5 -78.5c0 -57.333 -18.5 -99 -55.5 -125s-96.167 -39 -177.5 -39
c-75.333 0 -130 12.667 -164 38s-51 66 -51 122h140c0 -26.667 6.33301 -46 19 -58s33 -18 61 -18s48.333 5 61 15s19 26.333 19 49c0 19.333 -10.167 34.166 -30.5 44.499s-45.166 18 -74.499 23s-58.666 11.333 -87.999 19s-54.166 22.334 -74.499 44.001
s-30.5 50.834 -30.5 87.501c0 54 17.167 93.167 51.5 117.5s89.833 36.5 166.5 36.5c73.333 0 126.666 -11.833 159.999 -35.5s50 -61.834 50 -114.501h-132c0 23.333 -6.16699 40.166 -18.5 50.499s-32.166 15.5 -59.499 15.5s-47.166 -4.16699 -59.499 -12.5
s-18.5 -22.166 -18.5 -41.499z" />
    <glyph glyph-name="t" unicode="t" horiz-adv-x="442" 
d="M269 168c0 -18 5.33301 -32.5 16 -43.5s25.667 -16.5 45 -16.5h82v-108h-138c-48.667 0 -86.5 13.5 -113.5 40.5s-40.5 64.167 -40.5 111.5v256h-80v92h80v126h149v-126h143v-92h-143v-240z" />
    <glyph glyph-name="u" unicode="u" horiz-adv-x="586" 
d="M410 0l1 1.00098l-18 39c-32.667 -33.333 -81.667 -50 -147 -50c-68.667 0 -118.5 19 -149.5 57s-46.5 99 -46.5 183v270h148v-270c0 -46.667 7 -80.334 21 -101.001s36.333 -31 67 -31c61.333 0 92 40 92 120l1 282h147v-500h-116z" />
    <glyph glyph-name="v" unicode="v" horiz-adv-x="548" 
d="M277 98l104 402h157l-153 -500h-222l-153 500h157z" />
    <glyph glyph-name="w" unicode="w" horiz-adv-x="864" 
d="M697 0h-182l-83 396l-83 -396h-181l-148 500h149l96 -382l80 382h182l73 -381l96 381h148z" />
    <glyph glyph-name="x" unicode="x" horiz-adv-x="532" 
d="M177 500l89 -154l89 154h157l-155 -240l165 -260h-157l-99 173l-99 -173h-157l165 260l-155 240h157z" />
    <glyph glyph-name="y" unicode="y" horiz-adv-x="536" 
d="M222 2h-1.00098l4 11l-216 487h141l131 -316l104 316h140l-168 -482c-25.333 -69.333 -54.666 -119.666 -87.999 -150.999s-74 -47 -122 -47h-72v92h64c18.667 0 34.5 7.16699 47.5 21.5s24.833 37.166 35.5 68.499z" />
    <glyph glyph-name="z" unicode="z" horiz-adv-x="504" 
d="M205 100h269v-100h-444v83l260 317h-250v100h424v-83z" />
    <glyph glyph-name="braceleft" unicode="{" horiz-adv-x="384" 
d="M230 128v-160.001c0 -21.333 4.33301 -36.666 13 -45.999s22.334 -14 41.001 -14h90v-108h-122c-51.333 0 -88.5 12.5 -111.5 37.5s-34.5 64.833 -34.5 119.5v186c0 23.333 -5.33301 40.166 -16 50.499s-27.334 15.5 -50.001 15.5v92
c22.667 0 39.334 5.16699 50.001 15.5s16 27.166 16 50.499v176c0 54.667 11.5 94.5 34.5 119.5s60.167 37.5 111.5 37.5h122v-108h-90c-18.667 0 -32.334 -4.66699 -41.001 -14s-13 -24.666 -13 -45.999v-151c0 -66.667 -21 -108.667 -63 -126
c42 -17.333 63 -59.666 63 -126.999z" />
    <glyph glyph-name="bar" unicode="|" horiz-adv-x="284" 
d="M80 700h124v-900h-124v900z" />
    <glyph glyph-name="braceright" unicode="}" horiz-adv-x="384" 
d="M154 128c0 67.333 21 109.667 63 127c-42 17.333 -63 59.333 -63 126v151c0 21.333 -4.33301 36.666 -13 45.999s-22.334 14 -41.001 14h-90v108h122c51.333 0 88.5 -12.5 111.5 -37.5s34.5 -64.833 34.5 -119.5v-176c0 -23.333 5.33301 -40.166 16 -50.499
s27.334 -15.5 50.001 -15.5v-92c-22.667 0 -39.334 -5.16699 -50.001 -15.5s-16 -27.166 -16 -50.499v-186c0 -54.667 -11.5 -94.5 -34.5 -119.5s-60.167 -37.5 -111.5 -37.5h-122v108h90c18.667 0 32.334 4.66699 41.001 14s13 24.666 13 45.999v160z" />
    <glyph glyph-name="asciitilde" unicode="~" horiz-adv-x="660" 
d="M30 210l-0.00195312 102c27.333 26.667 56.333 44 87 52s60.334 8.5 89.001 1.5s57.834 -17 87.501 -30l88 -39.5c29 -13.333 57.333 -23.833 85 -31.5s55.667 -8 84 -1s54.833 22.833 79.5 47.5v-101c-27.333 -26.667 -56.333 -44.167 -87 -52.5
s-60.334 -9.16602 -89.001 -2.49902s-57.834 16.5 -87.501 29.5l-88.5 39.5c-29.333 13.333 -57.666 23.833 -84.999 31.5s-55.166 8.16699 -83.499 1.5s-54.833 -22.334 -79.5 -47.001z" />
    <glyph glyph-name="space_" unicode="&#xa0;" horiz-adv-x="300" 
 />
    <glyph glyph-name="exclamdown" unicode="&#xa1;" horiz-adv-x="292" 
d="M230 -200h-156v190l32 254h92l32 -254v-190zM146 343c-30 0 -51.833 6.66699 -65.5 20s-20.5 34.333 -20.5 63s6.83301 49.5 20.5 62.5s35.5 19.5 65.5 19.5s51.833 -6.5 65.5 -19.5s20.5 -33.833 20.5 -62.5s-6.83301 -49.667 -20.5 -63s-35.5 -20 -65.5 -20z" />
    <glyph glyph-name="cent" unicode="&#xa2;" 
d="M240 -98l-0.000976562 87c-73.333 8 -126.666 32.667 -159.999 74s-50 102.666 -50 183.999s16.667 142.666 50 183.999s86.666 66 159.999 74v83h116v-83c59.333 -6.66699 104.166 -25.167 134.499 -55.5s48.833 -75.166 55.5 -134.499h-148
c-5.33301 30 -16 51.833 -32 65.5s-39.333 20.5 -70 20.5c-41.333 0 -71.333 -12.167 -90 -36.5s-28 -62.833 -28 -115.5s9.33301 -91.167 28 -115.5s48.334 -36.5 89.001 -36.5c30.667 0 54 6.83301 70 20.5s27 35.5 33 65.5h148
c-6.66699 -59.333 -25.167 -104.166 -55.5 -134.499s-75.166 -48.833 -134.499 -55.5v-91h-116z" />
    <glyph glyph-name="sterling" unicode="&#xa3;" horiz-adv-x="656" 
d="M626 116v-0.999023v-116h-586v135c34 13.333 57.333 32.166 70 56.499s19 55.833 19 94.5v16h-89v108h89v90c0 76 18.333 131.667 55 167s95.334 53 176.001 53s140.167 -16.333 178.5 -49s57.5 -89.667 57.5 -171h-141c0 42 -6.83301 72.5 -20.5 91.5
s-35.834 28.5 -66.501 28.5c-34.667 0 -58.334 -10.5 -71.001 -31.5s-19 -50.5 -19 -88.5v-90h238v-108h-238v-16c0 -43.333 -7.66699 -78.5 -23 -105.5s-42.666 -48.167 -81.999 -63.5h453z" />
    <glyph glyph-name="currency" unicode="&#xa4;" horiz-adv-x="627" 
d="M587 477l-50 -50c30 -40.667 45 -99.667 45 -177c0 -78 -15 -137.333 -45 -178l50 -50l-75 -75l-62 63c-36 -12.667 -81.333 -19 -136 -19s-100 6.33301 -136 19l-62 -63l-76 75l50 50c-30 40.667 -45 100 -45 178c0 77.333 15 136.333 45 177l-50 50l75 76l63 -63
c36 12.667 81.333 19 136 19s100 -6.33301 136 -19l62 63zM194 250c0 -53.333 9.5 -92 28.5 -116s49.5 -36 91.5 -36s72.5 12 91.5 36s28.5 62.667 28.5 116s-9.5 92 -28.5 116s-49.5 36 -91.5 36s-72.5 -12 -91.5 -36s-28.5 -62.667 -28.5 -116z" />
    <glyph glyph-name="yen" unicode="&#xa5;" horiz-adv-x="684" 
d="M424 268v-58h204v-100h-204v-110h-156v110h-212v100h212v58l-17 30h-195v100h137l-173 302h181l145 -279l145 279h173l-168 -302h132v-100h-187z" />
    <glyph glyph-name="section" unicode="&#xa7;" horiz-adv-x="644" 
d="M320 612c-31.333 0 -54.1689 -6.16797 -68.502 -18.501s-21.5 -32.166 -21.5 -59.499c0 -17.333 6.83301 -32.166 20.5 -44.499s31.5 -22 53.5 -29s46.333 -13.833 73 -20.5s53.334 -14.667 80.001 -24s51 -20.833 73 -34.5s39.833 -32.5 53.5 -56.5
s20.5 -52.667 20.5 -86c0 -72.667 -25.667 -123 -77 -151c18 -26.667 27 -58.667 27 -96c0 -74 -19.667 -127.833 -59 -161.5s-102.333 -50.5 -189 -50.5c-79.333 0 -136.833 17.5 -172.5 52.5s-53.5 90.833 -53.5 167.5h124c0 -39.333 8 -67.833 24 -85.5
s42 -26.5 78 -26.5c34.667 0 59.834 6.33301 75.501 19s23.5 33 23.5 61c0 22.667 -9 41.334 -27 56.001s-40.5 25.167 -67.5 31.5s-56.333 14.166 -88 23.499s-61 19.666 -88 30.999s-49.5 30 -67.5 56s-27 58 -27 96c0 72.667 29 121.667 87 147
c-24.667 28.667 -37 65 -37 109c0 70.667 18.167 122 54.5 154s94.833 48 175.5 48c78.667 0 135.667 -17.333 171 -52s53 -90.667 53 -168h-124c0 39.333 -7.83301 67.833 -23.5 85.5s-41.167 26.5 -76.5 26.5zM230.997 342.999c-34 -10 -50.998 -31.998 -50.998 -65.998
c0 -23.333 11.667 -41.333 35 -54s59.5 -24.834 108.5 -36.501s84.833 -22.167 107.5 -31.5c22 12.667 33 34.667 33 66c0 17.333 -7.83301 32.5 -23.5 45.5s-32.834 22.5 -51.501 28.5s-44.834 13.667 -78.501 23s-60.167 17.666 -79.5 24.999z" />
    <glyph glyph-name="dieresis" unicode="&#xa8;" horiz-adv-x="453" 
d="M116 742c30 0 51.833 -6.5 65.5 -19.5s20.5 -33.833 20.5 -62.5s-6.83301 -49.5 -20.5 -62.5s-35.5 -19.5 -65.5 -19.5s-51.833 6.5 -65.5 19.5s-20.5 33.833 -20.5 62.5s6.83301 49.5 20.5 62.5s35.5 19.5 65.5 19.5zM336 742c30.667 0 52.834 -6.5 66.501 -19.5
s20.5 -33.833 20.5 -62.5s-6.83301 -49.5 -20.5 -62.5s-35.834 -19.5 -66.501 -19.5c-30 0 -51.833 6.5 -65.5 19.5s-20.5 33.833 -20.5 62.5s6.83301 49.5 20.5 62.5s35.5 19.5 65.5 19.5z" />
    <glyph glyph-name="copyright" unicode="&#xa9;" horiz-adv-x="852" 
d="M426 720c135.333 0 233.5 -29.333 294.5 -88s91.5 -152.667 91.5 -282s-30.5 -223.333 -91.5 -282s-159.167 -88 -294.5 -88s-233.5 29.333 -294.5 88s-91.5 152.667 -91.5 282s30.5 223.333 91.5 282s159.167 88 294.5 88zM426 72c100 0 172.667 22 218 66
s68 114.667 68 212s-22.667 168 -68 212s-118 66 -218 66s-172.667 -22 -218 -66s-68 -114.667 -68 -212s22.667 -168 68 -212s118 -66 218 -66zM426 550c65.333 0 114.168 -12.667 146.501 -38s51.833 -66 58.5 -122h-116c-5.33301 26.667 -15 46 -29 58s-34 18 -60 18
c-32.667 0 -56.167 -9.16699 -70.5 -27.5s-21.5 -47.833 -21.5 -88.5c0 -77.333 30.667 -116 92 -116c26 0 46 5.83301 60 17.5s24 31.167 30 58.5h116c-6.66699 -56 -26.334 -96.667 -59.001 -122s-81.667 -38 -147 -38c-72.667 0 -125.5 15.833 -158.5 47.5
s-49.5 82.5 -49.5 152.5s16.5 120.833 49.5 152.5s85.833 47.5 158.5 47.5z" />
    <glyph glyph-name="guillemotleft" unicode="&#xab;" horiz-adv-x="531" 
d="M157 450h141l-119 -190l119 -200h-141l-127 200zM360 450h141l-119 -190l119 -200h-141l-128 200z" />
    <glyph glyph-name="logicalnot" unicode="&#xac;" horiz-adv-x="590" 
d="M550 320v-238h-117v130h-403v108h520z" />
    <glyph glyph-name="registered" unicode="&#xae;" horiz-adv-x="852" 
d="M426 720c135.333 0 233.5 -29.333 294.5 -88s91.5 -152.667 91.5 -282s-30.5 -223.333 -91.5 -282s-159.167 -88 -294.5 -88s-233.5 29.333 -294.5 88s-91.5 152.667 -91.5 282s30.5 223.333 91.5 282s159.167 88 294.5 88zM426 72c100.667 0 173.5 22 218.5 66
s67.5 114.667 67.5 212s-22.5 168 -67.5 212s-117.833 66 -218.5 66s-173.5 -22 -218.5 -66s-67.5 -114.667 -67.5 -212s22.5 -168 67.5 -212s117.833 -66 218.5 -66zM524 303l88 -133h-101l-76 124h-73v-124h-91l-1 360h178c54 0 93.167 -9.33301 117.5 -28
s36.5 -48.667 36.5 -90c0 -58 -26 -94.333 -78 -109zM362 462v-100h86c22 0 37.833 3.83301 47.5 11.5s14.167 20.5 13.5 38.5c0 17.333 -4.66699 30 -14 38s-25 12 -47 12h-86z" />
    <glyph glyph-name="macron" unicode="&#xaf;" horiz-adv-x="400" 
d="M30 604v84h340v-84h-340z" />
    <glyph glyph-name="degree" unicode="&#xb0;" horiz-adv-x="440" 
d="M30 520c0 66.667 15 115 45 145s78.333 45 145 45s115 -15 145 -45s45 -78.333 45 -145s-15 -115 -45 -145s-78.333 -45 -145 -45s-115 15 -145 45s-45 78.333 -45 145zM122 520c0 -37.333 7.66699 -64.333 23 -81s40.333 -25 75 -25s59.5 8.33301 74.5 25
s22.5 43.667 22.5 81s-7.5 64.333 -22.5 81s-39.833 25 -74.5 25s-59.667 -8.33301 -75 -25s-23 -43.667 -23 -81z" />
    <glyph glyph-name="plusminus" unicode="&#xb1;" horiz-adv-x="580" 
d="M30 0v108h520v-108h-520zM550 388v-108h-202v-124h-116v124h-202v108h202v112h116v-112h202z" />
    <glyph glyph-name="acute" unicode="&#xb4;" horiz-adv-x="306" 
d="M30 550l96 150h150l-129 -150h-117z" />
    <glyph glyph-name="paragraph" unicode="&#xb6;" horiz-adv-x="810" 
d="M656 592v-792h-125v792h-163v-792h-124v500c-74.667 0 -129 15.833 -163 47.5s-51 82.5 -51 152.5s19.833 120.833 59.5 152.5s103.167 47.5 190.5 47.5h470v-108h-94z" />
    <glyph glyph-name="periodcentered" unicode="&#xb7;" horiz-adv-x="232" 
d="M116 338c30 0 51.833 -6.5 65.5 -19.5s20.5 -33.833 20.5 -62.5s-6.83301 -49.5 -20.5 -62.5s-35.5 -19.5 -65.5 -19.5s-51.833 6.5 -65.5 19.5s-20.5 33.833 -20.5 62.5s6.83301 49.5 20.5 62.5s35.5 19.5 65.5 19.5z" />
    <glyph glyph-name="cedilla" unicode="&#xb8;" horiz-adv-x="266" 
d="M85 32l78 -0.000976562l-21 -82l10 -2.5c4 -1 11.5 -3.83301 22.5 -8.5s20.667 -10 29 -16s15.833 -14.667 22.5 -26s10 -23.666 10 -36.999c0 -34.667 -18.167 -61.667 -54.5 -81s-86.833 -29 -151.5 -29v60c64.667 0 97 16.667 97 50
c0 12.667 -7.83301 22.167 -23.5 28.5s-34.167 9.5 -55.5 9.5z" />
    <glyph glyph-name="guillemotright" unicode="&#xbb;" horiz-adv-x="533" 
d="M30 450h141l129 -190l-129 -200h-141l121 200zM232 450h142l129 -190l-129 -200h-142l122 200z" />
    <glyph glyph-name="questiondown" unicode="&#xbf;" horiz-adv-x="552" 
d="M352 250c0 -32 -4.00098 -59.8311 -12.001 -83.498s-18.167 -41.667 -30.5 -54s-25.666 -24 -39.999 -35s-27.666 -20.167 -39.999 -27.5s-22.5 -17.833 -30.5 -31.5s-12 -29.834 -12 -48.501c0 -28.667 7.66699 -49.5 23 -62.5s40 -19.5 74 -19.5
c34.667 0 59.667 9.66699 75 29s23 50.333 23 93h140c0 -80.667 -19.333 -139.167 -58 -175.5s-101.334 -54.5 -188.001 -54.5c-86 0 -148.5 15 -187.5 45s-58.5 78.333 -58.5 145c0 33.333 6.83301 61.166 20.5 83.499s30.167 39.333 49.5 51l58 34
c19.333 11 35.833 25.5 49.5 43.5s20.5 40.667 20.5 68h124zM289.999 343.002c-30 0 -51.833 6.66699 -65.5 20s-20.5 34.333 -20.5 63s6.83301 49.5 20.5 62.5s35.5 19.5 65.5 19.5c30.667 0 52.667 -6.5 66 -19.5s20 -33.833 20 -62.5c0 -29.333 -6.66699 -50.5 -20 -63.5
s-35.333 -19.5 -66 -19.5z" />
    <glyph glyph-name="Agrave" unicode="&#xc0;" horiz-adv-x="692" 
d="M510 0l-42 144h-249l-44 -144h-165l229 700h230l213 -700h-172zM347 564l-95 -312h185zM423 750h-109l-127 120h134z" />
    <glyph glyph-name="Aacute" unicode="&#xc1;" horiz-adv-x="692" 
d="M510 0l-42 144h-249l-44 -144h-165l229 700h230l213 -700h-172zM347 564l-95 -312h185zM283 750l95 120h142l-119 -120h-118z" />
    <glyph glyph-name="Acircumflex" unicode="&#xc2;" horiz-adv-x="692" 
d="M510 0l-42 144h-249l-44 -144h-165l229 700h230l213 -700h-172zM347 564l-95 -312h185zM513 750h-101l-59 60l-59 -60h-101l86 120h148z" />
    <glyph glyph-name="Atilde" unicode="&#xc3;" horiz-adv-x="692" 
d="M510 0l-42 144h-249l-44 -144h-165l229 700h230l213 -700h-172zM347 564l-95 -312h185zM187 760c0 34 9.66699 60.5 29 79.5s43.666 28.5 72.999 28.5c32 0 61.167 -8.33301 87.5 -25s45.166 -25 56.499 -25c7.33301 0 13.5 3 18.5 9s7.5 13.667 7.5 23h60
c0 -34 -9.66699 -60.5 -29 -79.5s-43.666 -28.5 -72.999 -28.5c-32 0 -61.167 8.33301 -87.5 25s-45.166 25 -56.499 25c-7.33301 0 -13.5 -3 -18.5 -9s-7.5 -13.667 -7.5 -23h-60z" />
    <glyph glyph-name="Adieresis" unicode="&#xc4;" horiz-adv-x="692" 
d="M510 0l-42 144h-249l-44 -144h-165l229 700h230l213 -700h-172zM347 564l-95 -312h185zM235 876c30 0 51.833 -5.5 65.5 -16.5s20.5 -28.833 20.5 -53.5s-6.83301 -42.5 -20.5 -53.5s-35.5 -16.5 -65.5 -16.5c-30.667 0 -52.667 5.5 -66 16.5s-20 28.833 -20 53.5
s6.66699 42.5 20 53.5s35.333 16.5 66 16.5zM471 876c30 0 52.001 -5.5 66.001 -16.5s21 -28.833 21 -53.5s-6.83301 -42.5 -20.5 -53.5s-35.834 -16.5 -66.501 -16.5c-30 0 -51.833 5.5 -65.5 16.5s-20.5 28.833 -20.5 53.5s6.83301 42.5 20.5 53.5s35.5 16.5 65.5 16.5z
" />
    <glyph glyph-name="Aring" unicode="&#xc5;" horiz-adv-x="692" 
d="M510 0l-42 144h-249l-44 -144h-165l229 700h230l213 -700h-172zM347 564l-95 -312h185zM353 940c43.333 0 74.833 -8.33301 94.5 -25s29.5 -43.667 29.5 -81s-9.83301 -64.333 -29.5 -81s-51.167 -25 -94.5 -25s-74.833 8.33301 -94.5 25s-29.5 43.667 -29.5 81
s9.83301 64.333 29.5 81s51.167 25 94.5 25zM353 788c17.333 0 29.665 3.66699 36.998 11s11 19 11 35c0 16.667 -3.66699 28.5 -11 35.5s-19.666 10.5 -36.999 10.5s-29.666 -3.5 -36.999 -10.5s-11 -18.833 -11 -35.5c0 -30.667 16 -46 48 -46z" />
    <glyph glyph-name="AE" unicode="&#xc6;" horiz-adv-x="942" 
d="M912 584h-305v-164h265v-116h-265v-188h305v-116h-454v144h-214l-69 -144h-165l350 700h552v-116zM458 587l-161 -335h161v335z" />
    <glyph glyph-name="Ccedilla" unicode="&#xc7;" horiz-adv-x="766" 
d="M350 -19c-108 6.66699 -186.667 39.5 -236 98.5s-74 149.167 -74 270.5c0 129.333 28.167 223.333 84.5 282s146.833 88 271.5 88c102 0 179 -20.333 231 -61s85 -105.667 99 -195h-164c-10 46.667 -28 80.167 -54 100.5s-63.333 30.5 -112 30.5
c-64 0 -110.5 -19.333 -139.5 -58s-43.5 -101 -43.5 -187s14.5 -148.333 43.5 -187s75.5 -58 139.5 -58c46.667 0 83 10.167 109 30.5s45 53.833 57 100.5h164c-20 -84.667 -53.667 -147.334 -101 -188.001s-113 -63 -197 -67l-8 -31l10 -2.5c4 -1 11.5 -3.83301 22.5 -8.5
s20.667 -10 29 -16s15.833 -14.667 22.5 -26s10 -23.666 10 -36.999c0 -34.667 -18.167 -61.667 -54.5 -81s-86.833 -29 -151.5 -29v60c65.333 0 98 16.667 98 50c0 12.667 -7.83301 22.167 -23.5 28.5s-34.5 9.5 -56.5 9.5z" />
    <glyph glyph-name="Egrave" unicode="&#xc8;" horiz-adv-x="614" 
d="M584 584h-339v-164h299v-116h-299v-188h339v-116h-504v700h504v-116zM402 750h-110l-126 120h134z" />
    <glyph glyph-name="Eacute" unicode="&#xc9;" horiz-adv-x="614" 
d="M584 584h-339v-164h299v-116h-299v-188h339v-116h-504v700h504v-116zM262 750l94 120h142l-118 -120h-118z" />
    <glyph glyph-name="Ecircumflex" unicode="&#xca;" horiz-adv-x="614" 
d="M584 584h-339v-164h299v-116h-299v-188h339v-116h-504v700h504v-116zM492 750h-101l-59 60l-59 -60h-101l86 120h148z" />
    <glyph glyph-name="Edieresis" unicode="&#xcb;" horiz-adv-x="614" 
d="M584 584h-339v-164h299v-116h-299v-188h339v-116h-504v700h504v-116zM214 876c30 0 51.834 -5.5 65.501 -16.5s20.5 -28.833 20.5 -53.5s-6.83301 -42.5 -20.5 -53.5s-35.834 -16.5 -66.501 -16.5c-30 0 -51.667 5.5 -65 16.5s-20 28.833 -20 53.5s6.66699 42.5 20 53.5
s35.333 16.5 66 16.5zM450.001 876c30 0 52 -5.5 66 -16.5s21 -28.833 21 -53.5s-7 -42.5 -21 -53.5s-36 -16.5 -66 -16.5s-51.833 5.5 -65.5 16.5s-20.5 28.833 -20.5 53.5s6.83301 42.5 20.5 53.5s35.5 16.5 65.5 16.5z" />
    <glyph glyph-name="Igrave" unicode="&#xcc;" horiz-adv-x="329" 
d="M84 700h165v-700h-165v700zM236 750h-109l-127 120h134z" />
    <glyph glyph-name="Iacute" unicode="&#xcd;" horiz-adv-x="329" 
d="M80 700h165v-700h-165v700zM92 750l95 120h142l-119 -120h-118z" />
    <glyph glyph-name="Icircumflex" unicode="&#xce;" horiz-adv-x="320" 
d="M78 700h165v-700h-165v700zM320 750h-101l-59 60l-58 -60h-102l86 120h149z" />
    <glyph glyph-name="Idieresis" unicode="&#xcf;" horiz-adv-x="325" 
d="M80 700h165v-700h-165v700zM46 874c30 0 51.833 -5.5 65.5 -16.5s20.5 -28.833 20.5 -53.5s-6.83301 -42.5 -20.5 -53.5s-35.5 -16.5 -65.5 -16.5s-51.833 5.5 -65.5 16.5s-20.5 28.833 -20.5 53.5s6.66699 42.5 20 53.5s35.333 16.5 66 16.5zM278 874
c30.667 0 52.834 -5.5 66.501 -16.5s20.5 -28.833 20.5 -53.5s-6.83301 -42.5 -20.5 -53.5s-35.834 -16.5 -66.501 -16.5c-30 0 -51.833 5.5 -65.5 16.5s-20.5 28.833 -20.5 53.5s6.83301 42.5 20.5 53.5s35.5 16.5 65.5 16.5z" />
    <glyph glyph-name="Ntilde" unicode="&#xd1;" horiz-adv-x="772" 
d="M536 700h156v-700h-190l-265 495v-495h-157v700h191l265 -495v495zM220 760c0 34 9.66699 60.5 29 79.5s43.666 28.5 72.999 28.5c32 0 61.167 -8.33301 87.5 -25s45.166 -25 56.499 -25c7.33301 0 13.5 3 18.5 9s7.5 13.667 7.5 23h60c0 -34 -9.66699 -60.5 -29 -79.5
s-43.666 -28.5 -72.999 -28.5c-32 0 -61.167 8.33301 -87.5 25s-45.166 25 -56.499 25c-7.33301 0 -13.5 -3 -18.5 -9s-7.5 -13.667 -7.5 -23h-60z" />
    <glyph glyph-name="Ograve" unicode="&#xd2;" horiz-adv-x="796" 
d="M398 720c125.333 0 216.333 -29.333 273 -88s85 -152.667 85 -282s-28.333 -223.333 -85 -282s-147.667 -88 -273 -88s-216.333 29.333 -273 88s-85 152.667 -85 282s28.333 223.333 85 282s147.667 88 273 88zM398 595c-64.667 0 -111.667 -19.333 -141 -58
s-44 -101 -44 -187s14.667 -148.333 44 -187s76.333 -58 141 -58c65.333 0 112.666 19.333 141.999 58s44 101 44 187s-14.667 148.333 -44 187s-76.666 58 -141.999 58zM468 750h-110l-126 120h134z" />
    <glyph glyph-name="Oacute" unicode="&#xd3;" horiz-adv-x="796" 
d="M398 720c125.333 0 216.333 -29.333 273 -88s85 -152.667 85 -282s-28.333 -223.333 -85 -282s-147.667 -88 -273 -88s-216.333 29.333 -273 88s-85 152.667 -85 282s28.333 223.333 85 282s147.667 88 273 88zM398 595c-64.667 0 -111.667 -19.333 -141 -58
s-44 -101 -44 -187s14.667 -148.333 44 -187s76.333 -58 141 -58c65.333 0 112.666 19.333 141.999 58s44 101 44 187s-14.667 148.333 -44 187s-76.666 58 -141.999 58zM328 750l94 120h142l-118 -120h-118z" />
    <glyph glyph-name="Ocircumflex" unicode="&#xd4;" horiz-adv-x="796" 
d="M398 720c125.333 0 216.333 -29.333 273 -88s85 -152.667 85 -282s-28.333 -223.333 -85 -282s-147.667 -88 -273 -88s-216.333 29.333 -273 88s-85 152.667 -85 282s28.333 223.333 85 282s147.667 88 273 88zM398 595c-64.667 0 -111.667 -19.333 -141 -58
s-44 -101 -44 -187s14.667 -148.333 44 -187s76.333 -58 141 -58c65.333 0 112.666 19.333 141.999 58s44 101 44 187s-14.667 148.333 -44 187s-76.666 58 -141.999 58zM558 750h-101l-59 60l-59 -60h-101l86 120h148z" />
    <glyph glyph-name="Otilde" unicode="&#xd5;" horiz-adv-x="796" 
d="M398 720c125.333 0 216.333 -29.333 273 -88s85 -152.667 85 -282s-28.333 -223.333 -85 -282s-147.667 -88 -273 -88s-216.333 29.333 -273 88s-85 152.667 -85 282s28.333 223.333 85 282s147.667 88 273 88zM398 595c-64.667 0 -111.667 -19.333 -141 -58
s-44 -101 -44 -187s14.667 -148.333 44 -187s76.333 -58 141 -58c65.333 0 112.666 19.333 141.999 58s44 101 44 187s-14.667 148.333 -44 187s-76.666 58 -141.999 58zM232 760c0 34 9.66699 60.5 29 79.5s43.666 28.5 72.999 28.5c32 0 61.167 -8.33301 87.5 -25
s45.166 -25 56.499 -25c7.33301 0 13.5 3 18.5 9s7.5 13.667 7.5 23h60c0 -34 -9.66699 -60.5 -29 -79.5s-43.666 -28.5 -72.999 -28.5c-32 0 -61.167 8.33301 -87.5 25s-45.166 25 -56.499 25c-7.33301 0 -13.5 -3 -18.5 -9s-7.5 -13.667 -7.5 -23h-60z" />
    <glyph glyph-name="Odieresis" unicode="&#xd6;" horiz-adv-x="796" 
d="M398 720c125.333 0 216.333 -29.333 273 -88s85 -152.667 85 -282s-28.333 -223.333 -85 -282s-147.667 -88 -273 -88s-216.333 29.333 -273 88s-85 152.667 -85 282s28.333 223.333 85 282s147.667 88 273 88zM398 595c-64.667 0 -111.667 -19.333 -141 -58
s-44 -101 -44 -187s14.667 -148.333 44 -187s76.333 -58 141 -58c65.333 0 112.666 19.333 141.999 58s44 101 44 187s-14.667 148.333 -44 187s-76.666 58 -141.999 58zM280 874c30 0 51.833 -5.5 65.5 -16.5s20.5 -28.833 20.5 -53.5s-6.83301 -42.5 -20.5 -53.5
s-35.5 -16.5 -65.5 -16.5c-30.667 0 -52.667 5.5 -66 16.5s-20 28.833 -20 53.5s6.66699 42.5 20 53.5s35.333 16.5 66 16.5zM516 874c30 0 52.001 -5.5 66.001 -16.5s21 -28.833 21 -53.5s-6.83301 -42.5 -20.5 -53.5s-35.834 -16.5 -66.501 -16.5
c-30 0 -51.833 5.5 -65.5 16.5s-20.5 28.833 -20.5 53.5s6.83301 42.5 20.5 53.5s35.5 16.5 65.5 16.5z" />
    <glyph glyph-name="multiply" unicode="&#xd7;" horiz-adv-x="542" 
d="M111 491l159 -158l159 159l83 -84l-158 -158l158 -158l-83 -84l-158 159l-158 -158l-83 84l158 158l-158 158z" />
    <glyph glyph-name="Oslash" unicode="&#xd8;" horiz-adv-x="795" 
d="M482 714l23 64.001h98l-30 -86c62.667 -22.667 108.667 -62 138 -118s44 -131 44 -225c0 -129.333 -28.333 -223.333 -85 -282s-147.667 -88 -273 -88c-25.333 0 -49 1 -71 3l-22 -63h-100l29 82c-66.667 22 -115.5 61.167 -146.5 117.5s-46.5 133.166 -46.5 230.499
c0 129.333 28.333 223.333 85 282s147.667 88 273 88c27.333 0 55.333 -1.66699 84 -5zM440 591.001c-12.667 2 -26 3 -40 3c-64.667 0 -111.667 -19.333 -141 -58s-44 -101 -44 -187c0 -104.667 22.333 -175 67 -211zM370 106.001c6 -0.666992 15.668 -1 29.001 -1
c65.333 0 112.666 19.333 141.999 58s44 101 44 187c0 98 -19.667 165.667 -59 203z" />
    <glyph glyph-name="Ugrave" unicode="&#xd9;" horiz-adv-x="736" 
d="M70 258v442h165v-442c0 -54 10.5 -93 31.5 -117s54.833 -36 101.5 -36c47.333 0 81.5 12 102.5 36s31.5 63 31.5 117v442h164v-442c0 -97.333 -23.5 -168 -70.5 -212s-122.833 -66 -227.5 -66s-180.5 22 -227.5 66s-70.5 114.667 -70.5 212zM438 750h-110l-126 120h134z
" />
    <glyph glyph-name="Uacute" unicode="&#xda;" horiz-adv-x="736" 
d="M70 258v442h165v-442c0 -54 10.5 -93 31.5 -117s54.833 -36 101.5 -36c47.333 0 81.5 12 102.5 36s31.5 63 31.5 117v442h164v-442c0 -97.333 -23.5 -168 -70.5 -212s-122.833 -66 -227.5 -66s-180.5 22 -227.5 66s-70.5 114.667 -70.5 212zM298 750l94 120h142
l-118 -120h-118z" />
    <glyph glyph-name="Ucircumflex" unicode="&#xdb;" horiz-adv-x="736" 
d="M70 258v442h165v-442c0 -54 10.5 -93 31.5 -117s54.833 -36 101.5 -36c47.333 0 81.5 12 102.5 36s31.5 63 31.5 117v442h164v-442c0 -97.333 -23.5 -168 -70.5 -212s-122.833 -66 -227.5 -66s-180.5 22 -227.5 66s-70.5 114.667 -70.5 212zM528 750h-101l-59 60l-59 -60
h-101l86 120h148z" />
    <glyph glyph-name="Udieresis" unicode="&#xdc;" horiz-adv-x="736" 
d="M70 258v442h165v-442c0 -54 10.5 -93 31.5 -117s54.833 -36 101.5 -36c47.333 0 81.5 12 102.5 36s31.5 63 31.5 117v442h164v-442c0 -97.333 -23.5 -168 -70.5 -212s-122.833 -66 -227.5 -66s-180.5 22 -227.5 66s-70.5 114.667 -70.5 212zM250 874
c30 0 51.833 -5.5 65.5 -16.5s20.5 -28.833 20.5 -53.5s-6.83301 -42.5 -20.5 -53.5s-35.5 -16.5 -65.5 -16.5c-30.667 0 -52.667 5.5 -66 16.5s-20 28.833 -20 53.5s6.66699 42.5 20 53.5s35.333 16.5 66 16.5zM486 874c30 0 52.001 -5.5 66.001 -16.5s21 -28.833 21 -53.5
s-6.83301 -42.5 -20.5 -53.5s-35.834 -16.5 -66.501 -16.5c-30 0 -51.833 5.5 -65.5 16.5s-20.5 28.833 -20.5 53.5s6.83301 42.5 20.5 53.5s35.5 16.5 65.5 16.5z" />
    <glyph glyph-name="Yacute" unicode="&#xdd;" horiz-adv-x="664" 
d="M414 268v-268h-156v268l-248 432h181l145 -279l145 279h173zM268 750l95 120h142l-119 -120h-118z" />
    <glyph glyph-name="germandbls" unicode="&#xdf;" horiz-adv-x="665" 
d="M334 720c38 0 71.168 -2.5 99.501 -7.5s55.333 -14 81 -27s45.334 -32.5 59.001 -58.5s20.5 -58.333 20.5 -97c0 -36 -8.66699 -64.667 -26 -86s-45 -38.333 -83 -51c49.333 -13.333 85 -34.666 107 -63.999s33 -69.666 33 -120.999
c0 -72.667 -16.833 -125.5 -50.5 -158.5s-87.167 -49.5 -160.5 -49.5c-16.667 0 -34 1.66699 -52 5s-32 6.66602 -42 9.99902l-14 5v100c24 -8 46.667 -12 68 -12c35.333 0 61.166 8.66699 77.499 26s24.5 44.666 24.5 81.999c0 78.667 -50 118 -150 118v102
c45.333 0 78 6.5 98 19.5s30 34.5 30 64.5c0 32 -8.83301 55.333 -26.5 70s-46.167 22 -85.5 22c-43.333 0 -74.833 -10.667 -94.5 -32s-29.5 -53.333 -29.5 -96v-484h-148v472c0 85.333 22.167 148 66.5 188s110.166 60 197.499 60z" />
    <glyph glyph-name="agrave" unicode="&#xe0;" horiz-adv-x="556" 
d="M373 42c-30.667 -34.667 -82.335 -51.999 -155.002 -51.999c-66 0 -113.833 12.5 -143.5 37.5s-44.5 65.167 -44.5 120.5c0 59.333 19.167 102.5 57.5 129.5s99.833 40.5 184.5 40.5h86v22c0 30 -6.66699 51.833 -20 65.5s-34.666 20.5 -63.999 20.5
s-50.666 -6 -63.999 -18s-19.666 -31.333 -18.999 -58h-141c0 56 18 96.667 54 122s94 38 174 38c79.333 0 137.166 -14.833 173.499 -44.5s54.5 -76.834 54.5 -141.501v-324h-116zM357.999 234.001l-65.002 0.000976562c-17.333 0 -31.666 -0.833008 -42.999 -2.5
s-23.166 -4.83398 -35.499 -9.50098s-21.5 -12.5 -27.5 -23.5s-9 -25.167 -9 -42.5c0 -24 6.16699 -41 18.5 -51s32.833 -15 61.5 -15c38 0 64.167 10 78.5 30s21.5 49.667 21.5 89v25zM251.997 700.002l96 -150h-117l-129 150h150z" />
    <glyph glyph-name="aacute" unicode="&#xe1;" horiz-adv-x="556" 
d="M373 42c-30.667 -34.667 -82.335 -51.999 -155.002 -51.999c-66 0 -113.833 12.5 -143.5 37.5s-44.5 65.167 -44.5 120.5c0 59.333 19.167 102.5 57.5 129.5s99.833 40.5 184.5 40.5h86v22c0 30 -6.66699 51.833 -20 65.5s-34.666 20.5 -63.999 20.5
s-50.666 -6 -63.999 -18s-19.666 -31.333 -18.999 -58h-141c0 56 18 96.667 54 122s94 38 174 38c79.333 0 137.166 -14.833 173.499 -44.5s54.5 -76.834 54.5 -141.501v-324h-116zM357.999 234.001l-65.002 0.000976562c-17.333 0 -31.666 -0.833008 -42.999 -2.5
s-23.166 -4.83398 -35.499 -9.50098s-21.5 -12.5 -27.5 -23.5s-9 -25.167 -9 -42.5c0 -24 6.16699 -41 18.5 -51s32.833 -15 61.5 -15c38 0 64.167 10 78.5 30s21.5 49.667 21.5 89v25zM296.997 700.002h149l-128 -150h-118z" />
    <glyph glyph-name="acircumflex" unicode="&#xe2;" horiz-adv-x="556" 
d="M373 42c-30.667 -34.667 -82.335 -51.999 -155.002 -51.999c-66 0 -113.833 12.5 -143.5 37.5s-44.5 65.167 -44.5 120.5c0 59.333 19.167 102.5 57.5 129.5s99.833 40.5 184.5 40.5h86v22c0 30 -6.66699 51.833 -20 65.5s-34.666 20.5 -63.999 20.5
s-50.666 -6 -63.999 -18s-19.666 -31.333 -18.999 -58h-141c0 56 18 96.667 54 122s94 38 174 38c79.333 0 137.166 -14.833 173.499 -44.5s54.5 -76.834 54.5 -141.501v-324h-116zM357.999 234.001l-65.002 0.000976562c-17.333 0 -31.666 -0.833008 -42.999 -2.5
s-23.166 -4.83398 -35.499 -9.50098s-21.5 -12.5 -27.5 -23.5s-9 -25.167 -9 -42.5c0 -24 6.16699 -41 18.5 -51s32.833 -15 61.5 -15c38 0 64.167 10 78.5 30s21.5 49.667 21.5 89v25zM351.997 700.002l84 -150h-93l-65 82l-65 -82h-93l84 150h148z" />
    <glyph glyph-name="atilde" unicode="&#xe3;" horiz-adv-x="556" 
d="M373 42c-30.667 -34.667 -82.335 -51.999 -155.002 -51.999c-66 0 -113.833 12.5 -143.5 37.5s-44.5 65.167 -44.5 120.5c0 59.333 19.167 102.5 57.5 129.5s99.833 40.5 184.5 40.5h86v22c0 30 -6.66699 51.833 -20 65.5s-34.666 20.5 -63.999 20.5
s-50.666 -6 -63.999 -18s-19.666 -31.333 -18.999 -58h-141c0 56 18 96.667 54 122s94 38 174 38c79.333 0 137.166 -14.833 173.499 -44.5s54.5 -76.834 54.5 -141.501v-324h-116zM357.999 234.001l-65.002 0.000976562c-17.333 0 -31.666 -0.833008 -42.999 -2.5
s-23.166 -4.83398 -35.499 -9.50098s-21.5 -12.5 -27.5 -23.5s-9 -25.167 -9 -42.5c0 -24 6.16699 -41 18.5 -51s32.833 -15 61.5 -15c38 0 64.167 10 78.5 30s21.5 49.667 21.5 89v25zM111.997 578.002c0 34.667 9.99707 64.334 29.9971 89.001s44 37 72 37
c19.333 0 36.833 -4 52.5 -12s27.334 -16.833 35.001 -26.5s15.834 -18.667 24.501 -27s16.667 -12.5 24 -12.5s13.5 3.66699 18.5 11s7.5 17.666 7.5 30.999h68c0 -34.667 -10 -64.334 -30 -89.001s-44 -37 -72 -37c-19.333 0 -36.666 4 -51.999 12s-26.833 17 -34.5 27
s-16 19 -25 27s-17.167 12 -24.5 12s-13.5 -3.66699 -18.5 -11s-7.5 -17.666 -7.5 -30.999h-68z" />
    <glyph glyph-name="adieresis" unicode="&#xe4;" horiz-adv-x="556" 
d="M373 42c-30.667 -34.667 -82.335 -51.999 -155.002 -51.999c-66 0 -113.833 12.5 -143.5 37.5s-44.5 65.167 -44.5 120.5c0 59.333 19.167 102.5 57.5 129.5s99.833 40.5 184.5 40.5h86v22c0 30 -6.66699 51.833 -20 65.5s-34.666 20.5 -63.999 20.5
s-50.666 -6 -63.999 -18s-19.666 -31.333 -18.999 -58h-141c0 56 18 96.667 54 122s94 38 174 38c79.333 0 137.166 -14.833 173.499 -44.5s54.5 -76.834 54.5 -141.501v-324h-116zM357.999 234.001l-65.002 0.000976562c-17.333 0 -31.666 -0.833008 -42.999 -2.5
s-23.166 -4.83398 -35.499 -9.50098s-21.5 -12.5 -27.5 -23.5s-9 -25.167 -9 -42.5c0 -24 6.16699 -41 18.5 -51s32.833 -15 61.5 -15c38 0 64.167 10 78.5 30s21.5 49.667 21.5 89v25zM167.997 728.002c30 0 51.833 -6.5 65.5 -19.5s20.5 -33.833 20.5 -62.5
s-6.83301 -49.5 -20.5 -62.5s-35.5 -19.5 -65.5 -19.5c-30.667 0 -52.667 6.33301 -66 19s-20 33.667 -20 63s6.66699 50.333 20 63s35.333 19 66 19zM387.997 728.002c30.667 0 52.833 -6.5 66.5 -19.5s20.5 -33.833 20.5 -62.5s-7 -49.5 -21 -62.5s-36 -19.5 -66 -19.5
s-51.833 6.5 -65.5 19.5s-20.5 33.833 -20.5 62.5s6.83301 49.5 20.5 62.5s35.5 19.5 65.5 19.5z" />
    <glyph glyph-name="aring" unicode="&#xe5;" horiz-adv-x="556" 
d="M373 42c-30.667 -34.667 -82.335 -51.999 -155.002 -51.999c-66 0 -113.833 12.5 -143.5 37.5s-44.5 65.167 -44.5 120.5c0 59.333 19.167 102.5 57.5 129.5s99.833 40.5 184.5 40.5h86v22c0 30 -6.66699 51.833 -20 65.5s-34.666 20.5 -63.999 20.5
s-50.666 -6 -63.999 -18s-19.666 -31.333 -18.999 -58h-141c0 56 18 96.667 54 122s94 38 174 38c79.333 0 137.166 -14.833 173.499 -44.5s54.5 -76.834 54.5 -141.501v-324h-116zM357.999 234.001l-65.002 0.000976562c-17.333 0 -31.666 -0.833008 -42.999 -2.5
s-23.166 -4.83398 -35.499 -9.50098s-21.5 -12.5 -27.5 -23.5s-9 -25.167 -9 -42.5c0 -24 6.16699 -41 18.5 -51s32.833 -15 61.5 -15c38 0 64.167 10 78.5 30s21.5 49.667 21.5 89v25zM277.997 740.002c43.333 0 74.833 -8.33301 94.5 -25s29.5 -43.667 29.5 -81
s-9.83301 -64.333 -29.5 -81s-51.167 -25 -94.5 -25s-74.833 8.33301 -94.5 25s-29.5 43.667 -29.5 81s9.83301 64.333 29.5 81s51.167 25 94.5 25zM277.997 588.002c17.333 0 29.665 3.66699 36.998 11s11 19 11 35c0 16.667 -3.66699 28.5 -11 35.5
s-19.666 10.5 -36.999 10.5s-29.666 -3.5 -36.999 -10.5s-11 -18.833 -11 -35.5c0 -30.667 16 -46 48 -46z" />
    <glyph glyph-name="ae" unicode="&#xe6;" horiz-adv-x="924" 
d="M507 202c4 -41.333 14.665 -71.665 31.998 -90.998s43.333 -29 78 -29c52.667 0 85 24.667 97 74h141c-11.333 -58 -35.666 -100.167 -72.999 -126.5s-92.333 -39.5 -165 -39.5c-100.667 0 -166 37 -196 111c-24.667 -74 -92.334 -111 -203.001 -111
c-66 0 -113.833 12.5 -143.5 37.5s-44.5 65.167 -44.5 120.5c0 56.667 17.167 98.5 51.5 125.5s89.5 41.833 165.5 44.5h111v22c0 27.333 -6.83301 47.166 -20.5 59.499s-36.167 18.5 -67.5 18.5c-28.667 0 -49.167 -5.33301 -61.5 -16s-18.166 -28 -17.499 -52h-141
c0 56 18 96.667 54 122s94 38 174 38c82.667 0 138.667 -22.333 168 -67c34 44.667 90.667 67 170 67c90.667 0 156.334 -20.833 197.001 -62.5s61 -108.834 61 -201.501v-44h-367zM357.998 234.001l-70.002 -0.00195312c-38.667 0 -66.667 -6.16699 -84 -18.5
s-26 -32.166 -26 -59.499c0 -23.333 6.83301 -40.166 20.5 -50.499s35.834 -15.5 66.501 -15.5c32.667 0 56.334 8.33301 71.001 25s22 43.667 22 81v38zM616.996 417.999c-35.333 0 -61.834 -10.501 -79.501 -31.501s-28.167 -54.5 -31.5 -100.5h220
c0.666992 46.667 -7.66602 80.334 -24.999 101.001s-45.333 31 -84 31z" />
    <glyph glyph-name="ccedilla" unicode="&#xe7;" 
d="M253 -8c-78 6 -134.665 29.499 -169.998 70.499s-53 103.5 -53 187.5c0 91.333 21.167 157.5 63.5 198.5s110.5 61.5 204.5 61.5c79.333 0 138.666 -15.333 177.999 -46s62.666 -80 69.999 -148h-148c-5.33301 30 -16 51.833 -32 65.5s-38.667 20.5 -68 20.5
c-42 0 -72.5 -12 -91.5 -36s-28.5 -62.667 -28.5 -116s9.5 -92 28.5 -116s49.5 -36 91.5 -36c28.667 0 51 6.83301 67 20.5s27 35.5 33 65.5h148c-7.33301 -63.333 -28 -110.333 -62 -141s-85.333 -48 -154 -52l-10 -41l10 -2.5c4 -1 11.5 -3.83301 22.5 -8.5
s20.667 -10 29 -16s15.833 -14.667 22.5 -26s10 -23.666 10 -36.999c0 -34.667 -18.167 -61.667 -54.5 -81s-86.833 -29 -151.5 -29v60c65.333 0 98 16.667 98 50c0 12.667 -7.83301 22.167 -23.5 28.5s-34.5 9.5 -56.5 9.5z" />
    <glyph glyph-name="egrave" unicode="&#xe8;" 
d="M179 202c4 -41.333 14.665 -71.666 31.998 -90.999s43 -29 77 -29c28.667 0 50.5 5.83301 65.5 17.5s25.833 30.5 32.5 56.5h140c-11.333 -58 -35.666 -100.167 -72.999 -126.5s-92.333 -39.5 -165 -39.5c-90.667 0 -156.334 20.5 -197.001 61.5s-61 107.167 -61 198.5
s20.333 157.5 61 198.5s106.334 61.5 197.001 61.5s156.334 -20.833 197.001 -62.5s61 -108.834 61 -201.501v-44h-367zM288.998 418c-35.333 0 -61.833 -10.501 -79.5 -31.501s-28.167 -54.5 -31.5 -100.5h221c0 46.667 -8.66699 80.334 -26 101.001s-45.333 31 -84 31z
M358.998 549.999h-117l-129 150h150z" />
    <glyph glyph-name="eacute" unicode="&#xe9;" 
d="M179 202c4 -41.333 14.665 -71.666 31.998 -90.999s43 -29 77 -29c28.667 0 50.5 5.83301 65.5 17.5s25.833 30.5 32.5 56.5h140c-11.333 -58 -35.666 -100.167 -72.999 -126.5s-92.333 -39.5 -165 -39.5c-90.667 0 -156.334 20.5 -197.001 61.5s-61 107.167 -61 198.5
s20.333 157.5 61 198.5s106.334 61.5 197.001 61.5s156.334 -20.833 197.001 -62.5s61 -108.834 61 -201.501v-44h-367zM288.998 418c-35.333 0 -61.833 -10.501 -79.5 -31.501s-28.167 -54.5 -31.5 -100.5h221c0 46.667 -8.66699 80.334 -26 101.001s-45.333 31 -84 31z
M218.998 549.999l97 150h149l-128 -150h-118z" />
    <glyph glyph-name="ecircumflex" unicode="&#xea;" 
d="M179 202c4 -41.333 14.665 -71.666 31.998 -90.999s43 -29 77 -29c28.667 0 50.5 5.83301 65.5 17.5s25.833 30.5 32.5 56.5h140c-11.333 -58 -35.666 -100.167 -72.999 -126.5s-92.333 -39.5 -165 -39.5c-90.667 0 -156.334 20.5 -197.001 61.5s-61 107.167 -61 198.5
s20.333 157.5 61 198.5s106.334 61.5 197.001 61.5s156.334 -20.833 197.001 -62.5s61 -108.834 61 -201.501v-44h-367zM288.998 418c-35.333 0 -61.833 -10.501 -79.5 -31.501s-28.167 -54.5 -31.5 -100.5h221c0 46.667 -8.66699 80.334 -26 101.001s-45.333 31 -84 31z
M446.998 549.999h-93l-65 82l-65 -82h-93l84 150h148z" />
    <glyph glyph-name="edieresis" unicode="&#xeb;" 
d="M179 202c4 -41.333 14.665 -71.666 31.998 -90.999s43 -29 77 -29c28.667 0 50.5 5.83301 65.5 17.5s25.833 30.5 32.5 56.5h140c-11.333 -58 -35.666 -100.167 -72.999 -126.5s-92.333 -39.5 -165 -39.5c-90.667 0 -156.334 20.5 -197.001 61.5s-61 107.167 -61 198.5
s20.333 157.5 61 198.5s106.334 61.5 197.001 61.5s156.334 -20.833 197.001 -62.5s61 -108.834 61 -201.501v-44h-367zM288.998 418c-35.333 0 -61.833 -10.501 -79.5 -31.501s-28.167 -54.5 -31.5 -100.5h221c0 46.667 -8.66699 80.334 -26 101.001s-45.333 31 -84 31z
M178.998 727.999c30 0 51.833 -6.5 65.5 -19.5s20.5 -33.833 20.5 -62.5s-6.83301 -49.5 -20.5 -62.5s-35.5 -19.5 -65.5 -19.5c-30.667 0 -52.667 6.33301 -66 19s-20 33.667 -20 63s6.66699 50.333 20 63s35.333 19 66 19zM398.998 727.999
c30.667 0 52.833 -6.5 66.5 -19.5s20.5 -33.833 20.5 -62.5s-7 -49.5 -21 -62.5s-36 -19.5 -66 -19.5s-51.833 6.5 -65.5 19.5s-20.5 33.833 -20.5 62.5s6.83301 49.5 20.5 62.5s35.5 19.5 65.5 19.5z" />
    <glyph glyph-name="igrave" unicode="&#xec;" horiz-adv-x="250" 
d="M200 0h-148v500h148v-500zM196 550h-117l-129 150h150z" />
    <glyph glyph-name="iacute" unicode="&#xed;" horiz-adv-x="257" 
d="M202 0h-148v500h148v-500zM50 550l97 150h150l-129 -150h-118z" />
    <glyph glyph-name="icircumflex" unicode="&#xee;" horiz-adv-x="256" 
d="M202 0h-148v500h148v-500zM286 550h-93l-65 82l-65 -82h-93l84 150h148z" />
    <glyph glyph-name="idieresis" unicode="&#xef;" horiz-adv-x="249" 
d="M198 0h-148v500h148v-500zM16 723c30 0 51.833 -6.66699 65.5 -20s20.5 -34.333 20.5 -63s-6.83301 -49.5 -20.5 -62.5s-35.5 -19.5 -65.5 -19.5c-30.667 0 -52.667 6.5 -66 19.5s-20 33.833 -20 62.5c0 29.333 6.66699 50.5 20 63.5s35.333 19.5 66 19.5zM232 723
c30.667 0 52.834 -6.5 66.501 -19.5s20.5 -34.167 20.5 -63.5c0 -28.667 -6.83301 -49.5 -20.5 -62.5s-35.834 -19.5 -66.501 -19.5c-30 0 -51.833 6.5 -65.5 19.5s-20.5 33.833 -20.5 62.5s6.83301 49.667 20.5 63s35.5 20 65.5 20z" />
    <glyph glyph-name="ntilde" unicode="&#xf1;" horiz-adv-x="586" 
d="M176 500l-1 -1.00098l18 -39c32.667 33.333 81.667 50 147 50c68.667 0 118.5 -19 149.5 -57s46.5 -99 46.5 -183v-270h-148v270c0 46.667 -7 80.334 -21 101.001s-36.333 31 -67 31c-32 0 -55.333 -9.5 -70 -28.5s-22 -49.5 -22 -91.5v-282h-148v500h116zM131 577.999
c0 34.667 9.99707 64.334 29.9971 89.001s44 37 72 37c19.333 0 36.833 -4 52.5 -12s27.334 -16.833 35.001 -26.5s15.834 -18.667 24.501 -27s16.667 -12.5 24 -12.5s13.5 3.66699 18.5 11s7.5 17.666 7.5 30.999h68c0 -34.667 -10 -64.334 -30 -89.001s-44 -37 -72 -37
c-19.333 0 -36.666 4 -51.999 12s-26.833 17 -34.5 27s-16 19 -25 27s-17.167 12 -24.5 12s-13.5 -3.66699 -18.5 -11s-7.5 -17.666 -7.5 -30.999h-68z" />
    <glyph glyph-name="ograve" unicode="&#xf2;" horiz-adv-x="596" 
d="M298 510c94 0 162.167 -20.5 204.5 -61.5s63.5 -107.167 63.5 -198.5s-21.167 -157.5 -63.5 -198.5s-110.5 -61.5 -204.5 -61.5s-162.167 20.5 -204.5 61.5s-63.5 107.167 -63.5 198.5s21.167 157.5 63.5 198.5s110.5 61.5 204.5 61.5zM178 250
c0 -53.333 9.5 -92 28.5 -116s49.5 -36 91.5 -36s72.5 12 91.5 36s28.5 62.667 28.5 116s-9.5 92 -28.5 116s-49.5 36 -91.5 36s-72.5 -12 -91.5 -36s-28.5 -62.667 -28.5 -116zM368 550h-117l-129 150h150z" />
    <glyph glyph-name="oacute" unicode="&#xf3;" horiz-adv-x="596" 
d="M298 510c94 0 162.167 -20.5 204.5 -61.5s63.5 -107.167 63.5 -198.5s-21.167 -157.5 -63.5 -198.5s-110.5 -61.5 -204.5 -61.5s-162.167 20.5 -204.5 61.5s-63.5 107.167 -63.5 198.5s21.167 157.5 63.5 198.5s110.5 61.5 204.5 61.5zM178 250
c0 -53.333 9.5 -92 28.5 -116s49.5 -36 91.5 -36s72.5 12 91.5 36s28.5 62.667 28.5 116s-9.5 92 -28.5 116s-49.5 36 -91.5 36s-72.5 -12 -91.5 -36s-28.5 -62.667 -28.5 -116zM228 550l97 150h149l-128 -150h-118z" />
    <glyph glyph-name="ocircumflex" unicode="&#xf4;" horiz-adv-x="596" 
d="M298 510c94 0 162.167 -20.5 204.5 -61.5s63.5 -107.167 63.5 -198.5s-21.167 -157.5 -63.5 -198.5s-110.5 -61.5 -204.5 -61.5s-162.167 20.5 -204.5 61.5s-63.5 107.167 -63.5 198.5s21.167 157.5 63.5 198.5s110.5 61.5 204.5 61.5zM178 250
c0 -53.333 9.5 -92 28.5 -116s49.5 -36 91.5 -36s72.5 12 91.5 36s28.5 62.667 28.5 116s-9.5 92 -28.5 116s-49.5 36 -91.5 36s-72.5 -12 -91.5 -36s-28.5 -62.667 -28.5 -116zM456 550h-93l-65 82l-65 -82h-93l84 150h148z" />
    <glyph glyph-name="otilde" unicode="&#xf5;" horiz-adv-x="596" 
d="M298 510c94 0 162.167 -20.5 204.5 -61.5s63.5 -107.167 63.5 -198.5s-21.167 -157.5 -63.5 -198.5s-110.5 -61.5 -204.5 -61.5s-162.167 20.5 -204.5 61.5s-63.5 107.167 -63.5 198.5s21.167 157.5 63.5 198.5s110.5 61.5 204.5 61.5zM178 250
c0 -53.333 9.5 -92 28.5 -116s49.5 -36 91.5 -36s72.5 12 91.5 36s28.5 62.667 28.5 116s-9.5 92 -28.5 116s-49.5 36 -91.5 36s-72.5 -12 -91.5 -36s-28.5 -62.667 -28.5 -116zM132 578c0 34.667 9.99707 64.334 29.9971 89.001s44 37 72 37c19.333 0 36.833 -4 52.5 -12
s27.334 -16.833 35.001 -26.5s15.834 -18.667 24.501 -27s16.667 -12.5 24 -12.5s13.5 3.66699 18.5 11s7.5 17.666 7.5 30.999h68c0 -34.667 -10 -64.334 -30 -89.001s-44 -37 -72 -37c-19.333 0 -36.666 4 -51.999 12s-26.833 17 -34.5 27s-16 19 -25 27
s-17.167 12 -24.5 12s-13.5 -3.66699 -18.5 -11s-7.5 -17.666 -7.5 -30.999h-68z" />
    <glyph glyph-name="odieresis" unicode="&#xf6;" horiz-adv-x="596" 
d="M298 510c94 0 162.167 -20.5 204.5 -61.5s63.5 -107.167 63.5 -198.5s-21.167 -157.5 -63.5 -198.5s-110.5 -61.5 -204.5 -61.5s-162.167 20.5 -204.5 61.5s-63.5 107.167 -63.5 198.5s21.167 157.5 63.5 198.5s110.5 61.5 204.5 61.5zM178 250
c0 -53.333 9.5 -92 28.5 -116s49.5 -36 91.5 -36s72.5 12 91.5 36s28.5 62.667 28.5 116s-9.5 92 -28.5 116s-49.5 36 -91.5 36s-72.5 -12 -91.5 -36s-28.5 -62.667 -28.5 -116zM188 728c30 0 51.833 -6.5 65.5 -19.5s20.5 -33.833 20.5 -62.5s-6.83301 -49.5 -20.5 -62.5
s-35.5 -19.5 -65.5 -19.5c-30.667 0 -52.667 6.33301 -66 19s-20 33.667 -20 63s6.66699 50.333 20 63s35.333 19 66 19zM408 728c30.667 0 52.833 -6.5 66.5 -19.5s20.5 -33.833 20.5 -62.5s-7 -49.5 -21 -62.5s-36 -19.5 -66 -19.5s-51.833 6.5 -65.5 19.5
s-20.5 33.833 -20.5 62.5s6.83301 49.5 20.5 62.5s35.5 19.5 65.5 19.5z" />
    <glyph glyph-name="divide" unicode="&#xf7;" horiz-adv-x="580" 
d="M550 210h-520v108h520v-108zM210 68c0 22.667 7.33301 41 22 55s34 21 58 21s43.333 -7 58 -21s22 -32.333 22 -55s-7.33301 -41 -22 -55s-34 -21 -58 -21s-43.333 7 -58 21s-22 32.333 -22 55zM210 460c0 22.667 7.50098 41 22.501 55s34.5 21 58.5 21s43.333 -7 58 -21
s22 -32.333 22 -55s-7.33301 -41 -22 -55s-34 -21 -58 -21c-24.667 0 -44.334 7 -59.001 21s-22 32.333 -22 55z" />
    <glyph glyph-name="oslash" unicode="&#xf8;" horiz-adv-x="595" 
d="M298 510c18.667 0 36.667 -1 54 -3l21 62h68l-26 -74c52 -14.667 90 -42 114 -82s36 -94.667 36 -164c0 -91.333 -21.167 -157.5 -63.5 -198.5s-110.5 -61.5 -204.5 -61.5c-19.333 0 -37.333 1 -54 3l-21 -62h-68l26 74c-52 14.667 -90 42 -114 82s-36 94.667 -36 164
c0 91.333 21.167 157.5 63.5 198.5s110.5 61.5 204.5 61.5zM178 250c0 -64.667 14 -108 42 -130l96 281c-4 0.666992 -10 1 -18 1c-42 0 -72.5 -12 -91.5 -36s-28.5 -62.667 -28.5 -116zM376 379l-96 -280c4 -0.666992 10 -1 18 -1c42 0 72.5 12 91.5 36
s28.5 62.667 28.5 116c0 64 -14 107 -42 129z" />
    <glyph glyph-name="ugrave" unicode="&#xf9;" horiz-adv-x="586" 
d="M410 0l1 1.00098l-18 39c-32.667 -33.333 -81.667 -50 -147 -50c-68.667 0 -118.5 19 -149.5 57s-46.5 99 -46.5 183v270h148v-270c0 -46.667 7 -80.334 21 -101.001s36.333 -31 67 -31c61.333 0 92 40 92 120l1 282h147v-500h-116zM281 700.001l96 -150h-117l-129 150
h150z" />
    <glyph glyph-name="uacute" unicode="&#xfa;" horiz-adv-x="586" 
d="M410 0l1 1.00098l-18 39c-32.667 -33.333 -81.667 -50 -147 -50c-68.667 0 -118.5 19 -149.5 57s-46.5 99 -46.5 183v270h148v-270c0 -46.667 7 -80.334 21 -101.001s36.333 -31 67 -31c61.333 0 92 40 92 120l1 282h147v-500h-116zM294 700.001h149l-128 -150h-118z" />
    <glyph glyph-name="ucircumflex" unicode="&#xfb;" horiz-adv-x="586" 
d="M410 0l1 1.00098l-18 39c-32.667 -33.333 -81.667 -50 -147 -50c-68.667 0 -118.5 19 -149.5 57s-46.5 99 -46.5 183v270h148v-270c0 -46.667 7 -80.334 21 -101.001s36.333 -31 67 -31c61.333 0 92 40 92 120l1 282h147v-500h-116zM361 700.001l84 -150h-93l-65 82
l-65 -82h-93l84 150h148z" />
    <glyph glyph-name="udieresis" unicode="&#xfc;" horiz-adv-x="586" 
d="M410 0l1 1.00098l-18 39c-32.667 -33.333 -81.667 -50 -147 -50c-68.667 0 -118.5 19 -149.5 57s-46.5 99 -46.5 183v270h148v-270c0 -46.667 7 -80.334 21 -101.001s36.333 -31 67 -31c61.333 0 92 40 92 120l1 282h147v-500h-116zM171 728.001
c30 0 51.833 -6.5 65.5 -19.5s20.5 -33.833 20.5 -62.5s-6.83301 -49.5 -20.5 -62.5s-35.5 -19.5 -65.5 -19.5c-30.667 0 -52.667 6.33301 -66 19s-20 33.667 -20 63s6.66699 50.333 20 63s35.333 19 66 19zM391 728.001c30.667 0 52.833 -6.5 66.5 -19.5
s20.5 -33.833 20.5 -62.5s-7 -49.5 -21 -62.5s-36 -19.5 -66 -19.5s-51.833 6.5 -65.5 19.5s-20.5 33.833 -20.5 62.5s6.83301 49.5 20.5 62.5s35.5 19.5 65.5 19.5z" />
    <glyph glyph-name="yacute" unicode="&#xfd;" horiz-adv-x="536" 
d="M222 2h-1.00098l4 11l-216 487h141l131 -316l104 316h140l-168 -482c-25.333 -69.333 -54.666 -119.666 -87.999 -150.999s-74 -47 -122 -47h-72v92h64c18.667 0 34.5 7.16699 47.5 21.5s24.833 37.166 35.5 68.499zM213.999 550l97 150h149l-128 -150h-118z" />
    <glyph glyph-name="ydieresis" unicode="&#xff;" horiz-adv-x="536" 
d="M222 2h-1.00098l4 11l-216 487h141l131 -316l104 316h140l-168 -482c-25.333 -69.333 -54.666 -119.666 -87.999 -150.999s-74 -47 -122 -47h-72v92h64c18.667 0 34.5 7.16699 47.5 21.5s24.833 37.166 35.5 68.499zM165.999 728c30 0 51.833 -6.5 65.5 -19.5
s20.5 -33.833 20.5 -62.5s-6.83301 -49.5 -20.5 -62.5s-35.5 -19.5 -65.5 -19.5c-30.667 0 -52.667 6.33301 -66 19s-20 33.667 -20 63c0 28.667 6.83301 49.5 20.5 62.5s35.5 19.5 65.5 19.5zM385.999 728c30.667 0 52.834 -6.5 66.501 -19.5s20.5 -33.833 20.5 -62.5
s-6.83301 -49.5 -20.5 -62.5s-35.834 -19.5 -66.501 -19.5c-30 0 -51.833 6.5 -65.5 19.5s-20.5 33.833 -20.5 62.5s6.83301 49.5 20.5 62.5s35.5 19.5 65.5 19.5z" />
    <glyph glyph-name="Amacron" unicode="&#x100;" horiz-adv-x="692" 
d="M510 0l-42 144h-249l-44 -144h-165l229 700h230l213 -700h-172zM347 564l-95 -312h185zM183 840h340v-84h-340v84z" />
    <glyph glyph-name="amacron" unicode="&#x101;" horiz-adv-x="556" 
d="M373 42c-30.667 -34.667 -82.335 -51.999 -155.002 -51.999c-66 0 -113.833 12.5 -143.5 37.5s-44.5 65.167 -44.5 120.5c0 59.333 19.167 102.5 57.5 129.5s99.833 40.5 184.5 40.5h86v22c0 30 -6.66699 51.833 -20 65.5s-34.666 20.5 -63.999 20.5
s-50.666 -6 -63.999 -18s-19.666 -31.333 -18.999 -58h-141c0 56 18 96.667 54 122s94 38 174 38c79.333 0 137.166 -14.833 173.499 -44.5s54.5 -76.834 54.5 -141.501v-324h-116zM357.999 234.001l-65.002 0.000976562c-17.333 0 -31.666 -0.833008 -42.999 -2.5
s-23.166 -4.83398 -35.499 -9.50098s-21.5 -12.5 -27.5 -23.5s-9 -25.167 -9 -42.5c0 -24 6.16699 -41 18.5 -51s32.833 -15 61.5 -15c38 0 64.167 10 78.5 30s21.5 49.667 21.5 89v25zM107.997 582.002v84h340v-84h-340z" />
    <glyph glyph-name="Abreve" unicode="&#x102;" horiz-adv-x="692" 
d="M510 0l-42 144h-249l-44 -144h-165l229 700h230l213 -700h-172zM347 564l-95 -312h185zM519 870c0 -42 -13.167 -72.5 -39.5 -91.5s-68.5 -28.5 -126.5 -28.5s-100.167 9.5 -126.5 28.5s-39.5 49.5 -39.5 91.5h108c0 -34 17.667 -51.333 53 -52h5
c20.667 0 35.5 4 44.5 12s13.5 21.333 13.5 40h108z" />
    <glyph glyph-name="abreve" unicode="&#x103;" horiz-adv-x="556" 
d="M373 42c-30.667 -34.667 -82.335 -51.999 -155.002 -51.999c-66 0 -113.833 12.5 -143.5 37.5s-44.5 65.167 -44.5 120.5c0 59.333 19.167 102.5 57.5 129.5s99.833 40.5 184.5 40.5h86v22c0 30 -6.66699 51.833 -20 65.5s-34.666 20.5 -63.999 20.5
s-50.666 -6 -63.999 -18s-19.666 -31.333 -18.999 -58h-141c0 56 18 96.667 54 122s94 38 174 38c79.333 0 137.166 -14.833 173.499 -44.5s54.5 -76.834 54.5 -141.501v-324h-116zM357.999 234.001l-65.002 0.000976562c-17.333 0 -31.666 -0.833008 -42.999 -2.5
s-23.166 -4.83398 -35.499 -9.50098s-21.5 -12.5 -27.5 -23.5s-9 -25.167 -9 -42.5c0 -24 6.16699 -41 18.5 -51s32.833 -15 61.5 -15c38 0 64.167 10 78.5 30s21.5 49.667 21.5 89v25zM343.997 700.002h100.002c0 -52.667 -13.167 -90.834 -39.5 -114.501
s-68.5 -35.5 -126.5 -35.5s-100.167 11.833 -126.5 35.5s-39.5 61.834 -39.5 114.501h100c0 -26 5.16699 -44.833 15.5 -56.5s27.166 -17.5 50.499 -17.5s40.166 5.83301 50.499 17.5s15.5 30.5 15.5 56.5z" />
    <glyph glyph-name="Aogonek" unicode="&#x104;" horiz-adv-x="692" 
d="M682 0h-37.999c-31.333 -28 -48.333 -56.333 -51 -85c0 -26 13.333 -39.333 40 -40c7.33301 0 14.833 1 22.5 3s13.5 4 17.5 6l6 4v-118c-20 -13.333 -43.333 -20 -70 -20c-39.333 0 -68.833 14.5 -88.5 43.5s-25.334 63.5 -17.001 103.5s29.833 74.333 64.5 103h-58
l-42 144h-249l-44 -144h-165l229 700h230zM347.001 564l-95 -312h185z" />
    <glyph glyph-name="aogonek" unicode="&#x105;" horiz-adv-x="556" 
d="M389 2l-1.00098 1.00098l-16 40c-30.667 -34.667 -82.334 -52 -155.001 -52c-66 0 -113.833 12.5 -143.5 37.5s-44.5 65.167 -44.5 120.5c0 59.333 19.167 102.5 57.5 129.5s99.833 40.5 184.5 40.5h86v22c0 30 -6.66699 51.833 -20 65.5s-34.666 20.5 -63.999 20.5
s-50.666 -6 -63.999 -18s-19.666 -31.333 -18.999 -58h-141c0 56 18 96.667 54 122s94 38 174 38c79.333 0 137.166 -14.833 173.499 -44.5s54.5 -76.834 54.5 -141.501v-324h-42c-31.333 -28 -48.333 -56.333 -51 -85c0 -26 13.333 -39.333 40 -40
c7.33301 0 14.833 1 22.5 3s13.5 4.33301 17.5 7l6 3v-118c-20 -13.333 -43.333 -20 -70 -20c-39.333 0 -68.833 14.5 -88.5 43.5s-25.167 63.667 -16.5 104s30.667 74.833 66 103.5zM357.999 234.001l-65.002 0.000976562c-17.333 0 -31.666 -0.833008 -42.999 -2.5
s-23.166 -4.83398 -35.499 -9.50098s-21.5 -12.5 -27.5 -23.5s-9 -25.167 -9 -42.5c0 -24 6.16699 -41 18.5 -51s32.833 -15 61.5 -15c38 0 64.167 10 78.5 30s21.5 49.667 21.5 89v25z" />
    <glyph glyph-name="Cacute" unicode="&#x106;" horiz-adv-x="766" 
d="M562 236h164c-21.333 -89.333 -58 -154.333 -110 -195s-125.333 -61 -220 -61c-124.667 0 -215.167 29.333 -271.5 88s-84.5 152.667 -84.5 282s28.167 223.333 84.5 282s146.833 88 271.5 88c102 0 179 -20.333 231 -61s85 -105.667 99 -195h-164
c-10 46.667 -28 80.167 -54 100.5s-63.333 30.5 -112 30.5c-64 0 -110.5 -19.333 -139.5 -58s-43.5 -101 -43.5 -187s14.5 -148.333 43.5 -187s75.5 -58 139.5 -58c46.667 0 83 10.167 109 30.5s45 53.833 57 100.5zM328 750l94 120h142l-118 -120h-118z" />
    <glyph glyph-name="cacute" unicode="&#x107;" 
d="M398 184h148c-7.33301 -68 -30.666 -117.333 -69.999 -148s-98.666 -46 -177.999 -46c-94 0 -162.167 20.5 -204.5 61.5s-63.5 107.167 -63.5 198.5s21.167 157.5 63.5 198.5s110.5 61.5 204.5 61.5c79.333 0 138.666 -15.333 177.999 -46s62.666 -80 69.999 -148h-148
c-5.33301 30 -16 51.833 -32 65.5s-38.667 20.5 -68 20.5c-42 0 -72.5 -12 -91.5 -36s-28.5 -62.667 -28.5 -116s9.5 -92 28.5 -116s49.5 -36 91.5 -36c28.667 0 51 6.83301 67 20.5s27 35.5 33 65.5zM228 550l97 150h149l-128 -150h-118z" />
    <glyph glyph-name="Ccircumflex" unicode="&#x108;" horiz-adv-x="766" 
d="M562 236h164c-21.333 -89.333 -58 -154.333 -110 -195s-125.333 -61 -220 -61c-124.667 0 -215.167 29.333 -271.5 88s-84.5 152.667 -84.5 282s28.167 223.333 84.5 282s146.833 88 271.5 88c102 0 179 -20.333 231 -61s85 -105.667 99 -195h-164
c-10 46.667 -28 80.167 -54 100.5s-63.333 30.5 -112 30.5c-64 0 -110.5 -19.333 -139.5 -58s-43.5 -101 -43.5 -187s14.5 -148.333 43.5 -187s75.5 -58 139.5 -58c46.667 0 83 10.167 109 30.5s45 53.833 57 100.5zM558 750h-101l-59 60l-59 -60h-101l86 120h148z" />
    <glyph glyph-name="ccircumflex" unicode="&#x109;" 
d="M398 184h148c-7.33301 -68 -30.666 -117.333 -69.999 -148s-98.666 -46 -177.999 -46c-94 0 -162.167 20.5 -204.5 61.5s-63.5 107.167 -63.5 198.5s21.167 157.5 63.5 198.5s110.5 61.5 204.5 61.5c79.333 0 138.666 -15.333 177.999 -46s62.666 -80 69.999 -148h-148
c-5.33301 30 -16 51.833 -32 65.5s-38.667 20.5 -68 20.5c-42 0 -72.5 -12 -91.5 -36s-28.5 -62.667 -28.5 -116s9.5 -92 28.5 -116s49.5 -36 91.5 -36c28.667 0 51 6.83301 67 20.5s27 35.5 33 65.5zM456 550h-93l-65 82l-65 -82h-93l84 150h148z" />
    <glyph glyph-name="Cdotaccent" unicode="&#x10a;" horiz-adv-x="766" 
d="M562 236h164c-21.333 -89.333 -58 -154.333 -110 -195s-125.333 -61 -220 -61c-124.667 0 -215.167 29.333 -271.5 88s-84.5 152.667 -84.5 282s28.167 223.333 84.5 282s146.833 88 271.5 88c102 0 179 -20.333 231 -61s85 -105.667 99 -195h-164
c-10 46.667 -28 80.167 -54 100.5s-63.333 30.5 -112 30.5c-64 0 -110.5 -19.333 -139.5 -58s-43.5 -101 -43.5 -187s14.5 -148.333 43.5 -187s75.5 -58 139.5 -58c46.667 0 83 10.167 109 30.5s45 53.833 57 100.5zM398 884c30 0 51.833 -5.5 65.5 -16.5
s20.5 -28.833 20.5 -53.5s-6.83301 -42.5 -20.5 -53.5s-35.5 -16.5 -65.5 -16.5s-51.833 5.5 -65.5 16.5s-20.5 28.833 -20.5 53.5s6.66699 42.5 20 53.5s35.333 16.5 66 16.5z" />
    <glyph glyph-name="cdotaccent" unicode="&#x10b;" 
d="M398 184h148c-7.33301 -68 -30.666 -117.333 -69.999 -148s-98.666 -46 -177.999 -46c-94 0 -162.167 20.5 -204.5 61.5s-63.5 107.167 -63.5 198.5s21.167 157.5 63.5 198.5s110.5 61.5 204.5 61.5c79.333 0 138.666 -15.333 177.999 -46s62.666 -80 69.999 -148h-148
c-5.33301 30 -16 51.833 -32 65.5s-38.667 20.5 -68 20.5c-42 0 -72.5 -12 -91.5 -36s-28.5 -62.667 -28.5 -116s9.5 -92 28.5 -116s49.5 -36 91.5 -36c28.667 0 51 6.83301 67 20.5s27 35.5 33 65.5zM298 726c30 0 51.833 -6.16699 65.5 -18.5s20.5 -32.166 20.5 -59.499
s-6.83301 -47.166 -20.5 -59.499s-35.5 -18.5 -65.5 -18.5s-51.833 6.16699 -65.5 18.5s-20.5 32.166 -20.5 59.499s6.83301 47.166 20.5 59.499s35.5 18.5 65.5 18.5z" />
    <glyph glyph-name="Ccaron" unicode="&#x10c;" horiz-adv-x="766" 
d="M562 236h164c-21.333 -89.333 -58 -154.333 -110 -195s-125.333 -61 -220 -61c-124.667 0 -215.167 29.333 -271.5 88s-84.5 152.667 -84.5 282s28.167 223.333 84.5 282s146.833 88 271.5 88c102 0 179 -20.333 231 -61s85 -105.667 99 -195h-164
c-10 46.667 -28 80.167 -54 100.5s-63.333 30.5 -112 30.5c-64 0 -110.5 -19.333 -139.5 -58s-43.5 -101 -43.5 -187s14.5 -148.333 43.5 -187s75.5 -58 139.5 -58c46.667 0 83 10.167 109 30.5s45 53.833 57 100.5zM550 870l-86 -120h-148l-86 120h101l59 -60l59 60h101z
" />
    <glyph glyph-name="ccaron" unicode="&#x10d;" 
d="M398 184h148c-7.33301 -68 -30.666 -117.333 -69.999 -148s-98.666 -46 -177.999 -46c-94 0 -162.167 20.5 -204.5 61.5s-63.5 107.167 -63.5 198.5s21.167 157.5 63.5 198.5s110.5 61.5 204.5 61.5c79.333 0 138.666 -15.333 177.999 -46s62.666 -80 69.999 -148h-148
c-5.33301 30 -16 51.833 -32 65.5s-38.667 20.5 -68 20.5c-42 0 -72.5 -12 -91.5 -36s-28.5 -62.667 -28.5 -116s9.5 -92 28.5 -116s49.5 -36 91.5 -36c28.667 0 51 6.83301 67 20.5s27 35.5 33 65.5zM456 700l-84 -150h-148l-84 150h93l65 -82l65 82h93z" />
    <glyph glyph-name="Dcaron" unicode="&#x10e;" horiz-adv-x="742" 
d="M702 350c0 -122.667 -27.5 -211.667 -82.5 -267s-143.5 -83 -265.5 -83h-274v700h274c122 0 210.5 -27.667 265.5 -83s82.5 -144.333 82.5 -267zM346 584h-101v-468h101c64.667 0 111.5 18.5 140.5 55.5s43.5 96.5 43.5 178.5s-14.5 141.5 -43.5 178.5
s-75.833 55.5 -140.5 55.5zM496 870l-86 -120h-148l-86 120h101l59 -60l59 60h101z" />
    <glyph glyph-name="dcaron" unicode="&#x10f;" horiz-adv-x="743" 
d="M248 -10c-76.667 0 -132.167 20.5 -166.5 61.5s-51.5 107.167 -51.5 198.5s17.167 157.5 51.5 198.5s89.833 61.5 166.5 61.5c66 0 116 -15 150 -45v235h148v-700h-116l-20 47c-34 -38 -88 -57 -162 -57zM288 98c38.667 0 66.667 12 84 36s26 62.667 26 116
s-8.66699 92 -26 116s-45.333 36 -84 36s-66.667 -12 -84 -36s-26 -62.667 -26 -116s8.66699 -92 26 -116s45.333 -36 84 -36zM650 708c25.333 0 42.167 -7.33203 50.5 -21.999s12.5 -35.334 12.5 -62.001c0 -38.667 -9.16699 -67 -27.5 -85s-47.5 -27 -87.5 -27l1 52
c30 0 45 14.667 45 44c-37.333 0 -56 15 -56 45c0 36.667 20.667 55 62 55z" />
    <glyph glyph-name="Dcroat" unicode="&#x110;" horiz-adv-x="762" 
d="M722 350c0 -122.667 -27.5 -211.667 -82.5 -267s-143.5 -83 -265.5 -83h-274v336h-90v100h90v264h274c122 0 210.5 -27.667 265.5 -83s82.5 -144.333 82.5 -267zM366 584h-101v-148h149v-100h-149v-220h101c64.667 0 111.5 18.5 140.5 55.5s43.5 96.5 43.5 178.5
s-14.5 141.5 -43.5 178.5s-75.833 55.5 -140.5 55.5z" />
    <glyph glyph-name="dcroat" unicode="&#x111;" horiz-adv-x="646" 
d="M636 630v-68h-90v-562h-116l-20 47c-34 -38 -88 -57 -162 -57c-76.667 0 -132.167 20.5 -166.5 61.5s-51.5 107.167 -51.5 198.5s17.167 157.5 51.5 198.5s89.833 61.5 166.5 61.5c66 0 116 -15 150 -45v97h-174v68h174v70h148v-70h90zM288 98c38.667 0 66.667 12 84 36
s26 62.667 26 116s-8.66699 92 -26 116s-45.333 36 -84 36s-66.667 -12 -84 -36s-26 -62.667 -26 -116s8.66699 -92 26 -116s45.333 -36 84 -36z" />
    <glyph glyph-name="Emacron" unicode="&#x112;" horiz-adv-x="614" 
d="M584 584h-339v-164h299v-116h-299v-188h339v-116h-504v700h504v-116zM162 840h340v-84h-340v84z" />
    <glyph glyph-name="emacron" unicode="&#x113;" 
d="M179 202c4 -41.333 14.665 -71.666 31.998 -90.999s43 -29 77 -29c28.667 0 50.5 5.83301 65.5 17.5s25.833 30.5 32.5 56.5h140c-11.333 -58 -35.666 -100.167 -72.999 -126.5s-92.333 -39.5 -165 -39.5c-90.667 0 -156.334 20.5 -197.001 61.5s-61 107.167 -61 198.5
s20.333 157.5 61 198.5s106.334 61.5 197.001 61.5s156.334 -20.833 197.001 -62.5s61 -108.834 61 -201.501v-44h-367zM288.998 418c-35.333 0 -61.833 -10.501 -79.5 -31.501s-28.167 -54.5 -31.5 -100.5h221c0 46.667 -8.66699 80.334 -26 101.001s-45.333 31 -84 31z
M118.998 665.999h340v-84h-340v84z" />
    <glyph glyph-name="Ebreve" unicode="&#x114;" horiz-adv-x="614" 
d="M584 584h-339v-164h299v-116h-299v-188h339v-116h-504v700h504v-116zM498 870c0 -42 -13.167 -72.5 -39.5 -91.5s-68.5 -28.5 -126.5 -28.5s-100.167 9.5 -126.5 28.5s-39.5 49.5 -39.5 91.5h108c0 -34 17.667 -51.333 53 -52h5c20.667 0 35.5 4 44.5 12
s13.5 21.333 13.5 40h108z" />
    <glyph glyph-name="ebreve" unicode="&#x115;" 
d="M179 202c4 -41.333 14.665 -71.666 31.998 -90.999s43 -29 77 -29c28.667 0 50.5 5.83301 65.5 17.5s25.833 30.5 32.5 56.5h140c-11.333 -58 -35.666 -100.167 -72.999 -126.5s-92.333 -39.5 -165 -39.5c-90.667 0 -156.334 20.5 -197.001 61.5s-61 107.167 -61 198.5
s20.333 157.5 61 198.5s106.334 61.5 197.001 61.5s156.334 -20.833 197.001 -62.5s61 -108.834 61 -201.501v-44h-367zM288.998 418c-35.333 0 -61.833 -10.501 -79.5 -31.501s-28.167 -54.5 -31.5 -100.5h221c0 46.667 -8.66699 80.334 -26 101.001s-45.333 31 -84 31z
M454.998 699.999c0 -52.667 -13.166 -90.833 -39.499 -114.5s-68.5 -35.5 -126.5 -35.5s-100.167 11.833 -126.5 35.5s-39.5 61.834 -39.5 114.501h100c0 -25.333 4.83301 -43.833 14.5 -55.5s25.167 -17.834 46.5 -18.501h5c23.333 0 40.166 5.83301 50.499 17.5
s15.5 30.5 15.5 56.5h100z" />
    <glyph glyph-name="Edotaccent" unicode="&#x116;" horiz-adv-x="614" 
d="M584 584h-339v-164h299v-116h-299v-188h339v-116h-504v700h504v-116zM332 884c30 0 51.833 -5.5 65.5 -16.5s20.5 -28.833 20.5 -53.5s-6.83301 -42.5 -20.5 -53.5s-35.5 -16.5 -65.5 -16.5s-51.833 5.5 -65.5 16.5s-20.5 28.833 -20.5 53.5s6.66699 42.5 20 53.5
s35.333 16.5 66 16.5z" />
    <glyph glyph-name="edotaccent" unicode="&#x117;" 
d="M179 202c4 -41.333 14.665 -71.666 31.998 -90.999s43 -29 77 -29c28.667 0 50.5 5.83301 65.5 17.5s25.833 30.5 32.5 56.5h140c-11.333 -58 -35.666 -100.167 -72.999 -126.5s-92.333 -39.5 -165 -39.5c-90.667 0 -156.334 20.5 -197.001 61.5s-61 107.167 -61 198.5
s20.333 157.5 61 198.5s106.334 61.5 197.001 61.5s156.334 -20.833 197.001 -62.5s61 -108.834 61 -201.501v-44h-367zM288.998 418c-35.333 0 -61.833 -10.501 -79.5 -31.501s-28.167 -54.5 -31.5 -100.5h221c0 46.667 -8.66699 80.334 -26 101.001s-45.333 31 -84 31z
M288.998 725.999c30 0 51.833 -6.16699 65.5 -18.5s20.5 -32.166 20.5 -59.499s-6.83301 -47.166 -20.5 -59.499s-35.5 -18.5 -65.5 -18.5s-51.833 6.16699 -65.5 18.5s-20.5 32.166 -20.5 59.499s6.83301 47.166 20.5 59.499s35.5 18.5 65.5 18.5z" />
    <glyph glyph-name="Eogonek" unicode="&#x118;" horiz-adv-x="614" 
d="M584 0h-50.002c-31.333 -28 -48 -56.333 -50 -85c0 -26 13.333 -39.333 40 -40c6.66699 0 13.834 1 21.501 3s13.834 4 18.501 6l6 4v-118c-20 -13.333 -43.333 -20 -70 -20c-39.333 0 -68.833 14.5 -88.5 43.5s-25.5 63.5 -17.5 103.5s29.333 74.333 64 103h-378v700
h504v-116h-339v-164h299v-116h-299v-188h339v-116z" />
    <glyph glyph-name="eogonek" unicode="&#x119;" 
d="M525 155c-8.66699 -44 -24.333 -78.833 -47 -104.5s-54.334 -43.167 -95.001 -52.5c-31.333 -28 -48 -56.333 -50 -85c0 -25.333 13.333 -38.333 40 -39c7.33301 0 14.833 1 22.5 3s13.5 4.33301 17.5 7l6 3v-118c-20 -13.333 -43.333 -20 -70 -20
c-38 0 -66.833 13.5 -86.5 40.5s-26.5 59.5 -20.5 97.5s24.333 72 55 102h-9c-90.667 0 -156.334 20.5 -197.001 61.5s-61 107.167 -61 198.5s20.333 157.5 61 198.5s106.334 61.5 197.001 61.5s156.334 -20.833 197.001 -62.5s61 -108.834 61 -201.501v-44h-368
c4 -41.333 14.667 -71.666 32 -90.999s43 -29 77 -29c28.667 0 50.5 5.83301 65.5 17.5s25.833 30.5 32.5 56.5h140zM287.001 418c-35.333 0 -61.833 -10.501 -79.5 -31.501s-28.167 -54.5 -31.5 -100.5h221c0 46.667 -8.66699 80.334 -26 101.001s-45.333 31 -84 31z" />
    <glyph glyph-name="Ecaron" unicode="&#x11a;" horiz-adv-x="614" 
d="M584 584h-339v-164h299v-116h-299v-188h339v-116h-504v700h504v-116zM484 870l-86 -120h-148l-86 120h101l59 -60l59 60h101z" />
    <glyph glyph-name="ecaron" unicode="&#x11b;" 
d="M179 202c4 -41.333 14.665 -71.666 31.998 -90.999s43 -29 77 -29c28.667 0 50.5 5.83301 65.5 17.5s25.833 30.5 32.5 56.5h140c-11.333 -58 -35.666 -100.167 -72.999 -126.5s-92.333 -39.5 -165 -39.5c-90.667 0 -156.334 20.5 -197.001 61.5s-61 107.167 -61 198.5
s20.333 157.5 61 198.5s106.334 61.5 197.001 61.5s156.334 -20.833 197.001 -62.5s61 -108.834 61 -201.501v-44h-367zM288.998 418c-35.333 0 -61.833 -10.501 -79.5 -31.501s-28.167 -54.5 -31.5 -100.5h221c0 46.667 -8.66699 80.334 -26 101.001s-45.333 31 -84 31z
M446.998 699.999l-84 -150h-148l-84 150h93l65 -82l65 82h93z" />
    <glyph glyph-name="Gbreve" unicode="&#x11e;" horiz-adv-x="776" 
d="M398 294v107.999h338v-52c0 -129.333 -26.667 -223.333 -80 -282s-139.333 -88 -258 -88c-125.333 0 -216.333 29.333 -273 88s-85 152.667 -85 282s28.333 223.333 85 282s147.667 88 273 88c98 0 173 -19 225 -57s86.333 -99 103 -183h-156
c-10 40.667 -28.5 70 -55.5 88s-65.833 27 -116.5 27c-65.333 0 -112.5 -19.167 -141.5 -57.5s-43.5 -100.833 -43.5 -187.5c0 -86 14.667 -148.333 44 -187s76.333 -58 141 -58c64 0 110.333 14.833 139 44.5s43 77.834 43 144.501h-182zM564 869.999
c0 -42 -13.167 -72.5 -39.5 -91.5s-68.5 -28.5 -126.5 -28.5s-100.167 9.5 -126.5 28.5s-39.5 49.5 -39.5 91.5h108c0 -34 17.667 -51.333 53 -52h5c20.667 0 35.5 4 44.5 12s13.5 21.333 13.5 40h108z" />
    <glyph glyph-name="gbreve" unicode="&#x11f;" horiz-adv-x="607" 
d="M249 -10c-76.667 0 -132.333 20.667 -167 62s-52 107.333 -52 198c0 91.333 17.167 157.5 51.5 198.5s89.833 61.5 166.5 61.5c74.667 0 129.334 -19.333 164.001 -58l19 48h116v-450c0 -91.333 -20.333 -157.5 -61 -198.5s-106.334 -61.5 -197.001 -61.5
c-74.667 0 -130.667 13.167 -168 39.5s-60.666 68.5 -69.999 126.5h140c5.33301 -26 15.166 -44.833 29.499 -56.5s34.5 -17.5 60.5 -17.5c41.333 0 71.333 11.333 90 34s28 59 28 109v10c-34 -30 -84 -45 -150 -45zM288.001 98c38.667 0 66.667 12 84 36s26 62.667 26 116
s-8.66699 92 -26 116s-45.333 36 -84 36s-66.667 -12 -84 -36s-26 -62.667 -26 -116s8.66699 -92 26 -116s45.333 -36 84 -36zM460.001 700c0 -52.667 -13.165 -90.834 -39.498 -114.501s-68.5 -35.5 -126.5 -35.5s-100.167 11.833 -126.5 35.5s-39.5 61.834 -39.5 114.501
h100c0 -26 5.16699 -44.833 15.5 -56.5s27.166 -17.5 50.499 -17.5s40.166 5.83301 50.499 17.5s15.5 30.5 15.5 56.5h100z" />
    <glyph glyph-name="Gdotaccent" unicode="&#x120;" horiz-adv-x="776" 
d="M398 294v107.999h338v-52c0 -129.333 -26.667 -223.333 -80 -282s-139.333 -88 -258 -88c-125.333 0 -216.333 29.333 -273 88s-85 152.667 -85 282s28.333 223.333 85 282s147.667 88 273 88c98 0 173 -19 225 -57s86.333 -99 103 -183h-156
c-10 40.667 -28.5 70 -55.5 88s-65.833 27 -116.5 27c-65.333 0 -112.5 -19.167 -141.5 -57.5s-43.5 -100.833 -43.5 -187.5c0 -86 14.667 -148.333 44 -187s76.333 -58 141 -58c64 0 110.333 14.833 139 44.5s43 77.834 43 144.501h-182zM398 883.999
c30 0 51.833 -5.5 65.5 -16.5s20.5 -28.833 20.5 -53.5s-6.83301 -42.5 -20.5 -53.5s-35.5 -16.5 -65.5 -16.5s-51.833 5.5 -65.5 16.5s-20.5 28.833 -20.5 53.5s6.66699 42.5 20 53.5s35.333 16.5 66 16.5z" />
    <glyph glyph-name="gdotaccent" unicode="&#x121;" horiz-adv-x="607" 
d="M249 -10c-76.667 0 -132.333 20.667 -167 62s-52 107.333 -52 198c0 91.333 17.167 157.5 51.5 198.5s89.833 61.5 166.5 61.5c74.667 0 129.334 -19.333 164.001 -58l19 48h116v-450c0 -91.333 -20.333 -157.5 -61 -198.5s-106.334 -61.5 -197.001 -61.5
c-74.667 0 -130.667 13.167 -168 39.5s-60.666 68.5 -69.999 126.5h140c5.33301 -26 15.166 -44.833 29.499 -56.5s34.5 -17.5 60.5 -17.5c41.333 0 71.333 11.333 90 34s28 59 28 109v10c-34 -30 -84 -45 -150 -45zM288.001 98c38.667 0 66.667 12 84 36s26 62.667 26 116
s-8.66699 92 -26 116s-45.333 36 -84 36s-66.667 -12 -84 -36s-26 -62.667 -26 -116s8.66699 -92 26 -116s45.333 -36 84 -36zM296.001 723c30 0 51.833 -6.33301 65.5 -19s20.5 -32.667 20.5 -60s-6.83301 -47.166 -20.5 -59.499s-35.5 -18.5 -65.5 -18.5
s-51.833 6.16699 -65.5 18.5s-20.5 32.166 -20.5 59.499s6.83301 47.333 20.5 60s35.5 19 65.5 19z" />
    <glyph glyph-name="Gcedilla" unicode="&#x122;" horiz-adv-x="776" 
d="M398 294v107.999h338v-52c0 -129.333 -26.667 -223.333 -80 -282s-139.333 -88 -258 -88c-125.333 0 -216.333 29.333 -273 88s-85 152.667 -85 282s28.333 223.333 85 282s147.667 88 273 88c98 0 173 -19 225 -57s86.333 -99 103 -183h-156
c-10 40.667 -28.5 70 -55.5 88s-65.833 27 -116.5 27c-65.333 0 -112.5 -19.167 -141.5 -57.5s-43.5 -100.833 -43.5 -187.5c0 -86 14.667 -148.333 44 -187s76.333 -58 141 -58c64 0 110.333 14.833 139 44.5s43 77.834 43 144.501h-182zM398 -42.001
c24.667 0 41.167 -7.33203 49.5 -21.999s12.5 -35.334 12.5 -62.001c0 -39.333 -9 -67.833 -27 -85.5s-47 -26.5 -87 -26.5v52c30.667 0 46 14.667 46 44c-37.333 0 -56 15 -56 45c0 36.667 20.667 55 62 55z" />
    <glyph glyph-name="gcedilla" unicode="&#x123;" horiz-adv-x="607" 
d="M249 -10c-76.667 0 -132.333 20.667 -167 62s-52 107.333 -52 198c0 91.333 17.167 157.5 51.5 198.5s89.833 61.5 166.5 61.5c74.667 0 129.334 -19.333 164.001 -58l19 48h116v-450c0 -91.333 -20.333 -157.5 -61 -198.5s-106.334 -61.5 -197.001 -61.5
c-74.667 0 -130.667 13.167 -168 39.5s-60.666 68.5 -69.999 126.5h140c5.33301 -26 15.166 -44.833 29.499 -56.5s34.5 -17.5 60.5 -17.5c41.333 0 71.333 11.333 90 34s28 59 28 109v10c-34 -30 -84 -45 -150 -45zM288.001 98c38.667 0 66.667 12 84 36s26 62.667 26 116
s-8.66699 92 -26 116s-45.333 36 -84 36s-66.667 -12 -84 -36s-26 -62.667 -26 -116s8.66699 -92 26 -116s45.333 -36 84 -36zM284.001 552c-24.667 0 -41.167 7.33203 -49.5 21.999s-12.5 35.334 -12.5 62.001c0 39.333 9 67.833 27 85.5s47 26.5 87 26.5v-52
c-30.667 0 -46 -14.667 -46 -44c37.333 0 56 -15 56 -45c0 -36.667 -20.667 -55 -62 -55z" />
    <glyph glyph-name="Itilde" unicode="&#x128;" horiz-adv-x="332" 
d="M84 700h165v-700h-165v700zM0 760c0 34 9.66699 60.5 29 79.5s43.666 28.5 72.999 28.5c32 0 61.167 -8.33301 87.5 -25s45.166 -25 56.499 -25c7.33301 0 13.5 3 18.5 9s7.5 13.667 7.5 23h60c0 -34 -9.66699 -60.5 -29 -79.5s-43.666 -28.5 -72.999 -28.5
c-32 0 -61.167 8.33301 -87.5 25s-45.166 25 -56.499 25c-7.33301 0 -13.5 -3 -18.5 -9s-7.5 -13.667 -7.5 -23h-60z" />
    <glyph glyph-name="itilde" unicode="&#x129;" horiz-adv-x="252" 
d="M200 0h-148v500h148v-500zM-40 578c0 34.667 9.99707 64.334 29.9971 89.001s44 37 72 37c19.333 0 36.833 -4 52.5 -12s27.334 -16.833 35.001 -26.5s15.834 -18.667 24.501 -27s16.667 -12.5 24 -12.5s13.5 3.66699 18.5 11s7.5 17.666 7.5 30.999h68
c0 -34.667 -10 -64.334 -30 -89.001s-44 -37 -72 -37c-19.333 0 -36.666 4 -51.999 12s-26.833 17 -34.5 27s-16 19 -25 27s-17.167 12 -24.5 12s-13.5 -3.66699 -18.5 -11s-7.5 -17.666 -7.5 -30.999h-68z" />
    <glyph glyph-name="Imacron" unicode="&#x12a;" horiz-adv-x="320" 
d="M78 700h165v-700h-165v700zM-10 838h340v-84h-340v84z" />
    <glyph glyph-name="imacron" unicode="&#x12b;" horiz-adv-x="240" 
d="M195 0h-149v500h149v-500zM-50 666h340v-84h-340v84z" />
    <glyph glyph-name="Iogonek" unicode="&#x12e;" horiz-adv-x="339" 
d="M223 0h-1c-31.333 -28 -48.333 -56.333 -51 -85c0 -26 13.333 -39.333 40 -40c4.66699 0 9.33398 0.5 14.001 1.5s8.83398 2.16699 12.501 3.5l10 3.5l7.5 2.5l3 2v-118l-3 -2c-2 -1.33301 -5.16699 -3 -9.5 -5s-9.33301 -4 -15 -6s-12.334 -3.66699 -20.001 -5
s-15.167 -2 -22.5 -2c-39.333 0 -68.833 14.5 -88.5 43.5s-25.334 63.5 -17.001 103.5s29.833 74.333 64.5 103h-59v700h165v-700h-30z" />
    <glyph glyph-name="iogonek" unicode="&#x12f;" horiz-adv-x="275" 
d="M183 0c-31.333 -28 -48.332 -56.333 -50.999 -85c0 -26 13.333 -39.333 40 -40c7.33301 0 14.833 1 22.5 3s13.5 4 17.5 6l6 4v-118c-20 -13.333 -43.333 -20 -70 -20c-39.333 0 -68.833 14.5 -88.5 43.5s-25.334 63.5 -17.001 103.5s29.833 74.333 64.5 103h-43v500h149
v-500h-30zM138.001 722c30.667 0 52.833 -6.16699 66.5 -18.5s20.5 -32.166 20.5 -59.499s-7 -47.166 -21 -59.499s-36 -18.5 -66 -18.5s-51.833 6.16699 -65.5 18.5s-20.5 32.166 -20.5 59.499s6.83301 47.166 20.5 59.499s35.5 18.5 65.5 18.5z" />
    <glyph glyph-name="Idotaccent" unicode="&#x130;" horiz-adv-x="332" 
d="M84 700h165v-700h-165v700zM166 884c30 0 51.833 -5.5 65.5 -16.5s20.5 -28.833 20.5 -53.5s-6.83301 -42.5 -20.5 -53.5s-35.5 -16.5 -65.5 -16.5s-51.833 5.5 -65.5 16.5s-20.5 28.833 -20.5 53.5s6.83301 42.5 20.5 53.5s35.5 16.5 65.5 16.5z" />
    <glyph glyph-name="dotlessi" unicode="&#x131;" horiz-adv-x="248" 
d="M198 0h-148v500h148v-500z" />
    <glyph glyph-name="IJ" unicode="&#x132;" horiz-adv-x="901" 
d="M80 700h165v-700h-165v700zM346 210l-0.000976562 34h157v-34c0 -37.333 6.5 -64.166 19.5 -80.499s33.833 -24.5 62.5 -24.5s49.334 8.16699 62.001 24.5s19 43.166 19 80.499v490h165v-490c0 -77.333 -19.5 -133.666 -58.5 -168.999s-101.5 -53 -187.5 -53
c-83.333 0 -144 17.667 -182 53s-57 91.666 -57 168.999z" />
    <glyph glyph-name="ij" unicode="&#x133;" horiz-adv-x="555" 
d="M210 0h-148v500h148v-500zM283 -72c19.333 0 34.333 5.5 45 16.5s16 25.5 16 43.5v512h149v-528c0 -47.333 -13.5 -84.5 -40.5 -111.5s-64.833 -40.5 -113.5 -40.5h-135v108h79zM136 722c30 0 51.833 -6.16699 65.5 -18.5s20.5 -32.166 20.5 -59.499
s-6.83301 -47.166 -20.5 -59.499s-35.5 -18.5 -65.5 -18.5s-51.833 6.16699 -65.5 18.5s-20.5 32.166 -20.5 59.499s6.83301 47.166 20.5 59.499s35.5 18.5 65.5 18.5zM419 722c30 0 51.833 -6.16699 65.5 -18.5s20.5 -32.166 20.5 -59.499s-6.83301 -47.166 -20.5 -59.499
s-35.834 -18.5 -66.501 -18.5c-30 0 -51.833 6.16699 -65.5 18.5s-20.5 32.166 -20.5 59.499s6.83301 47.166 20.5 59.499s35.834 18.5 66.501 18.5z" />
    <glyph glyph-name="Kcedilla" unicode="&#x136;" horiz-adv-x="711" 
d="M245 700v-272l237 272h199l-296 -340l316 -360h-199l-257 293v-293h-165v700h165zM346 -42c25.333 0 42 -7.33203 50 -21.999s12 -35.334 12 -62.001c0 -39.333 -9 -67.833 -27 -85.5s-47 -26.5 -87 -26.5v52c30.667 0 46 14.667 46 44c-37.333 0 -56 15 -56 45
c0 36.667 20.667 55 62 55z" />
    <glyph glyph-name="kcedilla" unicode="&#x137;" horiz-adv-x="587" 
d="M209 700v-392l173 192h175l-216 -240l236 -260h-175l-193 213v-213h-149v700h149zM288 -42c25.333 0 42 -7.33203 50 -21.999s12 -35.334 12 -62.001c0 -39.333 -9 -67.833 -27 -85.5s-47 -26.5 -87 -26.5v51c30.667 0 46 15 46 45c-37.333 0 -56 15 -56 45
c0 36.667 20.667 55 62 55z" />
    <glyph glyph-name="Lacute" unicode="&#x139;" horiz-adv-x="574" 
d="M544 125v-125h-464v700h165v-575h299zM100 750l95 120h142l-119 -120h-118z" />
    <glyph glyph-name="lacute" unicode="&#x13a;" horiz-adv-x="267" 
d="M60 0v700h149v-700h-149zM70 750l95 120h142l-119 -120h-118z" />
    <glyph glyph-name="Lcedilla" unicode="&#x13b;" horiz-adv-x="574" 
d="M544 125v-125h-464v700h165v-575h299zM312 -42c24.667 0 41.167 -7.33203 49.5 -21.999s12.5 -35.334 12.5 -62.001c0 -39.333 -9 -67.833 -27 -85.5s-47 -26.5 -87 -26.5v52c30.667 0 46 14.667 46 44c-37.333 0 -56 15 -56 45c0 36.667 20.667 55 62 55z" />
    <glyph glyph-name="lcedilla" unicode="&#x13c;" horiz-adv-x="269" 
d="M60 0v700h149v-700h-149zM134 -42c25.333 0 42 -7.33203 50 -21.999s12 -35.334 12 -62.001c0 -39.333 -9 -67.833 -27 -85.5s-47 -26.5 -87 -26.5v52c30.667 0 46 14.667 46 44c-37.333 0 -56 15 -56 45c0 36.667 20.667 55 62 55z" />
    <glyph glyph-name="Lcaron" unicode="&#x13d;" horiz-adv-x="574" 
d="M544 125v-125h-464v700h165v-575h299zM349 708c24.667 0 41.167 -7.5 49.5 -22.5s12.5 -35.5 12.5 -61.5c0 -39.333 -9 -67.833 -27 -85.5s-47 -26.5 -87 -26.5v52c16 0 27.5 3.5 34.5 10.5s10.5 18.167 10.5 33.5c-36.667 0 -55 15 -55 45
c0 20 5.16699 34.167 15.5 42.5s25.833 12.5 46.5 12.5z" />
    <glyph glyph-name="lcaron" unicode="&#x13e;" horiz-adv-x="405" 
d="M60 0v700h148v-700h-148zM313 708c24.667 0 41.167 -7.66699 49.5 -23s12.5 -36 12.5 -62c0 -38.667 -9.16699 -67 -27.5 -85s-47.5 -27 -87.5 -27l1 52c30 0 45 15 45 45c-36.667 0 -55 14.667 -55 44c0 19.333 5.83301 33.5 17.5 42.5s26.5 13.5 44.5 13.5z" />
    <glyph glyph-name="Lslash" unicode="&#x141;" horiz-adv-x="616" 
d="M586 125v-125h-464v305l-92 -55v109l92 55v286h165v-188l193 115v-109l-193 -115v-278h299z" />
    <glyph glyph-name="lslash" unicode="&#x142;" horiz-adv-x="392" 
d="M30 271v109l92 54v266h148v-178l92 54v-109l-92 -54v-413h-148v325z" />
    <glyph glyph-name="Nacute" unicode="&#x143;" horiz-adv-x="772" 
d="M536 700h156v-700h-190l-265 495v-495h-157v700h191l265 -495v495zM316 750l95 120h142l-119 -120h-118z" />
    <glyph glyph-name="nacute" unicode="&#x144;" horiz-adv-x="586" 
d="M176 500l-1 -1.00098l18 -39c32.667 33.333 81.667 50 147 50c68.667 0 118.5 -19 149.5 -57s46.5 -99 46.5 -183v-270h-148v270c0 46.667 -7 80.334 -21 101.001s-36.333 31 -67 31c-32 0 -55.333 -9.5 -70 -28.5s-22 -49.5 -22 -91.5v-282h-148v500h116zM324 699.999
h149l-128 -150h-118z" />
    <glyph glyph-name="Ncedilla" unicode="&#x145;" horiz-adv-x="772" 
d="M536 700h156v-700h-190l-265 495v-495h-157v700h191l265 -495v495zM386 -42c25.333 0 42 -7.33203 50 -21.999s12 -35.334 12 -62.001c0 -39.333 -9 -67.833 -27 -85.5s-47 -26.5 -87 -26.5v52c30.667 0 46 14.667 46 44c-37.333 0 -56 15 -56 45
c0 36.667 20.667 55 62 55z" />
    <glyph glyph-name="ncedilla" unicode="&#x146;" horiz-adv-x="586" 
d="M176 500l-1 -1.00098l18 -39c32.667 33.333 81.667 50 147 50c68.667 0 118.5 -19 149.5 -57s46.5 -99 46.5 -183v-270h-148v270c0 46.667 -7 80.334 -21 101.001s-36.333 31 -67 31c-32 0 -55.333 -9.5 -70 -28.5s-22 -49.5 -22 -91.5v-282h-148v500h116zM297 -42.001
c24.667 0 41.167 -7.33203 49.5 -21.999s12.5 -35.334 12.5 -62.001c0 -39.333 -9 -67.833 -27 -85.5s-47 -26.5 -87 -26.5v52c30.667 0 46 14.667 46 44c-37.333 0 -56 15 -56 45c0 36.667 20.667 55 62 55z" />
    <glyph glyph-name="Ncaron" unicode="&#x147;" horiz-adv-x="772" 
d="M536 700h156v-700h-190l-265 495v-495h-157v700h191l265 -495v495zM538 870l-86 -120h-148l-86 120h101l59 -60l59 60h101z" />
    <glyph glyph-name="ncaron" unicode="&#x148;" horiz-adv-x="586" 
d="M176 500l-1 -1.00098l18 -39c32.667 33.333 81.667 50 147 50c68.667 0 118.5 -19 149.5 -57s46.5 -99 46.5 -183v-270h-148v270c0 46.667 -7 80.334 -21 101.001s-36.333 31 -67 31c-32 0 -55.333 -9.5 -70 -28.5s-22 -49.5 -22 -91.5v-282h-148v500h116zM371 549.999
h-148l-84 150h93l65 -82l65 82h93z" />
    <glyph glyph-name="Omacron" unicode="&#x14c;" horiz-adv-x="796" 
d="M398 720c125.333 0 216.333 -29.333 273 -88s85 -152.667 85 -282s-28.333 -223.333 -85 -282s-147.667 -88 -273 -88s-216.333 29.333 -273 88s-85 152.667 -85 282s28.333 223.333 85 282s147.667 88 273 88zM398 595c-64.667 0 -111.667 -19.333 -141 -58
s-44 -101 -44 -187s14.667 -148.333 44 -187s76.333 -58 141 -58c65.333 0 112.666 19.333 141.999 58s44 101 44 187s-14.667 148.333 -44 187s-76.666 58 -141.999 58zM228 842h340v-84h-340v84z" />
    <glyph glyph-name="omacron" unicode="&#x14d;" horiz-adv-x="596" 
d="M298 510c94 0 162.167 -20.5 204.5 -61.5s63.5 -107.167 63.5 -198.5s-21.167 -157.5 -63.5 -198.5s-110.5 -61.5 -204.5 -61.5s-162.167 20.5 -204.5 61.5s-63.5 107.167 -63.5 198.5s21.167 157.5 63.5 198.5s110.5 61.5 204.5 61.5zM178 250
c0 -53.333 9.5 -92 28.5 -116s49.5 -36 91.5 -36s72.5 12 91.5 36s28.5 62.667 28.5 116s-9.5 92 -28.5 116s-49.5 36 -91.5 36s-72.5 -12 -91.5 -36s-28.5 -62.667 -28.5 -116zM128 642h340v-84h-340v84z" />
    <glyph glyph-name="Obreve" unicode="&#x14e;" horiz-adv-x="796" 
d="M398 720c125.333 0 216.333 -29.333 273 -88s85 -152.667 85 -282s-28.333 -223.333 -85 -282s-147.667 -88 -273 -88s-216.333 29.333 -273 88s-85 152.667 -85 282s28.333 223.333 85 282s147.667 88 273 88zM398 595c-64.667 0 -111.667 -19.333 -141 -58
s-44 -101 -44 -187s14.667 -148.333 44 -187s76.333 -58 141 -58c65.333 0 112.666 19.333 141.999 58s44 101 44 187s-14.667 148.333 -44 187s-76.666 58 -141.999 58zM564 870c0 -42 -13.167 -72.5 -39.5 -91.5s-68.5 -28.5 -126.5 -28.5s-100.167 9.5 -126.5 28.5
s-39.5 49.5 -39.5 91.5h108c0 -34 17.667 -51.333 53 -52h5c20.667 0 35.5 4 44.5 12s13.5 21.333 13.5 40h108z" />
    <glyph glyph-name="obreve" unicode="&#x14f;" horiz-adv-x="596" 
d="M298 510c94 0 162.167 -20.5 204.5 -61.5s63.5 -107.167 63.5 -198.5s-21.167 -157.5 -63.5 -198.5s-110.5 -61.5 -204.5 -61.5s-162.167 20.5 -204.5 61.5s-63.5 107.167 -63.5 198.5s21.167 157.5 63.5 198.5s110.5 61.5 204.5 61.5zM178 250
c0 -53.333 9.5 -92 28.5 -116s49.5 -36 91.5 -36s72.5 12 91.5 36s28.5 62.667 28.5 116s-9.5 92 -28.5 116s-49.5 36 -91.5 36s-72.5 -12 -91.5 -36s-28.5 -62.667 -28.5 -116zM464 700c0 -52.667 -13.166 -90.833 -39.499 -114.5s-68.5 -35.5 -126.5 -35.5
s-100.167 11.833 -126.5 35.5s-39.5 61.834 -39.5 114.501h100c0 -25.333 4.83301 -43.833 14.5 -55.5s25.167 -17.834 46.5 -18.501h5c23.333 0 40.166 5.83301 50.499 17.5s15.5 30.5 15.5 56.5h100z" />
    <glyph glyph-name="Ohungarumlaut" unicode="&#x150;" horiz-adv-x="796" 
d="M398 720c125.333 0 216.333 -29.333 273 -88s85 -152.667 85 -282s-28.333 -223.333 -85 -282s-147.667 -88 -273 -88s-216.333 29.333 -273 88s-85 152.667 -85 282s28.333 223.333 85 282s147.667 88 273 88zM398 595c-64.667 0 -111.667 -19.333 -141 -58
s-44 -101 -44 -187s14.667 -148.333 44 -187s76.333 -58 141 -58c65.333 0 112.666 19.333 141.999 58s44 101 44 187s-14.667 148.333 -44 187s-76.666 58 -141.999 58zM238 750l87 150h141l-119 -150h-109zM446 750l87 150h141l-118 -150h-110z" />
    <glyph glyph-name="ohungarumlaut" unicode="&#x151;" horiz-adv-x="604" 
d="M298 510c94 0 162.167 -20.5 204.5 -61.5s63.5 -107.167 63.5 -198.5s-21.167 -157.5 -63.5 -198.5s-110.5 -61.5 -204.5 -61.5s-162.167 20.5 -204.5 61.5s-63.5 107.167 -63.5 198.5s21.167 157.5 63.5 198.5s110.5 61.5 204.5 61.5zM178 250
c0 -53.333 9.5 -92 28.5 -116s49.5 -36 91.5 -36s72.5 12 91.5 36s28.5 62.667 28.5 116s-9.5 92 -28.5 116s-49.5 36 -91.5 36s-72.5 -12 -91.5 -36s-28.5 -62.667 -28.5 -116zM138 550l87 150h141l-119 -150h-109zM346 550l87 150h141l-118 -150h-110z" />
    <glyph glyph-name="OE" unicode="&#x152;" horiz-adv-x="1102" 
d="M1072 584l-1 0.998047l-1 -1h-324v-164h284v-116h-284v-188h324v-116h-472v76c-22 -32.667 -51.333 -56.667 -88 -72s-85 -23 -145 -23c-113.333 0.666992 -195.833 30.334 -247.5 89.001s-77.5 152.334 -77.5 281.001s25.833 222.167 77.5 280.5s134.5 87.5 248.5 87.5
c112.667 0 190.667 -32 234 -96v77h472v-116zM397 595.998c-64.667 0 -111.667 -19.333 -141 -58s-44 -101 -44 -187s14.667 -148.333 44 -187s76.333 -58 141 -58c65.333 0 112.666 19.333 141.999 58s44 101 44 187s-14.667 148.333 -44 187s-76.666 58 -141.999 58z" />
    <glyph glyph-name="oe" unicode="&#x153;" horiz-adv-x="947" 
d="M550 202c7.33301 -80 43.667 -119.999 109 -119.999c52 0 84.333 24.667 97 74h141c-10 -50.667 -36.333 -91 -79 -121s-95.667 -45 -159 -45c-72.667 0 -129.667 20 -171 60c-37.333 -40 -100.666 -60 -189.999 -60c-94 0 -162.167 20.5 -204.5 61.5
s-63.5 107.167 -63.5 198.5s21.167 157.5 63.5 198.5s110.5 61.5 204.5 61.5c89.333 0 152.666 -20 189.999 -60c41.333 40 98.333 60 171 60c80 0 143 -23.333 189 -70s69 -111.334 69 -194.001v-44h-367zM177.001 250.001c0 -53.333 9.5 -92 28.5 -116s49.5 -36 91.5 -36
s72.5 12 91.5 36s28.5 62.667 28.5 116s-9.5 92 -28.5 116s-49.5 36 -91.5 36s-72.5 -12 -91.5 -36s-28.5 -62.667 -28.5 -116zM660.001 418.001c-38.667 0 -66.167 -11.6689 -82.5 -35.002s-25.833 -55.666 -28.5 -96.999h220c0 42.667 -9.33301 75.334 -28 98.001
s-45.667 34 -81 34z" />
    <glyph glyph-name="Racute" unicode="&#x154;" horiz-adv-x="722" 
d="M369 256l-124 -0.000976562v-256h-165v700h320c90.667 0 158 -20.833 202 -62.5s66 -96.167 66 -163.5c0 -105.333 -47.667 -172.666 -143 -201.999l157 -272h-173zM245 363.999h147c37.333 0 65.333 9.66699 84 29s28 46.333 28 81s-9.33301 61.667 -28 81
s-46.667 29 -84 29h-147v-220zM268 749.999l94 120h142l-118 -120h-118z" />
    <glyph glyph-name="racute" unicode="&#x155;" horiz-adv-x="416" 
d="M315 385h-1c-37.333 0 -64.5 -10.667 -81.5 -32s-25.5 -55.333 -25.5 -102v-250h-148v500h116l20 -47c30.667 37.333 70.667 56 120 56h72v-125h-72zM150 551l97 150h149l-128 -150h-118z" />
    <glyph glyph-name="Rcedilla" unicode="&#x156;" horiz-adv-x="722" 
d="M369 256l-124 -0.000976562v-256h-165v700h320c90.667 0 158 -20.833 202 -62.5s66 -96.167 66 -163.5c0 -105.333 -47.667 -172.666 -143 -201.999l157 -272h-173zM245 363.999h147c37.333 0 65.333 9.66699 84 29s28 46.333 28 81s-9.33301 61.667 -28 81
s-46.667 29 -84 29h-147v-220zM360 -42.001c25.333 0 42 -7.33203 50 -21.999s12 -35.334 12 -62.001c0 -39.333 -9 -67.833 -27 -85.5s-47 -26.5 -87 -26.5v52c30.667 0 46 14.667 46 44c-37.333 0 -56 15 -56 45c0 36.667 20.667 55 62 55z" />
    <glyph glyph-name="rcedilla" unicode="&#x157;" horiz-adv-x="407" 
d="M315 385h-1c-37.333 0 -64.5 -10.667 -81.5 -32s-25.5 -55.333 -25.5 -102v-250h-148v500h116l20 -47c30.667 37.333 70.667 56 120 56h72v-125h-72zM132 -41c25.333 0 42 -7.33203 50 -21.999s12 -35.334 12 -62.001c0 -39.333 -9 -67.833 -27 -85.5
s-47 -26.5 -87 -26.5v52c30.667 0 46 14.667 46 44c-37.333 0 -56 15 -56 45c0 36.667 20.667 55 62 55z" />
    <glyph glyph-name="Rcaron" unicode="&#x158;" horiz-adv-x="722" 
d="M362 255l-117 -0.00195312v-255h-165v700h320c90 0 157.167 -21.5 201.5 -64.5s66.5 -96.833 66.5 -161.5c0 -49.333 -12.167 -91.666 -36.5 -126.999s-61.833 -60.666 -112.5 -75.999l163 -271h-173zM245 363.998h155c36.667 0 63.167 10.333 79.5 31s24.5 47 24.5 79
c0 73.333 -34.667 110 -104 110h-155v-220zM490 869.998l-86 -120h-148l-86 120h101l59 -60l59 60h101z" />
    <glyph glyph-name="rcaron" unicode="&#x159;" horiz-adv-x="407" 
d="M315 385h-1c-37.333 0 -64.5 -10.667 -81.5 -32s-25.5 -55.333 -25.5 -102v-250h-148v500h116l20 -47c30.667 37.333 70.667 56 120 56h72v-125h-72zM380 701l-83 -150h-149l-84 150h93l65 -82l65 82h93z" />
    <glyph glyph-name="Sacute" unicode="&#x15a;" horiz-adv-x="656" 
d="M206 520c0 -20.667 10.1719 -37.8291 30.5049 -51.4961s45.666 -23.834 75.999 -30.501s63.166 -15.334 98.499 -26.001s68.166 -22.834 98.499 -36.501s55.666 -35.167 75.999 -64.5s30.5 -65 30.5 -107c0 -78.667 -22.833 -135.667 -68.5 -171
s-118.834 -53 -219.501 -53s-173.834 17.333 -219.501 52s-68.5 90.667 -68.5 168h148c0 -39.333 11 -67.833 33 -85.5s57.667 -26.5 107 -26.5c46.667 0 80.334 7.33301 101.001 22s31 38 31 70c0 21.333 -7.5 39.5 -22.5 54.5s-34.667 26.667 -59 35s-51 16 -80 23
s-58 15.333 -87 25s-55.667 21.167 -80 34.5s-44 32.166 -59 56.499s-22.5 53.5 -22.5 87.5c0 78.667 22 135.667 66 171s114.667 53 212 53s168 -17.333 212 -52s66 -90.667 66 -168h-148c0 39.333 -10.333 67.833 -31 85.5s-53.667 26.5 -99 26.5
c-43.333 0 -74.5 -7.16699 -93.5 -21.5s-28.5 -37.833 -28.5 -70.5zM258.005 750.005l94 120h142l-118 -120h-118z" />
    <glyph glyph-name="sacute" unicode="&#x15b;" horiz-adv-x="508" 
d="M172 372c0 -15.333 7.49414 -27.499 22.4941 -36.499s33.833 -15.333 56.5 -19s47.334 -8.83398 74.001 -15.501s51.334 -14.5 74.001 -23.5s41.5 -24 56.5 -45s22.5 -47.167 22.5 -78.5c0 -57.333 -18.5 -99 -55.5 -125s-96.167 -39 -177.5 -39
c-75.333 0 -130 12.667 -164 38s-51 66 -51 122h140c0 -26.667 6.33301 -46 19 -58s33 -18 61 -18s48.333 5 61 15s19 26.333 19 49c0 19.333 -10.167 34.166 -30.5 44.499s-45.166 18 -74.499 23s-58.666 11.333 -87.999 19s-54.166 22.334 -74.499 44.001
s-30.5 50.834 -30.5 87.501c0 54 17.167 93.167 51.5 117.5s89.833 36.5 166.5 36.5c73.333 0 126.666 -11.833 159.999 -35.5s50 -61.834 50 -114.501h-132c0 23.333 -6.16699 40.166 -18.5 50.499s-32.166 15.5 -59.499 15.5s-47.166 -4.16699 -59.499 -12.5
s-18.5 -22.166 -18.5 -41.499zM179.994 550.001l97 150h149l-128 -150h-118z" />
    <glyph glyph-name="Scircumflex" unicode="&#x15c;" horiz-adv-x="656" 
d="M206 520c0 -20.667 10.1719 -37.8291 30.5049 -51.4961s45.666 -23.834 75.999 -30.501s63.166 -15.334 98.499 -26.001s68.166 -22.834 98.499 -36.501s55.666 -35.167 75.999 -64.5s30.5 -65 30.5 -107c0 -78.667 -22.833 -135.667 -68.5 -171
s-118.834 -53 -219.501 -53s-173.834 17.333 -219.501 52s-68.5 90.667 -68.5 168h148c0 -39.333 11 -67.833 33 -85.5s57.667 -26.5 107 -26.5c46.667 0 80.334 7.33301 101.001 22s31 38 31 70c0 21.333 -7.5 39.5 -22.5 54.5s-34.667 26.667 -59 35s-51 16 -80 23
s-58 15.333 -87 25s-55.667 21.167 -80 34.5s-44 32.166 -59 56.499s-22.5 53.5 -22.5 87.5c0 78.667 22 135.667 66 171s114.667 53 212 53s168 -17.333 212 -52s66 -90.667 66 -168h-148c0 39.333 -10.333 67.833 -31 85.5s-53.667 26.5 -99 26.5
c-43.333 0 -74.5 -7.16699 -93.5 -21.5s-28.5 -37.833 -28.5 -70.5zM488.005 750.005h-101l-59 60l-59 -60h-101l86 120h148z" />
    <glyph glyph-name="scircumflex" unicode="&#x15d;" horiz-adv-x="508" 
d="M172 372c0 -15.333 7.49414 -27.499 22.4941 -36.499s33.833 -15.333 56.5 -19s47.334 -8.83398 74.001 -15.501s51.334 -14.5 74.001 -23.5s41.5 -24 56.5 -45s22.5 -47.167 22.5 -78.5c0 -57.333 -18.5 -99 -55.5 -125s-96.167 -39 -177.5 -39
c-75.333 0 -130 12.667 -164 38s-51 66 -51 122h140c0 -26.667 6.33301 -46 19 -58s33 -18 61 -18s48.333 5 61 15s19 26.333 19 49c0 19.333 -10.167 34.166 -30.5 44.499s-45.166 18 -74.499 23s-58.666 11.333 -87.999 19s-54.166 22.334 -74.499 44.001
s-30.5 50.834 -30.5 87.501c0 54 17.167 93.167 51.5 117.5s89.833 36.5 166.5 36.5c73.333 0 126.666 -11.833 159.999 -35.5s50 -61.834 50 -114.501h-132c0 23.333 -6.16699 40.166 -18.5 50.499s-32.166 15.5 -59.499 15.5s-47.166 -4.16699 -59.499 -12.5
s-18.5 -22.166 -18.5 -41.499zM407.994 550.001h-93l-65 82l-65 -82h-93l84 150h148z" />
    <glyph glyph-name="Scedilla" unicode="&#x15e;" horiz-adv-x="656" 
d="M279 -19l0.00292969 1.00586c-83.333 4.66699 -144 24.5 -182 59.5s-57 87.833 -57 158.5h148c0 -39.333 11 -67.833 33 -85.5s57.667 -26.5 107 -26.5c46.667 0 80.334 7.33301 101.001 22s31 38 31 70c0 21.333 -7.5 39.5 -22.5 54.5s-34.667 26.667 -59 35
s-51 16 -80 23s-58 15.333 -87 25s-55.667 21.167 -80 34.5s-44 32.166 -59 56.499s-22.5 53.5 -22.5 87.5c0 78.667 22 135.667 66 171s114.667 53 212 53s168 -17.333 212 -52s66 -90.667 66 -168h-148c0 39.333 -10.333 67.833 -31 85.5s-53.667 26.5 -99 26.5
c-43.333 0 -74.5 -7.16699 -93.5 -21.5s-28.5 -37.833 -28.5 -70.5c0 -20.667 10.167 -37.834 30.5 -51.501s45.666 -23.834 75.999 -30.501s63.166 -15.334 98.499 -26.001s68.166 -22.834 98.499 -36.501s55.666 -35.167 75.999 -64.5s30.5 -65 30.5 -107
c0 -74.667 -20.5 -129.834 -61.5 -165.501s-106.833 -54.834 -197.5 -57.501l-8 -31l10 -2.5c4 -1 11.5 -3.83301 22.5 -8.5s20.667 -10 29 -16s15.833 -14.667 22.5 -26s10 -23.666 10 -36.999c0 -34.667 -18.167 -61.667 -54.5 -81s-86.833 -29 -151.5 -29v60
c65.333 0 98 16.667 98 50c0 12.667 -7.83301 22.167 -23.5 28.5s-34.5 9.5 -56.5 9.5z" />
    <glyph glyph-name="scedilla" unicode="&#x15f;" horiz-adv-x="508" 
d="M205 -9l-1.00488 1c-60.667 4 -104.834 18.667 -132.501 44s-41.5 63.333 -41.5 114h140c0 -26.667 6.33301 -46 19 -58s33 -18 61 -18s48.333 5 61 15s19 26.333 19 49c0 19.333 -10.167 34.166 -30.5 44.499s-45.166 18 -74.499 23s-58.666 11.333 -87.999 19
s-54.166 22.334 -74.499 44.001s-30.5 50.834 -30.5 87.501c0 54 17.167 93.167 51.5 117.5s89.833 36.5 166.5 36.5c73.333 0 126.666 -11.833 159.999 -35.5s50 -61.834 50 -114.501h-132c0 23.333 -6.16699 40.166 -18.5 50.499s-32.166 15.5 -59.499 15.5
s-47.166 -4.16699 -59.499 -12.5s-18.5 -22.166 -18.5 -41.499c0 -15.333 7.5 -27.5 22.5 -36.5s33.833 -15.333 56.5 -19s47.334 -8.83398 74.001 -15.501s51.334 -14.5 74.001 -23.5s41.5 -24 56.5 -45s22.5 -47.167 22.5 -78.5c0 -53.333 -15.5 -93 -46.5 -119
s-80.5 -40.667 -148.5 -44l-10 -41l10 -2.5c4 -1 11.5 -3.83301 22.5 -8.5s20.667 -10 29 -16s15.833 -14.667 22.5 -26s10 -23.666 10 -36.999c0 -34.667 -18.167 -61.667 -54.5 -81s-86.833 -29 -151.5 -29v60c65.333 0 98 16.667 98 50
c0 12.667 -7.83301 22.167 -23.5 28.5s-34.5 9.5 -56.5 9.5z" />
    <glyph glyph-name="Scaron" unicode="&#x160;" horiz-adv-x="656" 
d="M206 520c0 -20.667 10.1719 -37.8291 30.5049 -51.4961s45.666 -23.834 75.999 -30.501s63.166 -15.334 98.499 -26.001s68.166 -22.834 98.499 -36.501s55.666 -35.167 75.999 -64.5s30.5 -65 30.5 -107c0 -78.667 -22.833 -135.667 -68.5 -171
s-118.834 -53 -219.501 -53s-173.834 17.333 -219.501 52s-68.5 90.667 -68.5 168h148c0 -39.333 11 -67.833 33 -85.5s57.667 -26.5 107 -26.5c46.667 0 80.334 7.33301 101.001 22s31 38 31 70c0 21.333 -7.5 39.5 -22.5 54.5s-34.667 26.667 -59 35s-51 16 -80 23
s-58 15.333 -87 25s-55.667 21.167 -80 34.5s-44 32.166 -59 56.499s-22.5 53.5 -22.5 87.5c0 78.667 22 135.667 66 171s114.667 53 212 53s168 -17.333 212 -52s66 -90.667 66 -168h-148c0 39.333 -10.333 67.833 -31 85.5s-53.667 26.5 -99 26.5
c-43.333 0 -74.5 -7.16699 -93.5 -21.5s-28.5 -37.833 -28.5 -70.5zM480.005 870.005l-86 -120h-148l-86 120h101l59 -60l59 60h101z" />
    <glyph glyph-name="scaron" unicode="&#x161;" horiz-adv-x="508" 
d="M172 372c0 -15.333 7.49414 -27.499 22.4941 -36.499s33.833 -15.333 56.5 -19s47.334 -8.83398 74.001 -15.501s51.334 -14.5 74.001 -23.5s41.5 -24 56.5 -45s22.5 -47.167 22.5 -78.5c0 -57.333 -18.5 -99 -55.5 -125s-96.167 -39 -177.5 -39
c-75.333 0 -130 12.667 -164 38s-51 66 -51 122h140c0 -26.667 6.33301 -46 19 -58s33 -18 61 -18s48.333 5 61 15s19 26.333 19 49c0 19.333 -10.167 34.166 -30.5 44.499s-45.166 18 -74.499 23s-58.666 11.333 -87.999 19s-54.166 22.334 -74.499 44.001
s-30.5 50.834 -30.5 87.501c0 54 17.167 93.167 51.5 117.5s89.833 36.5 166.5 36.5c73.333 0 126.666 -11.833 159.999 -35.5s50 -61.834 50 -114.501h-132c0 23.333 -6.16699 40.166 -18.5 50.499s-32.166 15.5 -59.499 15.5s-47.166 -4.16699 -59.499 -12.5
s-18.5 -22.166 -18.5 -41.499zM407.994 700.001l-84 -150h-148l-84 150h93l65 -82l65 82h93z" />
    <glyph glyph-name="Tcedilla" unicode="&#x162;" horiz-adv-x="636" 
d="M275 0l-39 -0.000976562v575h-206v125h576v-125h-206v-575h-47l-13 -50l10 -2.5c4 -1 11.5 -3.83301 22.5 -8.5s20.667 -10 29 -16s15.833 -14.667 22.5 -26s10 -23.666 10 -36.999c0 -34.667 -18.167 -61.667 -54.5 -81s-86.833 -29 -151.5 -29v60
c65.333 0 98 16.667 98 50c0 12.667 -7.83301 22.167 -23.5 28.5s-34.5 9.5 -56.5 9.5z" />
    <glyph glyph-name="tcedilla" unicode="&#x163;" horiz-adv-x="442" 
d="M225 5c-33.333 8.66699 -59.167 25.666 -77.5 50.999s-27.5 57.333 -27.5 96v256h-80v92h80v126h149v-126h143v-92h-143v-240c0 -18 5.33301 -32.5 16 -43.5s25.667 -16.5 45 -16.5h82v-108h-111l-13 -50l10 -2.5c4 -1 11.5 -3.83301 22.5 -8.5s20.667 -10 29 -16
s15.833 -14.667 22.5 -26s10 -23.666 10 -36.999c0 -34.667 -18.167 -61.667 -54.5 -81s-86.833 -29 -151.5 -29v60c65.333 0 98 16.667 98 50c0 12.667 -7.83301 22.167 -23.5 28.5s-34.5 9.5 -56.5 9.5z" />
    <glyph glyph-name="Tcaron" unicode="&#x164;" horiz-adv-x="636" 
d="M606 700v-125h-206v-575h-164v575h-206v125h576zM470 870l-86 -120h-148l-86 120h101l59 -60l59 60h101z" />
    <glyph glyph-name="tcaron" unicode="&#x165;" horiz-adv-x="457" 
d="M269 168c0 -18 5.33301 -32.5 16 -43.5s25.667 -16.5 45 -16.5h82v-108h-138c-48.667 0 -86.5 13.5 -113.5 40.5s-40.5 64.167 -40.5 111.5v256h-80v92h80v126h149v-126h143v-92h-143v-240zM365 722c24.667 0 41.166 -7.5 49.499 -22.5s12.5 -35.5 12.5 -61.5
c0 -40 -9.16699 -69 -27.5 -87s-47.166 -27 -86.499 -27v52c16 0 27.5 3.5 34.5 10.5s10.5 18.833 10.5 35.5c-36.667 0 -55 15 -55 45c0 20 5.16699 34.167 15.5 42.5s25.833 12.5 46.5 12.5z" />
    <glyph glyph-name="Utilde" unicode="&#x168;" horiz-adv-x="736" 
d="M70 258v442h165v-442c0 -54 10.5 -93 31.5 -117s54.833 -36 101.5 -36c47.333 0 81.5 12 102.5 36s31.5 63 31.5 117v442h164v-442c0 -97.333 -23.5 -168 -70.5 -212s-122.833 -66 -227.5 -66s-180.5 22 -227.5 66s-70.5 114.667 -70.5 212zM202 760
c0 34 9.66699 60.5 29 79.5s43.666 28.5 72.999 28.5c32 0 61.167 -8.33301 87.5 -25s45.166 -25 56.499 -25c7.33301 0 13.5 3 18.5 9s7.5 13.667 7.5 23h60c0 -34 -9.66699 -60.5 -29 -79.5s-43.666 -28.5 -72.999 -28.5c-32 0 -61.167 8.33301 -87.5 25
s-45.166 25 -56.499 25c-7.33301 0 -13.5 -3 -18.5 -9s-7.5 -13.667 -7.5 -23h-60z" />
    <glyph glyph-name="utilde" unicode="&#x169;" horiz-adv-x="586" 
d="M410 0l1 1.00098l-18 39c-32.667 -33.333 -81.667 -50 -147 -50c-68.667 0 -118.5 19 -149.5 57s-46.5 99 -46.5 183v270h148v-270c0 -46.667 7 -80.334 21 -101.001s36.333 -31 67 -31c61.333 0 92 40 92 120l1 282h147v-500h-116zM123 600.001
c0 34.667 9.99707 64.334 29.9971 89.001s44 37 72 37c19.333 0 36.833 -4 52.5 -12s27.334 -16.833 35.001 -26.5s15.834 -18.667 24.501 -27s16.667 -12.5 24 -12.5s13.5 3.66699 18.5 11s7.5 17.666 7.5 30.999h68c0 -34.667 -10 -64.334 -30 -89.001s-44 -37 -72 -37
c-19.333 0 -36.666 4 -51.999 12s-26.833 17 -34.5 27s-16 19 -25 27s-17.167 12 -24.5 12s-13.5 -3.66699 -18.5 -11s-7.5 -17.666 -7.5 -30.999h-68z" />
    <glyph glyph-name="Umacron" unicode="&#x16a;" horiz-adv-x="736" 
d="M70 258v442h165v-442c0 -54 10.5 -93 31.5 -117s54.833 -36 101.5 -36c47.333 0 81.5 12 102.5 36s31.5 63 31.5 117v442h164v-442c0 -97.333 -23.5 -168 -70.5 -212s-122.833 -66 -227.5 -66s-180.5 22 -227.5 66s-70.5 114.667 -70.5 212zM198 840h340v-84h-340v84z
" />
    <glyph glyph-name="umacron" unicode="&#x16b;" horiz-adv-x="586" 
d="M410 0l1 1.00098l-18 39c-32.667 -33.333 -81.667 -50 -147 -50c-68.667 0 -118.5 19 -149.5 57s-46.5 99 -46.5 183v270h148v-270c0 -46.667 7 -80.334 21 -101.001s36.333 -31 67 -31c61.333 0 92 40 92 120l1 282h147v-500h-116zM119 582.001v84h340v-84h-340z" />
    <glyph glyph-name="Ubreve" unicode="&#x16c;" horiz-adv-x="736" 
d="M70 258v442h165v-442c0 -54 10.5 -93 31.5 -117s54.833 -36 101.5 -36c47.333 0 81.5 12 102.5 36s31.5 63 31.5 117v442h164v-442c0 -97.333 -23.5 -168 -70.5 -212s-122.833 -66 -227.5 -66s-180.5 22 -227.5 66s-70.5 114.667 -70.5 212zM534 870
c0 -42 -13.167 -72.5 -39.5 -91.5s-68.5 -28.5 -126.5 -28.5s-100.167 9.5 -126.5 28.5s-39.5 49.5 -39.5 91.5h108c0 -34 17.667 -51.333 53 -52h5c20.667 0 35.5 4 44.5 12s13.5 21.333 13.5 40h108z" />
    <glyph glyph-name="ubreve" unicode="&#x16d;" horiz-adv-x="586" 
d="M410 0l1 1.00098l-18 39c-32.667 -33.333 -81.667 -50 -147 -50c-68.667 0 -118.5 19 -149.5 57s-46.5 99 -46.5 183v270h148v-270c0 -46.667 7 -80.334 21 -101.001s36.333 -31 67 -31c61.333 0 92 40 92 120l1 282h147v-500h-116zM345 700.001h100.002
c0 -52.667 -13.167 -90.834 -39.5 -114.501s-68.5 -35.5 -126.5 -35.5s-100.167 11.833 -126.5 35.5s-39.5 61.834 -39.5 114.501h100c0 -26 5.16699 -44.833 15.5 -56.5s27.166 -17.5 50.499 -17.5s40.166 5.83301 50.499 17.5s15.5 30.5 15.5 56.5z" />
    <glyph glyph-name="Uring" unicode="&#x16e;" horiz-adv-x="736" 
d="M70 258v442h165v-442c0 -54 10.5 -93 31.5 -117s54.833 -36 101.5 -36c47.333 0 81.5 12 102.5 36s31.5 63 31.5 117v442h164v-442c0 -97.333 -23.5 -168 -70.5 -212s-122.833 -66 -227.5 -66s-180.5 22 -227.5 66s-70.5 114.667 -70.5 212zM368 902
c43.333 0 74.833 -8.33301 94.5 -25s29.5 -43.667 29.5 -81s-9.83301 -64.333 -29.5 -81s-51.167 -25 -94.5 -25s-74.833 8.33301 -94.5 25s-29.5 43.667 -29.5 81s9.83301 64.333 29.5 81s51.167 25 94.5 25zM368 750c17.333 0 29.665 3.5 36.998 10.5s11 18.833 11 35.5
s-3.66699 28.5 -11 35.5s-19.666 10.5 -36.999 10.5s-29.666 -3.5 -36.999 -10.5s-11 -18.833 -11 -35.5c0 -30.667 16 -46 48 -46z" />
    <glyph glyph-name="uring" unicode="&#x16f;" horiz-adv-x="586" 
d="M410 0l1 1.00098l-18 39c-32.667 -33.333 -81.667 -50 -147 -50c-68.667 0 -118.5 19 -149.5 57s-46.5 99 -46.5 183v270h148v-270c0 -46.667 7 -80.334 21 -101.001s36.333 -31 67 -31c61.333 0 92 40 92 120l1 282h147v-500h-116zM271 746.001
c43.333 0 74.833 -8.33301 94.5 -25s29.5 -43.667 29.5 -81s-9.83301 -64.333 -29.5 -81s-51.167 -25 -94.5 -25s-74.833 8.33301 -94.5 25s-29.5 43.667 -29.5 81s9.83301 64.333 29.5 81s51.167 25 94.5 25zM271 594.001c17.333 0 29.666 3.5 36.999 10.5
s11 18.833 11 35.5s-3.66699 28.5 -11 35.5s-19.666 10.5 -36.999 10.5s-29.666 -3.5 -36.999 -10.5s-11 -18.833 -11 -35.5s3.66699 -28.5 11 -35.5s19.666 -10.5 36.999 -10.5z" />
    <glyph glyph-name="Uhungarumlaut" unicode="&#x170;" horiz-adv-x="736" 
d="M70 258v442h165v-442c0 -54 10.5 -93 31.5 -117s54.833 -36 101.5 -36c47.333 0 81.5 12 102.5 36s31.5 63 31.5 117v442h164v-442c0 -97.333 -23.5 -168 -70.5 -212s-122.833 -66 -227.5 -66s-180.5 22 -227.5 66s-70.5 114.667 -70.5 212zM208 750l87 150h141
l-119 -150h-109zM416 750l87 150h141l-118 -150h-110z" />
    <glyph glyph-name="uhungarumlaut" unicode="&#x171;" horiz-adv-x="607" 
d="M410 0l1 1.00098l-18 39c-32.667 -33.333 -81.667 -50 -147 -50c-68.667 0 -118.5 19 -149.5 57s-46.5 99 -46.5 183v270h148v-270c0 -46.667 7 -80.334 21 -101.001s36.333 -31 67 -31c61.333 0 92 40 92 120l1 282h147v-500h-116zM198 700.001h141l-119 -150h-109z
M406 700.001h141l-118 -150h-110z" />
    <glyph glyph-name="Uogonek" unicode="&#x172;" horiz-adv-x="736" 
d="M666 257c0 -74 -13.4961 -132.332 -40.4961 -174.999s-69.167 -72 -126.5 -88c-17.333 -16.667 -30 -34.334 -38 -53.001s-9.33301 -34.5 -4 -47.5s17.666 -19.5 36.999 -19.5c7.33301 0 14.833 1 22.5 3s13.5 4.33301 17.5 7l6 3v-118c-20 -13.333 -43.333 -20 -70 -20
c-36.667 0 -64.834 12.833 -84.501 38.5s-27.334 56.667 -23.001 93s19.833 69.5 46.5 99.5c-8.66699 -0.666992 -22.334 -1 -41.001 -1c-104.667 0 -180.5 22 -227.5 66s-70.5 114.667 -70.5 212v442h165v-442c0 -54 10.5 -93 31.5 -117s54.833 -36 101.5 -36
c47.333 0 81.5 12 102.5 36s31.5 63 31.5 117v442h164v-442z" />
    <glyph glyph-name="uogonek" unicode="&#x173;" horiz-adv-x="586" 
d="M409 1v1.00098l-17 38c-32.667 -33.333 -81.667 -50 -147 -50c-68.667 0 -118.5 19 -149.5 57s-46.5 99 -46.5 183v270h148v-270c0 -46.667 6.83301 -80.334 20.5 -101.001s36.167 -31 67.5 -31c61.333 0 92 40 92 120l1 282h147v-500h-42
c-31.333 -28 -48.333 -56.333 -51 -85c0 -26 13.333 -39.333 40 -40c7.33301 0 14.833 1 22.5 3s13.5 4 17.5 6l6 4v-118c-20 -13.333 -43.333 -20 -70 -20c-39.333 0 -68.833 14.5 -88.5 43.5s-25.167 63.667 -16.5 104s30.667 74.833 66 103.5z" />
    <glyph glyph-name="Wcircumflex" unicode="&#x174;" horiz-adv-x="1012" 
d="M407 700h197h1l103 -542l119 542h165l-171 -700h-214l-107 540l-95 -540h-214l-171 700h165l119 -542zM662 750h-101l-59 60l-59 -60h-101l86 120h148z" />
    <glyph glyph-name="wcircumflex" unicode="&#x175;" horiz-adv-x="864" 
d="M697 0h-182l-83 396l-83 -396h-181l-148 500h149l96 -382l80 382h182l73 -381l96 381h148zM584 550h-93l-65 82l-65 -82h-93l84 150h148z" />
    <glyph glyph-name="Ycircumflex" unicode="&#x176;" horiz-adv-x="664" 
d="M414 268v-268h-156v268l-248 432h181l145 -279l145 279h173zM498 750h-101l-59 60l-58 -60h-102l86 120h149z" />
    <glyph glyph-name="ycircumflex" unicode="&#x177;" horiz-adv-x="536" 
d="M222 2h-1.00098l4 11l-216 487h141l131 -316l104 316h140l-168 -482c-25.333 -69.333 -54.666 -119.666 -87.999 -150.999s-74 -47 -122 -47h-72v92h64c18.667 0 34.5 7.16699 47.5 21.5s24.833 37.166 35.5 68.499zM433.999 550h-93l-65 82l-65 -82h-93l84 150h149z" />
    <glyph glyph-name="Ydieresis" unicode="&#x178;" horiz-adv-x="664" 
d="M414 268v-268h-156v268l-248 432h181l145 -279l145 279h173zM220 874c30 0 51.833 -5.5 65.5 -16.5s20.5 -28.833 20.5 -53.5s-6.83301 -42.5 -20.5 -53.5s-35.5 -16.5 -65.5 -16.5s-51.833 5.5 -65.5 16.5s-20.5 28.833 -20.5 53.5s6.66699 42.5 20 53.5
s35.333 16.5 66 16.5zM456 874c30.667 0 52.834 -5.5 66.501 -16.5s20.5 -28.833 20.5 -53.5s-6.83301 -42.5 -20.5 -53.5s-35.834 -16.5 -66.501 -16.5c-30 0 -51.833 5.5 -65.5 16.5s-20.5 28.833 -20.5 53.5s6.83301 42.5 20.5 53.5s35.5 16.5 65.5 16.5z" />
    <glyph glyph-name="Zacute" unicode="&#x179;" horiz-adv-x="624" 
d="M221 116h373v-116h-564v99l363 485h-353v116h544v-99zM234 750l94 120h142l-119 -120h-117z" />
    <glyph glyph-name="zacute" unicode="&#x17a;" horiz-adv-x="504" 
d="M205 100h269v-100h-444v83l260 317h-250v100h424v-83zM182 550l97 150h149l-128 -150h-118z" />
    <glyph glyph-name="Zdotaccent" unicode="&#x17b;" horiz-adv-x="624" 
d="M221 116h373v-116h-564v99l363 485h-353v116h544v-99zM312 884c30 0 51.833 -5.5 65.5 -16.5s20.5 -28.833 20.5 -53.5s-6.83301 -42.5 -20.5 -53.5s-35.5 -16.5 -65.5 -16.5c-30.667 0 -52.667 5.5 -66 16.5s-20 28.833 -20 53.5s6.66699 42.5 20 53.5
s35.333 16.5 66 16.5z" />
    <glyph glyph-name="zdotaccent" unicode="&#x17c;" horiz-adv-x="504" 
d="M205 100h269v-100h-444v83l260 317h-250v100h424v-83zM252 726c30 0 51.833 -6.16699 65.5 -18.5s20.5 -32.166 20.5 -59.499s-6.83301 -47.166 -20.5 -59.499s-35.5 -18.5 -65.5 -18.5s-51.833 6.16699 -65.5 18.5s-20.5 32.166 -20.5 59.499
s6.83301 47.166 20.5 59.499s35.5 18.5 65.5 18.5z" />
    <glyph glyph-name="Zcaron" unicode="&#x17d;" horiz-adv-x="624" 
d="M221 116h373v-116h-564v99l363 485h-353v116h544v-99zM464 870l-86 -120h-148l-86 120h101l59 -60l58 60h102z" />
    <glyph glyph-name="zcaron" unicode="&#x17e;" horiz-adv-x="504" 
d="M205 100h269v-100h-444v83l260 317h-250v100h424v-83zM410 700l-84 -150h-148l-84 150h93l65 -82l65 82h93z" />
    <glyph glyph-name="Aacutering" unicode="&#x1fa;" horiz-adv-x="692" 
d="M10 0l230 700h72h68h89l213 -700h-173l-41 144h-251l-42 -144h-165zM248 252h1h189l-93 330zM472 960l1 -1l-63 -64c40 -14 60 -40.333 60 -79c0 -28.667 -11 -50.5 -33 -65.5s-52.333 -22.5 -91 -22.5s-69 7.5 -91 22.5s-33 36.833 -33 65.5
c0 27.333 10.333 48.5 31 63.5s49 23.167 85 24.5l40 56h94zM347 779c37.333 0 56 12 56 36s-18.667 36 -56 36s-56 -12 -56 -36s18.667 -36 56 -36z" />
    <glyph glyph-name="aacutering" unicode="&#x1fb;" horiz-adv-x="556" 
d="M373 42c-30.667 -34.667 -82.335 -51.999 -155.002 -51.999c-66 0 -113.833 12.5 -143.5 37.5s-44.5 65.167 -44.5 120.5c0 59.333 19.167 102.5 57.5 129.5s99.833 40.5 184.5 40.5h86v22c0 30 -6.66699 51.833 -20 65.5s-34.666 20.5 -63.999 20.5
s-50.666 -6 -63.999 -18s-19.666 -31.333 -18.999 -58h-141c0 56 18 96.667 54 122s94 38 174 38c79.333 0 137.166 -14.833 173.499 -44.5s54.5 -76.834 54.5 -141.501v-324h-116zM357.999 234.001l-65.002 0.000976562c-17.333 0 -31.666 -0.833008 -42.999 -2.5
s-23.166 -4.83398 -35.499 -9.50098s-21.5 -12.5 -27.5 -23.5s-9 -25.167 -9 -42.5c0 -24 6.16699 -41 18.5 -51s32.833 -15 61.5 -15c38 0 64.167 10 78.5 30s21.5 49.667 21.5 89v25zM341.997 784.002h109l-88 -78c26 -18 39 -43.333 39 -76
c0 -30.667 -11 -54.667 -33 -72s-52.333 -26 -91 -26s-69 8.66699 -91 26s-33 41.333 -33 72s11 54.667 33 72s52.333 26 91 26h13zM277.997 592.002c17.333 0 29.666 3 36.999 9s11 15.667 11 29s-3.66699 23 -11 29s-19.666 9 -36.999 9s-29.666 -3 -36.999 -9
s-11 -15.667 -11 -29s3.66699 -23 11 -29s19.666 -9 36.999 -9z" />
    <glyph glyph-name="AEacute" unicode="&#x1fc;" horiz-adv-x="942" 
d="M912 584h-305v-164h265v-116h-265v-188h305v-116h-454v144h-214l-69 -144h-165l350 700h552v-116zM458 587l-161 -335h161v335zM474 750l94 120h142l-118 -120h-118z" />
    <glyph glyph-name="aeacute" unicode="&#x1fd;" horiz-adv-x="924" 
d="M507 202c4 -41.333 14.665 -71.665 31.998 -90.998s43.333 -29 78 -29c52.667 0 85 24.667 97 74h141c-11.333 -58 -35.666 -100.167 -72.999 -126.5s-92.333 -39.5 -165 -39.5c-100.667 0 -166 37 -196 111c-24.667 -74 -92.334 -111 -203.001 -111
c-66 0 -113.833 12.5 -143.5 37.5s-44.5 65.167 -44.5 120.5c0 56.667 17.167 98.5 51.5 125.5s89.5 41.833 165.5 44.5h111v22c0 27.333 -6.83301 47.166 -20.5 59.499s-36.167 18.5 -67.5 18.5c-28.667 0 -49.167 -5.33301 -61.5 -16s-18.166 -28 -17.499 -52h-141
c0 56 18 96.667 54 122s94 38 174 38c82.667 0 138.667 -22.333 168 -67c34 44.667 90.667 67 170 67c90.667 0 156.334 -20.833 197.001 -62.5s61 -108.834 61 -201.501v-44h-367zM357.998 234.001l-70.002 -0.00195312c-38.667 0 -66.667 -6.16699 -84 -18.5
s-26 -32.166 -26 -59.499c0 -23.333 6.83301 -40.166 20.5 -50.499s35.834 -15.5 66.501 -15.5c32.667 0 56.334 8.33301 71.001 25s22 43.667 22 81v38zM616.996 417.999c-35.333 0 -61.834 -10.501 -79.501 -31.501s-28.167 -54.5 -31.5 -100.5h220
c0.666992 46.667 -7.66602 80.334 -24.999 101.001s-45.333 31 -84 31zM378.995 549.998l97 150h149l-128 -150h-118z" />
    <glyph glyph-name="Oslashacute" unicode="&#x1fe;" horiz-adv-x="795" 
d="M482 714l23 64.001h98l-30 -86c62.667 -22.667 108.667 -62 138 -118s44 -131 44 -225c0 -129.333 -28.333 -223.333 -85 -282s-147.667 -88 -273 -88c-25.333 0 -49 1 -71 3l-22 -63h-100l29 82c-66.667 22 -115.5 61.167 -146.5 117.5s-46.5 133.166 -46.5 230.499
c0 129.333 28.333 223.333 85 282s147.667 88 273 88c27.333 0 55.333 -1.66699 84 -5zM440 591.001c-12.667 2 -26 3 -40 3c-64.667 0 -111.667 -19.333 -141 -58s-44 -101 -44 -187c0 -104.667 22.333 -175 67 -211zM370 106.001c6 -0.666992 15.668 -1 29.001 -1
c65.333 0 112.666 19.333 141.999 58s44 101 44 187c0 98 -19.667 165.667 -59 203zM303.001 750.001l94 120h142l-118 -120h-118z" />
    <glyph glyph-name="oslashacute" unicode="&#x1ff;" horiz-adv-x="595" 
d="M298 510c18.667 0 36.667 -1 54 -3l21 62h68l-26 -74c52 -14.667 90 -42 114 -82s36 -94.667 36 -164c0 -90.667 -21.167 -156.5 -63.5 -197.5s-110.5 -61.5 -204.5 -61.5c-24.667 0 -42.667 0.666992 -54 2l-21 -62h-68l26 74c-52 14.667 -90 42 -114 82
s-36 94.667 -36 164c0 91.333 21.167 157.5 63.5 198.5s110.5 61.5 204.5 61.5zM178 250c0 -64.667 14 -108 42 -130l96 281c-4 0.666992 -10 1 -18 1c-42 0 -72.5 -12 -91.5 -36s-28.5 -62.667 -28.5 -116zM376 379l-96 -280c4 -0.666992 10 -1 18 -1c42 0 72.5 12 91.5 36
s28.5 62.667 28.5 116c0 64 -14 107 -42 129zM196 550l97 150h149l-128 -150h-118z" />
    <glyph glyph-name="Scommaaccent" unicode="&#x218;" horiz-adv-x="656" 
d="M206 520c0 -20.667 10.1719 -37.8291 30.5049 -51.4961s45.666 -23.834 75.999 -30.501s63.166 -15.334 98.499 -26.001s68.166 -22.834 98.499 -36.501s55.666 -35.167 75.999 -64.5s30.5 -65 30.5 -107c0 -78.667 -22.833 -135.667 -68.5 -171
s-118.834 -53 -219.501 -53s-173.834 17.333 -219.501 52s-68.5 90.667 -68.5 168h148c0 -39.333 11 -67.833 33 -85.5s57.667 -26.5 107 -26.5c46.667 0 80.334 7.33301 101.001 22s31 38 31 70c0 21.333 -7.5 39.5 -22.5 54.5s-34.667 26.667 -59 35s-51 16 -80 23
s-58 15.333 -87 25s-55.667 21.167 -80 34.5s-44 32.166 -59 56.499s-22.5 53.5 -22.5 87.5c0 78.667 22 135.667 66 171s114.667 53 212 53s168 -17.333 212 -52s66 -90.667 66 -168h-148c0 39.333 -10.333 67.833 -31 85.5s-53.667 26.5 -99 26.5
c-43.333 0 -74.5 -7.16699 -93.5 -21.5s-28.5 -37.833 -28.5 -70.5zM328.005 -41.9951c24.667 0 41.167 -7.33203 49.5 -21.999s12.5 -35.334 12.5 -62.001c0 -39.333 -9 -67.833 -27 -85.5s-47 -26.5 -87 -26.5v52c30.667 0 46 14.667 46 44c-37.333 0 -56 15 -56 45
c0 36.667 20.667 55 62 55z" />
    <glyph glyph-name="scommaaccent" unicode="&#x219;" horiz-adv-x="508" 
d="M172 372c0 -15.333 7.49414 -27.499 22.4941 -36.499s33.833 -15.333 56.5 -19s47.334 -8.83398 74.001 -15.501s51.334 -14.5 74.001 -23.5s41.5 -24 56.5 -45s22.5 -47.167 22.5 -78.5c0 -57.333 -18.5 -99 -55.5 -125s-96.167 -39 -177.5 -39
c-75.333 0 -130 12.667 -164 38s-51 66 -51 122h140c0 -26.667 6.33301 -46 19 -58s33 -18 61 -18s48.333 5 61 15s19 26.333 19 49c0 19.333 -10.167 34.166 -30.5 44.499s-45.166 18 -74.499 23s-58.666 11.333 -87.999 19s-54.166 22.334 -74.499 44.001
s-30.5 50.834 -30.5 87.501c0 54 17.167 93.167 51.5 117.5s89.833 36.5 166.5 36.5c73.333 0 126.666 -11.833 159.999 -35.5s50 -61.834 50 -114.501h-132c0 23.333 -6.16699 40.166 -18.5 50.499s-32.166 15.5 -59.499 15.5s-47.166 -4.16699 -59.499 -12.5
s-18.5 -22.166 -18.5 -41.499zM249.994 -41.999c24.667 0 41.167 -7.33203 49.5 -21.999s12.5 -35.334 12.5 -62.001c0 -39.333 -9 -67.833 -27 -85.5s-47 -26.5 -87 -26.5v52c30.667 0 46 14.667 46 44c-37.333 0 -56 15 -56 45c0 36.667 20.667 55 62 55z" />
    <glyph glyph-name="uni021A" unicode="&#x21a;" horiz-adv-x="636" 
d="M606 700v-125h-206v-575h-164v575h-206v125h576zM318 -42c24.667 0 41.167 -7.33203 49.5 -21.999s12.5 -35.334 12.5 -62.001c0 -39.333 -9 -67.833 -27 -85.5s-47 -26.5 -87 -26.5v52c30.667 0 46 14.667 46 44c-37.333 0 -56 15 -56 45c0 36.667 20.667 55 62 55z" />
    <glyph glyph-name="uni021B" unicode="&#x21b;" horiz-adv-x="442" 
d="M269 168c0 -18 5.33301 -32.5 16 -43.5s25.667 -16.5 45 -16.5h82v-108h-138c-48.667 0 -86.5 13.5 -113.5 40.5s-40.5 64.167 -40.5 111.5v256h-80v92h80v126h149v-126h143v-92h-143v-240zM250 -42c24.667 0 41.167 -7.33203 49.5 -21.999s12.5 -35.334 12.5 -62.001
c0 -39.333 -9 -67.833 -27 -85.5s-47 -26.5 -87 -26.5v52c30.667 0 46 14.667 46 44c-37.333 0 -56 15 -56 45c0 36.667 20.667 55 62 55z" />
    <glyph glyph-name="circumflex" unicode="&#x2c6;" horiz-adv-x="376" 
d="M262 700l84 -150h-93l-65 82l-65 -82h-93l84 150h148z" />
    <glyph glyph-name="caron" unicode="&#x2c7;" horiz-adv-x="376" 
d="M346 700l-84 -150h-148l-84 150h93l65 -82l65 82h93z" />
    <glyph glyph-name="breve" unicode="&#x2d8;" horiz-adv-x="392" 
d="M262 700h100.002c0 -52.667 -13.167 -90.834 -39.5 -114.501s-68.5 -35.5 -126.5 -35.5s-100.167 11.833 -126.5 35.5s-39.5 61.834 -39.5 114.501h100c0 -26 5.16699 -44.833 15.5 -56.5s27.166 -17.5 50.499 -17.5s40.166 5.83301 50.499 17.5s15.5 30.5 15.5 56.5z
" />
    <glyph glyph-name="dotaccent" unicode="&#x2d9;" horiz-adv-x="232" 
d="M116 740c30 0 51.833 -6.16699 65.5 -18.5s20.5 -32.166 20.5 -59.499s-6.83301 -47.166 -20.5 -59.499s-35.5 -18.5 -65.5 -18.5s-51.833 6.16699 -65.5 18.5s-20.5 32.166 -20.5 59.499s6.83301 47.166 20.5 59.499s35.5 18.5 65.5 18.5z" />
    <glyph glyph-name="ring" unicode="&#x2da;" horiz-adv-x="308" 
d="M154 726c43.333 0 74.833 -8.33301 94.5 -25s29.5 -43.667 29.5 -81s-9.83301 -64.333 -29.5 -81s-51.167 -25 -94.5 -25s-74.833 8.33301 -94.5 25s-29.5 43.667 -29.5 81s9.83301 64.333 29.5 81s51.167 25 94.5 25zM154 574c17.333 0 29.666 3.5 36.999 10.5
s11 18.833 11 35.5s-3.66699 28.5 -11 35.5s-19.666 10.5 -36.999 10.5s-29.666 -3.5 -36.999 -10.5s-11 -18.833 -11 -35.5s3.66699 -28.5 11 -35.5s19.666 -10.5 36.999 -10.5z" />
    <glyph glyph-name="ogonek" unicode="&#x2db;" horiz-adv-x="238" 
d="M118 16l76.001 -0.00195312c-36 -23.333 -58.667 -51.666 -68 -84.999c-8.66699 -30 -1.66699 -48 21 -54c4 -1.33301 9 -2 15 -2c7.33301 0 14.833 1 22.5 3s13.5 4 17.5 6l6 4v-118c-20 -13.333 -43.333 -20 -70 -20c-31.333 0 -56.666 9.83301 -75.999 29.5
s-30.333 43.334 -33 71.001s3.66602 57 18.999 88s38.666 56.833 69.999 77.5z" />
    <glyph glyph-name="tilde" unicode="&#x2dc;" horiz-adv-x="392" 
d="M30 600c0 34.667 10.0029 64.334 30.0029 89.001s44 37 72 37c19.333 0 36.666 -4 51.999 -12s26.833 -16.833 34.5 -26.5s16 -18.667 25 -27s17.167 -12.5 24.5 -12.5s13.5 3.66699 18.5 11s7.5 17.666 7.5 30.999h68c0 -34.667 -10 -64.334 -30 -89.001
s-44 -37 -72 -37c-19.333 0 -36.833 4 -52.5 12s-27.334 17 -35.001 27s-15.834 19 -24.501 27s-16.667 12 -24 12s-13.5 -3.66699 -18.5 -11s-7.5 -17.666 -7.5 -30.999h-68z" />
    <glyph glyph-name="hungarumlaut" unicode="&#x2dd;" horiz-adv-x="497" 
d="M30 550l87 150h141l-119 -150h-109zM238 550l87 150h142l-119 -150h-110z" />
    <glyph glyph-name="Wgrave" unicode="&#x1e80;" horiz-adv-x="1012" 
d="M407 700h197h1l103 -542l119 542h165l-171 -700h-214l-107 540l-95 -540h-214l-171 700h165l119 -542zM572 750h-110l-126 120h134z" />
    <glyph glyph-name="wgrave" unicode="&#x1e81;" horiz-adv-x="864" 
d="M697 0h-182l-83 396l-83 -396h-181l-148 500h149l96 -382l80 382h182l73 -381l96 381h148zM496 550h-117l-129 150h150z" />
    <glyph glyph-name="Wacute" unicode="&#x1e82;" horiz-adv-x="1012" 
d="M407 700h197h1l103 -542l119 542h165l-171 -700h-214l-107 540l-95 -540h-214l-171 700h165l119 -542zM432 750l94 120h142l-118 -120h-118z" />
    <glyph glyph-name="wacute" unicode="&#x1e83;" horiz-adv-x="864" 
d="M697 0h-182l-83 396l-83 -396h-181l-148 500h149l96 -382l80 382h182l73 -381l96 381h148zM348 550l97 150h150l-129 -150h-118z" />
    <glyph glyph-name="Wdieresis" unicode="&#x1e84;" horiz-adv-x="1012" 
d="M407 700h197h1l103 -542l119 542h165l-171 -700h-214l-107 540l-95 -540h-214l-171 700h165l119 -542zM384 874c30 0 51.833 -5.5 65.5 -16.5s20.5 -28.833 20.5 -53.5s-6.83301 -42.5 -20.5 -53.5s-35.834 -16.5 -66.501 -16.5c-30 0 -51.833 5.5 -65.5 16.5
s-20.5 28.833 -20.5 53.5s6.83301 42.5 20.5 53.5s35.834 16.5 66.501 16.5zM620 874c30 0 52 -5.5 66 -16.5s21 -28.833 21 -53.5s-7 -42.5 -21 -53.5s-36 -16.5 -66 -16.5s-51.833 5.5 -65.5 16.5s-20.5 28.833 -20.5 53.5s6.83301 42.5 20.5 53.5s35.5 16.5 65.5 16.5z
" />
    <glyph glyph-name="wdieresis" unicode="&#x1e85;" horiz-adv-x="864" 
d="M697 0h-182l-83 396l-83 -396h-181l-148 500h149l96 -382l80 382h182l73 -381l96 381h148zM314 728c30 0 51.833 -6.5 65.5 -19.5s20.5 -33.833 20.5 -62.5s-6.83301 -49.5 -20.5 -62.5s-35.5 -19.5 -65.5 -19.5c-30.667 0 -52.667 6.33301 -66 19s-20 33.667 -20 63
c0 28.667 6.83301 49.5 20.5 62.5s35.5 19.5 65.5 19.5zM534 728c30.667 0 52.834 -6.5 66.501 -19.5s20.5 -33.833 20.5 -62.5s-6.83301 -49.5 -20.5 -62.5s-35.834 -19.5 -66.501 -19.5c-30 0 -51.833 6.5 -65.5 19.5s-20.5 33.833 -20.5 62.5s6.83301 49.5 20.5 62.5
s35.5 19.5 65.5 19.5z" />
    <glyph glyph-name="uni1E9E" unicode="&#x1e9e;" horiz-adv-x="665" 
d="M334 720c38 0 71.168 -2.5 99.501 -7.5s55.333 -14 81 -27s45.334 -32.5 59.001 -58.5s20.5 -58.333 20.5 -97c0 -36 -8.66699 -64.667 -26 -86s-45 -38.333 -83 -51c49.333 -13.333 85 -34.666 107 -63.999s33 -69.666 33 -120.999
c0 -72.667 -16.833 -125.5 -50.5 -158.5s-87.167 -49.5 -160.5 -49.5c-16.667 0 -34 1.66699 -52 5s-32 6.66602 -42 9.99902l-14 5v100c24 -8 46.667 -12 68 -12c35.333 0 61.166 8.66699 77.499 26s24.5 44.666 24.5 81.999c0 78.667 -50 118 -150 118v102
c45.333 0 78 6.5 98 19.5s30 34.5 30 64.5c0 32 -8.83301 55.333 -26.5 70s-46.167 22 -85.5 22c-43.333 0 -74.833 -10.667 -94.5 -32s-29.5 -53.333 -29.5 -96v-484h-148v472c0 85.333 22.167 148 66.5 188s110.166 60 197.499 60z" />
    <glyph glyph-name="Ygrave" unicode="&#x1ef2;" horiz-adv-x="664" 
d="M414 268v-268h-156v268l-248 432h181l145 -279l145 279h173zM408 750h-109l-127 120h134z" />
    <glyph glyph-name="ygrave" unicode="&#x1ef3;" horiz-adv-x="536" 
d="M222 2h-1.00098l4 11l-216 487h141l131 -316l104 316h140l-168 -482c-25.333 -69.333 -54.666 -119.666 -87.999 -150.999s-74 -47 -122 -47h-72v92h64c18.667 0 34.5 7.16699 47.5 21.5s24.833 37.166 35.5 68.499zM345.999 550h-117l-129 150h150z" />
    <glyph glyph-name="endash" unicode="&#x2013;" horiz-adv-x="580" 
d="M550 320v-108h-520v108h520z" />
    <glyph glyph-name="emdash" unicode="&#x2014;" horiz-adv-x="800" 
d="M770 320v-108h-740v108h740z" />
    <glyph glyph-name="quoteleft" unicode="&#x2018;" horiz-adv-x="232" 
d="M124 373c-38 0 -63.167 11.834 -75.5 35.501s-18.5 56.167 -18.5 97.5c0 68 12.833 117.333 38.5 148s66.834 46 123.501 46v-68c-24.667 0 -42.5 -7.33301 -53.5 -22s-16.167 -38.667 -15.5 -72c27.333 0 47.333 -6.5 60 -19.5s19 -33.5 19 -61.5
c0 -28.667 -5.83301 -49.834 -17.5 -63.501s-31.834 -20.5 -60.501 -20.5z" />
    <glyph glyph-name="quoteright" unicode="&#x2019;" horiz-adv-x="232" 
d="M108 710c38 0 63.167 -11.834 75.5 -35.501s18.5 -56.167 18.5 -97.5c0 -67.333 -12.833 -116.5 -38.5 -147.5s-66.834 -46.5 -123.501 -46.5v68c24.667 0 42.5 7.5 53.5 22.5s16.167 39.167 15.5 72.5c-27.333 0 -47.333 6.33301 -60 19s-19 33 -19 61
c0 28.667 5.83301 49.834 17.5 63.501s31.834 20.5 60.501 20.5z" />
    <glyph glyph-name="quotesinglbase" unicode="&#x201a;" horiz-adv-x="232" 
d="M108 155c38 0 63.168 -11.834 75.501 -35.501s18.5 -56.167 18.5 -97.5c0 -68 -12.833 -117.333 -38.5 -148s-66.834 -46 -123.501 -46v67c24.667 0 42.5 7.5 53.5 22.5s16.167 39.167 15.5 72.5c-27.333 0 -47.333 6.33301 -60 19s-19 33.334 -19 62.001
c0 28 6 49 18 63s32 21 60 21z" />
    <glyph glyph-name="quotedblleft" unicode="&#x201c;" horiz-adv-x="463" 
d="M124 373c-38 0 -63.167 11.834 -75.5 35.501s-18.5 56.167 -18.5 97.5c0 68 12.833 117.333 38.5 148s66.834 46 123.501 46v-68c-24.667 0 -42.5 -7.33301 -53.5 -22s-16.167 -38.667 -15.5 -72c27.333 0 47.333 -6.5 60 -19.5s19 -33.5 19 -61.5
c0 -28.667 -5.83301 -49.834 -17.5 -63.501s-31.834 -20.5 -60.501 -20.5zM355 373.001c-38 0 -63.166 11.833 -75.499 35.5s-18.5 56.167 -18.5 97.5c0 68 12.833 117.333 38.5 148s66.834 46 123.501 46l-1 -68c-24.667 0 -42.334 -7.33301 -53.001 -22
s-16 -38.667 -16 -72c27.333 0 47.5 -6.5 60.5 -19.5s19.5 -33.5 19.5 -61.5s-5.83301 -49 -17.5 -63s-31.834 -21 -60.501 -21z" />
    <glyph glyph-name="quotedblright" unicode="&#x201d;" horiz-adv-x="463" 
d="M108 710c38 0 63.166 -11.834 75.499 -35.501s18.5 -56.167 18.5 -97.5c0 -67.333 -12.833 -116.5 -38.5 -147.5s-66.834 -46.5 -123.501 -46.5v68c24.667 0 42.5 7.5 53.5 22.5s16.167 39.167 15.5 72.5c-27.333 0 -47.166 6.33301 -59.499 19s-18.833 33 -19.5 61
c0 28.667 5.83301 49.834 17.5 63.501s31.834 20.5 60.501 20.5zM337.999 709.999c20 0 36.667 -3.50098 50 -10.501s23 -17.5 29 -31.5s10.167 -27.833 12.5 -41.5s3.5 -30.167 3.5 -49.5c0 -67.333 -13 -116.5 -39 -147.5s-67.333 -46.5 -124 -46.5v68
c24.667 0 42.5 7.5 53.5 22.5s16.5 39.167 16.5 72.5c-27.333 0 -47.333 6.33301 -60 19s-19 33 -19 61c0 28.667 5.66699 49.834 17 63.501s31.333 20.5 60 20.5z" />
    <glyph glyph-name="quotedblbase" unicode="&#x201e;" horiz-adv-x="463" 
d="M108 155c38 0 63.167 -11.834 75.5 -35.501s18.5 -56.167 18.5 -97.5c0 -68 -12.833 -117.333 -38.5 -148s-66.834 -46 -123.501 -46v67c24.667 0 42.5 7.5 53.5 22.5s16.167 39.167 15.5 72.5c-27.333 0 -47.166 6.33301 -59.499 19s-18.833 33.334 -19.5 62.001
c0 28 6 49 18 63s32 21 60 21zM338 154.999c20 0 36.667 -3.66797 50 -11.001s23 -17.833 29 -31.5s10.167 -27.5 12.5 -41.5s3.5 -30.333 3.5 -49c0 -68 -12.833 -117.333 -38.5 -148s-67.167 -46 -124.5 -46v67c24.667 0 42.5 7.5 53.5 22.5s16.5 39.167 16.5 72.5
c-27.333 0 -47.333 6.33301 -60 19s-19 33.334 -19 62.001c0 28 5.66699 49 17 63s31.333 21 60 21z" />
    <glyph glyph-name="ellipsis" unicode="&#x2026;" horiz-adv-x="774" 
d="M116 156c30 0 51.833 -6.5 65.5 -19.5s20.5 -33.833 20.5 -62.5s-6.83301 -49.5 -20.5 -62.5s-35.5 -19.5 -65.5 -19.5s-51.833 6.5 -65.5 19.5s-20.5 33.833 -20.5 62.5s6.83301 49.5 20.5 62.5s35.5 19.5 65.5 19.5zM387 156c30 0 51.833 -6.5 65.5 -19.5
s20.5 -33.833 20.5 -62.5s-6.83301 -49.5 -20.5 -62.5s-35.5 -19.5 -65.5 -19.5c-30.667 0 -52.667 6.33301 -66 19s-20 33.667 -20 63c0 28.667 6.83301 49.5 20.5 62.5s35.5 19.5 65.5 19.5zM658 156c30 0 51.833 -6.5 65.5 -19.5s20.5 -33.833 20.5 -62.5
s-6.83301 -49.5 -20.5 -62.5s-35.834 -19.5 -66.501 -19.5c-30 0 -51.833 6.5 -65.5 19.5s-20.5 33.833 -20.5 62.5s6.83301 49.5 20.5 62.5s35.834 19.5 66.501 19.5z" />
    <glyph glyph-name="perthousand" unicode="&#x2030;" horiz-adv-x="1291" 
d="M684 390c61.333 0 105.666 -15.667 132.999 -47s41 -81.666 41 -150.999s-13.667 -119.666 -41 -150.999s-71.666 -47 -132.999 -47s-105.666 15.667 -132.999 47s-41 81.666 -41 150.999s13.667 119.666 41 150.999s71.666 47 132.999 47zM684 78
c23.333 0 40.166 9 50.499 27s15.5 47 15.5 87s-5.16699 69 -15.5 87s-26.833 27 -49.5 27c-23.333 0 -40.166 -9 -50.499 -27s-15.5 -47 -15.5 -87s5.16699 -69 15.5 -87s26.833 -27 49.5 -27zM1086 390c61.333 0 105.833 -15.667 133.5 -47s41.5 -81.666 41.5 -150.999
s-13.833 -119.666 -41.5 -150.999s-72.167 -47 -133.5 -47c-60.667 0 -104.834 15.667 -132.501 47s-41.5 81.666 -41.5 150.999s13.833 119.666 41.5 150.999s71.834 47 132.501 47zM1086 78c23.333 0 40.166 9 50.499 27s15.5 47 15.5 87s-5.16699 69 -15.5 87
s-26.833 27 -49.5 27c-23.333 0 -40.166 -9 -50.499 -27s-15.5 -47 -15.5 -87s5.16699 -69 15.5 -87s26.833 -27 49.5 -27zM204 710c61.333 0 105.666 -15.667 132.999 -47s41 -81.666 41 -150.999s-13.667 -119.666 -41 -150.999s-71.666 -47 -132.999 -47
s-105.666 15.667 -132.999 47s-41 81.666 -41 150.999s13.667 119.666 41 150.999s71.666 47 132.999 47zM204 398c23.333 0 40.166 9 50.499 27s15.5 47 15.5 87s-5.16699 69 -15.5 87s-27.166 27 -50.499 27s-40.166 -9 -50.499 -27s-15.5 -47 -15.5 -87
s5.16699 -69 15.5 -87s27.166 -27 50.499 -27zM291 -30h-134l440 760h134z" />
    <glyph glyph-name="guilsinglleft" unicode="&#x2039;" horiz-adv-x="329" 
d="M157 450h142l-120 -190l120 -200h-142l-127 200z" />
    <glyph glyph-name="guilsinglright" unicode="&#x203a;" horiz-adv-x="329" 
d="M30 450h141l128 -190l-128 -200h-141l119 200z" />
    <glyph glyph-name="lira" unicode="&#x20a4;" horiz-adv-x="656" 
d="M174 116h452v-116h-586v134c44.667 16 73.334 50 86.001 102h-86v76h90v46h-90v76h90v66c-0.666992 77.333 17.166 133.333 53.499 168s95.166 52 176.499 52c82.667 0 142.667 -17.5 180 -52.5s56 -90.833 56 -167.5h-141c0.666992 42 -6 72.5 -20 91.5
s-36.333 28.5 -67 28.5c-31.333 0 -54.166 -9.5 -68.499 -28.5s-21.5 -49.5 -21.5 -91.5v-66h238v-76h-238v-46h238v-76h-241c-4.66699 -30 -15 -54.5 -31 -73.5s-39.333 -34.5 -70 -46.5z" />
    <glyph glyph-name="Euro" unicode="&#x20ac;" horiz-adv-x="857" 
d="M652 240l-0.00195312 -0.998047h165c-19.333 -91.333 -55.666 -157.333 -108.999 -198s-129.666 -61 -228.999 -61c-109.333 0 -192.833 21.333 -250.5 64s-93.5 110.334 -107.5 203.001h-91v76h84v27v28h-84v76h91c14 92 49.833 159.333 107.5 202
s140.834 64 249.501 64c106 0 185.667 -20.5 239 -61.5s86.333 -107.167 99 -198.5h-165c-8 47.333 -25.667 81.666 -53 102.999s-67.333 32 -120 32c-52 0 -92.667 -11.333 -122 -34s-49.333 -58.334 -60 -107.001h244v-76h-253v-28v-26h214v-76h-205
c10.667 -49.333 30.834 -85.5 60.501 -108.5s70.5 -34.5 122.5 -34.5c51.333 0 90.666 10.667 117.999 32s45.666 55.666 54.999 102.999z" />
    <glyph glyph-name="trademark" unicode="&#x2122;" horiz-adv-x="1266" 
d="M478 700v-116h-154v-384h-140v384h-154v116h448zM550 200v500h190l132 -349l132 349h182v-500h-140v325l-128 -325h-100l-128 325v-325h-140z" />
    <glyph glyph-name="minus" unicode="&#x2212;" horiz-adv-x="390" 
d="M360 212h-330v108h330v-108z" />
    <glyph glyph-name="approxequal" unicode="&#x2248;" horiz-adv-x="660" 
d="M30 124l-0.00195312 101c27.333 26.667 56.333 44.167 87 52.5s60.334 9 89.001 2s57.834 -17 87.501 -30l88 -39.5c29 -13.333 57.333 -23.833 85 -31.5s55.667 -8 84 -1s54.833 22.833 79.5 47.5v-101c-27.333 -26.667 -56.333 -44.167 -87 -52.5
s-60.334 -9.16602 -89.001 -2.49902s-57.834 16.5 -87.501 29.5l-88.5 39.5c-29.333 13.333 -57.666 23.833 -84.999 31.5s-55.166 8.16699 -83.499 1.5s-54.833 -22.334 -79.5 -47.001zM29.998 320l-0.00195312 102c27.333 26.667 56.333 44 87 52s60.334 8.5 89.001 1.5
s57.834 -17 87.501 -30l88 -39.5c29 -13.333 57.333 -23.833 85 -31.5s55.667 -8 84 -1s54.833 22.833 79.5 47.5v-101c-27.333 -26.667 -56.333 -44.167 -87 -52.5s-60.334 -9.16602 -89.001 -2.49902s-57.834 16.5 -87.501 29.5l-88.5 39.5
c-29.333 13.333 -57.666 23.833 -84.999 31.5s-55.166 8.16699 -83.499 1.5s-54.833 -22.334 -79.5 -47.001z" />
    <glyph glyph-name="notequal" unicode="&#x2260;" horiz-adv-x="644" 
d="M188 0l41 114h-199v108h238l31 86h-269v108h308l30 84h84l-30 -84h192v-108h-231l-31 -86h262v-108h-301l-41 -114h-84z" />
    <glyph glyph-name="lessequal" unicode="&#x2264;" horiz-adv-x="460" 
d="M30 0v116h400v-116h-400zM30 525l400 175v-133l-267 -117l267 -117v-133l-400 175v150z" />
    <glyph glyph-name="greaterequal" unicode="&#x2265;" horiz-adv-x="460" 
d="M30 0v116h400v-116h-400zM30 700l400 -175v-150l-400 -175v133l267 117l-267 117v133z" />
    <glyph glyph-name="uniE132" unicode="&#xe132;" horiz-adv-x="533" 
d="M202 0h-148v500h148v-500zM269 -72c19.333 0 34.333 5.5 45 16.5s16 25.5 16 43.5v512h149v-528c0 -47.333 -13.5 -84.5 -40.5 -111.5s-64.833 -40.5 -113.5 -40.5h-135v108h79zM50 550l97 150h149l-128 -150h-118zM326 550l97 150h150l-129 -150h-118z" />
    <glyph glyph-name="uniE133" unicode="&#xe133;" horiz-adv-x="905" 
d="M80 700h164v-700h-164v700zM346 210l-0.000976562 34.002h157v-34c0 -36.667 6.33301 -63.334 19 -80.001s33.334 -25 62.001 -25c29.333 0 50.333 8.16699 63 24.5s19 43.166 19 80.499v490h165v-490c0 -78 -19.667 -135.833 -59 -173.5s-102 -56.5 -188 -56.5
c-82 0 -142.167 18.833 -180.5 56.5s-57.5 95.5 -57.5 173.5zM91.999 750.002l95 120h142l-119 -120h-118zM677.999 750.002l95 120h142l-119 -120h-118z" />
    <glyph glyph-name=".null" horiz-adv-x="0" 
 />
    <glyph glyph-name="nonmarkingreturn" horiz-adv-x="333" 
 />
    <glyph glyph-name="a.alt1" horiz-adv-x="606" 
d="M248 -10c-76.667 0 -132.167 20.5 -166.5 61.5s-51.5 107.167 -51.5 198.5s17.167 157.5 51.5 198.5s89.833 61.5 166.5 61.5c72.667 0 126.334 -18.667 161.001 -56l21 46h116v-500h-116l-21 46c-34.667 -37.333 -88.334 -56 -161.001 -56zM288 98
c38.667 0 66.667 12 84 36s26 62.667 26 116s-8.66699 92 -26 116s-45.333 36 -84 36s-66.667 -12 -84 -36s-26 -62.667 -26 -116s8.66699 -92 26 -116s45.333 -36 84 -36z" />
    <glyph glyph-name="aacute.alt1" horiz-adv-x="606" 
d="M248 -10c-76.667 0 -132.167 20.5 -166.5 61.5s-51.5 107.167 -51.5 198.5s17.167 157.5 51.5 198.5s89.833 61.5 166.5 61.5c72.667 0 126.334 -18.667 161.001 -56l21 46h116v-500h-116l-21 46c-34.667 -37.333 -88.334 -56 -161.001 -56zM288 98
c38.667 0 66.667 12 84 36s26 62.667 26 116s-8.66699 92 -26 116s-45.333 36 -84 36s-66.667 -12 -84 -36s-26 -62.667 -26 -116s8.66699 -92 26 -116s45.333 -36 84 -36zM319 700h149l-128 -150h-118z" />
    <glyph glyph-name="aacutering.alt1" horiz-adv-x="606" 
d="M248 -10c-76.667 0 -132.167 20.5 -166.5 61.5s-51.5 107.167 -51.5 198.5s17.167 157.5 51.5 198.5s89.833 61.5 166.5 61.5c72.667 0 126.334 -18.667 161.001 -56l21 46h116v-500h-116l-21 46c-34.667 -37.333 -88.334 -56 -161.001 -56zM288 98
c38.667 0 66.667 12 84 36s26 62.667 26 116s-8.66699 92 -26 116s-45.333 36 -84 36s-66.667 -12 -84 -36s-26 -62.667 -26 -116s8.66699 -92 26 -116s45.333 -36 84 -36zM372 780h109l-88 -78c26 -18 39 -43.333 39 -76c0 -30 -11 -53.833 -33 -71.5
s-52.333 -26.5 -91 -26.5s-69 8.83301 -91 26.5s-33 41.5 -33 71.5c0 30.667 11 54.667 33 72s52.333 26 91 26h13zM308 588c17.333 0 29.666 3 36.999 9s11 15.667 11 29s-3.66699 23 -11 29s-19.666 9 -36.999 9s-29.666 -3 -36.999 -9s-11 -15.667 -11 -29
s3.66699 -23 11 -29s19.666 -9 36.999 -9z" />
    <glyph glyph-name="abreve.alt1" horiz-adv-x="606" 
d="M248 -10c-76.667 0 -132.167 20.5 -166.5 61.5s-51.5 107.167 -51.5 198.5s17.167 157.5 51.5 198.5s89.833 61.5 166.5 61.5c72.667 0 126.334 -18.667 161.001 -56l21 46h116v-500h-116l-21 46c-34.667 -37.333 -88.334 -56 -161.001 -56zM288 98
c38.667 0 66.667 12 84 36s26 62.667 26 116s-8.66699 92 -26 116s-45.333 36 -84 36s-66.667 -12 -84 -36s-26 -62.667 -26 -116s8.66699 -92 26 -116s45.333 -36 84 -36zM374 700h100.002c0 -52.667 -13.167 -90.834 -39.5 -114.501s-68.5 -35.5 -126.5 -35.5
s-100.167 11.833 -126.5 35.5s-39.5 61.834 -39.5 114.501h100c0 -26 5.16699 -44.833 15.5 -56.5s27.166 -17.5 50.499 -17.5s40.166 5.83301 50.499 17.5s15.5 30.5 15.5 56.5z" />
    <glyph glyph-name="acircumflex.alt1" horiz-adv-x="606" 
d="M248 -10c-76.667 0 -132.167 20.5 -166.5 61.5s-51.5 107.167 -51.5 198.5s17.167 157.5 51.5 198.5s89.833 61.5 166.5 61.5c72.667 0 126.334 -18.667 161.001 -56l21 46h116v-500h-116l-21 46c-34.667 -37.333 -88.334 -56 -161.001 -56zM288 98
c38.667 0 66.667 12 84 36s26 62.667 26 116s-8.66699 92 -26 116s-45.333 36 -84 36s-66.667 -12 -84 -36s-26 -62.667 -26 -116s8.66699 -92 26 -116s45.333 -36 84 -36zM382 700l84 -150h-93l-65 82l-65 -82h-93l84 150h148z" />
    <glyph glyph-name="acute.case" horiz-adv-x="296" 
d="M30 550l94 120h142l-118 -120h-118z" />
    <glyph glyph-name="adieresis.alt1" horiz-adv-x="606" 
d="M248 -10c-76.667 0 -132.167 20.5 -166.5 61.5s-51.5 107.167 -51.5 198.5s17.167 157.5 51.5 198.5s89.833 61.5 166.5 61.5c72.667 0 126.334 -18.667 161.001 -56l21 46h116v-500h-116l-21 46c-34.667 -37.333 -88.334 -56 -161.001 -56zM288 98
c38.667 0 66.667 12 84 36s26 62.667 26 116s-8.66699 92 -26 116s-45.333 36 -84 36s-66.667 -12 -84 -36s-26 -62.667 -26 -116s8.66699 -92 26 -116s45.333 -36 84 -36zM198 728c30 0 51.833 -6.5 65.5 -19.5s20.5 -33.833 20.5 -62.5s-6.83301 -49.5 -20.5 -62.5
s-35.5 -19.5 -65.5 -19.5c-30.667 0 -52.667 6.33301 -66 19s-20 33.667 -20 63s6.66699 50.333 20 63s35.333 19 66 19zM418 728c30.667 0 52.833 -6.5 66.5 -19.5s20.5 -33.833 20.5 -62.5s-7 -49.5 -21 -62.5s-36 -19.5 -66 -19.5s-51.833 6.5 -65.5 19.5
s-20.5 33.833 -20.5 62.5s6.83301 49.5 20.5 62.5s35.5 19.5 65.5 19.5z" />
    <glyph glyph-name="agrave.alt1" horiz-adv-x="606" 
d="M248 -10c-76.667 0 -132.167 20.5 -166.5 61.5s-51.5 107.167 -51.5 198.5s17.167 157.5 51.5 198.5s89.833 61.5 166.5 61.5c72.667 0 126.334 -18.667 161.001 -56l21 46h116v-500h-116l-21 46c-34.667 -37.333 -88.334 -56 -161.001 -56zM288 98
c38.667 0 66.667 12 84 36s26 62.667 26 116s-8.66699 92 -26 116s-45.333 36 -84 36s-66.667 -12 -84 -36s-26 -62.667 -26 -116s8.66699 -92 26 -116s45.333 -36 84 -36zM257 700l97 -150h-118l-128 150h149z" />
    <glyph glyph-name="amacron.alt1" horiz-adv-x="606" 
d="M248 -10c-76.667 0 -132.167 20.5 -166.5 61.5s-51.5 107.167 -51.5 198.5s17.167 157.5 51.5 198.5s89.833 61.5 166.5 61.5c72.667 0 126.334 -18.667 161.001 -56l21 46h116v-500h-116l-21 46c-34.667 -37.333 -88.334 -56 -161.001 -56zM288 98
c38.667 0 66.667 12 84 36s26 62.667 26 116s-8.66699 92 -26 116s-45.333 36 -84 36s-66.667 -12 -84 -36s-26 -62.667 -26 -116s8.66699 -92 26 -116s45.333 -36 84 -36zM138 588v84h340v-84h-340z" />
    <glyph glyph-name="aogonek.alt1" horiz-adv-x="606" 
d="M428 6h-1l-18 40c-34.667 -37.333 -88.334 -56 -161.001 -56c-76.667 0 -132.167 20.5 -166.5 61.5s-51.5 107.167 -51.5 198.5s17.167 157.5 51.5 198.5s89.833 61.5 166.5 61.5c72.667 0 126.334 -18.667 161.001 -56l21 46h116v-500h-50
c-31.333 -28 -48.333 -56.333 -51 -85c0 -26 13.333 -39.333 40 -40c7.33301 0 14.833 1 22.5 3s13.5 4 17.5 6l6 4v-118c-20 -13.333 -43.333 -20 -70 -20c-40 0 -69.833 15 -89.5 45s-24.5 65.5 -14.5 106.5s33.667 75.833 71 104.5zM289 98c38.667 0 66.667 12 84 36
s26 62.667 26 116s-8.66699 92 -26 116s-45.333 36 -84 36s-66.667 -12 -84 -36s-26 -62.667 -26 -116s8.66699 -92 26 -116s45.333 -36 84 -36z" />
    <glyph glyph-name="aring.alt1" horiz-adv-x="606" 
d="M248 -10c-76.667 0 -132.167 20.5 -166.5 61.5s-51.5 107.167 -51.5 198.5s17.167 157.5 51.5 198.5s89.833 61.5 166.5 61.5c72.667 0 126.334 -18.667 161.001 -56l21 46h116v-500h-116l-21 46c-34.667 -37.333 -88.334 -56 -161.001 -56zM288 98
c38.667 0 66.667 12 84 36s26 62.667 26 116s-8.66699 92 -26 116s-45.333 36 -84 36s-66.667 -12 -84 -36s-26 -62.667 -26 -116s8.66699 -92 26 -116s45.333 -36 84 -36zM308 746c43.333 0 74.833 -8.33301 94.5 -25s29.5 -43.667 29.5 -81s-9.83301 -64.333 -29.5 -81
s-51.167 -25 -94.5 -25s-74.833 8.33301 -94.5 25s-29.5 43.667 -29.5 81s9.83301 64.333 29.5 81s51.167 25 94.5 25zM308 594c17.333 0 29.666 3.5 36.999 10.5s11 18.833 11 35.5s-3.66699 28.5 -11 35.5s-19.666 10.5 -36.999 10.5s-29.666 -3.5 -36.999 -10.5
s-11 -18.833 -11 -35.5s3.66699 -28.5 11 -35.5s19.666 -10.5 36.999 -10.5z" />
    <glyph glyph-name="atilde.alt1" horiz-adv-x="606" 
d="M248 -10c-76.667 0 -132.167 20.5 -166.5 61.5s-51.5 107.167 -51.5 198.5s17.167 157.5 51.5 198.5s89.833 61.5 166.5 61.5c72.667 0 126.334 -18.667 161.001 -56l21 46h116v-500h-116l-21 46c-34.667 -37.333 -88.334 -56 -161.001 -56zM288 98
c38.667 0 66.667 12 84 36s26 62.667 26 116s-8.66699 92 -26 116s-45.333 36 -84 36s-66.667 -12 -84 -36s-26 -62.667 -26 -116s8.66699 -92 26 -116s45.333 -36 84 -36zM142 578c0 34.667 9.99707 64.334 29.9971 89.001s44 37 72 37c19.333 0 36.833 -4 52.5 -12
s27.334 -17 35.001 -27s15.834 -19 24.501 -27s16.667 -12 24 -12s13.5 3.66699 18.5 11s7.5 17.666 7.5 30.999h68c0 -34.667 -10 -64.334 -30 -89.001s-44 -37 -72 -37c-19.333 0 -36.666 4 -51.999 12s-26.833 17 -34.5 27s-16 19 -25 27s-17.167 12 -24.5 12
s-13.5 -3.66699 -18.5 -11s-7.5 -17.666 -7.5 -30.999h-68z" />
    <glyph glyph-name="breve.case" horiz-adv-x="392" 
d="M254 670h108c0 -42 -13.167 -72.5 -39.5 -91.5s-68.5 -28.5 -126.5 -28.5s-100.167 9.5 -126.5 28.5s-39.5 49.5 -39.5 91.5h108c0 -18 4.5 -31.167 13.5 -39.5s23.833 -12.5 44.5 -12.5s35.5 4.16699 44.5 12.5s13.5 21.5 13.5 39.5z" />
    <glyph glyph-name="caron.case" horiz-adv-x="380" 
d="M350 670l-86 -120h-148l-86 120h101l59 -60l59 60h101z" />
    <glyph glyph-name="circumflex.case" horiz-adv-x="380" 
d="M264 670l86 -120h-101l-59 60l-59 -60h-101l86 120h148z" />
    <glyph glyph-name="commaaccent" horiz-adv-x="184" 
d="M92 -42c24.667 0 41.167 -7.5 49.5 -22.5s12.5 -35.5 12.5 -61.5c0 -39.333 -9 -67.833 -27 -85.5s-47 -26.5 -87 -26.5v52c30.667 0 46 14.667 46 44c-37.333 0 -56 15 -56 45c0 20 5.16699 34.167 15.5 42.5s25.833 12.5 46.5 12.5z" />
    <glyph glyph-name="dieresis.case" horiz-adv-x="469" 
d="M116 716c30 0 51.833 -5.5 65.5 -16.5s20.5 -28.833 20.5 -53.5s-6.83301 -42.5 -20.5 -53.5s-35.5 -16.5 -65.5 -16.5s-51.833 5.5 -65.5 16.5s-20.5 28.833 -20.5 53.5s6.83301 42.5 20.5 53.5s35.5 16.5 65.5 16.5zM353 716c30 0 51.833 -5.5 65.5 -16.5
s20.5 -28.833 20.5 -53.5s-6.83301 -42.5 -20.5 -53.5s-35.834 -16.5 -66.501 -16.5c-30 0 -51.833 5.5 -65.5 16.5s-20.5 28.833 -20.5 53.5s6.83301 42.5 20.5 53.5s35.834 16.5 66.501 16.5z" />
    <glyph glyph-name="dotaccent.case" horiz-adv-x="232" 
d="M116 692c30 0 51.833 -5.5 65.5 -16.5s20.5 -28.833 20.5 -53.5s-6.83301 -42.5 -20.5 -53.5s-35.5 -16.5 -65.5 -16.5s-51.833 5.5 -65.5 16.5s-20.5 28.833 -20.5 53.5s6.83301 42.5 20.5 53.5s35.5 16.5 65.5 16.5z" />
    <glyph glyph-name="grave.case" horiz-adv-x="296" 
d="M164 670l102 -120h-109l-127 120h134z" />
    <glyph glyph-name="hungarumlaut.case" horiz-adv-x="481" 
d="M30 550l86 120h134l-110 -120h-110zM230 550l87 120h134l-111 -120h-110z" />
    <glyph glyph-name="tilde.case" horiz-adv-x="392" 
d="M30 580c0 34 9.66699 60.5 29 79.5s43.666 28.5 72.999 28.5c32 0 61.167 -8.33301 87.5 -25s45.166 -25 56.499 -25c7.33301 0 13.5 3 18.5 9s7.5 13.667 7.5 23h60c0 -34 -9.66699 -60.5 -29 -79.5s-43.666 -28.5 -72.999 -28.5c-32 0 -61.167 8.33301 -87.5 25
s-45.166 25 -56.499 25c-7.33301 0 -13.5 -3 -18.5 -9s-7.5 -13.667 -7.5 -23h-60z" />
    </font>
</defs>
</svg>
