<?xml version="1.0" standalone="no"?>
<!DOCTYPE svg PUBLIC "-//W3C//DTD SVG 1.1//EN" "http://www.w3.org/Graphics/SVG/1.1/DTD/svg11.dtd" >
<svg>
<metadata>
Created by FontForge 20090914 at Thu Jun 25 12:23:00 2020
 By www-data
Copyright (c) 2017 by Alexander Slobzheninov. All rights reserved.
</metadata>
<defs>
<font id="FivoSans-Regular" horiz-adv-x="565" >
  <font-face 
    font-family="Fivo Sans"
    font-weight="400"
    font-stretch="normal"
    units-per-em="1000"
    panose-1="0 0 0 0 0 0 0 0 0 0"
    ascent="800"
    descent="-200"
    x-height="500"
    cap-height="700"
    bbox="-50 -250.999 1196 960"
    underline-thickness="50"
    underline-position="975"
    unicode-range="U+000D-U+E133"
  />
<missing-glyph horiz-adv-x="200" 
 />
    <glyph glyph-name=".notdef" horiz-adv-x="200" 
 />
    <glyph glyph-name="NULL" horiz-adv-x="795" 
d="M100 700h595v-700h-595v700zM177 624v-548h441v548h-441z" />
    <glyph glyph-name="NULL" horiz-adv-x="795" 
d="M100 700h595v-700h-595v700zM177 624v-548h441v548h-441z" />
    <glyph glyph-name="CR" unicode="&#xd;" horiz-adv-x="250" 
 />
    <glyph glyph-name="space" unicode=" " horiz-adv-x="300" 
 />
    <glyph glyph-name="exclam" unicode="!" horiz-adv-x="273" 
d="M136 106c38 0 57 -19.333 57 -58s-19 -58 -57 -58c-37.333 0 -56 19.333 -56 58s18.667 58 56 58zM94 700h84v-190l-15 -261h-54l-15 261v190z" />
    <glyph glyph-name="quotedbl" unicode="&#x22;" horiz-adv-x="318" 
d="M123 700v-140l-7 -171h-58l-8 171v140h73zM268 700v-140l-7 -171h-58l-7 171v140h72z" />
    <glyph glyph-name="numbersign" unicode="#" horiz-adv-x="770" 
d="M411 0l29 204h-152l-29 -204h-62l29 204h-166v63h175l21 147h-166v63h175l32 223h62l-32 -223h152l32 223h62l-32 -223h169v-63h-178l-21 -147h169v-63h-178l-29 -204h-62zM470 414h-152l-21 -147h152z" />
    <glyph glyph-name="dollar" unicode="$" horiz-adv-x="645" 
d="M290 -100l-0.000976562 81.002c-80 4 -138.333 23.5 -175 58.5s-55 88.5 -55 160.5h81c0 -54.667 14.167 -93.834 42.5 -117.501s74.833 -35.5 139.5 -35.5c64 0 109.667 10.333 137 31s41 54.667 41 102c0 26.667 -8 49 -24 67s-36.667 31.667 -62 41
s-53.333 17.5 -84 24.5s-61.167 14.667 -91.5 23s-58.166 18.666 -83.499 30.999s-46 30.333 -62 54s-24 52.5 -24 86.5c0 69.333 17.5 121 52.5 155s90.833 53 167.5 57v81h65v-81c76.667 -4 132.5 -23.5 167.5 -58.5s52.5 -88.5 52.5 -160.5h-80c0 54 -13.5 93 -40.5 117
s-70.833 36 -131.5 36s-104 -10.333 -130 -31s-39 -54.667 -39 -102c0 -32.667 14.833 -58.167 44.5 -76.5s65.5 -32 107.5 -41s84.167 -19.333 126.5 -31s78.333 -32.167 108 -61.5s44.5 -68.333 44.5 -117c0 -70 -18.333 -122 -55 -156s-95 -52.667 -175 -56v-81h-65z" />
    <glyph glyph-name="percent" unicode="%" horiz-adv-x="861" 
d="M211 710c56.667 0 97.834 -15.333 123.501 -46s38.5 -80 38.5 -148s-12.833 -117.5 -38.5 -148.5s-66.834 -46.5 -123.501 -46.5c-56 0 -96.833 15.5 -122.5 46.5s-38.5 80.5 -38.5 148.5s12.833 117.333 38.5 148s66.5 46 122.5 46zM211 376c36 0 61.667 10.833 77 32.5
s23 57.5 23 107.5c0 49.333 -7.66699 85 -23 107s-40.666 33 -75.999 33c-36 0 -61.667 -10.833 -77 -32.5s-23 -57.5 -23 -107.5s7.66699 -85.833 23 -107.5s40.666 -32.5 75.999 -32.5zM247 -30h-74l440 760h74zM649 390c56.667 0 97.834 -15.333 123.501 -46
s38.5 -80 38.5 -148s-12.833 -117.5 -38.5 -148.5s-66.834 -46.5 -123.501 -46.5s-97.667 15.5 -123 46.5s-38 80.5 -38 148.5s12.667 117.333 38 148s66.333 46 123 46zM649 56c35.333 0 60.833 10.833 76.5 32.5s23.5 57.5 23.5 107.5c0 49.333 -7.83301 85 -23.5 107
s-41.167 33 -76.5 33s-60.833 -11 -76.5 -33s-23.5 -57.667 -23.5 -107c0 -50 7.83301 -85.833 23.5 -107.5s41.167 -32.5 76.5 -32.5z" />
    <glyph glyph-name="ampersand" unicode="&#x26;" horiz-adv-x="780" 
d="M750 0l-101.999 -0.000976562l-99 93c-68.667 -75.333 -154 -113 -256 -113c-74.667 0 -132.167 17.833 -172.5 53.5s-60.5 83.5 -60.5 143.5c0 48 15.667 88.833 47 122.5s74.666 65.5 129.999 95.5c-58 62 -87 118.667 -87 170c0 103.333 64 155 192 155
c122 0 183 -49 183 -147c0 -38.667 -14.833 -71.667 -44.5 -99s-72.5 -56 -128.5 -86l192 -189c26.667 46.667 42.667 97.334 48 152.001h66c-6.66699 -76 -28 -143.333 -64 -202zM303.001 46.999c36.667 0 72.167 8.16602 106.5 24.499s64.5 38.833 90.5 67.5l-216 209
c-44 -25.333 -78 -50.666 -102 -75.999s-36 -55 -36 -89c0 -42 15.167 -75.167 45.5 -99.5s67.5 -36.5 111.5 -36.5zM307.001 429.998c25.333 13.333 44.832 24 58.499 32s28.834 18 45.501 30s28.5 24 35.5 36s10.5 25 10.5 39c0 22 -5.16699 40.167 -15.5 54.5
s-23.666 24.5 -39.999 30.5s-35.5 9 -57.5 9c-34.667 0 -63.334 -8.16699 -86.001 -24.5s-34 -41.5 -34 -75.5c0 -33.333 27.667 -77 83 -131z" />
    <glyph glyph-name="quotesingle" unicode="'" horiz-adv-x="173" 
d="M123 700v-140l-7 -171h-58l-8 171v140h73z" />
    <glyph glyph-name="parenleft" unicode="(" horiz-adv-x="285" 
d="M189 -200l-27.999 56.502c-17.333 35 -32.333 68.167 -45 99.5s-25.167 75.5 -37.5 132.5s-18.5 114.167 -18.5 171.5s6 113.166 18 167.499s24.667 96.5 38 126.5s28.333 60.667 45 92s26 49.333 28 54h66c-2 -4.66699 -11.167 -22.667 -27.5 -54s-31 -61.833 -44 -91.5
s-25.333 -71.834 -37 -126.501s-17.5 -110.667 -17.5 -168s6 -114.5 18 -171.5s24.167 -101 36.5 -132s27.166 -64.333 44.499 -100s26.333 -54.5 27 -56.5h-66z" />
    <glyph glyph-name="parenright" unicode=")" horiz-adv-x="285" 
d="M97 -200l-66.999 -0.00195312c0.666992 2 9.66699 20.833 27 56.5s32.166 69 44.499 100s24.5 75 36.5 132s18 114.167 18 171.5s-5.83301 113.333 -17.5 168s-24 96.834 -37 126.501s-27.667 60.167 -44 91.5s-25.5 49.333 -27.5 54h67
c2 -4.66699 11.333 -22.667 28 -54s31.5 -62 44.5 -92s25.5 -72.167 37.5 -126.5s18 -110.166 18 -167.499s-6 -114.5 -18 -171.5s-24.5 -101.167 -37.5 -132.5s-28 -64.5 -45 -99.5z" />
    <glyph glyph-name="asterisk" unicode="*" horiz-adv-x="381" 
d="M169 400v60l4 40v19l-17 -10l-32 -24l-53 -30l-21 39l52 31l37 16l14 8l-15 9l-36 17l-52 30l21 39l52 -30l33 -23l17 -10v19l-4 40v60h43v-60l-4 -40v-19l17 10l33 24l52 29l21 -39l-52 -30l-36 -16l-16 -9l16 -9l36 -17l52 -30l-21 -39l-52 30l-33 23l-17 10v-18l4 -40
v-60h-43z" />
    <glyph glyph-name="plus" unicode="+" horiz-adv-x="620" 
d="M570 291v-67h-228v-224h-65v224h-227v67h227v209h65v-209h228z" />
    <glyph glyph-name="comma" unicode="," horiz-adv-x="212" 
d="M102 106c21.333 0 36.666 -7.83301 45.999 -23.5s14 -41.167 14 -76.5c0 -50 -8.16699 -86.667 -24.5 -110s-42.166 -35 -77.499 -35v45c16.667 0 28.667 6.66699 36 20s11 34.666 11 63.999c-19.333 0 -33.5 4.33301 -42.5 13s-13.833 22.334 -14.5 41.001
c-2 41.333 15.333 62 52 62z" />
    <glyph glyph-name="hyphen" unicode="-" horiz-adv-x="430" 
d="M380 234h-330v67h330v-67z" />
    <glyph glyph-name="period" unicode="." horiz-adv-x="213" 
d="M106 106c38 0 57 -19.333 57 -58s-19 -58 -57 -58c-19.333 0 -33.5 4.5 -42.5 13.5s-13.5 23.833 -13.5 44.5c0 38.667 18.667 58 56 58z" />
    <glyph glyph-name="slash" unicode="/" horiz-adv-x="373" 
d="M269 700l74 -1l-240 -700l-73 1z" />
    <glyph glyph-name="zero" unicode="0" horiz-adv-x="693" 
d="M347 720c100 0 172.667 -29.333 218 -88s68 -152.667 68 -282s-22.667 -223.333 -68 -282s-118 -88 -218 -88c-100.667 0 -173.667 29.333 -219 88s-68 152.667 -68 282s22.667 223.333 68 282s118.333 88 219 88zM347 47c71.333 0 122.833 23.833 154.5 71.5
s47.5 124.834 47.5 231.501s-15.833 183.834 -47.5 231.501s-83.167 71.5 -154.5 71.5s-123 -23.833 -155 -71.5s-48 -124.834 -48 -231.501s16 -183.834 48 -231.501s83.667 -71.5 155 -71.5z" />
    <glyph glyph-name="one" unicode="1" horiz-adv-x="351" 
d="M50 633v67h201v-700h-81v633h-120z" />
    <glyph glyph-name="two" unicode="2" horiz-adv-x="592" 
d="M170 67l362.001 0.000976562v-67h-482v53c32.667 28.667 73.167 62 121.5 100l116 92.5c29 23.667 58.333 50.334 88 80.001s51.5 58.667 65.5 87s21 57.833 21 88.5c0 54 -12.5 92.833 -37.5 116.5s-66.167 35.5 -123.5 35.5c-56.667 0 -97.667 -14.333 -123 -43
s-38 -75.334 -38 -140.001h-80c0 87.333 19 150.833 57 190.5s99.333 59.5 184 59.5s146 -17.333 184 -52s57 -90.334 57 -167.001c0 -27.333 -5.33301 -54.333 -16 -81s-23.834 -50.667 -39.501 -72s-37.167 -45 -64.5 -71s-52.333 -48.167 -75 -66.5l-88 -70.5z" />
    <glyph glyph-name="three" unicode="3" horiz-adv-x="640" 
d="M305 334l-30.998 0.00292969v63h31c60.667 0 104.5 10 131.5 30s40.5 52 40.5 96c0 46.667 -12.5 80 -37.5 100s-66.5 30 -124.5 30s-99.5 -13.5 -124.5 -40.5s-37.5 -71.167 -37.5 -132.5h-73c0 84 18.667 145 56 183s97 57 179 57c82.667 0 142.5 -15.333 179.5 -46
s55.5 -79.667 55.5 -147c0 -28.667 -4.66699 -53.5 -14 -74.5s-19.833 -36.5 -31.5 -46.5s-25.334 -18 -41.001 -24s-27.334 -9.5 -35.001 -10.5s-14.5 -1.5 -20.5 -1.5c6.66699 0 14.834 -0.666992 24.501 -2s23.834 -5.33301 42.501 -12s35.167 -15.667 49.5 -27
s27.166 -28.833 38.499 -52.5s17 -51.5 17 -83.5c0 -74.667 -21 -128.834 -63 -162.501s-109.333 -50.5 -202 -50.5s-160 19.833 -202 59.5s-63 103.167 -63 190.5h77c0 -64.667 14.667 -111.334 44 -140.001s77.333 -43 144 -43c66 0 113.333 11.333 142 34s43 60 43 112
c0 49.333 -15.333 85.166 -46 107.499s-80.334 33.5 -149.001 33.5z" />
    <glyph glyph-name="four" unicode="4" horiz-adv-x="657" 
d="M413 700h93v-439h70v-67h-70v-194h-80v194h-377v82zM122 261h304v360z" />
    <glyph glyph-name="five" unicode="5" horiz-adv-x="630" 
d="M211 633l-1.00195 -1.00195l-33 -196c35.333 29.333 87.333 44 156 44c82.667 0 142.834 -19.833 180.501 -59.5s56.5 -103.167 56.5 -190.5s-20.833 -150.833 -62.5 -190.5s-108.5 -59.5 -200.5 -59.5c-80.667 0 -140.667 17.333 -180 52s-61.666 90.667 -66.999 168h73
c5.33301 -54 22 -93 50 -117s70.667 -36 128 -36c63.333 0 109 14.333 137 43s42 75.334 42 140.001s-13.667 111.334 -41 140.001s-71.333 43 -132 43c-49.333 0 -86.5 -8.5 -111.5 -25.5s-41.833 -45.833 -50.5 -86.5h-69l66 399h368v-67h-309z" />
    <glyph glyph-name="six" unicode="6" horiz-adv-x="640" 
d="M60 340c0 132.667 20.999 229.166 62.999 289.499s109.333 90.5 202 90.5c68.667 0 121.5 -15.833 158.5 -47.5s62.5 -82.5 76.5 -152.5h-76c-12 49.333 -30.167 84.5 -54.5 105.5s-59.166 31.5 -104.499 31.5c-66.667 0 -114.167 -23.667 -142.5 -71
s-42.5 -125.666 -42.5 -234.999c0 3.33301 0.5 8 1.5 14s5.16699 16.333 12.5 31s17 27.667 29 39s31.167 21.666 57.5 30.999s57.166 14 92.499 14c86.667 0 149.5 -19.833 188.5 -59.5s58.5 -103.167 58.5 -190.5s-20.167 -150.833 -60.5 -190.5
s-105.166 -59.5 -194.499 -59.5c-100 0 -169.167 27.833 -207.5 83.5s-57.5 147.834 -57.5 276.501zM324.999 412.999c-60.667 0 -104.834 -14.502 -132.501 -43.502s-41.5 -75.5 -41.5 -139.5s13.833 -110.5 41.5 -139.5s71.834 -43.5 132.501 -43.5
c62 0 106.667 14.333 134 43s41 75.334 41 140.001s-13.667 111.334 -41 140.001s-72 43 -134 43z" />
    <glyph glyph-name="seven" unicode="7" horiz-adv-x="544" 
d="M504 647l-300 -647h-85l297 633h-366v67h454v-53z" />
    <glyph glyph-name="eight" unicode="8" horiz-adv-x="670" 
d="M184 370c-62.667 26.667 -94 79 -94 157c0 67.333 19.5 116.333 58.5 147s101.167 46 186.5 46c86 0 148.333 -15.333 187 -46s58 -79.667 58 -147c0 -78.667 -31 -131 -93 -157c82 -26 123 -86 123 -180c0 -73.333 -21.667 -126.5 -65 -159.5s-113.333 -49.5 -210 -49.5
c-96 0 -165.833 16.667 -209.5 50s-65.5 86.333 -65.5 159c0 94 41.333 154 124 180zM336 47c69.333 0 119.166 11.3311 149.499 33.998s45.5 59.334 45.5 110.001s-15.167 87.167 -45.5 109.5s-80.166 33.5 -149.499 33.5s-119 -11.167 -149 -33.5s-45 -58.833 -45 -109.5
c0 -51.333 15.167 -88.166 45.5 -110.499s79.833 -33.5 148.5 -33.5zM335 652.998c-60 0 -103 -10 -129 -30s-39 -52.667 -39 -98c0 -46 13 -78.833 39 -98.5s69 -29.5 129 -29.5s103.167 10 129.5 30s39.5 52.667 39.5 98s-13.167 78 -39.5 98s-69.5 30 -129.5 30z" />
    <glyph glyph-name="nine" unicode="9" horiz-adv-x="640" 
d="M580 360c0 -133.333 -20.999 -230.001 -62.999 -290.001s-109.333 -90 -202 -90c-68 0 -120.667 15.833 -158 47.5s-63 82.5 -77 152.5h77c11.333 -48.667 29.166 -83.667 53.499 -105s59.166 -32 104.499 -32c66.667 0 114.334 23.833 143.001 71.5
s43 125.834 43 234.501c0 -3.33301 -0.5 -8 -1.5 -14s-5.16699 -16.333 -12.5 -31s-17.166 -27.667 -29.499 -39s-31.5 -21.666 -57.5 -30.999s-56.667 -14 -92 -14c-86.667 0 -149.667 19.833 -189 59.5s-59 103.167 -59 190.5s20.167 150.833 60.5 190.5
s105.166 59.5 194.499 59.5c100 0 169.167 -27.833 207.5 -83.5s57.5 -147.834 57.5 -276.501zM315.001 286.999c61.333 0 105.834 14.5 133.501 43.5s41.5 75.5 41.5 139.5s-13.833 110.5 -41.5 139.5s-72.167 43.5 -133.5 43.5c-62 0 -106.5 -14.167 -133.5 -42.5
s-40.5 -75.166 -40.5 -140.499c0 -64.667 13.667 -111.334 41 -140.001s71.666 -43 132.999 -43z" />
    <glyph glyph-name="colon" unicode=":" horiz-adv-x="213" 
d="M107 106c37.333 0 56 -19.333 56 -58s-19 -58 -57 -58c-37.333 0 -56 19.333 -56 58s19 58 57 58zM107 506c37.333 0 56 -19.333 56 -58s-19 -58 -57 -58c-37.333 0 -56 19.333 -56 58s19 58 57 58z" />
    <glyph glyph-name="semicolon" unicode=";" horiz-adv-x="213" 
d="M107 506c37.333 0 56 -19.333 56 -58s-19 -58 -57 -58c-37.333 0 -56 19.333 -56 58s19 58 57 58zM103 106c20.667 0 35.832 -7.83301 45.499 -23.5s14.5 -41.167 14.5 -76.5c0 -50 -8.33301 -86.667 -25 -110s-42.667 -35 -78 -35v45c16.667 0 28.834 6.66699 36.501 20
s11.5 34.666 11.5 63.999c-20 0 -34.5 4.33301 -43.5 13s-13.5 22.334 -13.5 41.001c0 41.333 17.333 62 52 62z" />
    <glyph glyph-name="less" unicode="&#x3c;" horiz-adv-x="500" 
d="M50 296l400 204v-82l-329 -168l329 -168v-82l-400 204v92z" />
    <glyph glyph-name="equal" unicode="=" horiz-adv-x="650" 
d="M600 207v-67h-550v67h550zM600 390v-67h-550v67h550z" />
    <glyph glyph-name="greater" unicode="&#x3e;" horiz-adv-x="500" 
d="M50 500l400 -204v-92l-400 -204v82l329 168l-329 168v82z" />
    <glyph glyph-name="question" unicode="?" horiz-adv-x="533" 
d="M261 106c37.333 0 56 -19.333 56 -58s-18.667 -58 -56 -58c-38 0 -57 19.333 -57 58s19 58 57 58zM220 231c0 36.667 6.16895 67.832 18.502 93.499s27.333 45.167 45 58.5l52.5 38c17.333 12 32.166 26.833 44.499 44.5s18.5 39.167 18.5 64.5
c0 42.667 -10.833 73.834 -32.5 93.501s-56.167 29.5 -103.5 29.5c-48 0 -82.667 -12.833 -104 -38.5s-32 -67.167 -32 -124.5h-77c0 80.667 17.167 139.167 51.5 175.5s89.166 54.5 164.499 54.5c76 0 131.167 -15 165.5 -45s51.5 -78.333 51.5 -145
c0 -28 -4.83301 -52.5 -14.5 -73.5s-21.667 -37 -36 -48l-46.5 -34.5l-46.5 -33c-14.333 -10 -26.333 -24.5 -36 -43.5s-14.5 -41.167 -14.5 -66.5h-69z" />
    <glyph glyph-name="at" unicode="@" horiz-adv-x="846" 
d="M609 460v-270.001c0 -40.667 4.16699 -70.167 12.5 -88.5s21.833 -27.5 40.5 -27.5c21.333 0 37 14 47 42s15 72.667 15 134c0 118 -22.667 203.167 -68 255.5s-119.333 78.5 -222 78.5c-110.667 0 -190.334 -26.167 -239.001 -78.5s-73 -137.5 -73 -255.5
c0 -113.333 21.5 -195.666 64.5 -246.999s112.833 -77 209.5 -77c60.667 0 114.334 16 161.001 48v-65c-42.667 -28 -96 -42 -160 -42c-118 0 -203.667 30.333 -257 91s-80 158 -80 292c0 138 29.5 238 88.5 300s154.167 93 285.5 93c123.333 0 212.833 -31.167 268.5 -93.5
s83.5 -162.166 83.5 -299.499c0 -80 -10 -138.333 -30 -175s-51.333 -55 -94 -55c-57.333 0 -93.333 27.667 -108 83c-27.333 -42 -75.333 -63 -144 -63c-64.667 0 -111.5 16.667 -140.5 50s-43.5 86.666 -43.5 159.999c0 77.333 14.5 133.333 43.5 168s75.833 52 140.5 52
c63.333 0 110 -22.333 140 -67l10 57h49zM421 93.999c44 0 75.667 12.167 95 36.5s29 64.166 29 119.499c0 57.333 -9.66699 98.5 -29 123.5s-51 37.5 -95 37.5c-46 0 -79 -12.5 -99 -37.5s-30 -66.167 -30 -123.5c0 -55.333 10 -95.166 30 -119.499s53 -36.5 99 -36.5z" />
    <glyph glyph-name="A" unicode="A" horiz-adv-x="693" 
d="M561 0l-59 170h-313l-60 -170h-89l250 700h121l242 -700h-92zM346 618l-134 -381h266z" />
    <glyph glyph-name="B" unicode="B" horiz-adv-x="685" 
d="M478 370c4 0 9.33398 -0.667969 16.001 -2.00098s18.334 -5.5 35.001 -12.5s31.5 -16 44.5 -27s24.833 -27.833 35.5 -50.5s16 -49 16 -79c0 -69.333 -19.833 -119.833 -59.5 -151.5s-102.834 -47.5 -189.501 -47.5h-276v700h273c77.333 0 133.666 -14.167 168.999 -42.5
s53 -73.833 53 -136.5c0 -26 -4 -48.833 -12 -68.5s-17.833 -34.5 -29.5 -44.5s-23.167 -18.167 -34.5 -24.5s-21 -10.166 -29 -11.499zM365.001 66.999c60 0 102.999 10.1689 128.999 30.502s39 54.166 39 101.499s-13.167 81.666 -39.5 102.999s-69.166 32 -128.499 32
h-177v-267h177zM188 633.001v-236h173c50 0 86.167 9.5 108.5 28.5s33.5 49.5 33.5 91.5c0 41.333 -11 71 -33 89s-58.333 27 -109 27h-173z" />
    <glyph glyph-name="C" unicode="C" horiz-adv-x="755" 
d="M607 229l88.001 -0.00292969c-24.667 -87.333 -61.334 -150.666 -110.001 -189.999s-115 -59 -199 -59c-113.333 0 -196 29.333 -248 88s-78 152.667 -78 282s26 223.333 78 282s134.667 88 248 88c92.667 0 163.167 -19.667 211.5 -59s80.833 -102.666 97.5 -189.999
h-88c-15.333 62.667 -39.833 107.167 -73.5 133.5s-82.834 39.5 -147.501 39.5c-82 0 -141.5 -23.167 -178.5 -69.5s-55.5 -121.166 -55.5 -224.499c0 -104 18.5 -179 55.5 -225s96.5 -69 178.5 -69c59.333 0 105.833 13.167 139.5 39.5s60.834 70.833 81.501 133.5z" />
    <glyph glyph-name="D" unicode="D" horiz-adv-x="723" 
d="M663 350c0 -122.667 -25.5 -211.667 -76.5 -267s-133.167 -83 -246.5 -83h-240v700h240c113.333 0 195.5 -27.667 246.5 -83s76.5 -144.333 76.5 -267zM336 629l-148 -0.000976562v-558h148c82.667 0 142.5 21.833 179.5 65.5s55.5 114.834 55.5 213.501
c0 98 -18.5 169 -55.5 213s-96.833 66 -179.5 66z" />
    <glyph glyph-name="E" unicode="E" horiz-adv-x="620" 
d="M570 629h-382v-228h342v-71h-342v-259h382v-71h-470v700h470v-71z" />
    <glyph glyph-name="F" unicode="F" horiz-adv-x="610" 
d="M570 629h-382v-228h342v-71h-342v-330h-88v700h470v-71z" />
    <glyph glyph-name="G" unicode="G" horiz-adv-x="765" 
d="M393 320l-0.00488281 67.001h312v-37c0 -129.333 -24.667 -223.333 -74 -282s-128.666 -88 -237.999 -88c-116.667 0 -201.334 29.333 -254.001 88s-79 152.667 -79 282s26.333 223.333 79 282s137.334 88 254.001 88c89.333 0 157.833 -19 205.5 -57
s79.834 -99 96.501 -183h-84c-13.333 58 -37.166 99.833 -71.499 125.5s-83.166 38.5 -146.499 38.5c-85.333 0 -146.833 -23 -184.5 -69s-56.5 -121 -56.5 -225s18.833 -179 56.5 -225s99.167 -69 184.5 -69c80.667 0 138.834 20.667 174.501 62s53.5 108.666 53.5 201.999
h-228z" />
    <glyph glyph-name="H" unicode="H" horiz-adv-x="745" 
d="M557 700h88v-700h-88v334h-369v-334h-88v700h88v-290h369v290z" />
    <glyph glyph-name="I" unicode="I" horiz-adv-x="288" 
d="M100 700h88v-700h-88v700z" />
    <glyph glyph-name="J" unicode="J" horiz-adv-x="569" 
d="M50 210v23h85v-23c0 -54.667 10 -94 30 -118s52.667 -36 98 -36s78 12 98 36s30 63.333 30 118v490h88v-490c0 -78.667 -17.167 -136 -51.5 -172s-89.166 -54 -164.499 -54c-74.667 0 -128.834 17.833 -162.501 53.5s-50.5 93.167 -50.5 172.5z" />
    <glyph glyph-name="K" unicode="K" horiz-adv-x="654" 
d="M188 700v-306l297 306h109l-330 -340l350 -360h-109l-317 326v-326h-88v700h88z" />
    <glyph glyph-name="L" unicode="L" horiz-adv-x="580" 
d="M530 76v-76h-430v700h88v-624h342z" />
    <glyph glyph-name="M" unicode="M" horiz-adv-x="913" 
d="M100 0v700h120l238 -569l238 569h117v-700h-84v580l-244 -580h-58l-243 580v-580h-84z" />
    <glyph glyph-name="N" unicode="N" horiz-adv-x="753" 
d="M569 700h84v-700h-106l-363 581v-581h-84v700h105l364 -581v581z" />
    <glyph glyph-name="O" unicode="O" horiz-adv-x="785" 
d="M393 720c116.667 0 201.167 -29.333 253.5 -88s78.5 -152.667 78.5 -282s-26.167 -223.333 -78.5 -282s-136.833 -88 -253.5 -88s-201.334 29.333 -254.001 88s-79 152.667 -79 282s26.333 223.333 79 282s137.334 88 254.001 88zM393 644
c-85.333 0 -146.833 -23 -184.5 -69s-56.5 -121 -56.5 -225s18.833 -179 56.5 -225s99.167 -69 184.5 -69s146.833 23 184.5 69s56.5 121 56.5 225s-18.833 179 -56.5 225s-99.167 69 -184.5 69z" />
    <glyph glyph-name="P" unicode="P" horiz-adv-x="675" 
d="M625 481c0 -145.333 -80.667 -218 -242 -218h-195v-263h-88v700h283c161.333 0 242 -73 242 -219zM537 481c0 50.667 -12.5 88 -37.5 112s-65.167 36 -120.5 36h-191v-295h191c55.333 0 95.5 12 120.5 36s37.5 61 37.5 111z" />
    <glyph glyph-name="Q" unicode="Q" horiz-adv-x="785" 
d="M393 720c116.667 0 201.167 -29.1689 253.5 -87.502s78.5 -152.166 78.5 -281.499c0 -143.333 -32.667 -243.666 -98 -300.999l98 -119h-84l-69 83c-47.333 -22.667 -107 -34 -179 -34c-116.667 0 -201.334 29.333 -254.001 88s-79 152.667 -79 282
s26.333 223.333 79 282s137.334 88 254.001 88zM393 644.998c-85.333 0 -147.001 -23 -185.001 -69s-57 -121 -57 -225s18.833 -179 56.5 -225s99.167 -69 184.5 -69c50.667 0 92.334 7.66699 125.001 23l-157 191h84l126 -153c42.667 45.333 64 123 64 233
c0 104 -18.833 179 -56.5 225s-99.167 69 -184.5 69z" />
    <glyph glyph-name="R" unicode="R" horiz-adv-x="703" 
d="M549 0l-145 266h-216v-267h-88v700h299c161.333 0 242 -73 242 -219c0 -114 -50.667 -182 -152 -204l154 -276h-94zM188 334h207c54.667 0 94.667 12 120 36s38 61 38 111c0 50.667 -12.5 88 -37.5 112s-65.167 36 -120.5 36h-207v-295z" />
    <glyph glyph-name="S" unicode="S" horiz-adv-x="645" 
d="M154 520c0 -32.667 14.8311 -58.165 44.498 -76.498s65.5 -32 107.5 -41s84.167 -19.333 126.5 -31s78.333 -32.167 108 -61.5s44.5 -68.333 44.5 -117c0 -74.667 -20.667 -128.834 -62 -162.501s-108 -50.5 -200 -50.5s-158.833 17.5 -200.5 52.5
s-62.5 90.833 -62.5 167.5h81c0 -54.667 14.167 -93.834 42.5 -117.501s74.833 -35.5 139.5 -35.5c64 0 109.667 10.333 137 31s41 54.667 41 102c0 26.667 -8 49 -24 67s-36.667 31.667 -62 41s-53.333 17.5 -84 24.5s-61.167 14.667 -91.5 23
s-58.166 18.666 -83.499 30.999s-46 30.333 -62 54s-24 52.5 -24 86.5c0 74.667 20 128.834 60 162.501s104.333 50.5 193 50.5s152.834 -17.333 192.501 -52s59.5 -90.667 59.5 -168h-80c0 54 -13.5 93 -40.5 117s-70.833 36 -131.5 36s-104 -10.333 -130 -31
s-39 -54.667 -39 -102z" />
    <glyph glyph-name="T" unicode="T" horiz-adv-x="625" 
d="M575 700v-76h-219v-624h-88v624h-218v76h525z" />
    <glyph glyph-name="U" unicode="U" horiz-adv-x="725" 
d="M90 254l-0.000976562 446h88v-446c0 -70 14.5 -120.5 43.5 -151.5s76.167 -46.5 141.5 -46.5s112.333 15.5 141 46.5s43 81.5 43 151.5v446h88v-446c0 -96 -21.5 -165.667 -64.5 -209s-112.167 -65 -207.5 -65s-164.666 21.667 -207.999 65s-65 113 -65 209z" />
    <glyph glyph-name="V" unicode="V" horiz-adv-x="689" 
d="M129 700l216 -638l216 638h88l-242 -700h-124l-243 700h89z" />
    <glyph glyph-name="W" unicode="W" horiz-adv-x="1012" 
d="M453 700h106l149 -618l166 618h88l-195 -700h-113l-152 618l-144 -618h-113l-195 700h88l166 -618z" />
    <glyph glyph-name="X" unicode="X" horiz-adv-x="668" 
d="M148 700l189 -290l186 290h95l-223 -340l233 -360h-98l-194 310l-202 -310h-94l234 360l-224 340h98z" />
    <glyph glyph-name="Y" unicode="Y" horiz-adv-x="649" 
d="M369 283h-1v-283h-84v283l-244 417h98l189 -336l189 336h93z" />
    <glyph glyph-name="Z" unicode="Z" horiz-adv-x="630" 
d="M155 71h425v-71h-530v58l414 571h-404v71h510v-58z" />
    <glyph glyph-name="bracketleft" unicode="[" horiz-adv-x="309" 
d="M100 700h179v-67h-110v-766h110v-67h-179v900z" />
    <glyph glyph-name="backslash" unicode="\" horiz-adv-x="373" 
d="M30 699l73 1l240 -700l-74 -1z" />
    <glyph glyph-name="bracketright" unicode="]" horiz-adv-x="309" 
d="M30 700h179v-900h-179v67h110v766h-110v67z" />
    <glyph glyph-name="asciicircum" unicode="^" horiz-adv-x="484" 
d="M285 670l149 -350h-66l-126 295l-126 -295h-66l149 350h86z" />
    <glyph glyph-name="underscore" unicode="_" horiz-adv-x="520" 
d="M520 0v-67h-520v67h520z" />
    <glyph glyph-name="grave" unicode="`" horiz-adv-x="295" 
d="M134 700l111 -150h-69l-126 150h84z" />
    <glyph glyph-name="a" unicode="a" horiz-adv-x="545" 
d="M410 0l-10.001 59c-30.667 -46 -86 -69 -166 -69c-64.667 0 -111.5 12.167 -140.5 36.5s-43.5 63.5 -43.5 117.5c0 59.333 17.833 102.5 53.5 129.5s92.834 40.5 171.501 40.5h120v26c0 40.667 -9.83301 70.167 -29.5 88.5s-51.167 27.5 -94.5 27.5
c-44.667 0 -76.5 -8.33301 -95.5 -25s-28.5 -43.667 -28.5 -81h-77c0 56 16 96.667 48 122s83.667 38 155 38c70 0 121.167 -14.167 153.5 -42.5s48.5 -73.833 48.5 -136.5v-331h-65zM394.999 260l-118.001 0.000976562c-51.333 0 -88.666 -8.83301 -111.999 -26.5
s-35 -45.834 -35 -84.501c0 -34.667 9.5 -59.334 28.5 -74.001s50.5 -22 94.5 -22c48 0 83.667 11.333 107 34s35 58.334 35 107.001v66z" />
    <glyph glyph-name="b" unicode="b" horiz-adv-x="595" 
d="M545 250c0 -91.333 -16.833 -157.667 -50.5 -199s-87.834 -62 -162.501 -62c-83.333 0 -141.666 26.333 -174.999 79l-12 -68h-65v700h80v-263c33.333 48.667 90.333 73 171 73c74.667 0 129 -20.5 163 -61.5s51 -107.167 51 -198.5zM314 55.999
c53.333 0 92 15.333 116 46s36 79.667 36 147s-12 116.333 -36 147s-62.667 46 -116 46s-92.166 -15.333 -116.499 -46s-36.5 -79.667 -36.5 -147s12.167 -116.333 36.5 -147s63.166 -46 116.499 -46z" />
    <glyph glyph-name="c" unicode="c" 
d="M435 173h80.001c-8.66699 -64 -30.5 -110.5 -65.5 -139.5s-87.167 -43.5 -156.5 -43.5c-85.333 0 -147.166 20.667 -185.499 62s-57.5 107.333 -57.5 198s19.167 156.667 57.5 198s100.166 62 185.499 62c69.333 0 121.5 -14.5 156.5 -43.5s56.833 -75.5 65.5 -139.5h-80
c-8 40.667 -23.333 70.167 -46 88.5s-54.667 27.5 -96 27.5c-57.333 0 -98.833 -15.333 -124.5 -46s-38.5 -79.667 -38.5 -147s12.833 -116.333 38.5 -147s67.167 -46 124.5 -46c41.333 0 73.166 9.16699 95.499 27.5s37.833 47.833 46.5 88.5z" />
    <glyph glyph-name="d" unicode="d" horiz-adv-x="595" 
d="M263 -10c-74.667 0 -128.834 20.668 -162.501 62.001s-50.5 107.666 -50.5 198.999s17 157.5 51 198.5s88.333 61.5 163 61.5c80.667 0 137.667 -24.333 171 -73v263h80v-700h-65l-12 68c-33.333 -52.667 -91.666 -79 -174.999 -79zM283 58.001
c53.333 0 92 15.333 116 46s36 79.667 36 147s-12 116.333 -36 147s-62.667 46 -116 46s-92.166 -15.333 -116.499 -46s-36.5 -79.667 -36.5 -147s12.167 -116.333 36.5 -147s63.166 -46 116.499 -46z" />
    <glyph glyph-name="e" unicode="e" 
d="M131 206c4.66699 -54.667 18.8311 -94.501 42.498 -119.501s60.167 -37.5 109.5 -37.5c38.667 0 68.334 7.5 89.001 22.5s36.334 40.833 47.001 77.5h76c-12 -55.333 -34.833 -95.666 -68.5 -120.999s-81.5 -38 -143.5 -38c-81.333 0 -140.5 20.667 -177.5 62
s-55.5 107.333 -55.5 198c0 91.333 18.333 157.5 55 198.5s96 61.5 178 61.5c81.333 0 140.333 -21.5 177 -64.5s55 -111.833 55 -206.5v-33h-384zM434.997 259.999c0 68 -12.001 116.833 -36.001 146.5s-63 44.5 -117 44.5c-53.333 0 -92.166 -15 -116.499 -45
s-36.5 -78.667 -36.5 -146h306z" />
    <glyph glyph-name="f" unicode="f" horiz-adv-x="405" 
d="M293 633c-53.333 0 -80 -23.333 -80 -70v-63h152v-59h-152v-441h-81v441h-92v59h92v63c0 42.667 12.167 76.167 36.5 100.5s59.5 36.5 105.5 36.5h91v-67h-72z" />
    <glyph glyph-name="g" unicode="g" horiz-adv-x="595" 
d="M264 -10c-75.333 0 -129.83 20.502 -163.497 61.502s-50.5 106.833 -50.5 197.5c0 91.333 17 157.666 51 198.999s88.333 62 163 62c84 0 142.667 -27 176 -81l10 71h65v-450c0 -91.333 -18.333 -157.5 -55 -198.5s-95.667 -61.5 -177 -61.5
c-64.667 0 -113.834 12.667 -147.501 38s-55.5 65.666 -65.5 120.999h77c8 -36 22.167 -61.667 42.5 -77s50.166 -23 89.499 -23c55.333 0 95.166 14.667 119.499 44s36.5 77.333 36.5 144v26c-33.333 -48.667 -90.333 -73 -171 -73zM283.003 56.002
c54 0 92.833 15 116.5 45s35.5 79.333 35.5 148s-11.833 118 -35.5 148s-62.5 45 -116.5 45c-54.667 0 -93.834 -15 -117.501 -45s-35.5 -79.333 -35.5 -148c0 -68 11.833 -117.167 35.5 -147.5s62.834 -45.5 117.501 -45.5z" />
    <glyph glyph-name="h" unicode="h" horiz-adv-x="575" 
d="M80 0l0.000976562 700h80v-254c31.333 42.667 84 64 158 64c65.333 0 112.833 -19 142.5 -57s44.5 -99 44.5 -183v-270h-80v270c0 61.333 -9.83301 105.5 -29.5 132.5s-51.834 40.5 -96.501 40.5c-49.333 0 -84.833 -13.5 -106.5 -40.5s-32.5 -71.167 -32.5 -132.5v-270
h-80z" />
    <glyph glyph-name="i" unicode="i" horiz-adv-x="253" 
d="M167 0h-81v500h81v-500zM126 707c20 0 34.5 -4.5 43.5 -13.5s13.5 -23.167 13.5 -42.5c0 -36.667 -19 -55 -57 -55c-37.333 0 -56 18.333 -56 55c0 37.333 18.667 56 56 56z" />
    <glyph glyph-name="j" unicode="j" horiz-adv-x="256" 
d="M2 -113c29.333 0 51.333 7 66 21s22 33.333 22 58v534h80v-543c0 -42.667 -12 -76.167 -36 -100.5s-59 -36.5 -105 -36.5h-79v67h52zM130 707c37.333 0 56 -18.667 56 -56c0 -36.667 -18.667 -55 -56 -55c-38 0 -57 18.333 -57 55c0 19.333 4.5 33.5 13.5 42.5
s23.5 13.5 43.5 13.5z" />
    <glyph glyph-name="k" unicode="k" horiz-adv-x="533" 
d="M160 700v-416l225 216h98l-250 -240l270 -260h-98l-245 236v-236h-80v700h80z" />
    <glyph glyph-name="l" unicode="l" horiz-adv-x="240" 
d="M80 0v700h80v-700h-80z" />
    <glyph glyph-name="m" unicode="m" horiz-adv-x="856" 
d="M284 443c-43.333 0 -74.833 -13.667 -94.5 -41s-29.5 -71.333 -29.5 -132v-270h-80v500h65l12 -72c26.667 54.667 76 82 148 82c74.667 0 124 -32 148 -96c26 64 80 96 162 96c60 0 103.5 -19 130.5 -57s40.5 -99 40.5 -183v-270h-80v270
c0 60.667 -8.66699 104.667 -26 132s-45.333 41 -84 41c-43.333 0 -74.5 -13.667 -93.5 -41s-28.5 -71.333 -28.5 -132v-270h-81v270c0 61.333 -8.5 105.5 -25.5 132.5s-44.833 40.5 -83.5 40.5z" />
    <glyph glyph-name="n" unicode="n" horiz-adv-x="575" 
d="M156 441c31.333 46 85.334 69 162.001 69c65.333 0 112.833 -19 142.5 -57s44.5 -99 44.5 -183v-270h-80v270c0 61.333 -9.83301 105.5 -29.5 132.5s-51.834 40.5 -96.501 40.5c-48.667 0 -84 -13.667 -106 -41s-33 -71.333 -33 -132v-270h-80v500h65z" />
    <glyph glyph-name="o" unicode="o" horiz-adv-x="585" 
d="M293 510c84.667 0 146.167 -20.667 184.5 -62s57.5 -107.333 57.5 -198s-19.167 -156.667 -57.5 -198s-99.833 -62 -184.5 -62c-85.333 0 -147.166 20.667 -185.499 62s-57.5 107.333 -57.5 198s19.167 156.667 57.5 198s100.166 62 185.499 62zM130 250
c0 -68 12.833 -117.167 38.5 -147.5s67.167 -45.5 124.5 -45.5s98.666 15.167 123.999 45.5s38 79.5 38 147.5c0 68.667 -12.667 118 -38 148s-66.666 45 -123.999 45c-58 0 -99.667 -15 -125 -45s-38 -79.333 -38 -148z" />
    <glyph glyph-name="p" unicode="p" horiz-adv-x="595" 
d="M157 431c33.333 52.667 91.333 78.999 174 78.999c74.667 0 129 -20.667 163 -62s51 -107.666 51 -198.999s-17 -157.5 -51 -198.5s-88.333 -61.5 -163 -61.5c-80.667 0 -137.667 24.333 -171 73v-263h-80v700h65zM313 441.999c-53.333 0 -92.166 -15.333 -116.499 -46
s-36.5 -79.667 -36.5 -147s12.167 -116.333 36.5 -147s63.166 -46 116.499 -46s92 15.333 116 46s36 79.667 36 147s-12 116.333 -36 147s-62.667 46 -116 46z" />
    <glyph glyph-name="q" unicode="q" horiz-adv-x="595" 
d="M50 250c0 91.333 17 157.5 51 198.5s88.333 61.5 163 61.5c83.333 0 141.333 -26 174 -78l12 68h65v-700h-80v263c-33.333 -48.667 -90.333 -73 -171 -73c-74.667 0 -129 20.5 -163 61.5s-51 107.167 -51 198.5zM282 444c-53.333 0 -92.166 -15.333 -116.499 -46
s-36.5 -79.667 -36.5 -147s12.167 -116.333 36.5 -147s63.166 -46 116.499 -46s92 15.333 116 46s36 79.667 36 147s-12 116.333 -36 147s-62.667 46 -116 46z" />
    <glyph glyph-name="r" unicode="r" horiz-adv-x="381" 
d="M286 434c-48 0 -81 -13.5 -99 -40.5s-27 -74.833 -27 -143.5v-250h-80v500h65l12 -60c26.667 46.667 69.667 70 129 70h55v-76h-55z" />
    <glyph glyph-name="s" unicode="s" horiz-adv-x="501" 
d="M133 375c0 -24 11 -42.166 33 -54.499s48.5 -21.333 79.5 -27s62 -12.167 93 -19.5s57.5 -21.833 79.5 -43.5s33 -50.834 33 -87.501c0 -53.333 -16.167 -92.166 -48.5 -116.499s-84.166 -36.5 -155.499 -36.5c-68.667 0 -118.667 12.667 -150 38s-47 66 -47 122h77
c0 -37.333 9.5 -64.333 28.5 -81s50.167 -25 93.5 -25s74.5 7 93.5 21s28.5 37 28.5 69c0 26 -10.833 45.833 -32.5 59.5s-47.834 23.334 -78.501 29.001s-61.5 12 -92.5 19s-57.333 20.667 -79 41s-32.5 48.5 -32.5 84.5c0 50 15.333 86.333 46 109s79.667 34 147 34
c66 0 114 -11.833 144 -35.5s45 -61.834 45 -114.501h-73c0 34 -9 58.5 -27 73.5s-47.667 22.5 -89 22.5s-71 -6.33301 -89 -19s-27 -33.334 -27 -62.001z" />
    <glyph glyph-name="t" unicode="t" horiz-adv-x="403" 
d="M211 146c0 -52.667 29 -79 87 -79h65v-67h-91c-46 0 -81.167 12.167 -105.5 36.5s-36.5 57.833 -36.5 100.5v304h-80v59h80v119h81v-119h152v-59h-152v-295z" />
    <glyph glyph-name="u" unicode="u" horiz-adv-x="575" 
d="M409 59c-31.333 -46 -85.334 -69 -162.001 -69c-65.333 0 -112.833 19 -142.5 57s-44.5 99 -44.5 183v270h80v-270c0 -61.333 9.83301 -105.5 29.5 -132.5s51.834 -40.5 96.501 -40.5c48.667 0 84 13.667 106 41s33 71.333 33 132v270h80v-500h-65z" />
    <glyph glyph-name="v" unicode="v" horiz-adv-x="541" 
d="M272 56l154 444h85l-182 -500h-117l-182 500h85z" />
    <glyph glyph-name="w" unicode="w" horiz-adv-x="849" 
d="M643 0h-96l-123 439l-123 -439h-97l-164 500h81l135 -434l121 434h97l119 -435l135 435h81z" />
    <glyph glyph-name="x" unicode="x" horiz-adv-x="513" 
d="M127 500l129 -195l129 195h88l-166 -240l176 -260h-88l-139 214l-139 -214h-87l176 260l-166 240h87z" />
    <glyph glyph-name="y" unicode="y" horiz-adv-x="525" 
d="M246 6l2 6l-218 488h78l174 -390l136 390h77l-186 -520c-20 -56 -43.167 -96.667 -69.5 -122s-58.833 -38 -97.5 -38h-55v59h52c22.667 0 42.5 10 59.5 30s32.833 52.333 47.5 97z" />
    <glyph glyph-name="z" unicode="z" horiz-adv-x="491" 
d="M138 63h313v-63h-411v50l303 387h-293v63h391v-50z" />
    <glyph glyph-name="braceleft" unicode="{" horiz-adv-x="369" 
d="M187 104v-158c0 -27.333 7.33301 -47.333 22 -60s38 -19 70 -19h60v-67h-55c-57.333 0 -99.166 9.16699 -125.499 27.5s-39.5 47.5 -39.5 87.5v234c0 26.667 -4.66699 46.167 -14 58.5s-24.333 18.5 -45 18.5v58c18.667 0 32.667 6 42 18s14.666 31.333 15.999 58v189
c0 52.667 12.333 91 37 115s64.667 36 120 36h64v-67h-60c-32 0 -55.333 -6.33301 -70 -19s-22 -32.667 -22 -60v-151c0 -76 -19 -125.333 -57 -148c38 -14 57 -64.333 57 -151z" />
    <glyph glyph-name="bar" unicode="|" horiz-adv-x="269" 
d="M100 700h69v-900h-69v900z" />
    <glyph glyph-name="braceright" unicode="}" horiz-adv-x="369" 
d="M184 104c0 86.667 19 137 57 151c-38 22.667 -57 72 -57 148v151c0 27.333 -7.33301 47.333 -22 60s-38 19 -70 19h-60v67h64c55.333 0 95.333 -12 120 -36s37 -62.333 37 -115v-189c1.33301 -26.667 6.66602 -46 15.999 -58s23.333 -18 42 -18v-58
c-20.667 0 -35.667 -6.16699 -45 -18.5s-14 -31.833 -14 -58.5v-234c0 -40 -13.167 -69.167 -39.5 -87.5s-68.166 -27.5 -125.499 -27.5h-55v67h60c32 0 55.333 6.33301 70 19s22 32.667 22 60v158z" />
    <glyph glyph-name="asciitilde" unicode="~" horiz-adv-x="700" 
d="M50 229l-0.00195312 65.998c28 26 57.333 42.667 88 50s60.167 7.33301 88.5 0s57.166 -17.666 86.499 -30.999l87.5 -40c29 -13.333 57.167 -23.666 84.5 -30.999s55.333 -7 84 1s55.667 25 81 51v-66c-28 -26.667 -57.5 -43.834 -88.5 -51.501s-60.667 -8 -89 -1
s-57.166 17.167 -86.499 30.5l-87.5 40c-29 13.333 -57.167 23.833 -84.5 31.5s-55.166 7.83398 -83.499 0.500977s-55.166 -24 -80.499 -50z" />
    <glyph glyph-name="space_" unicode="&#xa0;" horiz-adv-x="300" 
 />
    <glyph glyph-name="exclamdown" unicode="&#xa1;" horiz-adv-x="273" 
d="M187 -200h-85v190l15 261h54l16 -261v-190zM136 388c-37.333 0 -56 19.333 -56 58c0 20.667 4.5 35.5 13.5 44.5s23.167 13.5 42.5 13.5c38 0 57 -19.333 57 -58s-19 -58 -57 -58z" />
    <glyph glyph-name="cent" unicode="&#xa2;" 
d="M260 -94l0.000976562 85.002c-72.667 4.66699 -125.834 27.667 -159.501 69s-50.5 104.666 -50.5 189.999s16.833 148.666 50.5 189.999s86.834 64.333 159.501 69v81h65v-81c58 -4 102.167 -20.5 132.5 -49.5s49.5 -73.167 57.5 -132.5h-80
c-8 40.667 -23.333 70.167 -46 88.5s-54.667 27.5 -96 27.5c-57.333 0 -98.833 -15.333 -124.5 -46s-38.5 -79.667 -38.5 -147s12.833 -116.333 38.5 -147s67.167 -46 124.5 -46c41.333 0 73.166 9.16699 95.499 27.5s37.833 47.833 46.5 88.5h80
c-8 -59.333 -27.167 -103.5 -57.5 -132.5s-74.5 -45.5 -132.5 -49.5v-85h-65z" />
    <glyph glyph-name="sterling" unicode="&#xa3;" horiz-adv-x="666" 
d="M616 71l-0.000976562 -70h-556v86c38.667 14 66.834 33.167 84.501 57.5s26.5 56.166 26.5 95.499v84h-111v67h111v109c0 76.667 16.833 132.5 50.5 167.5s87.834 52.5 162.501 52.5c70.667 0 122 -17.5 154 -52.5s48 -90.833 48 -167.5h-76
c0 56 -9.83301 96.167 -29.5 120.5s-51.834 36.5 -96.501 36.5c-46.667 0 -80.5 -12.5 -101.5 -37.5s-31.5 -64.833 -31.5 -119.5v-109h276v-67h-276v-94c0 -38 -9.16699 -69.667 -27.5 -95s-47.833 -46.666 -88.5 -63.999h481z" />
    <glyph glyph-name="currency" unicode="&#xa4;" horiz-adv-x="606" 
d="M539 492l-47 -48c36 -40.667 54 -105.334 54 -194.001s-18 -153.334 -54 -194.001l47 -48l-43 -46l-54 55c-36 -18 -82.333 -27 -139 -27s-103 9 -139 27l-54 -55l-43 46l47 48c-36 40.667 -54 105.334 -54 194.001s18 153.334 54 194.001l-47 48l43 46l54 -55
c36 18 82.333 27 139 27s103 -9 139 -27l54 55zM141 250c0 -68 12.833 -117.167 38.5 -147.5s67.167 -45.5 124.5 -45.5s98.666 15.167 123.999 45.5s38 79.5 38 147.5c0 68.667 -12.667 118 -38 148s-66.666 45 -123.999 45c-58 0 -99.667 -15 -125 -45
s-38 -79.333 -38 -148z" />
    <glyph glyph-name="yen" unicode="&#xa5;" horiz-adv-x="669" 
d="M379 283h-1v-91h213v-63h-213v-129h-84v129h-216v63h216v91l-6 11h-210v63h173l-201 343h98l189 -336l189 336h93l-197 -343h170v-63h-207z" />
    <glyph glyph-name="section" unicode="&#xa7;" horiz-adv-x="651" 
d="M319 653c-46.667 0 -80.1641 -8.66699 -100.497 -26s-30.5 -46 -30.5 -86c0 -26.667 10 -49.334 30 -68.001s44.833 -32.5 74.5 -41.5s62 -19.333 97 -31s67.333 -23.5 97 -35.5s54.5 -30.667 74.5 -56s30 -56.333 30 -93c0 -72.667 -26 -121.667 -78 -147
c18 -25.333 27 -56 27 -92c0 -69.333 -17.5 -119.5 -52.5 -150.5s-91.5 -46.5 -169.5 -46.5c-76.667 0 -132.167 17.333 -166.5 52s-51.5 90.667 -51.5 168h69c0 -54 11.667 -93 35 -117s61.333 -36 114 -36c50.667 0 87 9.16699 109 27.5s33 48.166 33 89.499
c0 28 -9.83301 51.5 -29.5 70.5s-44.334 32.833 -74.001 41.5l-96.5 29c-34.667 10.667 -66.834 21.667 -96.501 33s-54.334 29.333 -74.001 54s-29.5 55.334 -29.5 92.001c0 70 30 116.667 90 140c-26.667 28.667 -40 65 -40 109c0 65.333 16.5 112.833 49.5 142.5
s86.167 44.5 159.5 44.5c74 0 127.667 -17.333 161 -52s50 -90.667 50 -168h-69c0 54.667 -11 93.834 -33 117.501s-58.333 35.5 -109 35.5zM515.003 209c0 26 -11 47.833 -33 65.5s-47.167 30.5 -75.5 38.5s-62.833 18.333 -103.5 31s-73 25.667 -97 39
c-24 -7.33301 -41.333 -18 -52 -32s-16 -33 -16 -57c0 -26.667 12 -49 36 -67s51.5 -30.833 82.5 -38.5s67.5 -18 109.5 -31s75 -27.167 99 -42.5c33.333 16.667 50 48 50 94z" />
    <glyph glyph-name="dieresis" unicode="&#xa8;" horiz-adv-x="390" 
d="M106 727c38 0 57 -19.333 57 -58s-19 -58 -57 -58c-37.333 0 -56 19.333 -56 58c0 20.667 4.5 35.5 13.5 44.5s23.167 13.5 42.5 13.5zM284 727c37.333 0 56 -19.333 56 -58s-18.667 -58 -56 -58s-56 19.333 -56 58c0 20.667 4.5 35.5 13.5 44.5s23.167 13.5 42.5 13.5z
" />
    <glyph glyph-name="copyright" unicode="&#xa9;" horiz-adv-x="875" 
d="M438 720c132 0 227.833 -29.333 287.5 -88s89.5 -152.667 89.5 -282s-29.833 -223.333 -89.5 -282s-155.5 -88 -287.5 -88c-132.667 0 -228.834 29.333 -288.501 88s-89.5 152.667 -89.5 282s29.833 223.333 89.5 282s155.834 88 288.501 88zM438 39
c112 0 193.167 24.5 243.5 73.5s75.5 128.167 75.5 237.5s-25.167 188.5 -75.5 237.5s-131.5 73.5 -243.5 73.5c-112.667 0 -194.167 -24.5 -244.5 -73.5s-75.5 -128.5 -75.5 -238.5c0 -108.667 25.333 -187.5 76 -236.5s132 -73.5 244 -73.5zM438 550
c62 0 108.5 -12.667 139.5 -38s50.167 -66 57.5 -122h-65c-6.66699 38 -20.167 65.167 -40.5 81.5s-50.833 24.5 -91.5 24.5c-49.333 0 -84.833 -11.5 -106.5 -34.5s-32.5 -60.167 -32.5 -111.5c0 -50.667 11 -87.667 33 -111s57.333 -35 106 -35
c40.667 0 71.167 8.16699 91.5 24.5s33.833 43.5 40.5 81.5h65c-7.33301 -56 -26.5 -96.667 -57.5 -122s-77.5 -38 -139.5 -38c-71.333 0 -123.166 15.833 -155.499 47.5s-48.5 82.5 -48.5 152.5s16.167 120.833 48.5 152.5s84.166 47.5 155.499 47.5z" />
    <glyph glyph-name="guillemotleft" unicode="&#xab;" horiz-adv-x="443" 
d="M172 450h78l-118 -190l118 -200h-78l-122 200zM315 450h78l-118 -190l118 -200h-78l-122 200z" />
    <glyph glyph-name="logicalnot" unicode="&#xac;" horiz-adv-x="630" 
d="M570 301v-197h-66v130h-454v67h520z" />
    <glyph glyph-name="registered" unicode="&#xae;" horiz-adv-x="875" 
d="M438 720c132 0 227.833 -29.333 287.5 -88s89.5 -152.667 89.5 -282s-29.833 -223.333 -89.5 -282s-155.5 -88 -287.5 -88c-132.667 0 -228.834 29.333 -288.501 88s-89.5 152.667 -89.5 282s29.833 223.333 89.5 282s155.834 88 288.501 88zM438 39
c112.667 0 194 24.334 244 73.001s75 128 75 238s-25 189.333 -75 238s-131.333 73 -244 73c-113.333 0 -195 -24.333 -245 -73s-75 -128.334 -75 -239.001c0 -109.333 25 -188.333 75 -237s131.667 -73 245 -73zM524 307.001h-0.999023h-1l91 -137h-60l-84 131h-126v-131
h-53v360h174c49.333 0 85.166 -9 107.499 -27s33.5 -47 33.5 -87c0 -60 -27 -96.333 -81 -109zM343.001 484.001v-137.001h120c31.333 0 53.666 5.33301 66.999 16s20 28.334 20 53.001s-6.66699 42.167 -20 52.5s-35.666 15.5 -66.999 15.5h-120z" />
    <glyph glyph-name="macron" unicode="&#xaf;" horiz-adv-x="440" 
d="M50 611v55h340v-55h-340z" />
    <glyph glyph-name="degree" unicode="&#xb0;" horiz-adv-x="480" 
d="M50 520c0 66.667 15 115 45 145s78.333 45 145 45s115 -15 145 -45s45 -78.333 45 -145s-15 -115 -45 -145s-78.333 -45 -145 -45s-115 15 -145 45s-45 78.333 -45 145zM104 520c0 -48.667 10.5 -83.5 31.5 -104.5s55.833 -31.5 104.5 -31.5s83.5 10.5 104.5 31.5
s31.5 55.833 31.5 104.5s-10.5 83.5 -31.5 104.5s-55.833 31.5 -104.5 31.5s-83.5 -10.5 -104.5 -31.5s-31.5 -55.833 -31.5 -104.5z" />
    <glyph glyph-name="plusminus" unicode="&#xb1;" horiz-adv-x="620" 
d="M50 0v67h520v-67h-520zM570 347v-67h-228v-169h-65v169h-227v67h227v153h65v-153h228z" />
    <glyph glyph-name="acute" unicode="&#xb4;" horiz-adv-x="295" 
d="M50 550l111 150h84l-126 -150h-69z" />
    <glyph glyph-name="paragraph" unicode="&#xb6;" horiz-adv-x="860" 
d="M678 633v-833h-69v833h-257v-833h-69v500c-78 0 -134.667 15.833 -170 47.5s-53 82.5 -53 152.5s19.833 120.833 59.5 152.5s103.167 47.5 190.5 47.5h470v-67h-102z" />
    <glyph glyph-name="periodcentered" unicode="&#xb7;" horiz-adv-x="213" 
d="M106 316c38 0 57 -19.333 57 -58s-19 -58 -57 -58c-37.333 0 -56 19.333 -56 58s18.667 58 56 58z" />
    <glyph glyph-name="cedilla" unicode="&#xb8;" horiz-adv-x="297" 
d="M117 17l47.999 0.000976562l-21 -68c2.66699 -0.666992 6.33398 -1.33398 11.001 -2.00098s13 -3.16699 25 -7.5s22.5 -9.5 31.5 -15.5s17.167 -14.667 24.5 -26s11 -24 11 -38c0 -35.333 -16.667 -62.5 -50 -81.5s-82.333 -28.5 -147 -28.5v41c90.667 0 136 23 136 69
c0 18.667 -10.833 32.167 -32.5 40.5s-44.5 12.5 -68.5 12.5z" />
    <glyph glyph-name="guillemotright" unicode="&#xbb;" horiz-adv-x="449" 
d="M50 450h79l127 -190l-127 -200h-79l123 200zM192 450h79l128 -190l-128 -200h-79l124 200z" />
    <glyph glyph-name="questiondown" unicode="&#xbf;" horiz-adv-x="533" 
d="M313 269c0 -36.667 -6.16895 -67.832 -18.502 -93.499s-27.166 -45.167 -44.499 -58.5s-34.833 -26 -52.5 -38s-32.667 -26.833 -45 -44.5s-18.5 -39.167 -18.5 -64.5c0 -42.667 10.833 -73.834 32.5 -93.501s56.167 -29.5 103.5 -29.5s81.833 13 103.5 39
s32.5 67.333 32.5 124h77c0 -80.667 -17.167 -139.167 -51.5 -175.5s-89.5 -54.5 -165.5 -54.5c-75.333 0 -130.166 15 -164.499 45s-51.5 78.333 -51.5 145c0 28 4.83301 52.5 14.5 73.5s21.667 37 36 48l46.5 34.5l46.5 33c14.333 10 26.333 24.5 36 43.5
s14.5 41.167 14.5 66.5h69zM277.998 388.002c-37.333 0 -56 19.333 -56 58s18.667 58 56 58c20 0 34.5 -4.5 43.5 -13.5s13.5 -23.833 13.5 -44.5c0 -38.667 -19 -58 -57 -58z" />
    <glyph glyph-name="Agrave" unicode="&#xc0;" horiz-adv-x="693" 
d="M561 0l-59 170h-313l-60 -170h-89l250 700h121l242 -700h-92zM346 618l-134 -381h266zM393 750h-66l-119 120h77z" />
    <glyph glyph-name="Aacute" unicode="&#xc1;" horiz-adv-x="693" 
d="M561 0l-59 170h-313l-60 -170h-89l250 700h121l242 -700h-92zM346 618l-134 -381h266zM296 750l104 120h81l-116 -120h-69z" />
    <glyph glyph-name="Acircumflex" unicode="&#xc2;" horiz-adv-x="693" 
d="M561 0l-59 170h-313l-60 -170h-89l250 700h121l242 -700h-92zM346 618l-134 -381h266zM483 750h-61l-78 79l-77 -79h-62l99 120h81z" />
    <glyph glyph-name="Atilde" unicode="&#xc3;" horiz-adv-x="693" 
d="M561 0l-59 170h-313l-60 -170h-89l250 700h121l242 -700h-92zM346 618l-134 -381h266zM187 760c0 34 7.83301 59.833 23.5 77.5s36.167 26.5 61.5 26.5c22 0 42 -5.66699 60 -17s34.333 -22.666 49 -33.999s29 -17 43 -17c26 0 39 18 39 54h39c0 -33.333 -8 -59 -24 -77
s-36.333 -27 -61 -27c-22 0 -42 5.66699 -60 17s-34.5 22.666 -49.5 33.999s-29.5 17 -43.5 17c-25.333 0 -38 -18 -38 -54h-39z" />
    <glyph glyph-name="Adieresis" unicode="&#xc4;" horiz-adv-x="693" 
d="M561 0l-59 170h-313l-60 -170h-89l250 700h121l242 -700h-92zM346 618l-134 -381h266zM252 850c37.333 0 56 -17.333 56 -52c0 -34 -18.667 -51 -56 -51c-38 0 -57 17 -57 51c0 18.667 4.5 32 13.5 40s23.5 12 43.5 12zM437 850c37.333 0 56 -17.333 56 -52
c0 -34 -18.667 -51 -56 -51s-56 17 -56 51c0 18.667 4.33301 32 13 40s23 12 43 12z" />
    <glyph glyph-name="Aring" unicode="&#xc5;" horiz-adv-x="693" 
d="M561 0l-59 170h-313l-60 -170h-89l250 700h121l242 -700h-92zM346 618l-134 -381h266zM344 921c39.333 0 67.835 -7.66699 85.502 -23s26.5 -40.333 26.5 -75s-8.83301 -59.834 -26.5 -75.501s-46.167 -23.5 -85.5 -23.5c-38.667 0 -66.834 7.83301 -84.501 23.5
s-26.5 40.834 -26.5 75.501s8.66699 59.667 26 75s45.666 23 84.999 23zM344.002 766c24 0 40.833 4.16895 50.5 12.502s14.5 23.166 14.5 44.499c0 20.667 -5 35.334 -15 44.001s-26.667 13 -50 13s-40 -4.33301 -50 -13s-15 -23.334 -15 -44.001s5 -35.334 15 -44.001
s26.667 -13 50 -13z" />
    <glyph glyph-name="AE" unicode="&#xc6;" horiz-adv-x="933" 
d="M883 629h-340v-228h300v-71h-300v-259h340v-71h-420v170h-244l-89 -170h-90l372 700h471v-71zM463 637l-209 -400h209v400z" />
    <glyph glyph-name="Ccedilla" unicode="&#xc7;" horiz-adv-x="755" 
d="M358 -19l0.999023 -0.000976562c-103.333 4.66699 -179 36.334 -227 95.001s-72 150 -72 274c0 129.333 26 223.333 78 282s134.667 88 248 88c92.667 0 163.167 -19.667 211.5 -59s80.833 -102.666 97.5 -189.999h-88c-15.333 62.667 -39.833 107.167 -73.5 133.5
s-82.834 39.5 -147.501 39.5c-82 0 -141.5 -23.167 -178.5 -69.5s-55.5 -121.166 -55.5 -224.499c0 -104 18.5 -179 55.5 -225s96.5 -69 178.5 -69c59.333 0 105.833 13.167 139.5 39.5s60.834 70.833 81.501 133.5h88c-23.333 -84 -57.833 -145.833 -103.5 -185.5
s-107.5 -60.834 -185.5 -63.501l-10 -31c2.66699 -0.666992 6.33398 -1.33398 11.001 -2.00098s13 -3.16699 25 -7.5s22.5 -9.5 31.5 -15.5s17.167 -14.667 24.5 -26s11 -24 11 -38c0 -35.333 -16.833 -62.5 -50.5 -81.5s-82.5 -28.5 -146.5 -28.5v41
c90.667 0 136 23 136 69c0 18.667 -11 32.167 -33 40.5s-44.667 12.5 -68 12.5z" />
    <glyph glyph-name="Egrave" unicode="&#xc8;" horiz-adv-x="620" 
d="M570 629h-382v-228h342v-71h-342v-259h382v-71h-470v700h470v-71zM384 750h-66l-119 120h77z" />
    <glyph glyph-name="Eacute" unicode="&#xc9;" horiz-adv-x="620" 
d="M570 629h-382v-228h342v-71h-342v-259h382v-71h-470v700h470v-71zM286 750l105 120h80l-115 -120h-70z" />
    <glyph glyph-name="Ecircumflex" unicode="&#xca;" horiz-adv-x="620" 
d="M570 629h-382v-228h342v-71h-342v-259h382v-71h-470v700h470v-71zM474 750h-62l-77 79l-77 -79h-62l99 120h80z" />
    <glyph glyph-name="Edieresis" unicode="&#xcb;" horiz-adv-x="620" 
d="M570 629h-382v-228h342v-71h-342v-259h382v-71h-470v700h470v-71zM242 850c38 0 57 -17.333 57 -52c0 -34 -19 -51 -57 -51c-37.333 0 -56 17 -56 51c0 18.667 4.5 32 13.5 40s23.167 12 42.5 12zM427 850c38 0 57 -17.333 57 -52c0 -34 -19 -51 -57 -51
c-37.333 0 -56 17 -56 51c0 18.667 4.5 32 13.5 40s23.167 12 42.5 12z" />
    <glyph glyph-name="Igrave" unicode="&#xcc;" horiz-adv-x="286" 
d="M93 700h88v-700h-88v700zM186 750h-66l-120 120h78z" />
    <glyph glyph-name="Iacute" unicode="&#xcd;" horiz-adv-x="295" 
d="M105 700h88v-700h-88v700zM100 750l104 120h81l-115 -120h-70z" />
    <glyph glyph-name="Icircumflex" unicode="&#xce;" horiz-adv-x="298" 
d="M105 700h88v-700h-88v700zM288 750h-62l-77 79l-78 -79h-61l99 120h80z" />
    <glyph glyph-name="Idieresis" unicode="&#xcf;" horiz-adv-x="305" 
d="M109 700h88v-700h-88v700zM66 844c38 0 57 -17 57 -51c0 -34.667 -19 -52 -57 -52c-37.333 0 -56 17.333 -56 52c0 18 4.5 31 13.5 39s23.167 12 42.5 12zM239 844c19.333 0 33.5 -4 42.5 -12s13.5 -21 13.5 -39c0 -34.667 -18.667 -52 -56 -52s-56 17.333 -56 52
c0 18 4.33301 31 13 39s23 12 43 12z" />
    <glyph glyph-name="Ntilde" unicode="&#xd1;" horiz-adv-x="753" 
d="M569 700h84v-700h-106l-363 581v-581h-84v700h105l364 -581v581zM219 760c0 34 7.83301 59.833 23.5 77.5s36.167 26.5 61.5 26.5c22 0 42 -5.66699 60 -17s34.333 -22.666 49 -33.999s29 -17 43 -17c26 0 39 18 39 54h39c0 -33.333 -8 -59 -24 -77s-36.333 -27 -61 -27
c-22 0 -42 5.66699 -60 17s-34.5 22.666 -49.5 33.999s-29.5 17 -43.5 17c-25.333 0 -38 -18 -38 -54h-39z" />
    <glyph glyph-name="Ograve" unicode="&#xd2;" horiz-adv-x="785" 
d="M393 720c116.667 0 201.167 -29.333 253.5 -88s78.5 -152.667 78.5 -282s-26.167 -223.333 -78.5 -282s-136.833 -88 -253.5 -88s-201.334 29.333 -254.001 88s-79 152.667 -79 282s26.333 223.333 79 282s137.334 88 254.001 88zM393 644
c-85.333 0 -146.833 -23 -184.5 -69s-56.5 -121 -56.5 -225s18.833 -179 56.5 -225s99.167 -69 184.5 -69s146.833 23 184.5 69s56.5 121 56.5 225s-18.833 179 -56.5 225s-99.167 69 -184.5 69zM442 750h-66l-120 120h78z" />
    <glyph glyph-name="Oacute" unicode="&#xd3;" horiz-adv-x="785" 
d="M393 720c116.667 0 201.167 -29.333 253.5 -88s78.5 -152.667 78.5 -282s-26.167 -223.333 -78.5 -282s-136.833 -88 -253.5 -88s-201.334 29.333 -254.001 88s-79 152.667 -79 282s26.333 223.333 79 282s137.334 88 254.001 88zM393 644
c-85.333 0 -146.833 -23 -184.5 -69s-56.5 -121 -56.5 -225s18.833 -179 56.5 -225s99.167 -69 184.5 -69s146.833 23 184.5 69s56.5 121 56.5 225s-18.833 179 -56.5 225s-99.167 69 -184.5 69zM344 750l104 120h81l-115 -120h-70z" />
    <glyph glyph-name="Ocircumflex" unicode="&#xd4;" horiz-adv-x="785" 
d="M393 720c116.667 0 201.167 -29.333 253.5 -88s78.5 -152.667 78.5 -282s-26.167 -223.333 -78.5 -282s-136.833 -88 -253.5 -88s-201.334 29.333 -254.001 88s-79 152.667 -79 282s26.333 223.333 79 282s137.334 88 254.001 88zM393 644
c-85.333 0 -146.833 -23 -184.5 -69s-56.5 -121 -56.5 -225s18.833 -179 56.5 -225s99.167 -69 184.5 -69s146.833 23 184.5 69s56.5 121 56.5 225s-18.833 179 -56.5 225s-99.167 69 -184.5 69zM532 750h-62l-77 79l-78 -79h-61l99 120h80z" />
    <glyph glyph-name="Otilde" unicode="&#xd5;" horiz-adv-x="785" 
d="M393 720c116.667 0 201.167 -29.333 253.5 -88s78.5 -152.667 78.5 -282s-26.167 -223.333 -78.5 -282s-136.833 -88 -253.5 -88s-201.334 29.333 -254.001 88s-79 152.667 -79 282s26.333 223.333 79 282s137.334 88 254.001 88zM393 644
c-85.333 0 -146.833 -23 -184.5 -69s-56.5 -121 -56.5 -225s18.833 -179 56.5 -225s99.167 -69 184.5 -69s146.833 23 184.5 69s56.5 121 56.5 225s-18.833 179 -56.5 225s-99.167 69 -184.5 69zM235 760c0 33.333 8 59 24 77s36.333 27 61 27c22 0 42 -5.66699 60 -17
s34.5 -22.666 49.5 -33.999s29.5 -17 43.5 -17c25.333 0 38 18 38 54h39c0 -34 -7.83301 -59.833 -23.5 -77.5s-36.167 -26.5 -61.5 -26.5c-22 0 -42 5.66699 -60 17s-34.333 22.666 -49 33.999s-29 17 -43 17c-26 0 -39 -18 -39 -54h-39z" />
    <glyph glyph-name="Odieresis" unicode="&#xd6;" horiz-adv-x="785" 
d="M393 720c116 0 200.333 -29.333 253 -88s79 -152.667 79 -282s-26.333 -223.333 -79 -282s-137 -88 -253 -88c-116.667 0 -201.334 29.333 -254.001 88s-79 152.667 -79 282s26.333 223.333 79 282s137.334 88 254.001 88zM393 644c-85.333 0 -146.833 -23 -184.5 -69
s-56.5 -121 -56.5 -225s18.833 -179 56.5 -225s99.167 -69 184.5 -69c84.667 0 145.834 23 183.501 69s56.5 121 56.5 225s-18.833 179 -56.5 225s-98.834 69 -183.501 69zM300 844c19.333 0 33.5 -4 42.5 -12s13.5 -21 13.5 -39c0 -34.667 -18.667 -52 -56 -52
c-38 0 -57 17.333 -57 52c0 18 4.5 31 13.5 39s23.5 12 43.5 12zM485 844c38 0 57 -17 57 -51c0 -34.667 -19 -52 -57 -52c-37.333 0 -56 17.333 -56 52c0 18 4.5 31 13.5 39s23.167 12 42.5 12z" />
    <glyph glyph-name="multiply" unicode="&#xd7;" horiz-adv-x="546" 
d="M94 474l177 -176l177 177l47 -51l-174 -174l175 -174l-47 -51l-176 177l-176 -176l-47 51l175 175l-174 175z" />
    <glyph glyph-name="Oslash" unicode="&#xd8;" horiz-adv-x="785" 
d="M507 709l23.999 73.001h58l-30 -88c57.333 -23.333 99.333 -63 126 -119s40 -130.667 40 -224c0 -129.333 -26.167 -223.333 -78.5 -282s-136.833 -88 -253.5 -88c-24.667 0 -51 1.66699 -79 5l-23 -65h-58l26 76c-68.667 19.333 -119 57.666 -151 114.999
s-48 137 -48 239c0 129.333 26.333 223.333 79 282s137.334 88 254.001 88c42 0 80 -4 114 -12zM480.999 634.001c-24.667 6.66699 -54 10 -88 10c-85.333 0 -146.833 -23 -184.5 -69s-56.5 -121 -56.5 -225c0 -78.667 10.833 -140.5 32.5 -185.5s55.5 -75.833 101.5 -92.5z
M338.999 59.001c16.667 -2 34.667 -3 54 -3c85.333 0 146.833 23 184.5 69s56.5 121 56.5 225c0 136 -34 223.667 -102 263z" />
    <glyph glyph-name="Ugrave" unicode="&#xd9;" horiz-adv-x="725" 
d="M90 254l-0.000976562 446h88v-446c0 -70 14.5 -120.5 43.5 -151.5s76.167 -46.5 141.5 -46.5s112.333 15.5 141 46.5s43 81.5 43 151.5v446h88v-446c0 -96 -21.5 -165.667 -64.5 -209s-112.167 -65 -207.5 -65s-164.666 21.667 -207.999 65s-65 113 -65 209zM410.999 750
h-65l-120 120h77z" />
    <glyph glyph-name="Uacute" unicode="&#xda;" horiz-adv-x="725" 
d="M90 254l-0.000976562 446h88v-446c0 -70 14.5 -120.5 43.5 -151.5s76.167 -46.5 141.5 -46.5s112.333 15.5 141 46.5s43 81.5 43 151.5v446h88v-446c0 -96 -21.5 -165.667 -64.5 -209s-112.167 -65 -207.5 -65s-164.666 21.667 -207.999 65s-65 113 -65 209zM313.999 750
l104 120h81l-116 -120h-69z" />
    <glyph glyph-name="Ucircumflex" unicode="&#xdb;" horiz-adv-x="725" 
d="M90 254l-0.000976562 446h88v-446c0 -70 14.5 -120.5 43.5 -151.5s76.167 -46.5 141.5 -46.5s112.333 15.5 141 46.5s43 81.5 43 151.5v446h88v-446c0 -96 -21.5 -165.667 -64.5 -209s-112.167 -65 -207.5 -65s-164.666 21.667 -207.999 65s-65 113 -65 209zM500.999 750
h-61l-77 79l-78 -79h-61l98 120h81z" />
    <glyph glyph-name="Udieresis" unicode="&#xdc;" horiz-adv-x="725" 
d="M90 254l-0.000976562 446h88v-446c0 -70 14.333 -120.5 43 -151.5s75.667 -46.5 141 -46.5s112.5 15.5 141.5 46.5s43.5 81.5 43.5 151.5v446h88v-446c0 -96 -21.667 -165.667 -65 -209s-112.666 -65 -207.999 -65s-164.5 21.667 -207.5 65s-64.5 113 -64.5 209z
M269.999 844c19.333 0 33.5 -4 42.5 -12s13.5 -21 13.5 -39c0 -34.667 -18.667 -52 -56 -52c-38 0 -57 17.333 -57 52c0 18 4.5 31 13.5 39s23.5 12 43.5 12zM454.999 844c19.333 0 33.5 -4 42.5 -12s13.5 -21 13.5 -39c0 -34.667 -18.667 -52 -56 -52s-56 17.333 -56 52
c0 18 4.33301 31 13 39s23 12 43 12z" />
    <glyph glyph-name="Yacute" unicode="&#xdd;" horiz-adv-x="649" 
d="M369 283h-1v-283h-84v283l-244 417h98l189 -336l189 336h93zM273 750l104 120h81l-115 -120h-70z" />
    <glyph glyph-name="germandbls" unicode="&#xdf;" horiz-adv-x="628" 
d="M320 720c75.333 0 130.165 -15.001 164.498 -45.001s51.5 -78.333 51.5 -145c0 -74 -50.333 -117.667 -151 -131c63.333 -7.33301 109.5 -26.5 138.5 -57.5s43.5 -76.833 43.5 -137.5c0 -71.333 -15 -123.166 -45 -155.499s-78 -48.5 -144 -48.5
c-35.333 0 -69.666 6.66699 -102.999 20v63c32.667 -10.667 61 -16 85 -16c44.667 0 77 11.333 97 34s30 58.667 30 108c0 52.667 -15.167 91 -45.5 115s-79.166 36 -146.499 36v69c60 0 102.667 8.33301 128 25s38 45 38 85c0 38.667 -10.833 67.334 -32.5 86.001
s-56.5 28 -104.5 28c-54 0 -93.167 -12.833 -117.5 -38.5s-36.5 -66.834 -36.5 -123.501v-491h-80v500c0 74 18.833 129.167 56.5 165.5s95.5 54.5 173.5 54.5z" />
    <glyph glyph-name="agrave" unicode="&#xe0;" horiz-adv-x="545" 
d="M410 0l-10.001 59c-30.667 -46 -86 -69 -166 -69c-64.667 0 -111.5 12.167 -140.5 36.5s-43.5 63.5 -43.5 117.5c0 59.333 17.833 102.5 53.5 129.5s92.834 40.5 171.501 40.5h120v26c0 40.667 -9.83301 70.167 -29.5 88.5s-51.167 27.5 -94.5 27.5
c-44.667 0 -76.5 -8.33301 -95.5 -25s-28.5 -43.667 -28.5 -81h-77c0 56 16 96.667 48 122s83.667 38 155 38c70 0 121.167 -14.167 153.5 -42.5s48.5 -73.833 48.5 -136.5v-331h-65zM394.999 260l-118.001 0.000976562c-51.333 0 -88.666 -8.83301 -111.999 -26.5
s-35 -45.834 -35 -84.501c0 -34.667 9.5 -59.334 28.5 -74.001s50.5 -22 94.5 -22c48 0 83.667 11.333 107 34s35 58.334 35 107.001v66zM208.998 700.001l111 -150h-69l-126 150h84z" />
    <glyph glyph-name="aacute" unicode="&#xe1;" horiz-adv-x="545" 
d="M410 0l-10.001 59c-30.667 -46 -86 -69 -166 -69c-64.667 0 -111.5 12.167 -140.5 36.5s-43.5 63.5 -43.5 117.5c0 59.333 17.833 102.5 53.5 129.5s92.834 40.5 171.501 40.5h120v26c0 40.667 -9.83301 70.167 -29.5 88.5s-51.167 27.5 -94.5 27.5
c-44.667 0 -76.5 -8.33301 -95.5 -25s-28.5 -43.667 -28.5 -81h-77c0 56 16 96.667 48 122s83.667 38 155 38c70 0 121.167 -14.167 153.5 -42.5s48.5 -73.833 48.5 -136.5v-331h-65zM394.999 260l-118.001 0.000976562c-51.333 0 -88.666 -8.83301 -111.999 -26.5
s-35 -45.834 -35 -84.501c0 -34.667 9.5 -59.334 28.5 -74.001s50.5 -22 94.5 -22c48 0 83.667 11.333 107 34s35 58.334 35 107.001v66zM329.998 700.001h84l-126 -150h-69z" />
    <glyph glyph-name="acircumflex" unicode="&#xe2;" horiz-adv-x="545" 
d="M410 0l-10.001 59c-30.667 -46 -86 -69 -166 -69c-64.667 0 -111.5 12.167 -140.5 36.5s-43.5 63.5 -43.5 117.5c0 59.333 17.833 102.5 53.5 129.5s92.834 40.5 171.501 40.5h120v26c0 40.667 -9.83301 70.167 -29.5 88.5s-51.167 27.5 -94.5 27.5
c-44.667 0 -76.5 -8.33301 -95.5 -25s-28.5 -43.667 -28.5 -81h-77c0 56 16 96.667 48 122s83.667 38 155 38c70 0 121.167 -14.167 153.5 -42.5s48.5 -73.833 48.5 -136.5v-331h-65zM394.999 260l-118.001 0.000976562c-51.333 0 -88.666 -8.83301 -111.999 -26.5
s-35 -45.834 -35 -84.501c0 -34.667 9.5 -59.334 28.5 -74.001s50.5 -22 94.5 -22c48 0 83.667 11.333 107 34s35 58.334 35 107.001v66zM311.998 700.001l92 -150h-56l-76 104l-77 -104h-56l92 150h81z" />
    <glyph glyph-name="atilde" unicode="&#xe3;" horiz-adv-x="545" 
d="M410 0l-10.001 59c-30.667 -46 -86 -69 -166 -69c-64.667 0 -111.5 12.167 -140.5 36.5s-43.5 63.5 -43.5 117.5c0 59.333 17.833 102.5 53.5 129.5s92.834 40.5 171.501 40.5h120v26c0 40.667 -9.83301 70.167 -29.5 88.5s-51.167 27.5 -94.5 27.5
c-44.667 0 -76.5 -8.33301 -95.5 -25s-28.5 -43.667 -28.5 -81h-77c0 56 16 96.667 48 122s83.667 38 155 38c70 0 121.167 -14.167 153.5 -42.5s48.5 -73.833 48.5 -136.5v-331h-65zM394.999 260l-118.001 0.000976562c-51.333 0 -88.666 -8.83301 -111.999 -26.5
s-35 -45.834 -35 -84.501c0 -34.667 9.5 -59.334 28.5 -74.001s50.5 -22 94.5 -22c48 0 83.667 11.333 107 34s35 58.334 35 107.001v66zM113.998 575.001c0 34.667 8.16699 63 24.5 85s36.5 33 60.5 33c17.333 0 33.666 -4.83301 48.999 -14.5s27.5 -20.334 36.5 -32.001
s19.167 -22.334 30.5 -32.001s22.333 -14.5 33 -14.5c11.333 0 20.5 5.83301 27.5 17.5s10.5 27.5 10.5 47.5h43c0 -34.667 -8.16699 -63.167 -24.5 -85.5s-36.5 -33.5 -60.5 -33.5c-17.333 0 -33.666 4.83301 -48.999 14.5s-27.5 20.334 -36.5 32.001
s-19.167 22.334 -30.5 32.001s-22.333 14.5 -33 14.5c-11.333 0 -20.5 -5.83301 -27.5 -17.5s-10.5 -27.167 -10.5 -46.5h-43z" />
    <glyph glyph-name="adieresis" unicode="&#xe4;" horiz-adv-x="545" 
d="M410 0l-10.001 59c-30.667 -46 -86 -69 -166 -69c-64.667 0 -111.5 12.167 -140.5 36.5s-43.5 63.5 -43.5 117.5c0 59.333 17.833 102.5 53.5 129.5s92.834 40.5 171.501 40.5h120v26c0 40.667 -9.83301 70.167 -29.5 88.5s-51.167 27.5 -94.5 27.5
c-44.667 0 -76.5 -8.33301 -95.5 -25s-28.5 -43.667 -28.5 -81h-77c0 56 16 96.667 48 122s83.667 38 155 38c70 0 121.167 -14.167 153.5 -42.5s48.5 -73.833 48.5 -136.5v-331h-65zM394.999 260l-118.001 0.000976562c-51.333 0 -88.666 -8.83301 -111.999 -26.5
s-35 -45.834 -35 -84.501c0 -34.667 9.5 -59.334 28.5 -74.001s50.5 -22 94.5 -22c48 0 83.667 11.333 107 34s35 58.334 35 107.001v66zM182.998 687.001c37.333 0 56 -19.333 56 -58s-18.667 -58 -56 -58c-38 0 -57 19.333 -57 58c0 20.667 4.5 35.5 13.5 44.5
s23.5 13.5 43.5 13.5zM359.998 687.001c38 0 57 -19.333 57 -58s-19 -58 -57 -58c-37.333 0 -56 19.333 -56 58c0 20.667 4.5 35.5 13.5 44.5s23.167 13.5 42.5 13.5z" />
    <glyph glyph-name="aring" unicode="&#xe5;" horiz-adv-x="545" 
d="M410 0l-10.001 59c-30.667 -46 -86 -69 -166 -69c-64.667 0 -111.5 12.167 -140.5 36.5s-43.5 63.5 -43.5 117.5c0 59.333 17.833 102.5 53.5 129.5s92.834 40.5 171.501 40.5h120v26c0 40.667 -9.83301 70.167 -29.5 88.5s-51.167 27.5 -94.5 27.5
c-44.667 0 -76.5 -8.33301 -95.5 -25s-28.5 -43.667 -28.5 -81h-77c0 56 16 96.667 48 122s83.667 38 155 38c70 0 121.167 -14.167 153.5 -42.5s48.5 -73.833 48.5 -136.5v-331h-65zM394.999 260l-118.001 0.000976562c-51.333 0 -88.666 -8.83301 -111.999 -26.5
s-35 -45.834 -35 -84.501c0 -34.667 9.5 -59.334 28.5 -74.001s50.5 -22 94.5 -22c48 0 83.667 11.333 107 34s35 58.334 35 107.001v66zM271.998 721.001c38.667 0 66.834 -7.66699 84.501 -23s26.5 -40.333 26.5 -75s-8.83301 -59.834 -26.5 -75.501
s-46.167 -23.5 -85.5 -23.5c-38.667 0 -66.834 7.83301 -84.501 23.5s-26.5 40.834 -26.5 75.501s8.83301 59.667 26.5 75s46.167 23 85.5 23zM271.998 566.001c23.333 0 39.833 4.33105 49.5 12.998s14.5 23.334 14.5 44.001s-4.83301 35.334 -14.5 44.001
s-26.167 13 -49.5 13c-24 0 -40.833 -4.33301 -50.5 -13s-14.5 -23.334 -14.5 -44.001c0 -21.333 4.83301 -36.166 14.5 -44.499s26.5 -12.5 50.5 -12.5z" />
    <glyph glyph-name="ae" unicode="&#xe6;" horiz-adv-x="910" 
d="M476 206c4.66699 -54.667 18.834 -94.6689 42.501 -120.002s59.834 -38 108.501 -38c39.333 0 69.166 7.5 89.499 22.5s35.833 40.833 46.5 77.5h77c-12 -55.333 -34.833 -95.666 -68.5 -120.999s-81.834 -38 -144.501 -38c-101.333 0 -166 40.667 -194 122
c-10.667 -42 -32 -72.667 -64 -92s-77 -29 -135 -29c-64.667 0 -111.5 12.167 -140.5 36.5s-43.5 63.5 -43.5 117.5c0 58.667 17 101.667 51 129s88 41 162 41h132v26c0 38.667 -10 66.834 -30 84.501s-52 26.5 -96 26.5s-75.333 -7.66699 -94 -23s-28 -41.333 -28 -78h-77
c0 56 16 96.667 48 122s83.667 38 155 38c92 0 149.667 -30 173 -90c32 60 92.333 90 181 90c81.333 0 140.5 -21.5 177.5 -64.5s55.5 -111.833 55.5 -206.5v-33h-384zM395 259.998l-112 -0.000976562c-54.667 0 -93.834 -8.66699 -117.501 -26s-35.5 -45.666 -35.5 -84.999
c0 -33.333 9.83301 -57.666 29.5 -72.999s50.834 -23 93.501 -23c49.333 0 85.333 10.667 108 32s34 55.666 34 102.999v72zM780 258.997c0 68 -12.167 116.833 -36.5 146.5s-63.5 44.5 -117.5 44.5c-52.667 0 -91.167 -15 -115.5 -45s-36.5 -78.667 -36.5 -146h306z" />
    <glyph glyph-name="ccedilla" unicode="&#xe7;" 
d="M262 -9l0.000976562 1c-74 4.66699 -127.833 27.5 -161.5 68.5s-50.5 104.167 -50.5 189.5c0 90.667 19.167 156.667 57.5 198s100.166 62 185.499 62c69.333 0 121.5 -14.5 156.5 -43.5s56.833 -75.5 65.5 -139.5h-80c-8 40.667 -23.333 70.167 -46 88.5
s-54.667 27.5 -96 27.5c-57.333 0 -98.833 -15.333 -124.5 -46s-38.5 -79.667 -38.5 -147s12.833 -116.333 38.5 -147s67.167 -46 124.5 -46c41.333 0 73.166 9.16699 95.499 27.5s37.833 47.833 46.5 88.5h80c-8 -61.333 -28.333 -106.666 -61 -135.999
s-80.667 -45 -144 -47l-13 -41c2.66699 -0.666992 6.33398 -1.33398 11.001 -2.00098s13 -3.16699 25 -7.5s22.5 -9.5 31.5 -15.5s17.167 -14.667 24.5 -26s11 -24 11 -38c0 -35.333 -16.833 -62.5 -50.5 -81.5s-82.5 -28.5 -146.5 -28.5v41c90.667 0 136 23 136 69
c0 18.667 -11 32.167 -33 40.5s-45 12.5 -69 12.5z" />
    <glyph glyph-name="egrave" unicode="&#xe8;" 
d="M131 206c4.66699 -54.667 18.8311 -94.501 42.498 -119.501s60.167 -37.5 109.5 -37.5c38.667 0 68.334 7.5 89.001 22.5s36.334 40.833 47.001 77.5h76c-12 -55.333 -34.833 -95.666 -68.5 -120.999s-81.5 -38 -143.5 -38c-81.333 0 -140.5 20.667 -177.5 62
s-55.5 107.333 -55.5 198c0 91.333 18.333 157.5 55 198.5s96 61.5 178 61.5c81.333 0 140.333 -21.5 177 -64.5s55 -111.833 55 -206.5v-33h-384zM282.997 450.999h-1.00098c-53.333 0 -92.166 -15 -116.499 -45s-36.5 -78.667 -36.5 -146h306
c0 68 -11.833 116.833 -35.5 146.5s-62.5 44.5 -116.5 44.5zM329.996 549.999h-69l-126 150h84z" />
    <glyph glyph-name="eacute" unicode="&#xe9;" 
d="M131 206c4.66699 -54.667 18.832 -94.501 42.499 -119.501s60.167 -37.5 109.5 -37.5c38.667 0 68.334 7.5 89.001 22.5s36.334 40.833 47.001 77.5h76c-12 -55.333 -35 -95.666 -69 -120.999s-82.333 -38 -145 -38c-80.667 0 -139.334 20.667 -176.001 62
s-55 107.333 -55 198s18.167 156.667 54.5 198s94.833 62 175.5 62c82.667 0 142.5 -21.333 179.5 -64s55.5 -111.667 55.5 -207v-33h-384zM282.998 450.999h-1.00098c-53.333 0 -92.166 -15 -116.499 -45s-36.5 -78.667 -36.5 -146h306c0 68 -11.833 116.833 -35.5 146.5
s-62.5 44.5 -116.5 44.5zM232.997 549.999l111 150h84l-126 -150h-69z" />
    <glyph glyph-name="ecircumflex" unicode="&#xea;" 
d="M131 206c4.66699 -54.667 18.832 -94.501 42.499 -119.501s60.167 -37.5 109.5 -37.5c38.667 0 68.334 7.5 89.001 22.5s36.334 40.833 47.001 77.5h76c-12 -55.333 -35 -95.666 -69 -120.999s-82.333 -38 -145 -38c-80.667 0 -139.334 20.667 -176.001 62
s-55 107.333 -55 198s18.167 156.667 54.5 198s94.833 62 175.5 62c82.667 0 142.5 -21.333 179.5 -64s55.5 -111.667 55.5 -207v-33h-384zM282.998 450.999h-1.00098c-53.333 0 -92.166 -15 -116.499 -45s-36.5 -78.667 -36.5 -146h306c0 68 -11.833 116.833 -35.5 146.5
s-62.5 44.5 -116.5 44.5zM413.997 549.999h-56l-76 104l-77 -104h-56l92 150h81z" />
    <glyph glyph-name="edieresis" unicode="&#xeb;" 
d="M131 206c4.66699 -54.667 18.832 -94.501 42.499 -119.501s60.167 -37.5 109.5 -37.5c38.667 0 68.334 7.5 89.001 22.5s36.334 40.833 47.001 77.5h76c-12 -55.333 -35 -95.666 -69 -120.999s-82.333 -38 -145 -38c-80.667 0 -139.334 20.667 -176.001 62
s-55 107.333 -55 198s18.167 156.667 54.5 198s94.833 62 175.5 62c82.667 0 142.5 -21.333 179.5 -64s55.5 -111.667 55.5 -207v-33h-384zM282.998 450.999h-1.00098c-53.333 0 -92.166 -15 -116.499 -45s-36.5 -78.667 -36.5 -146h306c0 68 -11.833 116.833 -35.5 146.5
s-62.5 44.5 -116.5 44.5zM191.997 686.999c38 0 57 -19.333 57 -58s-18.667 -58 -56 -58c-38 0 -57 19.333 -57 58c0 20.667 4.5 35.5 13.5 44.5s23.167 13.5 42.5 13.5zM369.997 686.999c38 0 57 -19.333 57 -58s-19 -58 -57 -58c-37.333 0 -56 19.333 -56 58
c0 20.667 4.5 35.5 13.5 44.5s23.167 13.5 42.5 13.5z" />
    <glyph glyph-name="igrave" unicode="&#xec;" horiz-adv-x="245" 
d="M167 0h-81v500h81v-500zM175 550h-69l-126 150h84z" />
    <glyph glyph-name="iacute" unicode="&#xed;" horiz-adv-x="245" 
d="M162 0h-80v500h80v-500zM70 550l111 150h84l-126 -150h-69z" />
    <glyph glyph-name="icircumflex" unicode="&#xee;" horiz-adv-x="245" 
d="M163 0h-81v500h81v-500zM255 550h-57l-76 104l-76 -104h-56l92 150h81z" />
    <glyph glyph-name="idieresis" unicode="&#xef;" horiz-adv-x="238" 
d="M160 0h-81v500h81v-500zM37 670c37.333 0 56 -19.333 56 -58s-18.667 -58 -56 -58c-38 0 -57 19.333 -57 58c0 20.667 4.5 35.5 13.5 44.5s23.5 13.5 43.5 13.5zM202 670c37.333 0 56 -19.333 56 -58s-18.667 -58 -56 -58s-56 19.333 -56 58
c0 20.667 4.33301 35.5 13 44.5s23 13.5 43 13.5z" />
    <glyph glyph-name="ntilde" unicode="&#xf1;" horiz-adv-x="575" 
d="M156 441c31.333 46 85.334 69 162.001 69c65.333 0 112.833 -19 142.5 -57s44.5 -99 44.5 -183v-270h-80v270c0 61.333 -9.83301 105.5 -29.5 132.5s-51.834 40.5 -96.501 40.5c-48.667 0 -84 -13.667 -106 -41s-33 -71.333 -33 -132v-270h-80v500h65zM135.001 575
c0 34.667 8.16699 63 24.5 85s36.5 33 60.5 33c17.333 0 33.666 -4.83301 48.999 -14.5s27.5 -20.334 36.5 -32.001s19.167 -22.334 30.5 -32.001s22.333 -14.5 33 -14.5c11.333 0 20.5 5.83301 27.5 17.5s10.5 27.5 10.5 47.5h43c0 -34.667 -8.16699 -63.167 -24.5 -85.5
s-36.5 -33.5 -60.5 -33.5c-17.333 0 -33.666 4.83301 -48.999 14.5s-27.5 20.334 -36.5 32.001s-19.167 22.334 -30.5 32.001s-22.333 14.5 -33 14.5c-11.333 0 -20.5 -5.83301 -27.5 -17.5s-10.5 -27.167 -10.5 -46.5h-43z" />
    <glyph glyph-name="ograve" unicode="&#xf2;" horiz-adv-x="585" 
d="M293 510c84.667 0 146.167 -20.667 184.5 -62s57.5 -107.333 57.5 -198s-19.167 -156.667 -57.5 -198s-99.833 -62 -184.5 -62c-85.333 0 -147.166 20.667 -185.499 62s-57.5 107.333 -57.5 198s19.167 156.667 57.5 198s100.166 62 185.499 62zM130 250
c0 -68 12.833 -117.167 38.5 -147.5s67.167 -45.5 124.5 -45.5s98.666 15.167 123.999 45.5s38 79.5 38 147.5c0 68.667 -12.667 118 -38 148s-66.666 45 -123.999 45c-58 0 -99.667 -15 -125 -45s-38 -79.333 -38 -148zM341 550h-69l-126 150h84z" />
    <glyph glyph-name="oacute" unicode="&#xf3;" horiz-adv-x="585" 
d="M293 510c84.667 0 146.167 -20.667 184.5 -62s57.5 -107.333 57.5 -198s-19.167 -156.667 -57.5 -198s-99.833 -62 -184.5 -62c-85.333 0 -147.166 20.667 -185.499 62s-57.5 107.333 -57.5 198s19.167 156.667 57.5 198s100.166 62 185.499 62zM130 250
c0 -68 12.833 -117.167 38.5 -147.5s67.167 -45.5 124.5 -45.5s98.666 15.167 123.999 45.5s38 79.5 38 147.5c0 68.667 -12.667 118 -38 148s-66.666 45 -123.999 45c-58 0 -99.667 -15 -125 -45s-38 -79.333 -38 -148zM244 550l111 150h84l-126 -150h-69z" />
    <glyph glyph-name="ocircumflex" unicode="&#xf4;" horiz-adv-x="585" 
d="M293 510c84.667 0 146.167 -20.667 184.5 -62s57.5 -107.333 57.5 -198s-19.167 -156.667 -57.5 -198s-99.833 -62 -184.5 -62c-85.333 0 -147.166 20.667 -185.499 62s-57.5 107.333 -57.5 198s19.167 156.667 57.5 198s100.166 62 185.499 62zM130 250
c0 -68 12.833 -117.167 38.5 -147.5s67.167 -45.5 124.5 -45.5s98.666 15.167 123.999 45.5s38 79.5 38 147.5c0 68.667 -12.667 118 -38 148s-66.666 45 -123.999 45c-58 0 -99.667 -15 -125 -45s-38 -79.333 -38 -148zM425 550h-56l-76 104l-77 -104h-56l92 150h81z" />
    <glyph glyph-name="otilde" unicode="&#xf5;" horiz-adv-x="585" 
d="M293 510c84.667 0 146.167 -20.667 184.5 -62s57.5 -107.333 57.5 -198s-19.167 -156.667 -57.5 -198s-99.833 -62 -184.5 -62c-85.333 0 -147.166 20.667 -185.499 62s-57.5 107.333 -57.5 198s19.167 156.667 57.5 198s100.166 62 185.499 62zM130 250
c0 -68 12.833 -117.167 38.5 -147.5s67.167 -45.5 124.5 -45.5s98.666 15.167 123.999 45.5s38 79.5 38 147.5c0 68.667 -12.667 118 -38 148s-66.666 45 -123.999 45c-58 0 -99.667 -15 -125 -45s-38 -79.333 -38 -148zM135 575c0 34.667 8.16699 63 24.5 85
s36.5 33 60.5 33c17.333 0 33.666 -4.83301 48.999 -14.5s27.5 -20.334 36.5 -32.001s19.167 -22.334 30.5 -32.001s22.333 -14.5 33 -14.5c11.333 0 20.5 5.83301 27.5 17.5s10.5 27.5 10.5 47.5h43c0 -34.667 -8.16699 -63.167 -24.5 -85.5s-36.5 -33.5 -60.5 -33.5
c-17.333 0 -33.666 4.83301 -48.999 14.5s-27.5 20.334 -36.5 32.001s-19.167 22.334 -30.5 32.001s-22.333 14.5 -33 14.5c-11.333 0 -20.5 -5.83301 -27.5 -17.5s-10.5 -27.167 -10.5 -46.5h-43z" />
    <glyph glyph-name="odieresis" unicode="&#xf6;" horiz-adv-x="585" 
d="M293 510c84.667 0 146.167 -20.667 184.5 -62s57.5 -107.333 57.5 -198s-19.167 -156.667 -57.5 -198s-99.833 -62 -184.5 -62c-85.333 0 -147.166 20.667 -185.499 62s-57.5 107.333 -57.5 198s19.167 156.667 57.5 198s100.166 62 185.499 62zM130 250
c0 -68 12.833 -117.167 38.5 -147.5s67.167 -45.5 124.5 -45.5s98.666 15.167 123.999 45.5s38 79.5 38 147.5c0 68.667 -12.667 118 -38 148s-66.666 45 -123.999 45c-58 0 -99.667 -15 -125 -45s-38 -79.333 -38 -148zM204 687c37.333 0 56 -19.333 56 -58
s-18.667 -58 -56 -58c-38 0 -57 19.333 -57 58c0 20.667 4.5 35.5 13.5 44.5s23.5 13.5 43.5 13.5zM381 687c38 0 57 -19.333 57 -58s-19 -58 -57 -58c-37.333 0 -56 19.333 -56 58c0 20.667 4.5 35.5 13.5 44.5s23.167 13.5 42.5 13.5z" />
    <glyph glyph-name="divide" unicode="&#xf7;" horiz-adv-x="620" 
d="M251 55c0 17.333 5.33301 31.5 16 42.5s25 16.5 43 16.5c17.333 0 31.5 -5.5 42.5 -16.5s16.5 -25.167 16.5 -42.5s-5.5 -31.5 -16.5 -42.5s-25.167 -16.5 -42.5 -16.5c-18 0 -32.333 5.5 -43 16.5s-16 25.167 -16 42.5zM570 229h-520v67h520v-67zM251 469
c0 17.333 5.5 31.666 16.5 42.999s25.167 17 42.5 17s31.5 -5.66699 42.5 -17s16.5 -25.666 16.5 -42.999s-5.5 -31.5 -16.5 -42.5s-25.167 -16.5 -42.5 -16.5s-31.5 5.5 -42.5 16.5s-16.5 25.167 -16.5 42.5z" />
    <glyph glyph-name="oslash" unicode="&#xf8;" horiz-adv-x="584" 
d="M291 510c22 0 44 -1.66699 66 -5l22 65h43l-25 -74c46.667 -14.667 81 -42 103 -82s33 -94.667 33 -164c0 -90.667 -19.167 -156.667 -57.5 -198s-99.833 -62 -184.5 -62c-22 0 -44 1.66699 -66 5l-22 -65h-43l25 74c-46.667 14.667 -81 42 -103 82s-33 94.667 -33 164
c0 90.667 19.167 156.667 57.5 198s99.833 62 184.5 62zM291 443l-0.00390625 1c-29.333 0 -54.166 -3.66699 -74.499 -11s-37.166 -18.833 -50.499 -34.5s-23 -35.5 -29 -59.5s-9 -53.333 -9 -88c0 -32.667 2.83301 -60.667 8.5 -84s14.334 -43 26.001 -59
s26.5 -28 44.5 -36l127 368c-13.333 2 -27.666 3 -42.999 3zM372.996 430l-126 -369c12.667 -2 27.334 -3 44.001 -3c57.333 0 98.666 15.167 123.999 45.5s38 79.5 38 147.5c0 49.333 -6.33301 88.5 -19 117.5s-33 49.5 -61 61.5z" />
    <glyph glyph-name="ugrave" unicode="&#xf9;" horiz-adv-x="575" 
d="M409 59c-31.333 -46 -85.334 -69 -162.001 -69c-65.333 0 -112.833 19 -142.5 57s-44.5 99 -44.5 183v270h80v-270c0 -61.333 9.83301 -105.5 29.5 -132.5s51.834 -40.5 96.501 -40.5c48.667 0 84 13.667 106 41s33 71.333 33 132v270h80v-500h-65zM233.999 700l111 -150
h-69l-126 150h84z" />
    <glyph glyph-name="uacute" unicode="&#xfa;" horiz-adv-x="575" 
d="M409 59c-31.333 -46 -85.334 -69 -162.001 -69c-65.333 0 -112.833 19 -142.5 57s-44.5 99 -44.5 183v270h80v-270c0 -61.333 9.83301 -105.5 29.5 -132.5s51.834 -40.5 96.501 -40.5c48.667 0 84 13.667 106 41s33 71.333 33 132v270h80v-500h-65zM318.999 700h84
l-127 -150h-69z" />
    <glyph glyph-name="ucircumflex" unicode="&#xfb;" horiz-adv-x="575" 
d="M409 59c-31.333 -46 -85.334 -69 -162.001 -69c-65.333 0 -112.833 19 -142.5 57s-44.5 99 -44.5 183v270h80v-270c0 -61.333 9.83301 -105.5 29.5 -132.5s51.834 -40.5 96.501 -40.5c48.667 0 84 13.667 106 41s33 71.333 33 132v270h80v-500h-65zM316.999 700l92 -150
h-57l-76 104l-76 -104h-56l92 150h81z" />
    <glyph glyph-name="udieresis" unicode="&#xfc;" horiz-adv-x="575" 
d="M409 59c-31.333 -46 -85.334 -69 -162.001 -69c-65.333 0 -112.833 19 -142.5 57s-44.5 99 -44.5 183v270h80v-270c0 -61.333 9.83301 -105.5 29.5 -132.5s51.834 -40.5 96.501 -40.5c48.667 0 84 13.667 106 41s33 71.333 33 132v270h80v-500h-65zM189.999 687
c37.333 0 56 -19.333 56 -58s-18.667 -58 -56 -58c-38 0 -57 19.333 -57 58c0 20.667 4.5 35.5 13.5 44.5s23.5 13.5 43.5 13.5zM367.999 687c37.333 0 56 -19.333 56 -58s-19 -58 -57 -58c-37.333 0 -56 19.333 -56 58c0 20.667 4.5 35.5 13.5 44.5s23.5 13.5 43.5 13.5z
" />
    <glyph glyph-name="yacute" unicode="&#xfd;" horiz-adv-x="525" 
d="M246 6l2 6l-218 488h78l174 -390l136 390h77l-186 -520c-20 -56 -43.167 -96.667 -69.5 -122s-58.833 -38 -97.5 -38h-55v59h52c22.667 0 42.5 10 59.5 30s32.833 52.333 47.5 97zM221 550l111 150h84l-126 -150h-69z" />
    <glyph glyph-name="ydieresis" unicode="&#xff;" horiz-adv-x="525" 
d="M246 6l2 6l-218 488h78l174 -390l136 390h77l-186 -520c-20 -56 -43.167 -96.667 -69.5 -122s-58.833 -38 -97.5 -38h-55v59h52c22.667 0 42.5 10 59.5 30s32.833 52.333 47.5 97zM177 687c38 0 57 -19.333 57 -58s-19 -58 -57 -58c-37.333 0 -56 19.333 -56 58
c0 20.667 4.5 35.5 13.5 44.5s23.167 13.5 42.5 13.5zM355 687c37.333 0 56 -19.333 56 -58s-18.667 -58 -56 -58s-56 19.333 -56 58c0 20.667 4.33301 35.5 13 44.5s23 13.5 43 13.5z" />
    <glyph glyph-name="Amacron" unicode="&#x100;" horiz-adv-x="693" 
d="M561 0l-59 170h-313l-60 -170h-89l250 700h121l242 -700h-92zM346 618l-134 -381h266zM174 821h340v-54h-340v54z" />
    <glyph glyph-name="amacron" unicode="&#x101;" horiz-adv-x="545" 
d="M410 0l-10.001 59c-30.667 -46 -86 -69 -166 -69c-64.667 0 -111.5 12.167 -140.5 36.5s-43.5 63.5 -43.5 117.5c0 59.333 17.833 102.5 53.5 129.5s92.834 40.5 171.501 40.5h120v26c0 40.667 -9.83301 70.167 -29.5 88.5s-51.167 27.5 -94.5 27.5
c-44.667 0 -76.5 -8.33301 -95.5 -25s-28.5 -43.667 -28.5 -81h-77c0 56 16 96.667 48 122s83.667 38 155 38c70 0 121.167 -14.167 153.5 -42.5s48.5 -73.833 48.5 -136.5v-331h-65zM394.999 260l-118.001 0.000976562c-51.333 0 -88.666 -8.83301 -111.999 -26.5
s-35 -45.834 -35 -84.501c0 -34.667 9.5 -59.334 28.5 -74.001s50.5 -22 94.5 -22c48 0 83.667 11.333 107 34s35 58.334 35 107.001v66zM100.998 586.001v54h340v-54h-340z" />
    <glyph glyph-name="Abreve" unicode="&#x102;" horiz-adv-x="693" 
d="M561 0l-59 170h-313l-60 -170h-89l250 700h121l242 -700h-92zM346 618l-134 -381h266zM502 870c0 -42 -12.498 -72.5 -37.498 -91.5s-65.167 -28.5 -120.5 -28.5c-54.667 0 -94.5 9.5 -119.5 28.5s-37.5 49.5 -37.5 91.5h61c0 -26 7.66699 -44.833 23 -56.5
s39.666 -17.5 72.999 -17.5s57.666 5.83301 72.999 17.5s23 30.5 23 56.5h62z" />
    <glyph glyph-name="abreve" unicode="&#x103;" horiz-adv-x="545" 
d="M410 0l-10.001 59c-30.667 -46 -86 -69 -166 -69c-64.667 0 -111.5 12.167 -140.5 36.5s-43.5 63.5 -43.5 117.5c0 59.333 17.833 102.5 53.5 129.5s92.834 40.5 171.501 40.5h120v26c0 40.667 -9.83301 70.167 -29.5 88.5s-51.167 27.5 -94.5 27.5
c-44.667 0 -76.5 -8.33301 -95.5 -25s-28.5 -43.667 -28.5 -81h-77c0 56 16 96.667 48 122s83.667 38 155 38c70 0 121.167 -14.167 153.5 -42.5s48.5 -73.833 48.5 -136.5v-331h-65zM394.999 260l-118.001 0.000976562c-51.333 0 -88.666 -8.83301 -111.999 -26.5
s-35 -45.834 -35 -84.501c0 -34.667 9.5 -59.334 28.5 -74.001s50.5 -22 94.5 -22c48 0 83.667 11.333 107 34s35 58.334 35 107.001v66zM370.998 700.001h58.001c0 -52.667 -12.5 -90.834 -37.5 -114.501s-64.833 -35.5 -119.5 -35.5c-55.333 0 -95.5 11.833 -120.5 35.5
s-37.5 61.834 -37.5 114.501h58c0 -34.667 8 -60 24 -76s41.333 -24 76 -24c35.333 0 60.666 7.83301 75.999 23.5s23 41.167 23 76.5z" />
    <glyph glyph-name="Aogonek" unicode="&#x104;" horiz-adv-x="700" 
d="M578 0h-17l-59 170h-313l-60 -170h-89l250 700h121l242 -700h-29c-42.667 -30 -68 -64.667 -76 -104c-7.33301 -34 2 -56 28 -66c7.33301 -2.66699 15.666 -4 24.999 -4c10 0 19.833 1.5 29.5 4.5s16.834 6.16699 21.501 9.5l8 4v-74c-20 -13.333 -43.333 -20 -70 -20
c-40 0 -68.333 15 -85 45s-18.167 65 -4.5 105s39.5 73.333 77.5 100zM346 618l-134 -381h266z" />
    <glyph glyph-name="aogonek" unicode="&#x105;" horiz-adv-x="559" 
d="M410 2l0.999023 -0.999023l-10 57c-30.667 -46 -86 -69 -166 -69c-64.667 0 -111.5 12.167 -140.5 36.5s-43.5 63.5 -43.5 117.5c0 59.333 17.833 102.5 53.5 129.5s92.834 40.5 171.501 40.5h120v26c0 40.667 -9.83301 70.167 -29.5 88.5s-51.167 27.5 -94.5 27.5
c-44.667 0 -76.5 -8.33301 -95.5 -25s-28.5 -43.667 -28.5 -81h-77c0 56 16 96.667 48 122s83.667 38 155 38c70 0 121.167 -14.167 153.5 -42.5s48.5 -73.833 48.5 -136.5v-331h-22c-42.667 -30 -68 -64.667 -76 -104c-7.33301 -34 2 -56 28 -66
c7.33301 -2.66699 15.666 -4 24.999 -4c10 0 19.833 1.5 29.5 4.5s16.834 5.83301 21.501 8.5l8 5v-74c-20 -13.333 -43.333 -20 -70 -20c-30.667 0 -54.667 9.33301 -72 28s-26.5 41.167 -27.5 67.5s6.33301 54.166 22 83.499s38.167 54 67.5 74zM394.999 260.001
l-118.001 0.000976562c-51.333 0 -88.666 -8.83301 -111.999 -26.5s-35 -45.834 -35 -84.501c0 -34.667 9.5 -59.334 28.5 -74.001s50.5 -22 94.5 -22c48 0 83.667 11.333 107 34s35 58.334 35 107.001v66z" />
    <glyph glyph-name="Cacute" unicode="&#x106;" horiz-adv-x="755" 
d="M607 229l88.001 -0.00292969c-24.667 -87.333 -61.334 -150.666 -110.001 -189.999s-115 -59 -199 -59c-113.333 0 -196 29.333 -248 88s-78 152.667 -78 282s26 223.333 78 282s134.667 88 248 88c92.667 0 163.167 -19.667 211.5 -59s80.833 -102.666 97.5 -189.999
h-88c-15.333 62.667 -39.833 107.167 -73.5 133.5s-82.834 39.5 -147.501 39.5c-82 0 -141.5 -23.167 -178.5 -69.5s-55.5 -121.166 -55.5 -224.499c0 -104 18.5 -179 55.5 -225s96.5 -69 178.5 -69c59.333 0 105.833 13.167 139.5 39.5s60.834 70.833 81.501 133.5z
M344.001 749.997l104 120h81l-115 -120h-70z" />
    <glyph glyph-name="cacute" unicode="&#x107;" 
d="M435 173h80.001c-8.66699 -64 -30.5 -110.5 -65.5 -139.5s-87.167 -43.5 -156.5 -43.5c-85.333 0 -147.166 20.667 -185.499 62s-57.5 107.333 -57.5 198s19.167 156.667 57.5 198s100.166 62 185.499 62c69.333 0 121.5 -14.5 156.5 -43.5s56.833 -75.5 65.5 -139.5h-80
c-8 40.667 -23.333 70.167 -46 88.5s-54.667 27.5 -96 27.5c-57.333 0 -98.833 -15.333 -124.5 -46s-38.5 -79.667 -38.5 -147s12.833 -116.333 38.5 -147s67.167 -46 124.5 -46c41.333 0 73.166 9.16699 95.499 27.5s37.833 47.833 46.5 88.5zM244.001 550l111 150h84
l-126 -150h-69z" />
    <glyph glyph-name="Ccircumflex" unicode="&#x108;" horiz-adv-x="755" 
d="M607 229l88.001 -0.00292969c-24.667 -87.333 -61.334 -150.666 -110.001 -189.999s-115 -59 -199 -59c-113.333 0 -196 29.333 -248 88s-78 152.667 -78 282s26 223.333 78 282s134.667 88 248 88c92.667 0 163.167 -19.667 211.5 -59s80.833 -102.666 97.5 -189.999
h-88c-15.333 62.667 -39.833 107.167 -73.5 133.5s-82.834 39.5 -147.501 39.5c-82 0 -141.5 -23.167 -178.5 -69.5s-55.5 -121.166 -55.5 -224.499c0 -104 18.5 -179 55.5 -225s96.5 -69 178.5 -69c59.333 0 105.833 13.167 139.5 39.5s60.834 70.833 81.501 133.5z
M532.001 749.997h-62l-77 79l-78 -79h-61l99 120h80z" />
    <glyph glyph-name="ccircumflex" unicode="&#x109;" 
d="M435 173h80.001c-8.66699 -64 -30.5 -110.5 -65.5 -139.5s-87.167 -43.5 -156.5 -43.5c-85.333 0 -147.166 20.667 -185.499 62s-57.5 107.333 -57.5 198s19.167 156.667 57.5 198s100.166 62 185.499 62c69.333 0 121.5 -14.5 156.5 -43.5s56.833 -75.5 65.5 -139.5h-80
c-8 40.667 -23.333 70.167 -46 88.5s-54.667 27.5 -96 27.5c-57.333 0 -98.833 -15.333 -124.5 -46s-38.5 -79.667 -38.5 -147s12.833 -116.333 38.5 -147s67.167 -46 124.5 -46c41.333 0 73.166 9.16699 95.499 27.5s37.833 47.833 46.5 88.5zM425.001 550h-56l-76 104
l-77 -104h-56l92 150h81z" />
    <glyph glyph-name="Cdotaccent" unicode="&#x10a;" horiz-adv-x="755" 
d="M607 229l88.001 -0.00292969c-24.667 -87.333 -61.334 -150.666 -110.001 -189.999s-115 -59 -199 -59c-113.333 0 -196 29.333 -248 88s-78 152.667 -78 282s26 223.333 78 282s134.667 88 248 88c92.667 0 163.167 -19.667 211.5 -59s80.833 -102.666 97.5 -189.999
h-88c-15.333 62.667 -39.833 107.167 -73.5 133.5s-82.834 39.5 -147.501 39.5c-82 0 -141.5 -23.167 -178.5 -69.5s-55.5 -121.166 -55.5 -224.499c0 -104 18.5 -179 55.5 -225s96.5 -69 178.5 -69c59.333 0 105.833 13.167 139.5 39.5s60.834 70.833 81.501 133.5z
M393.001 853.997c19.333 0 33.5 -4 42.5 -12s13.5 -21 13.5 -39c0 -34.667 -18.667 -52 -56 -52c-38 0 -57 17.333 -57 52c0 18 4.5 31 13.5 39s23.5 12 43.5 12z" />
    <glyph glyph-name="cdotaccent" unicode="&#x10b;" 
d="M435 173h80.001c-8.66699 -64 -30.5 -110.5 -65.5 -139.5s-87.167 -43.5 -156.5 -43.5c-85.333 0 -147.166 20.667 -185.499 62s-57.5 107.333 -57.5 198s19.167 156.667 57.5 198s100.166 62 185.499 62c69.333 0 121.5 -14.5 156.5 -43.5s56.833 -75.5 65.5 -139.5h-80
c-8 40.667 -23.333 70.167 -46 88.5s-54.667 27.5 -96 27.5c-57.333 0 -98.833 -15.333 -124.5 -46s-38.5 -79.667 -38.5 -147s12.833 -116.333 38.5 -147s67.167 -46 124.5 -46c41.333 0 73.166 9.16699 95.499 27.5s37.833 47.833 46.5 88.5zM292.001 681
c38 0 57 -18.333 57 -55c0 -19.333 -4.5 -33.5 -13.5 -42.5s-23.5 -13.5 -43.5 -13.5c-37.333 0 -56 18.667 -56 56c0 19.333 4.5 33.333 13.5 42s23.167 13 42.5 13z" />
    <glyph glyph-name="Ccaron" unicode="&#x10c;" horiz-adv-x="755" 
d="M607 229l88.001 -0.00292969c-24.667 -87.333 -61.334 -150.666 -110.001 -189.999s-115 -59 -199 -59c-113.333 0 -196 29.333 -248 88s-78 152.667 -78 282s26 223.333 78 282s134.667 88 248 88c92.667 0 163.167 -19.667 211.5 -59s80.833 -102.666 97.5 -189.999
h-88c-15.333 62.667 -39.833 107.167 -73.5 133.5s-82.834 39.5 -147.501 39.5c-82 0 -141.5 -23.167 -178.5 -69.5s-55.5 -121.166 -55.5 -224.499c0 -104 18.5 -179 55.5 -225s96.5 -69 178.5 -69c59.333 0 105.833 13.167 139.5 39.5s60.834 70.833 81.501 133.5z
M528.001 869.997l-99 -120h-80l-99 120h62l77 -79l77 79h62z" />
    <glyph glyph-name="ccaron" unicode="&#x10d;" 
d="M435 173h80.001c-8.66699 -64 -30.5 -110.5 -65.5 -139.5s-87.167 -43.5 -156.5 -43.5c-85.333 0 -147.166 20.667 -185.499 62s-57.5 107.333 -57.5 198s19.167 156.667 57.5 198s100.166 62 185.499 62c69.333 0 121.5 -14.5 156.5 -43.5s56.833 -75.5 65.5 -139.5h-80
c-8 40.667 -23.333 70.167 -46 88.5s-54.667 27.5 -96 27.5c-57.333 0 -98.833 -15.333 -124.5 -46s-38.5 -79.667 -38.5 -147s12.833 -116.333 38.5 -147s67.167 -46 124.5 -46c41.333 0 73.166 9.16699 95.499 27.5s37.833 47.833 46.5 88.5zM425.001 700l-92 -150h-81
l-92 150h56l76 -104l76 104h57z" />
    <glyph glyph-name="Dcaron" unicode="&#x10e;" horiz-adv-x="723" 
d="M663 350c0 -122.667 -25.5 -211.667 -76.5 -267s-133.167 -83 -246.5 -83h-240v700h240c113.333 0 195.5 -27.667 246.5 -83s76.5 -144.333 76.5 -267zM336 629l-148 -0.000976562v-558h148c82.667 0 142.5 21.833 179.5 65.5s55.5 114.834 55.5 213.501
c0 98 -18.5 169 -55.5 213s-96.833 66 -179.5 66zM465 869.999l-98 -120h-81l-99 120h62l77 -79l78 79h61z" />
    <glyph glyph-name="dcaron" unicode="&#x10f;" horiz-adv-x="681" 
d="M263 -10c-74.667 0 -128.834 20.668 -162.501 62.001s-50.5 107.666 -50.5 198.999s17 157.5 51 198.5s88.333 61.5 163 61.5c80.667 0 137.667 -24.333 171 -73v263h80v-700h-65l-12 68c-33.333 -52.667 -91.666 -79 -174.999 -79zM283 58.001
c53.333 0 92 15.333 116 46s36 79.667 36 147s-12 116.333 -36 147s-62.667 46 -116 46s-92.166 -15.333 -116.499 -46s-36.5 -79.667 -36.5 -147s12.167 -116.333 36.5 -147s63.166 -46 116.499 -46zM607 705.001c29.333 0 44 -24.667 44 -74c0 -64 -26.333 -96 -79 -96v36
c24 0 36 17.667 36 53c-30.667 0 -46 11.667 -46 35c0 30.667 15 46 45 46z" />
    <glyph glyph-name="Dcroat" unicode="&#x110;" horiz-adv-x="753" 
d="M693 350c0 -122.667 -25.5 -211.667 -76.5 -267s-133.167 -83 -246.5 -83h-240v366h-90v63h90v271h240c113.333 0 195.5 -27.667 246.5 -83s76.5 -144.333 76.5 -267zM366 629l-148 -0.000976562v-200h187v-63h-187v-295h148c82.667 0 142.5 21.833 179.5 65.5
s55.5 114.834 55.5 213.501c0 98 -18.5 169 -55.5 213s-96.833 66 -179.5 66z" />
    <glyph glyph-name="dcroat" unicode="&#x111;" horiz-adv-x="635" 
d="M605 630l-0.000976562 -45h-89v-584h-65l-12 68c-33.333 -52.667 -91.666 -79 -174.999 -79c-74.667 0 -129 20.5 -163 61.5s-51 107.167 -51 198.5s17 157.5 51 198.5s88.333 61.5 163 61.5c80.667 0 137.667 -24.333 171 -73v147h-204v46h204v70h80v-70h90zM282.999 57
c53.333 0 92 15.333 116 46s36 79.667 36 147s-12 116.333 -36 147s-62.667 46 -116 46s-92.166 -15.333 -116.499 -46s-36.5 -79.667 -36.5 -147s12.167 -116.333 36.5 -147s63.166 -46 116.499 -46z" />
    <glyph glyph-name="Emacron" unicode="&#x112;" horiz-adv-x="620" 
d="M570 629h-382v-228h342v-71h-342v-259h382v-71h-470v700h470v-71zM165 821h340v-54h-340v54z" />
    <glyph glyph-name="emacron" unicode="&#x113;" 
d="M131 206c4.66699 -54.667 18.832 -94.501 42.499 -119.501s60.167 -37.5 109.5 -37.5c38.667 0 68.334 7.5 89.001 22.5s36.334 40.833 47.001 77.5h76c-12 -55.333 -35 -95.666 -69 -120.999s-82.333 -38 -145 -38c-80.667 0 -139.334 20.667 -176.001 62
s-55 107.333 -55 198s18.167 156.667 54.5 198s94.833 62 175.5 62c82.667 0 142.5 -21.333 179.5 -64s55.5 -111.667 55.5 -207v-33h-384zM282.998 450.999c-53.333 0 -92.333 -15 -117 -45s-37 -78.667 -37 -146h306c0 68 -11.833 116.833 -35.5 146.5
s-62.5 44.5 -116.5 44.5zM110.998 639.999h340v-54h-340v54z" />
    <glyph glyph-name="Ebreve" unicode="&#x114;" horiz-adv-x="620" 
d="M570 629h-382v-228h342v-71h-342v-259h382v-71h-470v700h470v-71zM493 870c0 -42 -12.498 -72.5 -37.498 -91.5s-65.167 -28.5 -120.5 -28.5s-95.5 9.5 -120.5 28.5s-37.5 49.5 -37.5 91.5h62c0 -26 7.66699 -44.833 23 -56.5s39.666 -17.5 72.999 -17.5
s57.666 5.83301 72.999 17.5s23 30.5 23 56.5h62z" />
    <glyph glyph-name="ebreve" unicode="&#x115;" 
d="M131 206c4.66699 -54.667 18.832 -94.501 42.499 -119.501s60.167 -37.5 109.5 -37.5c38.667 0 68.334 7.5 89.001 22.5s36.334 40.833 47.001 77.5h76c-12 -55.333 -35 -95.666 -69 -120.999s-82.333 -38 -145 -38c-80.667 0 -139.334 20.667 -176.001 62
s-55 107.333 -55 198s18.167 156.667 54.5 198s94.833 62 175.5 62c82.667 0 142.5 -21.333 179.5 -64s55.5 -111.667 55.5 -207v-33h-384zM282.998 450.999c-53.333 0 -92.333 -15 -117 -45s-37 -78.667 -37 -146h306c0 68 -11.833 116.833 -35.5 146.5
s-62.5 44.5 -116.5 44.5zM438.998 699.999c0 -52.667 -12.499 -90.834 -37.499 -114.501s-64.833 -35.5 -119.5 -35.5c-55.333 0 -95.5 11.833 -120.5 35.5s-37.5 61.834 -37.5 114.501h58c0 -34.667 8 -60 24 -76s41.333 -24 76 -24c35.333 0 60.666 7.83301 75.999 23.5
s23 41.167 23 76.5h58z" />
    <glyph glyph-name="Edotaccent" unicode="&#x116;" horiz-adv-x="620" 
d="M570 629h-382v-228h342v-71h-342v-259h382v-71h-470v700h470v-71zM335 854c19.333 0 33.5 -4 42.5 -12s13.5 -21 13.5 -39c0 -34.667 -18.667 -52 -56 -52s-56 17.333 -56 52c0 18 4.33301 31 13 39s23 12 43 12z" />
    <glyph glyph-name="edotaccent" unicode="&#x117;" 
d="M131 206c4.66699 -54.667 18.832 -94.501 42.499 -119.501s60.167 -37.5 109.5 -37.5c38.667 0 68.334 7.5 89.001 22.5s36.334 40.833 47.001 77.5h76c-12 -55.333 -35 -95.666 -69 -120.999s-82.333 -38 -145 -38c-80.667 0 -139.334 20.667 -176.001 62
s-55 107.333 -55 198s18.167 156.667 54.5 198s94.833 62 175.5 62c82.667 0 142.5 -21.333 179.5 -64s55.5 -111.667 55.5 -207v-33h-384zM282.998 450.999h-1.00098c-53.333 0 -92.166 -15 -116.499 -45s-36.5 -78.667 -36.5 -146h306c0 68 -11.833 116.833 -35.5 146.5
s-62.5 44.5 -116.5 44.5zM280.997 680.999c38 0 57 -18.333 57 -55c0 -19.333 -4.5 -33.5 -13.5 -42.5s-23.5 -13.5 -43.5 -13.5c-37.333 0 -56 18.667 -56 56c0 19.333 4.5 33.333 13.5 42s23.167 13 42.5 13z" />
    <glyph glyph-name="Eogonek" unicode="&#x118;" horiz-adv-x="623" 
d="M570 0h-33.999c-42 -30 -67.333 -64.667 -76 -104c-7.33301 -34 2.33398 -56 29.001 -66c7.33301 -2.66699 15.666 -4 24.999 -4c10 0 19.833 1.5 29.5 4.5s17.167 6.16699 22.5 9.5l7 4v-74c-20 -13.333 -43.333 -20 -70 -20c-40 0 -68.333 15 -85 45
s-18.334 65 -5.00098 105s39.333 73.333 78 100h-391v700h470v-71h-382v-228h342v-71h-342v-259h382v-71z" />
    <glyph glyph-name="eogonek" unicode="&#x119;" 
d="M350 -4l-0.00488281 1c-41.333 -30.667 -65.333 -65.334 -72 -104.001c-5.33301 -33.333 5.33398 -54.333 32.001 -63c6 -2 13.333 -3 22 -3c16.667 0 36.334 5.66699 59.001 17v-74c-20 -13.333 -43.667 -20 -71 -20c-38 0 -65.5 14 -82.5 42s-20.167 61.167 -9.5 99.5
s33 71.5 67 99.5h-12c-81.333 0 -140.5 20.667 -177.5 62s-55.5 107.333 -55.5 198c0 91.333 18.167 157.5 54.5 198.5s94.833 61.5 175.5 61.5c82.667 0 142.5 -21.333 179.5 -64s55.5 -111.667 55.5 -207v-33h-384c4.66699 -54.667 18.834 -94.5 42.501 -119.5
s60.167 -37.5 109.5 -37.5c38.667 0 68.334 7.5 89.001 22.5s36.334 40.833 47.001 77.5h76c-18.667 -87.333 -67 -138.666 -145 -153.999zM284.995 452c-53.333 0 -92.333 -15 -117 -45s-37 -78.667 -37 -146h306c0 68 -11.833 116.833 -35.5 146.5s-62.5 44.5 -116.5 44.5
z" />
    <glyph glyph-name="Ecaron" unicode="&#x11a;" horiz-adv-x="620" 
d="M570 629h-382v-228h342v-71h-342v-259h382v-71h-470v700h470v-71zM470 870l-98 -120h-81l-99 120h62l77 -79l78 79h61z" />
    <glyph glyph-name="ecaron" unicode="&#x11b;" 
d="M131 206c4.66699 -54.667 18.832 -94.501 42.499 -119.501s60.167 -37.5 109.5 -37.5c38.667 0 68.334 7.5 89.001 22.5s36.334 40.833 47.001 77.5h76c-12 -55.333 -35 -95.666 -69 -120.999s-82.333 -38 -145 -38c-80.667 0 -139.334 20.667 -176.001 62
s-55 107.333 -55 198s18.167 156.667 54.5 198s94.833 62 175.5 62c82.667 0 142.5 -21.333 179.5 -64s55.5 -111.667 55.5 -207v-33h-384zM434.998 259.999c0 68 -12.001 116.833 -36.001 146.5s-63 44.5 -117 44.5c-53.333 0 -92.166 -15 -116.499 -45
s-36.5 -78.667 -36.5 -146h306zM413.997 699.999l-92 -150h-81l-92 150h56l77 -104l76 104h56z" />
    <glyph glyph-name="Gbreve" unicode="&#x11e;" horiz-adv-x="765" 
d="M393 320l-0.00488281 67.001h312v-37c0 -129.333 -24.667 -223.333 -74 -282s-128.666 -88 -237.999 -88c-116.667 0 -201.334 29.333 -254.001 88s-79 152.667 -79 282s26.333 223.333 79 282s137.334 88 254.001 88c89.333 0 157.833 -19 205.5 -57
s79.834 -99 96.501 -183h-84c-13.333 58 -37.166 99.833 -71.499 125.5s-83.166 38.5 -146.499 38.5c-85.333 0 -146.833 -23 -184.5 -69s-56.5 -121 -56.5 -225s18.833 -179 56.5 -225s99.167 -69 184.5 -69c80.667 0 138.834 20.667 174.501 62s53.5 108.666 53.5 201.999
h-228zM549.995 870.001c0 -42 -12.498 -72.5 -37.498 -91.5s-64.833 -28.5 -119.5 -28.5c-55.333 0 -95.5 9.5 -120.5 28.5s-37.5 49.5 -37.5 91.5h62c0 -26 7.66699 -44.833 23 -56.5s39.666 -17.5 72.999 -17.5s57.666 5.83301 72.999 17.5s23 30.5 23 56.5h61z" />
    <glyph glyph-name="gbreve" unicode="&#x11f;" horiz-adv-x="595" 
d="M264 -10c-75.333 0 -129.83 20.502 -163.497 61.502s-50.5 106.833 -50.5 197.5c0 91.333 17 157.666 51 198.999s88.333 62 163 62c84 0 142.667 -27 176 -81l10 71h65v-450c0 -91.333 -18.333 -157.5 -55 -198.5s-95.667 -61.5 -177 -61.5
c-64.667 0 -113.834 12.667 -147.501 38s-55.5 65.666 -65.5 120.999h77c8 -36 22.167 -61.667 42.5 -77s50.166 -23 89.499 -23c55.333 0 95.166 14.667 119.499 44s36.5 77.333 36.5 144v26c-33.333 -48.667 -90.333 -73 -171 -73zM283.003 56.002
c54 0 92.833 15 116.5 45s35.5 79.333 35.5 148s-11.833 118 -35.5 148s-62.5 45 -116.5 45c-54.667 0 -93.834 -15 -117.501 -45s-35.5 -79.333 -35.5 -148c0 -68 11.833 -117.167 35.5 -147.5s62.834 -45.5 117.501 -45.5zM459.003 700.002
c0 -52.667 -12.5 -90.834 -37.5 -114.501s-65.167 -35.5 -120.5 -35.5c-54.667 0 -94.5 11.833 -119.5 35.5s-37.5 61.834 -37.5 114.501h57c0 -34.667 7.83301 -60 23.5 -76s41.167 -24 76.5 -24c36 0 61.667 7.83301 77 23.5s23 41.167 23 76.5h58z" />
    <glyph glyph-name="Gdotaccent" unicode="&#x120;" horiz-adv-x="765" 
d="M393 320l-0.00488281 67.001h312v-37c0 -129.333 -24.667 -223.333 -74 -282s-128.666 -88 -237.999 -88c-116.667 0 -201.334 29.333 -254.001 88s-79 152.667 -79 282s26.333 223.333 79 282s137.334 88 254.001 88c89.333 0 157.833 -19 205.5 -57
s79.834 -99 96.501 -183h-84c-13.333 58 -37.166 99.833 -71.499 125.5s-83.166 38.5 -146.499 38.5c-85.333 0 -146.833 -23 -184.5 -69s-56.5 -121 -56.5 -225s18.833 -179 56.5 -225s99.167 -69 184.5 -69c80.667 0 138.834 20.667 174.501 62s53.5 108.666 53.5 201.999
h-228zM392.995 854.001c19.333 0 33.5 -4 42.5 -12s13.5 -21 13.5 -39c0 -34.667 -18.667 -52 -56 -52c-38 0 -57 17.333 -57 52c0 18 4.5 31 13.5 39s23.5 12 43.5 12z" />
    <glyph glyph-name="gdotaccent" unicode="&#x121;" horiz-adv-x="590" 
d="M264 -10c-75.333 0 -129.83 20.502 -163.497 61.502s-50.5 106.833 -50.5 197.5c0 91.333 17 157.666 51 198.999s88.333 62 163 62c84 0 142.667 -27 176 -81l10 71h65v-450c0 -91.333 -18.333 -157.5 -55 -198.5s-95.667 -61.5 -177 -61.5
c-64.667 0 -113.834 12.667 -147.501 38s-55.5 65.666 -65.5 120.999h77c8 -36 22.167 -61.667 42.5 -77s50.166 -23 89.499 -23c55.333 0 95.166 14.667 119.499 44s36.5 77.333 36.5 144v26c-33.333 -48.667 -90.333 -73 -171 -73zM283.003 56.002
c54 0 92.833 15 116.5 45s35.5 79.333 35.5 148s-11.833 118 -35.5 148s-62.5 45 -116.5 45c-54.667 0 -93.834 -15 -117.501 -45s-35.5 -79.333 -35.5 -148c0 -68 11.833 -117.167 35.5 -147.5s62.834 -45.5 117.501 -45.5zM307.003 669.002c20 0 34.5 -4.5 43.5 -13.5
s13.5 -23.167 13.5 -42.5c0 -36.667 -19 -55 -57 -55c-37.333 0 -56 18.333 -56 55c0 37.333 18.667 56 56 56z" />
    <glyph glyph-name="Gcedilla" unicode="&#x122;" horiz-adv-x="765" 
d="M393 320l-0.00488281 67.001h312v-37c0 -129.333 -24.667 -223.333 -74 -282s-128.666 -88 -237.999 -88c-116.667 0 -201.334 29.333 -254.001 88s-79 152.667 -79 282s26.333 223.333 79 282s137.334 88 254.001 88c89.333 0 157.833 -19 205.5 -57
s79.834 -99 96.501 -183h-84c-13.333 58 -37.166 99.833 -71.499 125.5s-83.166 38.5 -146.499 38.5c-85.333 0 -146.833 -23 -184.5 -69s-56.5 -121 -56.5 -225s18.833 -179 56.5 -225s99.167 -69 184.5 -69c80.667 0 138.834 20.667 174.501 62s53.5 108.666 53.5 201.999
h-228zM391.995 -45.999c30 0 45 -24.668 45 -74.001c0 -33.333 -6.33301 -57.666 -19 -72.999s-33 -23 -61 -23v36c24.667 0 37 17.667 37 53c-30.667 0 -46 14.333 -46 43c0 25.333 14.667 38 44 38z" />
    <glyph glyph-name="gcedilla" unicode="&#x123;" horiz-adv-x="595" 
d="M264 -10c-75.333 0 -129.83 20.502 -163.497 61.502s-50.5 106.833 -50.5 197.5c0 91.333 17 157.666 51 198.999s88.333 62 163 62c84 0 142.667 -27 176 -81l10 71h65v-450c0 -91.333 -18.333 -157.5 -55 -198.5s-95.667 -61.5 -177 -61.5
c-64.667 0 -113.834 12.667 -147.501 38s-55.5 65.666 -65.5 120.999h77c8 -36 22.167 -61.667 42.5 -77s50.166 -23 89.499 -23c55.333 0 95.166 14.667 119.499 44s36.5 77.333 36.5 144v26c-33.333 -48.667 -90.333 -73 -171 -73zM283.003 56.002
c54 0 92.833 15 116.5 45s35.5 79.333 35.5 148s-11.833 118 -35.5 148s-62.5 45 -116.5 45c-54.667 0 -93.834 -15 -117.501 -45s-35.5 -79.333 -35.5 -148c0 -68 11.833 -117.167 35.5 -147.5s62.834 -45.5 117.501 -45.5zM290.003 556.002
c-30 0 -44.999 24.667 -44.999 74c0 64 26.667 96 80 96v-36c-24 0 -36 -17.667 -36 -53c30.667 0 46 -13.667 46 -41c0 -14 -3.33301 -24.167 -10 -30.5s-18.334 -9.5 -35.001 -9.5z" />
    <glyph glyph-name="Itilde" unicode="&#x128;" horiz-adv-x="295" 
d="M104 700h88v-700h-88v700zM-10 760c0 33.333 8 59 24 77s36.333 27 61 27c22 0 42 -5.66699 60 -17s34.5 -22.666 49.5 -33.999s29.5 -17 43.5 -17c26 0 39 18 39 54h38c0 -34 -7.83301 -59.833 -23.5 -77.5s-36.167 -26.5 -61.5 -26.5c-22 0 -42 5.66699 -60 17
s-34.333 22.666 -49 33.999s-29 17 -43 17c-26 0 -39 -18 -39 -54h-39z" />
    <glyph glyph-name="itilde" unicode="&#x129;" horiz-adv-x="235" 
d="M157 0h-80v500h80v-500zM-40 575c0 34.667 8.16699 63 24.5 85s36.5 33 60.5 33c17.333 0 33.666 -4.83301 48.999 -14.5s27.5 -20.334 36.5 -32.001s19.167 -22.334 30.5 -32.001s22 -14.5 32 -14.5c12 0 21.5 5.83301 28.5 17.5s10.5 27.5 10.5 47.5h43
c0 -34.667 -8.16699 -63.167 -24.5 -85.5s-36.5 -33.5 -60.5 -33.5c-17.333 0 -33.833 4.83301 -49.5 14.5s-28 20.334 -37 32.001s-19.167 22.334 -30.5 32.001s-22 14.5 -32 14.5c-11.333 0 -20.666 -5.66699 -27.999 -17s-11 -27 -11 -47h-42z" />
    <glyph glyph-name="Imacron" unicode="&#x12a;" horiz-adv-x="300" 
d="M106 700h88v-700h-88v700zM-20 816h340v-55h-340v55z" />
    <glyph glyph-name="imacron" unicode="&#x12b;" horiz-adv-x="240" 
d="M160 0h-80v500h80v-500zM-50 640h340v-54h-340v54z" />
    <glyph glyph-name="Iogonek" unicode="&#x12e;" horiz-adv-x="288" 
d="M190 0h-18.998c-42 -30 -67.333 -64.667 -76 -104c-7.33301 -34 2 -56 28 -66c7.33301 -2.66699 15.666 -4 24.999 -4c10 0 20 1.5 30 4.5s17.333 6.16699 22 9.5l8 4v-74c-20 -13.333 -43.333 -20 -70 -20c-40 0 -68.333 15 -85 45s-18.334 65 -5.00098 105
s39.333 73.333 78 100h-24v700h88v-700z" />
    <glyph glyph-name="iogonek" unicode="&#x12f;" horiz-adv-x="238" 
d="M160 0h-18.998c-42 -30 -67.333 -64.667 -76 -104c-7.33301 -34 2 -56 28 -66c7.33301 -2.66699 15.666 -4 24.999 -4c10 0 20 1.5 30 4.5s17.333 6.16699 22 9.5l8 4v-74c-20 -13.333 -43.333 -20 -70 -20c-40 0 -68.333 15 -85 45s-18.334 65 -5.00098 105
s39.333 73.333 78 100h-16v500h80v-500zM120.002 707c37.333 0 56 -18.667 56 -56c0 -36.667 -18.667 -55 -56 -55s-56 18.333 -56 55c0 19.333 4.33301 33.5 13 42.5s23 13.5 43 13.5z" />
    <glyph glyph-name="Idotaccent" unicode="&#x130;" horiz-adv-x="293" 
d="M102 700h88v-700h-88v700zM146 854c38 0 57 -17 57 -51c0 -34.667 -19 -52 -57 -52c-37.333 0 -56 17.333 -56 52c0 18 4.33301 31 13 39s23 12 43 12z" />
    <glyph glyph-name="dotlessi" unicode="&#x131;" horiz-adv-x="240" 
d="M160 0h-80v500h80v-500z" />
    <glyph glyph-name="IJ" unicode="&#x132;" horiz-adv-x="834" 
d="M100 700h88v-700h-88v700zM315 210v23h84v-23c0 -54.667 10 -94 30 -118s53 -36 99 -36c45.333 0 78 12 98 36s30 63.333 30 118v490h88v-490c0 -78.667 -17.167 -136 -51.5 -172s-89.166 -54 -164.499 -54c-74.667 0 -128.834 17.833 -162.501 53.5
s-50.5 93.167 -50.5 172.5z" />
    <glyph glyph-name="ij" unicode="&#x133;" horiz-adv-x="476" 
d="M167 0h-81v500h81v-500zM222 -113c58 0 87 26.333 87 79v534h81v-543c0 -42.667 -12.167 -76.167 -36.5 -100.5s-59.5 -36.5 -105.5 -36.5h-79v67h53zM126 707c20 0 34.5 -4.5 43.5 -13.5s13.5 -23.167 13.5 -42.5c0 -36.667 -19 -55 -57 -55
c-37.333 0 -56 18.333 -56 55c0 37.333 18.667 56 56 56zM349 707c20 0 34.5 -4.5 43.5 -13.5s13.5 -23.167 13.5 -42.5c0 -36.667 -19 -55 -57 -55c-37.333 0 -56 18.333 -56 55c0 37.333 18.667 56 56 56z" />
    <glyph glyph-name="Kcedilla" unicode="&#x136;" horiz-adv-x="654" 
d="M188 700v-306l297 306h109l-330 -340l350 -360h-109l-317 326v-326h-88v700h88zM315 -46c30 0 45 -24.667 45 -74c0 -64 -26.667 -96 -80 -96v36c24 0 36 17.667 36 53c-30.667 0 -46 11.667 -46 35c0 30.667 15 46 45 46z" />
    <glyph glyph-name="kcedilla" unicode="&#x137;" horiz-adv-x="533" 
d="M160 700v-415l225 215h98l-250 -240l270 -260h-98l-245 235v-235h-80v700h80zM261 -46c30 0 45 -24.667 45 -74c0 -64 -26.667 -96 -80 -96v36c24 0 36 17.667 36 53c-30.667 0 -46 12.667 -46 38c0 28.667 15 43 45 43z" />
    <glyph glyph-name="Lacute" unicode="&#x139;" horiz-adv-x="581" 
d="M531 76v-76h-430v700h88v-624h342zM100 750l104 120h81l-116 -120h-69z" />
    <glyph glyph-name="lacute" unicode="&#x13a;" horiz-adv-x="246" 
d="M81 0v700h81v-700h-81zM70 750l105 120h81l-116 -120h-70z" />
    <glyph glyph-name="Lcedilla" unicode="&#x13b;" horiz-adv-x="580" 
d="M530 76v-76h-430v700h88v-624h342zM308 -46h1c31.333 0 47 -24.333 47 -73c0 -34 -6.5 -58.667 -19.5 -74s-33.167 -23 -60.5 -23v36c24 0 36 17.667 36 53c-16.667 0 -28.5 3 -35.5 9s-10.5 16 -10.5 30c0 28 14 42 42 42z" />
    <glyph glyph-name="lcedilla" unicode="&#x13c;" horiz-adv-x="230" 
d="M74 0v700h80v-700h-80zM112 -46h1c31.333 0 47 -24.333 47 -73c0 -34 -6.5 -58.667 -19.5 -74s-33.167 -23 -60.5 -23v36c24 0 36 17.667 36 53c-16.667 0 -28.5 3 -35.5 9s-10.5 16 -10.5 30c0 28 14 42 42 42z" />
    <glyph glyph-name="Lcaron" unicode="&#x13d;" horiz-adv-x="580" 
d="M530 76v-76h-430v700h88v-624h342zM277 710h1c31.333 0 47 -24.333 47 -73c0 -34 -6.5 -58.667 -19.5 -74s-33.167 -23 -60.5 -23v36c24 0 36 17.667 36 53c-16.667 0 -28.5 3 -35.5 9s-10.5 16 -10.5 30c0 28 14 42 42 42z" />
    <glyph glyph-name="lcaron" unicode="&#x13e;" horiz-adv-x="325" 
d="M80 0v700h80v-700h-80zM247 710h1c31.333 0 47 -24.333 47 -73c0 -34 -6.5 -58.667 -19.5 -74s-33.167 -23 -60.5 -23v36c24 0 36 17.667 36 53c-16.667 0 -28.5 3 -35.5 9s-10.5 16 -10.5 30c0 28 14 42 42 42z" />
    <glyph glyph-name="Lslash" unicode="&#x141;" horiz-adv-x="596" 
d="M546 76v-76h-430v309l-96 -59v69l96 59v322h88v-267l245 151v-70l-245 -151v-287h342z" />
    <glyph glyph-name="lslash" unicode="&#x142;" horiz-adv-x="353" 
d="M40 310v70l96 60v260h80v-210l96 60l1 -69l-97 -61v-420h-80v370z" />
    <glyph glyph-name="Nacute" unicode="&#x143;" horiz-adv-x="753" 
d="M569 700h84v-700h-106l-363 581v-581h-84v700h105l364 -581v581zM328 750l104 120h81l-116 -120h-69z" />
    <glyph glyph-name="nacute" unicode="&#x144;" horiz-adv-x="575" 
d="M156 441c31.333 46 85.334 69 162.001 69c65.333 0 112.833 -19 142.5 -57s44.5 -99 44.5 -183v-270h-80v270c0 61.333 -9.83301 105.5 -29.5 132.5s-51.834 40.5 -96.501 40.5c-48.667 0 -84 -13.667 -106 -41s-33 -71.333 -33 -132v-270h-80v500h65zM355.001 700h84
l-126 -150h-69z" />
    <glyph glyph-name="Ncedilla" unicode="&#x145;" horiz-adv-x="753" 
d="M568 700h85v-700h-106l-363 581v-581h-84v700h105l363 -581v581zM378 -46h1c31.333 0 47 -24.333 47 -73c0 -34 -6.5 -58.667 -19.5 -74s-33.167 -23 -60.5 -23v36c24 0 36 17.667 36 53c-16.667 0 -28.5 3 -35.5 9s-10.5 16 -10.5 30c0 28 14 42 42 42z" />
    <glyph glyph-name="ncedilla" unicode="&#x146;" horiz-adv-x="575" 
d="M156 441c31.333 46 85.334 69 162.001 69c65.333 0 112.833 -19 142.5 -57s44.5 -99 44.5 -183v-270h-80v270c0 61.333 -9.83301 105.5 -29.5 132.5s-51.834 40.5 -96.501 40.5c-48.667 0 -84 -13.667 -106 -41s-33 -71.333 -33 -132v-270h-80v500h65zM292.001 -46h1
c31.333 0 47 -24.333 47 -73c0 -34 -6.5 -58.667 -19.5 -74s-33.167 -23 -60.5 -23v36c24 0 36 17.667 36 53c-16.667 0 -28.5 3 -35.5 9s-10.5 16 -10.5 30c0 28 14 42 42 42z" />
    <glyph glyph-name="Ncaron" unicode="&#x147;" horiz-adv-x="753" 
d="M569 700h84v-700h-106l-363 581v-581h-84v700h105l364 -581v581zM511 870l-98 -120h-81l-98 120h61l78 -79l77 79h61z" />
    <glyph glyph-name="ncaron" unicode="&#x148;" horiz-adv-x="575" 
d="M156 441c31.333 46 85.334 69 162.001 69c65.333 0 112.833 -19 142.5 -57s44.5 -99 44.5 -183v-270h-80v270c0 61.333 -9.83301 105.5 -29.5 132.5s-51.834 40.5 -96.501 40.5c-48.667 0 -84 -13.667 -106 -41s-33 -71.333 -33 -132v-270h-80v500h65zM333.001 550h-81
l-92 150h56l77 -104l76 104h56z" />
    <glyph glyph-name="Omacron" unicode="&#x14c;" horiz-adv-x="785" 
d="M393 720c116.667 0 201.167 -29.333 253.5 -88s78.5 -152.667 78.5 -282s-26.167 -223.333 -78.5 -282s-136.833 -88 -253.5 -88s-201.334 29.333 -254.001 88s-79 152.667 -79 282s26.333 223.333 79 282s137.334 88 254.001 88zM393 644
c-85.333 0 -146.833 -23 -184.5 -69s-56.5 -121 -56.5 -225s18.833 -179 56.5 -225s99.167 -69 184.5 -69s146.833 23 184.5 69s56.5 121 56.5 225s-18.833 179 -56.5 225s-99.167 69 -184.5 69zM223 827h340v-54h-340v54z" />
    <glyph glyph-name="omacron" unicode="&#x14d;" horiz-adv-x="585" 
d="M293 510c84.667 0 146.167 -20.667 184.5 -62s57.5 -107.333 57.5 -198s-19.167 -156.667 -57.5 -198s-99.833 -62 -184.5 -62c-85.333 0 -147.166 20.667 -185.499 62s-57.5 107.333 -57.5 198s19.167 156.667 57.5 198s100.166 62 185.499 62zM130 250
c0 -68 12.833 -117.167 38.5 -147.5s67.167 -45.5 124.5 -45.5s98.666 15.167 123.999 45.5s38 79.5 38 147.5c0 68.667 -12.667 118 -38 148s-66.666 45 -123.999 45c-58 0 -99.667 -15 -125 -45s-38 -79.333 -38 -148zM122 627h340v-54h-340v54z" />
    <glyph glyph-name="Obreve" unicode="&#x14e;" horiz-adv-x="785" 
d="M393 720c116.667 0 201.167 -29.333 253.5 -88s78.5 -152.667 78.5 -282s-26.167 -223.333 -78.5 -282s-136.833 -88 -253.5 -88s-201.334 29.333 -254.001 88s-79 152.667 -79 282s26.333 223.333 79 282s137.334 88 254.001 88zM393 644
c-85.333 0 -146.833 -23 -184.5 -69s-56.5 -121 -56.5 -225s18.833 -179 56.5 -225s99.167 -69 184.5 -69s146.833 23 184.5 69s56.5 121 56.5 225s-18.833 179 -56.5 225s-99.167 69 -184.5 69zM550 870c0 -42 -12.498 -72.5 -37.498 -91.5s-64.833 -28.5 -119.5 -28.5
c-55.333 0 -95.5 9.5 -120.5 28.5s-37.5 49.5 -37.5 91.5h62c0 -26 7.66699 -44.833 23 -56.5s39.666 -17.5 72.999 -17.5s57.666 5.83301 72.999 17.5s23 30.5 23 56.5h61z" />
    <glyph glyph-name="obreve" unicode="&#x14f;" horiz-adv-x="585" 
d="M293 510c84.667 0 146.167 -20.667 184.5 -62s57.5 -107.333 57.5 -198s-19.167 -156.667 -57.5 -198s-99.833 -62 -184.5 -62c-85.333 0 -147.166 20.667 -185.499 62s-57.5 107.333 -57.5 198s19.167 156.667 57.5 198s100.166 62 185.499 62zM130 250
c0 -68 12.833 -117.167 38.5 -147.5s67.167 -45.5 124.5 -45.5s98.666 15.167 123.999 45.5s38 79.5 38 147.5c0 68.667 -12.667 118 -38 148s-66.666 45 -123.999 45c-58 0 -99.667 -15 -125 -45s-38 -79.333 -38 -148zM450 700
c0 -52.667 -12.499 -90.834 -37.499 -114.501s-64.833 -35.5 -119.5 -35.5c-55.333 0 -95.5 11.833 -120.5 35.5s-37.5 61.834 -37.5 114.501h58c0 -35.333 7.83301 -60.833 23.5 -76.5s41.167 -23.5 76.5 -23.5s60.666 7.83301 75.999 23.5s23 41.167 23 76.5h58z" />
    <glyph glyph-name="Ohungarumlaut" unicode="&#x150;" horiz-adv-x="785" 
d="M393 720c116.667 0 201.167 -29.333 253.5 -88s78.5 -152.667 78.5 -282s-26.167 -223.333 -78.5 -282s-136.833 -88 -253.5 -88s-201.334 29.333 -254.001 88s-79 152.667 -79 282s26.333 223.333 79 282s137.334 88 254.001 88zM393 644
c-85.333 0 -146.833 -23 -184.5 -69s-56.5 -121 -56.5 -225s18.833 -179 56.5 -225s99.167 -69 184.5 -69s146.833 23 184.5 69s56.5 121 56.5 225s-18.833 179 -56.5 225s-99.167 69 -184.5 69zM275 750l102 150h80l-117 -150h-65zM437 750l101 150h80l-117 -150h-64z" />
    <glyph glyph-name="ohungarumlaut" unicode="&#x151;" horiz-adv-x="585" 
d="M293 510c84.667 0 146.167 -20.667 184.5 -62s57.5 -107.333 57.5 -198s-19.167 -156.667 -57.5 -198s-99.833 -62 -184.5 -62c-85.333 0 -147.166 20.667 -185.499 62s-57.5 107.333 -57.5 198s19.167 156.667 57.5 198s100.166 62 185.499 62zM130 250
c0 -68 12.833 -117.167 38.5 -147.5s67.167 -45.5 124.5 -45.5s98.666 15.167 123.999 45.5s38 79.5 38 147.5c0 68.667 -12.667 118 -38 148s-66.666 45 -123.999 45c-58 0 -99.667 -15 -125 -45s-38 -79.333 -38 -148zM175 550l102 150h79l-117 -150h-64zM336 550l102 150
h80l-117 -150h-65z" />
    <glyph glyph-name="OE" unicode="&#x152;" horiz-adv-x="1147" 
d="M1096 629l1 -1.00195h-374v-228h334v-71h-334v-259h374v-71h-455v118c-38.667 -84 -111.667 -129.333 -219 -136c-28 -1.33301 -49.333 -1.66602 -64 -0.999023c-104.667 4.66699 -180.667 36.334 -228 95.001s-71 150 -71 274c0 129.333 25.833 223.333 77.5 282
s134.167 88 247.5 88c128 0 213.333 -46 256 -138v119h455v-71zM393 643.998c-85.333 0 -146.833 -23 -184.5 -69s-56.5 -121 -56.5 -225s18.833 -179 56.5 -225s99.167 -69 184.5 -69s146.833 23 184.5 69s56.5 121 56.5 225s-18.833 179 -56.5 225s-99.167 69 -184.5 69z
" />
    <glyph glyph-name="oe" unicode="&#x153;" horiz-adv-x="964" 
d="M529 206l-0.999023 -2c4 -51.333 17.833 -90.333 41.5 -117s60.5 -39.667 110.5 -39c37.333 0 66.833 8 88.5 24s37.5 41.333 47.5 76h77c-24.667 -106 -95.667 -159 -213 -159c-88.667 0 -151.334 30.333 -188.001 91c-32.667 -60.667 -99 -91 -199 -91
c-85.333 0 -147.166 20.667 -185.499 62s-57.5 107.333 -57.5 198s19.167 156.667 57.5 198s100.166 62 185.499 62c100 0 166.333 -30 199 -90c36.667 60.667 99.667 91 189 91c76.667 0 134.667 -22.833 174 -68.5s59 -113.167 59 -202.5v-33h-385zM131.001 250
c0 -68 12.833 -117.167 38.5 -147.5s67.167 -45.5 124.5 -45.5s98.666 15.167 123.999 45.5s38 79.5 38 147.5c0 68.667 -12.667 118 -38 148s-66.666 45 -123.999 45c-58 0 -99.667 -15 -125 -45s-38 -79.333 -38 -148zM680.001 449c-54.667 0 -93.668 -16 -117.001 -48
s-35.666 -79.667 -36.999 -143h306c0 66 -12.333 114.333 -37 145s-63 46 -115 46z" />
    <glyph glyph-name="Racute" unicode="&#x154;" horiz-adv-x="703" 
d="M549 0l-145 266h-216v-267h-88v700h299c161.333 0 242 -73 242 -219c0 -114 -50.667 -182 -152 -204l154 -276h-94zM188 334h207c54.667 0 94.667 12 120 36s38 61 38 111c0 50.667 -12.5 88 -37.5 112s-65.167 36 -120.5 36h-207v-295zM284 749l104 120h81l-116 -120
h-69z" />
    <glyph glyph-name="racute" unicode="&#x155;" horiz-adv-x="384" 
d="M286 434c-48 0 -81 -13.5 -99 -40.5s-27 -74.833 -27 -143.5v-250h-80v500h65l12 -60c26.667 46.667 69.667 70 129 70h55v-76h-55zM149 550l111 150h84l-126 -150h-69z" />
    <glyph glyph-name="Rcedilla" unicode="&#x156;" horiz-adv-x="703" 
d="M549 0l-145 266h-216v-267h-88v700h299c161.333 0 242 -73 242 -219c0 -114 -50.667 -182 -152 -204l154 -276h-94zM188 334h207c54.667 0 94.667 12 120 36s38 61 38 111c0 50.667 -12.5 88 -37.5 112s-65.167 36 -120.5 36h-207v-295zM348 -46h1
c31.333 0 47 -24.333 47 -73c0 -34 -6.5 -58.667 -19.5 -74s-33.167 -23 -60.5 -23v36c24 0 36 17.667 36 53c-16.667 0 -28.5 3 -35.5 9s-10.5 16 -10.5 30c0 28 14 42 42 42z" />
    <glyph glyph-name="rcedilla" unicode="&#x157;" horiz-adv-x="384" 
d="M289 434c-48 0 -81 -13.5 -99 -40.5s-27 -74.833 -27 -143.5v-250h-80v500h65l12 -60c26.667 46.667 69.667 70 129 70h55v-76h-55zM122 -46h1c31.333 0 47 -24.333 47 -73c0 -34 -6.5 -58.667 -19.5 -74s-33.167 -23 -60.5 -23v36c24 0 36 17.667 36 53
c-16.667 0 -28.5 3 -35.5 9s-10.5 16 -10.5 30c0 28 14 42 42 42z" />
    <glyph glyph-name="Rcaron" unicode="&#x158;" horiz-adv-x="703" 
d="M550 0l-148 262.999h-214v-264h-88v700h299c82 0 142.833 -20.667 182.5 -62s59.5 -93.666 59.5 -156.999c0 -49.333 -12.667 -92.5 -38 -129.5s-64.333 -62.5 -117 -76.5l157 -274h-93zM188 333.999l211 0.000976562c53.333 0 92.333 14.167 117 42.5
s37 63.166 37 104.499c0 44 -12.167 79.667 -36.5 107s-63.5 41 -117.5 41h-211v-295zM468 869l-99 -120h-80l-99 120h61l78 -79l77 79h62z" />
    <glyph glyph-name="rcaron" unicode="&#x159;" horiz-adv-x="396" 
d="M301 434c-48 0 -81 -13.5 -99 -40.5s-27 -74.833 -27 -143.5v-250h-80v500h65l12 -60c26.667 46.667 69.667 70 129 70h55v-76h-55zM345 700l-92 -150h-80l-93 150h57l76 -104l76 104h56z" />
    <glyph glyph-name="Sacute" unicode="&#x15a;" horiz-adv-x="645" 
d="M154 520c0 -32.667 14.8311 -58.165 44.498 -76.498s65.5 -32 107.5 -41s84.167 -19.333 126.5 -31s78.333 -32.167 108 -61.5s44.5 -68.333 44.5 -117c0 -74.667 -20.667 -128.834 -62 -162.501s-108 -50.5 -200 -50.5s-158.833 17.5 -200.5 52.5
s-62.5 90.833 -62.5 167.5h81c0 -54.667 14.167 -93.834 42.5 -117.501s74.833 -35.5 139.5 -35.5c64 0 109.667 10.333 137 31s41 54.667 41 102c0 26.667 -8 49 -24 67s-36.667 31.667 -62 41s-53.333 17.5 -84 24.5s-61.167 14.667 -91.5 23
s-58.166 18.666 -83.499 30.999s-46 30.333 -62 54s-24 52.5 -24 86.5c0 74.667 20 128.834 60 162.501s104.333 50.5 193 50.5s152.834 -17.333 192.501 -52s59.5 -90.667 59.5 -168h-80c0 54 -13.5 93 -40.5 117s-70.833 36 -131.5 36s-104 -10.333 -130 -31
s-39 -54.667 -39 -102zM273.998 750.002l104 120h81l-115 -120h-70z" />
    <glyph glyph-name="sacute" unicode="&#x15b;" horiz-adv-x="501" 
d="M133 375c0 -24 11 -42.166 33 -54.499s48.5 -21.333 79.5 -27s62 -12.167 93 -19.5s57.5 -21.833 79.5 -43.5s33 -50.834 33 -87.501c0 -53.333 -16.167 -92.166 -48.5 -116.499s-84.166 -36.5 -155.499 -36.5c-68.667 0 -118.667 12.667 -150 38s-47 66 -47 122h77
c0 -37.333 9.5 -64.333 28.5 -81s50.167 -25 93.5 -25s74.5 7 93.5 21s28.5 37 28.5 69c0 26 -10.833 45.833 -32.5 59.5s-47.834 23.334 -78.501 29.001s-61.5 12 -92.5 19s-57.333 20.667 -79 41s-32.5 48.5 -32.5 84.5c0 50 15.333 86.333 46 109s79.667 34 147 34
c66 0 114 -11.833 144 -35.5s45 -61.834 45 -114.501h-73c0 34 -9 58.5 -27 73.5s-47.667 22.5 -89 22.5s-71 -6.33301 -89 -19s-27 -33.334 -27 -62.001zM200 550.001l111 150h84l-126 -150h-69z" />
    <glyph glyph-name="Scircumflex" unicode="&#x15c;" horiz-adv-x="645" 
d="M154 520c0 -32.667 14.8311 -58.165 44.498 -76.498s65.5 -32 107.5 -41s84.167 -19.333 126.5 -31s78.333 -32.167 108 -61.5s44.5 -68.333 44.5 -117c0 -74.667 -20.667 -128.834 -62 -162.501s-108 -50.5 -200 -50.5s-158.833 17.5 -200.5 52.5
s-62.5 90.833 -62.5 167.5h81c0 -54.667 14.167 -93.834 42.5 -117.501s74.833 -35.5 139.5 -35.5c64 0 109.667 10.333 137 31s41 54.667 41 102c0 26.667 -8 49 -24 67s-36.667 31.667 -62 41s-53.333 17.5 -84 24.5s-61.167 14.667 -91.5 23
s-58.166 18.666 -83.499 30.999s-46 30.333 -62 54s-24 52.5 -24 86.5c0 74.667 20 128.834 60 162.501s104.333 50.5 193 50.5s152.834 -17.333 192.501 -52s59.5 -90.667 59.5 -168h-80c0 54 -13.5 93 -40.5 117s-70.833 36 -131.5 36s-104 -10.333 -130 -31
s-39 -54.667 -39 -102zM461.998 750.002h-62l-77 79l-78 -79h-61l99 120h80z" />
    <glyph glyph-name="scircumflex" unicode="&#x15d;" horiz-adv-x="501" 
d="M133 375c0 -24 11 -42.166 33 -54.499s48.5 -21.333 79.5 -27s62 -12.167 93 -19.5s57.5 -21.833 79.5 -43.5s33 -50.834 33 -87.501c0 -53.333 -16.167 -92.166 -48.5 -116.499s-84.166 -36.5 -155.499 -36.5c-68.667 0 -118.667 12.667 -150 38s-47 66 -47 122h77
c0 -37.333 9.5 -64.333 28.5 -81s50.167 -25 93.5 -25s74.5 7 93.5 21s28.5 37 28.5 69c0 26 -10.833 45.833 -32.5 59.5s-47.834 23.334 -78.501 29.001s-61.5 12 -92.5 19s-57.333 20.667 -79 41s-32.5 48.5 -32.5 84.5c0 50 15.333 86.333 46 109s79.667 34 147 34
c66 0 114 -11.833 144 -35.5s45 -61.834 45 -114.501h-73c0 34 -9 58.5 -27 73.5s-47.667 22.5 -89 22.5s-71 -6.33301 -89 -19s-27 -33.334 -27 -62.001zM381 550.001h-56l-76 104l-76 -104h-57l93 150h80z" />
    <glyph glyph-name="Scedilla" unicode="&#x15e;" horiz-adv-x="645" 
d="M268 -87l20.9971 67.002c-80 4 -138.167 23.5 -174.5 58.5s-54.5 88.5 -54.5 160.5h81c0 -54.667 14.167 -93.834 42.5 -117.501s74.833 -35.5 139.5 -35.5c64 0 109.667 10.333 137 31s41 54.667 41 102c0 26.667 -8 49 -24 67s-36.667 31.667 -62 41
s-53.333 17.5 -84 24.5s-61.167 14.667 -91.5 23s-58.166 18.666 -83.499 30.999s-46 30.333 -62 54s-24 52.5 -24 86.5c0 74.667 20 128.834 60 162.501s104.333 50.5 193 50.5s152.834 -17.333 192.501 -52s59.5 -90.667 59.5 -168h-80c0 54 -13.5 93 -40.5 117
s-70.833 36 -131.5 36s-104 -10.333 -130 -31s-39 -54.667 -39 -102c0 -32.667 14.833 -58.167 44.5 -76.5s65.5 -32 107.5 -41s84.167 -19.333 126.5 -31s78.333 -32.167 108 -61.5s44.5 -68.333 44.5 -117c0 -72.667 -19.667 -126.167 -59 -160.5
s-102.333 -51.5 -189 -51.5l-10 -31c2.66699 -0.666992 6.33398 -1.33398 11.001 -2.00098s13 -3.16699 25 -7.5s22.5 -9.5 31.5 -15.5s17.167 -14.667 24.5 -26s11 -24 11 -38c0 -35.333 -16.833 -62.5 -50.5 -81.5s-82.5 -28.5 -146.5 -28.5v41c90.667 0 136 23 136 69
c0 18.667 -11 32.167 -33 40.5s-44.667 12.5 -68 12.5z" />
    <glyph glyph-name="scedilla" unicode="&#x15f;" horiz-adv-x="501" 
d="M217 -10c-58 3.33301 -100.332 17.835 -126.999 43.502s-40 64.5 -40 116.5h77c0 -37.333 9.5 -64.333 28.5 -81s50.167 -25 93.5 -25s74.5 7 93.5 21s28.5 37 28.5 69c0 26 -10.833 45.833 -32.5 59.5s-47.834 23.334 -78.501 29.001s-61.5 12 -92.5 19
s-57.333 20.667 -79 41s-32.5 48.5 -32.5 84.5c0 50 15.333 86.333 46 109s79.667 34 147 34c66 0 114 -11.833 144 -35.5s45 -61.834 45 -114.501h-73c0 34 -9 58.5 -27 73.5s-47.667 22.5 -89 22.5s-71 -6.33301 -89 -19s-27 -33.334 -27 -62.001
c0 -24 11 -42.167 33 -54.5s48.5 -21.333 79.5 -27s62 -12.167 93 -19.5s57.5 -21.833 79.5 -43.5s33 -50.834 33 -87.501c0 -51.333 -14.833 -89.166 -44.5 -113.499s-76.834 -37.5 -141.501 -39.5l-13 -41c2.66699 -0.666992 6.33398 -1.33398 11.001 -2.00098
s13 -3.16699 25 -7.5s22.5 -9.5 31.5 -15.5s17.167 -14.667 24.5 -26s11 -24 11 -38c0 -35.333 -16.833 -62.5 -50.5 -81.5s-82.5 -28.5 -146.5 -28.5v41c90.667 0 136 23 136 69c0 18.667 -11 32.167 -33 40.5s-44.667 12.5 -68 12.5z" />
    <glyph glyph-name="Scaron" unicode="&#x160;" horiz-adv-x="645" 
d="M154 520c0 -32.667 14.8311 -58.165 44.498 -76.498s65.5 -32 107.5 -41s84.167 -19.333 126.5 -31s78.333 -32.167 108 -61.5s44.5 -68.333 44.5 -117c0 -74.667 -20.667 -128.834 -62 -162.501s-108 -50.5 -200 -50.5s-158.833 17.5 -200.5 52.5
s-62.5 90.833 -62.5 167.5h81c0 -54.667 14.167 -93.834 42.5 -117.501s74.833 -35.5 139.5 -35.5c64 0 109.667 10.333 137 31s41 54.667 41 102c0 26.667 -8 49 -24 67s-36.667 31.667 -62 41s-53.333 17.5 -84 24.5s-61.167 14.667 -91.5 23
s-58.166 18.666 -83.499 30.999s-46 30.333 -62 54s-24 52.5 -24 86.5c0 74.667 20 128.834 60 162.501s104.333 50.5 193 50.5s152.834 -17.333 192.501 -52s59.5 -90.667 59.5 -168h-80c0 54 -13.5 93 -40.5 117s-70.833 36 -131.5 36s-104 -10.333 -130 -31
s-39 -54.667 -39 -102zM457.998 870.002l-99 -120h-80l-99 120h62l77 -79l77 79h62z" />
    <glyph glyph-name="scaron" unicode="&#x161;" horiz-adv-x="501" 
d="M133 375c0 -24 11 -42.166 33 -54.499s48.5 -21.333 79.5 -27s62 -12.167 93 -19.5s57.5 -21.833 79.5 -43.5s33 -50.834 33 -87.501c0 -53.333 -16.167 -92.166 -48.5 -116.499s-84.166 -36.5 -155.499 -36.5c-68.667 0 -118.667 12.667 -150 38s-47 66 -47 122h77
c0 -37.333 9.5 -64.333 28.5 -81s50.167 -25 93.5 -25s74.5 7 93.5 21s28.5 37 28.5 69c0 26 -10.833 45.833 -32.5 59.5s-47.834 23.334 -78.501 29.001s-61.5 12 -92.5 19s-57.333 20.667 -79 41s-32.5 48.5 -32.5 84.5c0 50 15.333 86.333 46 109s79.667 34 147 34
c66 0 114 -11.833 144 -35.5s45 -61.834 45 -114.501h-73c0 34 -9 58.5 -27 73.5s-47.667 22.5 -89 22.5s-71 -6.33301 -89 -19s-27 -33.334 -27 -62.001zM381 700.001l-92 -150h-80l-93 150h56l77 -104l76 104h56z" />
    <glyph glyph-name="Tcedilla" unicode="&#x162;" horiz-adv-x="625" 
d="M286 0l-17.001 0.000976562v624h-219v76h525v-76h-218v-624h-24l-16 -51c2.66699 -0.666992 6.33398 -1.33398 11.001 -2.00098s13 -3.16699 25 -7.5s22.5 -9.5 31.5 -15.5s17.167 -14.667 24.5 -26s11 -24 11 -38c0 -35.333 -16.667 -62.5 -50 -81.5
s-82.333 -28.5 -147 -28.5v41c90.667 0 136 23 136 69c0 18.667 -10.833 32.167 -32.5 40.5s-44.5 12.5 -68.5 12.5z" />
    <glyph glyph-name="tcedilla" unicode="&#x163;" horiz-adv-x="403" 
d="M223 6l-1.00098 0.000976562c-61.333 16 -92 59.667 -92 131v304h-80v59h80v119h81v-119h152v-59h-152v-295c0 -52.667 29 -79 87 -79h65v-67h-91h-3l-17 -51c2.66699 -0.666992 6.33398 -1.33398 11.001 -2.00098s13 -3.16699 25 -7.5s22.5 -9.5 31.5 -15.5
s17.167 -14.667 24.5 -26s11 -24 11 -38c0 -35.333 -16.833 -62.5 -50.5 -81.5s-82.5 -28.5 -146.5 -28.5v41c90.667 0 136 23 136 69c0 18.667 -10.833 32.167 -32.5 40.5s-44.5 12.5 -68.5 12.5z" />
    <glyph glyph-name="Tcaron" unicode="&#x164;" horiz-adv-x="625" 
d="M575 700v-76h-218v-624h-88v624h-219v76h525zM448 870l-99 -120h-80l-99 120h62l77 -79l77 79h62z" />
    <glyph glyph-name="tcaron" unicode="&#x165;" horiz-adv-x="403" 
d="M211 146c0 -52.667 29 -79 87 -79h65v-67h-91c-46 0 -81.167 12.167 -105.5 36.5s-36.5 57.833 -36.5 100.5v304h-80v59h80v119h81v-119h152v-59h-152v-295zM290 711h1c31.333 0 47 -24.333 47 -73c0 -34 -6.5 -58.667 -19.5 -74s-33.167 -23 -60.5 -23v36
c24 0 36 17.667 36 53c-16.667 0 -28.5 3 -35.5 9s-10.5 16 -10.5 30c0 28 14 42 42 42z" />
    <glyph glyph-name="Utilde" unicode="&#x168;" horiz-adv-x="725" 
d="M90 254l-0.000976562 446h88v-446c0 -70 14.5 -120.5 43.5 -151.5s76.167 -46.5 141.5 -46.5s112.333 15.5 141 46.5s43 81.5 43 151.5v446h88v-446c0 -96 -21.5 -165.667 -64.5 -209s-112.167 -65 -207.5 -65s-164.666 21.667 -207.999 65s-65 113 -65 209zM204.999 760
c0 33.333 8 59 24 77s36.333 27 61 27c22 0 42 -5.66699 60 -17s34.5 -22.666 49.5 -33.999s29.5 -17 43.5 -17c25.333 0 38 18 38 54h39c0 -34 -7.83301 -59.833 -23.5 -77.5s-36.167 -26.5 -61.5 -26.5c-22 0 -42 5.66699 -60 17s-34.333 22.666 -49 33.999s-29 17 -43 17
c-26 0 -39 -18 -39 -54h-39z" />
    <glyph glyph-name="utilde" unicode="&#x169;" horiz-adv-x="575" 
d="M409 59c-31.333 -46 -85.334 -69 -162.001 -69c-65.333 0 -112.833 19 -142.5 57s-44.5 99 -44.5 183v270h80v-270c0 -61.333 9.83301 -105.5 29.5 -132.5s51.834 -40.5 96.501 -40.5c48.667 0 84 13.667 106 41s33 71.333 33 132v270h80v-500h-65zM124.999 600
c0 34.667 8.16699 63.167 24.5 85.5s36.5 33.5 60.5 33.5c17.333 0 33.666 -4.83301 48.999 -14.5s27.5 -20.334 36.5 -32.001s19.167 -22.334 30.5 -32.001s22.333 -14.5 33 -14.5c11.333 0 20.5 5.66699 27.5 17s10.5 27 10.5 47h43
c0 -34.667 -8.16699 -63.167 -24.5 -85.5s-36.5 -33.5 -60.5 -33.5c-17.333 0 -33.666 4.83301 -48.999 14.5s-27.5 20.334 -36.5 32.001s-19.167 22.334 -30.5 32.001s-22.333 14.5 -33 14.5c-11.333 0 -20.5 -5.66699 -27.5 -17s-10.5 -27 -10.5 -47h-43z" />
    <glyph glyph-name="Umacron" unicode="&#x16a;" horiz-adv-x="725" 
d="M90 254l-0.000976562 446h88v-446c0 -70 14.5 -120.5 43.5 -151.5s76.167 -46.5 141.5 -46.5s112.333 15.5 141 46.5s43 81.5 43 151.5v446h88v-446c0 -96 -21.5 -165.667 -64.5 -209s-112.167 -65 -207.5 -65s-164.666 21.667 -207.999 65s-65 113 -65 209zM191.999 821
h340v-54h-340v54z" />
    <glyph glyph-name="umacron" unicode="&#x16b;" horiz-adv-x="575" 
d="M409 59c-31.333 -46 -85.334 -69 -162.001 -69c-65.333 0 -112.833 19 -142.5 57s-44.5 99 -44.5 183v270h80v-270c0 -61.333 9.83301 -105.5 29.5 -132.5s51.834 -40.5 96.501 -40.5c48.667 0 84 13.667 106 41s33 71.333 33 132v270h80v-500h-65zM111.999 586v54h340
v-54h-340z" />
    <glyph glyph-name="Ubreve" unicode="&#x16c;" horiz-adv-x="725" 
d="M90 254l-0.000976562 446h88v-446c0 -70 14.5 -120.5 43.5 -151.5s76.167 -46.5 141.5 -46.5s112.333 15.5 141 46.5s43 81.5 43 151.5v446h88v-446c0 -96 -21.5 -165.667 -64.5 -209s-112.167 -65 -207.5 -65s-164.666 21.667 -207.999 65s-65 113 -65 209zM519.999 870
c0 -42 -12.498 -72.5 -37.498 -91.5s-64.833 -28.5 -119.5 -28.5c-55.333 0 -95.5 9.5 -120.5 28.5s-37.5 49.5 -37.5 91.5h62c0 -26 7.66699 -44.833 23 -56.5s39.666 -17.5 72.999 -17.5s57.666 5.83301 72.999 17.5s23 30.5 23 56.5h61z" />
    <glyph glyph-name="ubreve" unicode="&#x16d;" horiz-adv-x="575" 
d="M409 59c-31.333 -46 -85.334 -69 -162.001 -69c-65.333 0 -112.833 19 -142.5 57s-44.5 99 -44.5 183v270h80v-270c0 -61.333 9.83301 -105.5 29.5 -132.5s51.834 -40.5 96.501 -40.5c48.667 0 84 13.667 106 41s33 71.333 33 132v270h80v-500h-65zM371.999 700h58.001
c0 -52.667 -12.5 -90.834 -37.5 -114.501s-64.833 -35.5 -119.5 -35.5c-55.333 0 -95.5 11.833 -120.5 35.5s-37.5 61.834 -37.5 114.501h58c0 -35.333 7.83301 -60.833 23.5 -76.5s41.167 -23.5 76.5 -23.5s60.666 7.83301 75.999 23.5s23 41.167 23 76.5z" />
    <glyph glyph-name="Uring" unicode="&#x16e;" horiz-adv-x="725" 
d="M90 254l-0.000976562 446h88v-446c0 -70 14.5 -120.5 43.5 -151.5s76.167 -46.5 141.5 -46.5s112.333 15.5 141 46.5s43 81.5 43 151.5v446h88v-446c0 -96 -21.5 -165.667 -64.5 -209s-112.167 -65 -207.5 -65s-164.666 21.667 -207.999 65s-65 113 -65 209zM362.999 887
c38.667 0 66.834 -7.66699 84.501 -23s26.5 -40.333 26.5 -75s-8.83301 -59.834 -26.5 -75.501s-46.167 -23.5 -85.5 -23.5c-38.667 0 -66.834 7.83301 -84.501 23.5s-26.5 40.834 -26.5 75.501s8.83301 59.667 26.5 75s46.167 23 85.5 23zM362.999 731
c23.333 0 39.833 4.33301 49.5 13s14.5 23.667 14.5 45c0 20.667 -4.83301 35.334 -14.5 44.001s-26.167 13 -49.5 13c-24 0 -40.833 -4.33301 -50.5 -13s-14.5 -23.334 -14.5 -44.001c0 -21.333 4.83301 -36.333 14.5 -45s26.5 -13 50.5 -13z" />
    <glyph glyph-name="uring" unicode="&#x16f;" horiz-adv-x="575" 
d="M409 59c-31.333 -46 -85.334 -69 -162.001 -69c-65.333 0 -112.833 19 -142.5 57s-44.5 99 -44.5 183v270h80v-270c0 -61.333 9.83301 -105.5 29.5 -132.5s51.834 -40.5 96.501 -40.5c48.667 0 84 13.667 106 41s33 71.333 33 132v270h80v-500h-65zM268.999 739
c38.667 0 66.834 -7.83301 84.501 -23.5s26.5 -40.834 26.5 -75.501s-8.83301 -59.834 -26.5 -75.501s-45.834 -23.5 -84.501 -23.5c-39.333 0 -67.833 7.83301 -85.5 23.5s-26.5 40.834 -26.5 75.501s8.83301 59.834 26.5 75.501s46.167 23.5 85.5 23.5zM268.999 583
c23.333 0 40 4.33301 50 13s15 23.334 15 44.001s-5 35.334 -15 44.001s-26.667 13 -50 13s-40 -4.33301 -50 -13s-15 -23.334 -15 -44.001s5 -35.334 15 -44.001s26.667 -13 50 -13z" />
    <glyph glyph-name="Uhungarumlaut" unicode="&#x170;" horiz-adv-x="725" 
d="M90 254l-0.000976562 446h88v-446c0 -70 14.5 -120.5 43.5 -151.5s76.167 -46.5 141.5 -46.5s112.333 15.5 141 46.5s43 81.5 43 151.5v446h88v-446c0 -96 -21.5 -165.667 -64.5 -209s-112.167 -65 -207.5 -65s-164.666 21.667 -207.999 65s-65 113 -65 209zM244.999 750
l102 150h79l-117 -150h-64zM405.999 750l102 150h80l-117 -150h-65z" />
    <glyph glyph-name="uhungarumlaut" unicode="&#x171;" horiz-adv-x="575" 
d="M409 59c-31.333 -46 -85.334 -69 -162.001 -69c-65.333 0 -112.833 19 -142.5 57s-44.5 99 -44.5 183v270h80v-270c0 -61.333 9.83301 -105.5 29.5 -132.5s51.834 -40.5 96.501 -40.5c48.667 0 84 13.667 106 41s33 71.333 33 132v270h80v-500h-65zM252.999 700h80
l-117 -150h-65zM413.999 700h80l-117 -150h-64z" />
    <glyph glyph-name="Uogonek" unicode="&#x172;" horiz-adv-x="725" 
d="M635 254c0 -75.333 -13.502 -134.332 -40.502 -176.999s-68.833 -71.334 -125.5 -86.001c-26 -21.333 -44.833 -45 -56.5 -71s-13.667 -48.167 -6 -66.5s24.5 -27.5 50.5 -27.5c10 0 20 1.5 30 4.5s17.667 6.16699 23 9.5l7 4v-74
c-20.667 -13.333 -44.334 -20 -71.001 -20c-37.333 0 -64.666 13.167 -81.999 39.5s-21.5 58 -12.5 95s29.167 69.5 60.5 97.5c-21.333 -1.33301 -37.666 -2 -48.999 -2c-95.333 0 -164.666 21.667 -207.999 65s-65 113 -65 209v446h88v-446c0 -70 14.5 -120.5 43.5 -151.5
s76.167 -46.5 141.5 -46.5s112.333 15.5 141 46.5s43 81.5 43 151.5v446h88v-446z" />
    <glyph glyph-name="uogonek" unicode="&#x173;" horiz-adv-x="589" 
d="M425 -1l-5 0.000976562l-11 59c-31.333 -46 -85.333 -69 -162 -69c-65.333 0 -112.833 19 -142.5 57s-44.5 99 -44.5 183v270h80v-270c0 -41.333 4.33301 -74.666 13 -99.999s22.167 -43.833 40.5 -55.5s42.5 -17.5 72.5 -17.5c32.667 0 59.167 6 79.5 18
s35.333 30.667 45 56s14.5 58.333 14.5 99v270h80v-491h-1v-8h-12c-42.667 -30 -68 -64.667 -76 -104c-7.33301 -34 2 -56 28 -66c7.33301 -2.66699 15.666 -4 24.999 -4c10 0 19.833 1.5 29.5 4.5s17.167 6.16699 22.5 9.5l7 4v-74c-20 -13.333 -43.333 -20 -70 -20
c-30 0 -53.667 9.16699 -71 27.5s-26.5 40.166 -27.5 65.499s5.83301 52.666 20.5 81.999s36.334 54 65.001 74z" />
    <glyph glyph-name="Wcircumflex" unicode="&#x174;" horiz-adv-x="1012" 
d="M453 700h106l149 -618l166 618h88l-195 -700h-113l-152 618l-144 -618h-113l-195 700h88l166 -618zM643 750h-61l-78 79l-77 -79h-62l99 120h80z" />
    <glyph glyph-name="wcircumflex" unicode="&#x175;" horiz-adv-x="849" 
d="M645 0h-97l-123 439l-123 -439h-97l-165 500h81l135 -434l122 434h97l118 -434l135 434h81zM560 550h-57l-76 104l-76 -104h-56l92 150h80z" />
    <glyph glyph-name="Ycircumflex" unicode="&#x176;" horiz-adv-x="649" 
d="M369 283h-1v-283h-84v283l-244 417h98l189 -336l189 336h93zM461 750h-62l-77 79l-78 -79h-61l99 120h80z" />
    <glyph glyph-name="ycircumflex" unicode="&#x177;" horiz-adv-x="525" 
d="M246 6l2 6l-218 488h78l174 -390l136 390h77l-186 -520c-20 -56 -43.167 -96.667 -69.5 -122s-58.833 -38 -97.5 -38h-55v59h52c22.667 0 42.5 10 59.5 30s32.833 52.333 47.5 97zM399 550h-57l-76 104l-76 -104h-57l93 150h80z" />
    <glyph glyph-name="Ydieresis" unicode="&#x178;" horiz-adv-x="649" 
d="M369 283h-1v-283h-84v283l-244 417h98l189 -336l189 336h93zM229 844c38 0 57 -17 57 -51c0 -34.667 -19 -52 -57 -52c-37.333 0 -56 17.333 -56 52c0 18 4.5 31 13.5 39s23.167 12 42.5 12zM414 844c20 0 34.5 -4 43.5 -12s13.5 -21 13.5 -39c0 -34.667 -19 -52 -57 -52
c-37.333 0 -56 17.333 -56 52c0 18 4.5 31 13.5 39s23.167 12 42.5 12z" />
    <glyph glyph-name="Zacute" unicode="&#x179;" horiz-adv-x="630" 
d="M155 71h425v-71h-530v58l414 571h-404v71h510v-58zM262 750l104 120h81l-115 -120h-70z" />
    <glyph glyph-name="zacute" unicode="&#x17a;" horiz-adv-x="491" 
d="M138 63h313v-63h-411v50l303 387h-293v63h391v-50zM197 550l111 150h84l-126 -150h-69z" />
    <glyph glyph-name="Zdotaccent" unicode="&#x17b;" horiz-adv-x="630" 
d="M155 71h425v-71h-530v58l414 571h-404v71h510v-58zM315 854c19.333 0 33.5 -4 42.5 -12s13.5 -21 13.5 -39c0 -34.667 -18.667 -52 -56 -52c-38 0 -57 17.333 -57 52c0 18 4.5 31 13.5 39s23.5 12 43.5 12z" />
    <glyph glyph-name="zdotaccent" unicode="&#x17c;" horiz-adv-x="491" 
d="M138 63h313v-63h-411v50l303 387h-293v63h391v-50zM245 681c38 0 57 -18.333 57 -55c0 -19.333 -4.5 -33.5 -13.5 -42.5s-23.5 -13.5 -43.5 -13.5c-37.333 0 -56 18.667 -56 56c0 19.333 4.5 33.333 13.5 42s23.167 13 42.5 13z" />
    <glyph glyph-name="Zcaron" unicode="&#x17d;" horiz-adv-x="630" 
d="M155 71h425v-71h-530v58l414 571h-404v71h510v-58zM450 870l-99 -120h-80l-99 120h62l77 -79l77 79h62z" />
    <glyph glyph-name="zcaron" unicode="&#x17e;" horiz-adv-x="491" 
d="M138 63h313v-63h-411v50l303 387h-293v63h391v-50zM378 700l-92 -150h-81l-92 150h56l77 -104l76 104h56z" />
    <glyph glyph-name="Aacutering" unicode="&#x1fa;" horiz-adv-x="693" 
d="M40 0l251 700h119l243 -700h-92l-57 170h-317l-58 -170h-89zM210 237h271l-135 400zM464 960l-68 -73.001c42 -12 63 -38 63 -78c0 -27.333 -10 -48.333 -30 -63s-47 -22 -81 -22c-34.667 0 -62 7.33301 -82 22s-30 35.667 -30 63c0 26.667 10 47.334 30 62.001
s47.333 22 82 22h3l55 67h58zM347 760.999c45.333 0 68 16 68 48c0 31.333 -22.667 47 -68 47c-46 0 -69 -15.667 -69 -47c0 -32 23 -48 69 -48z" />
    <glyph glyph-name="aacutering" unicode="&#x1fb;" horiz-adv-x="545" 
d="M410 0l-10.001 59c-30.667 -46 -86 -69 -166 -69c-64.667 0 -111.5 12.167 -140.5 36.5s-43.5 63.5 -43.5 117.5c0 59.333 17.833 102.5 53.5 129.5s92.834 40.5 171.501 40.5h120v26c0 40.667 -9.83301 70.167 -29.5 88.5s-51.167 27.5 -94.5 27.5
c-44.667 0 -76.5 -8.33301 -95.5 -25s-28.5 -43.667 -28.5 -81h-77c0 56 16 96.667 48 122s83.667 38 155 38c70 0 121.167 -14.167 153.5 -42.5s48.5 -73.833 48.5 -136.5v-331h-65zM394.999 260l-118.001 0.000976562c-51.333 0 -88.666 -8.83301 -111.999 -26.5
s-35 -45.834 -35 -84.501c0 -34.667 9.5 -59.334 28.5 -74.001s50.5 -22 94.5 -22c48 0 83.667 11.333 107 34s35 58.334 35 107.001v66zM343.998 791.001h65l-76 -78c33.333 -14 50 -41.667 50 -83c0 -64 -37.333 -95.333 -112 -94c-74 0 -111 31.333 -111 94
s37.333 94 112 94h14zM271.998 577.001c24 0 40.667 4 50 12s14 21.667 14 41s-4.83301 33 -14.5 41s-26.167 12 -49.5 12c-24 0 -40.833 -4 -50.5 -12s-14.5 -21.667 -14.5 -41s4.83301 -33 14.5 -41s26.5 -12 50.5 -12z" />
    <glyph glyph-name="AEacute" unicode="&#x1fc;" horiz-adv-x="933" 
d="M883 629h-340v-228h300v-71h-300v-259h340v-71h-420v170h-244l-89 -170h-90l372 700h471v-71zM463 637l-209 -400h209v400zM492 750l104 120h81l-116 -120h-69z" />
    <glyph glyph-name="aeacute" unicode="&#x1fd;" horiz-adv-x="930" 
d="M476 206c4.66699 -54.667 18.834 -94.6689 42.501 -120.002s59.834 -38 108.501 -38c39.333 0 69.166 7.5 89.499 22.5s35.833 40.833 46.5 77.5h77c-12 -55.333 -34.833 -95.666 -68.5 -120.999s-81.834 -38 -144.501 -38c-101.333 0 -166 40.667 -194 122
c-10.667 -42 -32 -72.667 -64 -92s-77 -29 -135 -29c-64.667 0 -111.5 12.167 -140.5 36.5s-43.5 63.5 -43.5 117.5c0 58.667 17 101.667 51 129s88 41 162 41h132v26c0 38.667 -10 66.834 -30 84.501s-52 26.5 -96 26.5s-75.333 -7.66699 -94 -23s-28 -41.333 -28 -78h-77
c0 56 16 96.667 48 122s83.667 38 155 38c92 0 149.667 -30 173 -90c32 60 92.333 90 181 90c81.333 0 140.5 -21.5 177.5 -64.5s55.5 -111.833 55.5 -206.5v-33h-384zM395 259.998l-112 -0.000976562c-54.667 0 -93.834 -8.66699 -117.501 -26s-35.5 -45.666 -35.5 -84.999
c0 -33.333 9.83301 -57.666 29.5 -72.999s50.834 -23 93.501 -23c49.333 0 85.333 10.667 108 32s34 55.666 34 102.999v72zM780 258.997c0 68 -12.167 116.833 -36.5 146.5s-63.5 44.5 -117.5 44.5c-52.667 0 -91.167 -15 -115.5 -45s-36.5 -78.667 -36.5 -146h306z
M393 548.997l111 150h84l-126 -150h-69z" />
    <glyph glyph-name="Oslashacute" unicode="&#x1fe;" horiz-adv-x="785" 
d="M507 709l23.999 73.001h58l-30 -88c57.333 -23.333 99.333 -63 126 -119s40 -130.667 40 -224c0 -129.333 -26.167 -223.333 -78.5 -282s-136.833 -88 -253.5 -88c-24.667 0 -51 1.66699 -79 5l-23 -65h-58l26 76c-68.667 19.333 -119 57.666 -151 114.999
s-48 137 -48 239c0 129.333 26.333 223.333 79 282s137.334 88 254.001 88c42 0 80 -4 114 -12zM480.999 634.001c-24.667 6.66699 -54 10 -88 10c-85.333 0 -146.833 -23 -184.5 -69s-56.5 -121 -56.5 -225c0 -78.667 10.833 -140.5 32.5 -185.5s55.5 -75.833 101.5 -92.5z
M338.999 59.001c16.667 -2 34.667 -3 54 -3c85.333 0 146.833 23 184.5 69s56.5 121 56.5 225c0 136 -34 223.667 -102 263zM331.999 752.001l104 120h81l-116 -120h-69z" />
    <glyph glyph-name="oslashacute" unicode="&#x1ff;" horiz-adv-x="584" 
d="M291 510c22 0 44 -1.66699 66 -5l22 65h43l-25 -74c46.667 -14.667 81 -42 103 -82s33 -94.667 33 -164c0 -90.667 -19.167 -156.667 -57.5 -198s-99.833 -62 -184.5 -62c-22 0 -44 1.66699 -66 5l-22 -65h-43l25 74c-46.667 14.667 -81 42 -103 82s-33 94.667 -33 164
c0 90.667 19.167 156.667 57.5 198s99.833 62 184.5 62zM291 443l-0.00390625 1c-29.333 0 -54.166 -3.66699 -74.499 -11s-37.166 -18.833 -50.499 -34.5s-23 -35.5 -29 -59.5s-9 -53.333 -9 -88c0 -32.667 2.83301 -60.667 8.5 -84s14.334 -43 26.001 -59
s26.5 -28 44.5 -36l127 368c-13.333 2 -27.666 3 -42.999 3zM372.996 430l-126 -369c12.667 -2 27.334 -3 44.001 -3c57.333 0 98.666 15.167 123.999 45.5s38 79.5 38 147.5c0 49.333 -6.33301 88.5 -19 117.5s-33 49.5 -61 61.5zM227.996 551l111 150h84l-126 -150h-69z
" />
    <glyph glyph-name="Scommaaccent" unicode="&#x218;" horiz-adv-x="645" 
d="M154 520c0 -32.667 14.8311 -58.165 44.498 -76.498s65.5 -32 107.5 -41s84.167 -19.333 126.5 -31s78.333 -32.167 108 -61.5s44.5 -68.333 44.5 -117c0 -74.667 -20.667 -128.834 -62 -162.501s-108 -50.5 -200 -50.5s-158.833 17.5 -200.5 52.5
s-62.5 90.833 -62.5 167.5h81c0 -54.667 14.167 -93.834 42.5 -117.501s74.833 -35.5 139.5 -35.5c64 0 109.667 10.333 137 31s41 54.667 41 102c0 26.667 -8 49 -24 67s-36.667 31.667 -62 41s-53.333 17.5 -84 24.5s-61.167 14.667 -91.5 23
s-58.166 18.666 -83.499 30.999s-46 30.333 -62 54s-24 52.5 -24 86.5c0 74.667 20 128.834 60 162.501s104.333 50.5 193 50.5s152.834 -17.333 192.501 -52s59.5 -90.667 59.5 -168h-80c0 54 -13.5 93 -40.5 117s-70.833 36 -131.5 36s-104 -10.333 -130 -31
s-39 -54.667 -39 -102zM320.998 -45.998h1c31.333 0 47 -24.333 47 -73c0 -34 -6.5 -58.667 -19.5 -74s-33.167 -23 -60.5 -23v36c24 0 36 17.667 36 53c-16.667 0 -28.5 3 -35.5 9s-10.5 16 -10.5 30c0 28 14 42 42 42z" />
    <glyph glyph-name="scommaaccent" unicode="&#x219;" horiz-adv-x="501" 
d="M133 375c0 -24 11.001 -42.166 33.001 -54.499s48.5 -21.333 79.5 -27s62 -12.167 93 -19.5s57.5 -21.833 79.5 -43.5s33 -50.834 33 -87.501c0 -53.333 -16.167 -92.166 -48.5 -116.499s-84.5 -36.5 -156.5 -36.5c-68.667 0 -118.5 12.667 -149.5 38s-46.5 66 -46.5 122
h76c0 -37.333 9.5 -64.333 28.5 -81s50.5 -25 94.5 -25c43.333 0 74.5 7 93.5 21s28.5 37 28.5 69c0 26 -10.833 45.833 -32.5 59.5s-47.834 23.334 -78.501 29.001s-61.5 12 -92.5 19s-57.333 20.667 -79 41s-32.5 48.5 -32.5 84.5c0 50 15.333 86.333 46 109
s79.667 34 147 34c66 0 113.833 -11.833 143.5 -35.5s44.5 -61.834 44.5 -114.501h-72c0 34 -9 58.5 -27 73.5s-47.667 22.5 -89 22.5s-71 -6.33301 -89 -19s-27 -33.334 -27 -62.001zM248.001 -45.999h1c31.333 0 47 -24.333 47 -73c0 -34 -6.5 -58.667 -19.5 -74
s-33.167 -23 -60.5 -23v36c24 0 36 17.667 36 53c-16.667 0 -28.5 3 -35.5 9s-10.5 16 -10.5 30c0 28 14 42 42 42z" />
    <glyph glyph-name="uni021A" unicode="&#x21a;" horiz-adv-x="625" 
d="M575 700v-76h-218v-624h-88v624h-219v76h525zM312 -46h1c31.333 0 47 -24.333 47 -73c0 -34 -6.5 -58.667 -19.5 -74s-33.167 -23 -60.5 -23v36c24 0 36 17.667 36 53c-16.667 0 -28.5 3 -35.5 9s-10.5 16 -10.5 30c0 28 14 42 42 42z" />
    <glyph glyph-name="uni021B" unicode="&#x21b;" horiz-adv-x="403" 
d="M211 146c0 -52.667 29 -79 87 -79h65v-67h-91c-46 0 -81.167 12.167 -105.5 36.5s-36.5 57.833 -36.5 100.5v304h-80v59h80v119h81v-119h152v-59h-152v-295zM225 -46h1c31.333 0 47 -24.333 47 -73c0 -34 -6.5 -58.667 -19.5 -74s-33.167 -23 -60.5 -23v36
c24 0 36 17.667 36 53c-16.667 0 -28.5 3 -35.5 9s-10.5 16 -10.5 30c0 28 14 42 42 42z" />
    <glyph glyph-name="circumflex" unicode="&#x2c6;" horiz-adv-x="365" 
d="M223 700l92 -150h-56l-76 104l-77 -104h-56l92 150h81z" />
    <glyph glyph-name="caron" unicode="&#x2c7;" horiz-adv-x="365" 
d="M315 700l-92 -150h-81l-92 150h56l77 -104l76 104h56z" />
    <glyph glyph-name="breve" unicode="&#x2d8;" horiz-adv-x="415" 
d="M307 700l0.000976562 -1h57c0 -52.667 -12.5 -90.834 -37.5 -114.501s-65.167 -35.5 -120.5 -35.5c-54.667 0 -94.5 11.833 -119.5 35.5s-37.5 61.834 -37.5 114.501h58c0 -35.333 7.66699 -60.833 23 -76.5s40.666 -23.5 75.999 -23.5c36 0 61.833 7.83301 77.5 23.5
s23.5 41.167 23.5 76.5h-1z" />
    <glyph glyph-name="dotaccent" unicode="&#x2d9;" horiz-adv-x="213" 
d="M106 721c38 0 57 -18.333 57 -55c0 -37.333 -19 -56 -57 -56c-37.333 0 -56 18.667 -56 56c0 19.333 4.5 33.333 13.5 42s23.167 13 42.5 13z" />
    <glyph glyph-name="ring" unicode="&#x2da;" horiz-adv-x="323" 
d="M161 719c39.333 0 67.833 -7.83301 85.5 -23.5s26.5 -40.834 26.5 -75.501s-8.83301 -59.834 -26.5 -75.501s-46.167 -23.5 -85.5 -23.5c-38.667 0 -66.834 7.83301 -84.501 23.5s-26.5 40.834 -26.5 75.501s8.83301 59.834 26.5 75.501s45.834 23.5 84.501 23.5z
M161 563c24 0 40.833 4.33301 50.5 13s14.5 23.334 14.5 44.001s-5 35.334 -15 44.001s-26.667 13 -50 13s-40 -4.33301 -50 -13s-15 -23.334 -15 -44.001s5 -35.334 15 -44.001s26.667 -13 50 -13z" />
    <glyph glyph-name="ogonek" unicode="&#x2db;" horiz-adv-x="268" 
d="M149 9l46.999 -0.000976562c-45.333 -27.333 -74.333 -61.666 -87 -102.999c-11.333 -36 -5 -60.333 19 -73c8 -4.66699 18.333 -7 31 -7c10 0 19.833 1.5 29.5 4.5s16.834 6.16699 21.501 9.5l8 4v-74c-20 -13.333 -43.333 -20 -70 -20
c-25.333 0 -46.333 6.33301 -63 19s-27.167 29.167 -31.5 49.5s-4.33301 42 0 65s14.833 45.833 31.5 68.5s38 41.667 64 57z" />
    <glyph glyph-name="tilde" unicode="&#x2dc;" horiz-adv-x="415" 
d="M50 600c0 34.667 8.16699 63.167 24.5 85.5s36.5 33.5 60.5 33.5c17.333 0 33.666 -4.83301 48.999 -14.5s27.5 -20.334 36.5 -32.001s19.167 -22.334 30.5 -32.001s22.333 -14.5 33 -14.5c11.333 0 20.5 5.66699 27.5 17s10.5 27 10.5 47h43
c0 -34.667 -8.16699 -63.167 -24.5 -85.5s-36.5 -33.5 -60.5 -33.5c-17.333 0 -33.666 4.83301 -48.999 14.5s-27.5 20.334 -36.5 32.001s-19.167 22.334 -30.5 32.001s-22.333 14.5 -33 14.5c-11.333 0 -20.5 -5.66699 -27.5 -17s-10.5 -27 -10.5 -47h-43z" />
    <glyph glyph-name="hungarumlaut" unicode="&#x2dd;" horiz-adv-x="443" 
d="M50 550l102 150h79l-116 -150h-65zM211 550l102 150h80l-117 -150h-65z" />
    <glyph glyph-name="Wgrave" unicode="&#x1e80;" horiz-adv-x="1012" 
d="M453 700h106l149 -618l166 618h88l-195 -700h-113l-152 618l-144 -618h-113l-195 700h88l166 -618zM553 750h-66l-119 120h77z" />
    <glyph glyph-name="wgrave" unicode="&#x1e81;" horiz-adv-x="849" 
d="M645 0h-97l-123 439l-123 -439h-97l-165 500h81l135 -434l122 434h97l118 -434l135 434h81zM476 550h-69l-126 150h84z" />
    <glyph glyph-name="Wacute" unicode="&#x1e82;" horiz-adv-x="1012" 
d="M453 700h106l149 -618l166 618h88l-195 -700h-113l-152 618l-144 -618h-113l-195 700h88l166 -618zM455 750l105 120h81l-116 -120h-70z" />
    <glyph glyph-name="wacute" unicode="&#x1e83;" horiz-adv-x="849" 
d="M645 0h-97l-123 439l-123 -439h-97l-165 500h81l135 -434l122 434h97l118 -434l135 434h81zM375 550l111 150h84l-126 -150h-69z" />
    <glyph glyph-name="Wdieresis" unicode="&#x1e84;" horiz-adv-x="1013" 
d="M454 700h106l148 -616l167 616h88l-195 -700h-113l-152 618l-144 -618h-113l-196 700h89l166 -618zM412 844c38 0 57 -17 57 -51c0 -34.667 -19 -52 -57 -52c-37.333 0 -56 17.333 -56 52c0 18 4.5 31 13.5 39s23.167 12 42.5 12zM597 844c20 0 34.5 -4 43.5 -12
s13.5 -21 13.5 -39c0 -34.667 -19 -52 -57 -52c-37.333 0 -56 17.333 -56 52c0 18 4.5 31 13.5 39s23.167 12 42.5 12z" />
    <glyph glyph-name="wdieresis" unicode="&#x1e85;" horiz-adv-x="850" 
d="M645 0h-97l-123 439l-123 -439h-97l-165 500h81l135 -433l122 433h97l119 -435l135 435h81zM332 687c38 0 57 -19.333 57 -58s-19 -58 -57 -58c-37.333 0 -56 19.333 -56 58c0 20.667 4.5 35.5 13.5 44.5s23.167 13.5 42.5 13.5zM510 687c37.333 0 56 -19.333 56 -58
s-18.667 -58 -56 -58s-56 19.333 -56 58c0 20.667 4.5 35.5 13.5 44.5s23.167 13.5 42.5 13.5z" />
    <glyph glyph-name="uni1E9E" unicode="&#x1e9e;" horiz-adv-x="608" 
d="M300 720c75.333 0 130.165 -15.001 164.498 -45.001s51.5 -78.333 51.5 -145c0 -74 -50.333 -117.667 -151 -131c63.333 -7.33301 109.5 -26.5 138.5 -57.5s43.5 -76.833 43.5 -137.5c0 -71.333 -15 -123.166 -45 -155.499s-78 -48.5 -144 -48.5
c-35.333 0 -69.666 6.66699 -102.999 20v63c32.667 -10.667 61 -16 85 -16c44.667 0 77 11.333 97 34s30 58.667 30 108c0 52.667 -15.167 91 -45.5 115s-79.166 36 -146.499 36v69c60 0 102.667 8.33301 128 25s38 45 38 85c0 38.667 -10.833 67.334 -32.5 86.001
s-56.5 28 -104.5 28c-54 0 -93.167 -12.833 -117.5 -38.5s-36.5 -66.834 -36.5 -123.501v-491h-80v500c0 74 18.833 129.167 56.5 165.5s95.5 54.5 173.5 54.5z" />
    <glyph glyph-name="Ygrave" unicode="&#x1ef2;" horiz-adv-x="649" 
d="M369 283h-1v-283h-84v283l-244 417h98l189 -336l189 336h93zM371 750h-66l-120 120h78z" />
    <glyph glyph-name="ygrave" unicode="&#x1ef3;" horiz-adv-x="525" 
d="M246 6l2 6l-218 488h78l174 -390l136 390h77l-186 -520c-20 -56 -43.167 -96.667 -69.5 -122s-58.833 -38 -97.5 -38h-55v59h52c22.667 0 42.5 10 59.5 30s32.833 52.333 47.5 97zM315 550h-69l-126 150h84z" />
    <glyph glyph-name="endash" unicode="&#x2013;" horiz-adv-x="620" 
d="M570 301v-67h-520v67h520z" />
    <glyph glyph-name="emdash" unicode="&#x2014;" horiz-adv-x="840" 
d="M790 301v-67h-740v67h740z" />
    <glyph glyph-name="quoteleft" unicode="&#x2018;" horiz-adv-x="212" 
d="M100 455c-21.333 0 -36.666 7.83301 -45.999 23.5s-14 41.167 -14 76.5c0 50 8.16699 86.667 24.5 110s42.166 35 77.499 35v-45c-16.667 0 -28.667 -6.66699 -36 -20s-11 -34.666 -11 -63.999c19.333 0 33.5 -4.33301 42.5 -13s13.833 -22.334 14.5 -41.001
c2 -41.333 -15.333 -62 -52 -62z" />
    <glyph glyph-name="quoteright" unicode="&#x2019;" horiz-adv-x="212" 
d="M102 710c21.333 0 36.666 -8 45.999 -24s14 -41.333 14 -76c0 -50 -8.16699 -86.667 -24.5 -110s-42.166 -35 -77.499 -35v45c16.667 0 28.667 6.66699 36 20s11 34.666 11 63.999c-19.333 0 -33.5 4.33301 -42.5 13s-13.833 22.334 -14.5 41.001
c-2 41.333 15.333 62 52 62z" />
    <glyph glyph-name="quotesinglbase" unicode="&#x201a;" horiz-adv-x="212" 
d="M102 106c21.333 0 36.666 -7.83301 45.999 -23.5s14 -41.167 14 -76.5c0 -50 -8.16699 -86.667 -24.5 -110s-42.166 -35 -77.499 -35v45c16.667 0 28.667 6.66699 36 20s11 34.666 11 63.999c-19.333 0 -33.5 4.33301 -42.5 13s-13.833 22.334 -14.5 41.001
c-2 41.333 15.333 62 52 62z" />
    <glyph glyph-name="quotedblleft" unicode="&#x201c;" horiz-adv-x="379" 
d="M100 455c-21.333 0 -36.666 7.83301 -45.999 23.5s-14 41.167 -14 76.5c0 50 8.16699 86.667 24.5 110s42.166 35 77.499 35v-45c-16.667 0 -28.667 -6.66699 -36 -20s-11 -34.666 -11 -63.999c19.333 0 33.5 -4.33301 42.5 -13s13.833 -22.334 14.5 -41.001
c2 -41.333 -15.333 -62 -52 -62zM267 455c-20.667 0 -35.832 7.83301 -45.499 23.5s-14.5 41.167 -14.5 76.5c0 50 8.16699 86.667 24.5 110s42.166 35 77.499 35v-45c-16.667 0 -28.667 -6.66699 -36 -20s-11 -34.666 -11 -63.999c19.333 0 33.5 -4.33301 42.5 -13
s13.833 -22.334 14.5 -41.001c2 -41.333 -15.333 -62 -52 -62z" />
    <glyph glyph-name="quotedblright" unicode="&#x201d;" horiz-adv-x="382" 
d="M102 710c21.333 0 36.666 -8 45.999 -24s14 -41.333 14 -76c0 -50 -8.16699 -86.667 -24.5 -110s-42.166 -35 -77.499 -35v45c16.667 0 28.667 6.66699 36 20s11 34.666 11 63.999c-19.333 0 -33.5 4.33301 -42.5 13s-13.833 22.334 -14.5 41.001
c-2 41.333 15.333 62 52 62zM272 710c21.333 0 36.666 -8 45.999 -24s14 -41.333 14 -76c0 -50 -8.16699 -86.667 -24.5 -110s-42.166 -35 -77.499 -35v45c16.667 0 28.667 6.66699 36 20s11 34.666 11 63.999c-19.333 0 -33.5 4.33301 -42.5 13
s-13.833 22.334 -14.5 41.001c-2 41.333 15.333 62 52 62z" />
    <glyph glyph-name="quotedblbase" unicode="&#x201e;" horiz-adv-x="379" 
d="M102 106c21.333 0 36.666 -7.83301 45.999 -23.5s14 -41.167 14 -76.5c0 -50 -8.16699 -86.667 -24.5 -110s-42.166 -35 -77.499 -35v45c16.667 0 28.667 6.66699 36 20s11 34.666 11 63.999c-19.333 0 -33.5 4.33301 -42.5 13s-13.833 22.334 -14.5 41.001
c-2 41.333 15.333 62 52 62zM269 106c20.667 0 35.832 -7.83301 45.499 -23.5s14.5 -41.167 14.5 -76.5c0 -50 -8.16699 -86.667 -24.5 -110s-42.166 -35 -77.499 -35v45c16.667 0 28.667 6.66699 36 20s11 34.666 11 63.999c-19.333 0 -33.5 4.33301 -42.5 13
s-13.833 22.334 -14.5 41.001c-2 41.333 15.333 62 52 62z" />
    <glyph glyph-name="ellipsis" unicode="&#x2026;" horiz-adv-x="584" 
d="M106 111c20 0 34.5 -4.5 43.5 -13.5s13.5 -23.833 13.5 -44.5c0 -38 -19 -57 -57 -57c-19.333 0 -33.5 4.5 -42.5 13.5s-13.5 23.5 -13.5 43.5c0 20.667 4.5 35.5 13.5 44.5s23.167 13.5 42.5 13.5zM292 111c19.333 0 33.5 -4.5 42.5 -13.5s13.5 -23.833 13.5 -44.5
c0 -20 -4.5 -34.5 -13.5 -43.5s-23.167 -13.5 -42.5 -13.5c-20 0 -34.5 4.5 -43.5 13.5s-13.5 23.5 -13.5 43.5c0 20.667 4.5 35.5 13.5 44.5s23.5 13.5 43.5 13.5zM477 111c38 0 57 -19.333 57 -58c0 -38 -19 -57 -57 -57c-19.333 0 -33.5 4.5 -42.5 13.5
s-13.5 23.5 -13.5 43.5c0 20.667 4.5 35.5 13.5 44.5s23.167 13.5 42.5 13.5z" />
    <glyph glyph-name="perthousand" unicode="&#x2030;" horiz-adv-x="1246" 
d="M649 390c56.667 0 97.834 -15.333 123.501 -46s38.5 -80 38.5 -148s-12.833 -117.5 -38.5 -148.5s-66.834 -46.5 -123.501 -46.5s-97.667 15.5 -123 46.5s-38 80.5 -38 148.5s12.667 117.333 38 148s66.333 46 123 46zM649 56c35.333 0 60.833 10.833 76.5 32.5
s23.5 57.5 23.5 107.5c0 49.333 -7.83301 85 -23.5 107s-41.167 33 -76.5 33s-60.833 -11 -76.5 -33s-23.5 -57.667 -23.5 -107c0 -50 7.83301 -85.833 23.5 -107.5s41.167 -32.5 76.5 -32.5zM1034 390c56.667 0 97.834 -15.333 123.501 -46s38.5 -80 38.5 -148
s-12.833 -117.5 -38.5 -148.5s-66.834 -46.5 -123.501 -46.5s-97.667 15.5 -123 46.5s-38 80.5 -38 148.5s12.667 117.333 38 148s66.333 46 123 46zM1034 56c35.333 0 60.832 10.833 76.499 32.5s23.5 57.5 23.5 107.5c0 49.333 -7.66699 85 -23 107s-40.666 33 -75.999 33
c-36 0 -61.833 -11 -77.5 -33s-23.5 -57.667 -23.5 -107c0 -50 7.83301 -85.833 23.5 -107.5s41.167 -32.5 76.5 -32.5zM210.999 710c56.667 0 97.834 -15.333 123.501 -46s38.5 -80 38.5 -148s-12.833 -117.5 -38.5 -148.5s-66.834 -46.5 -123.501 -46.5
c-56 0 -96.833 15.5 -122.5 46.5s-38.5 80.5 -38.5 148.5s12.833 117.333 38.5 148s66.5 46 122.5 46zM210.999 376c36 0 61.667 10.833 77 32.5s23 57.5 23 107.5c0 49.333 -7.66699 85 -23 107s-40.666 33 -75.999 33c-36 0 -61.667 -10.833 -77 -32.5
s-23 -57.5 -23 -107.5s7.66699 -85.833 23 -107.5s40.666 -32.5 75.999 -32.5zM246.999 -30h-74l440 760h74z" />
    <glyph glyph-name="guilsinglleft" unicode="&#x2039;" horiz-adv-x="300" 
d="M172 450h78l-118 -190l118 -200h-78l-122 200z" />
    <glyph glyph-name="guilsinglright" unicode="&#x203a;" horiz-adv-x="300" 
d="M50 450h78l122 -190l-122 -200h-78l118 200z" />
    <glyph glyph-name="lira" unicode="&#x20a4;" horiz-adv-x="667" 
d="M615 71l1 1.00195v-1v-70h-556v86c42 15.333 70.833 35.166 86.5 59.499s23.5 58.166 23.5 101.499h-111v50h111v76h-111v50h111v77c0 76.667 16.5 132.334 49.5 167.001s86.167 52 159.5 52c72 0 124.333 -17.333 157 -52s49 -90.334 49 -167.001h-76
c0 54.667 -10 94.5 -30 119.5s-52 37.5 -96 37.5c-46.667 0 -80.5 -12.5 -101.5 -37.5s-31.5 -64.833 -31.5 -119.5v-77h276v-50h-276v-76h276v-50h-276c0 -46.667 -8.33301 -83.667 -25 -111s-46.667 -49.333 -90 -66h480z" />
    <glyph glyph-name="Euro" unicode="&#x20ac;" horiz-adv-x="889" 
d="M741 240l88 0.000976562c-19.333 -91.333 -55.166 -157.5 -107.499 -198.5s-127.833 -61.5 -226.5 -61.5c-108 0 -190 22.667 -246 68s-89.667 117 -101 215h-98v50h94c-0.666992 8 -1 20.333 -1 37c0 19.333 0.333008 33.666 1 42.999h-94v50h98
c12.667 96 47 166.167 103 210.5s137.333 66.5 244 66.5c105.333 0 184.333 -20.5 237 -61.5s85 -107.167 97 -198.5h-88c-10 65.333 -34 112.333 -72 141s-96 43 -174 43c-76.667 0 -135.334 -16 -176.001 -48s-66.334 -83 -77.001 -153h319v-50h-325
c-0.666992 -9.33301 -1 -24 -1 -44c0 -16 0.333008 -28 1 -36h285v-50h-281c10.667 -72 36.5 -124.5 77.5 -157.5s100.167 -49.5 177.5 -49.5c74 0 129.833 14.167 167.5 42.5s63.834 75.5 78.501 141.5z" />
    <glyph glyph-name="trademark" unicode="&#x2122;" horiz-adv-x="1234" 
d="M494 700v-71h-184v-429h-76v429h-184v71h444zM591 200v500h106l168 -406l168 406h101v-500h-76v394l-166 -394h-58l-166 394v-394h-77z" />
    <glyph glyph-name="minus" unicode="&#x2212;" horiz-adv-x="430" 
d="M380 234h-330v67h330v-67z" />
    <glyph glyph-name="approxequal" unicode="&#x2248;" horiz-adv-x="700" 
d="M50 150v67c28 26 57.333 42.667 88 50s60.167 7.16602 88.5 -0.500977s57.166 -18.167 86.499 -31.5l87.5 -40c29 -13.333 57.167 -23.666 84.5 -30.999s55.333 -7 84 1s55.667 25 81 51v-66c-28 -26 -57.5 -43 -88.5 -51s-60.667 -8.33301 -89 -1
s-57.166 17.5 -86.499 30.5l-87 40c-28.667 13.667 -56.834 24.167 -84.501 31.5s-55.667 7.33301 -84 0s-55.166 -24 -80.499 -50zM50 339l-0.00195312 65.998c28 26 57.333 42.667 88 50s60.167 7.33301 88.5 0s57.166 -17.666 86.499 -30.999l87.5 -40
c29 -13.333 57.167 -23.666 84.5 -30.999s55.333 -7 84 1s55.667 25 81 51v-66c-28 -26.667 -57.5 -43.834 -88.5 -51.501s-60.667 -8 -89 -1s-57.166 17.167 -86.499 30.5l-87.5 40c-29 13.333 -57.167 23.833 -84.5 31.5s-55.166 7.83398 -83.499 0.500977
s-55.166 -24 -80.499 -50z" />
    <glyph glyph-name="notequal" unicode="&#x2260;" horiz-adv-x="650" 
d="M204 0l50 140h-204v67h228l42 116h-270v67h294l39 110h51l-39 -110h205v-67h-229l-42 -116h271v-67h-295l-50 -140h-51z" />
    <glyph glyph-name="lessequal" unicode="&#x2264;" horiz-adv-x="500" 
d="M50 0v71h400v-71h-400zM50 496l400 204v-82l-329 -168l329 -168v-82l-400 204v92z" />
    <glyph glyph-name="greaterequal" unicode="&#x2265;" horiz-adv-x="500" 
d="M50 0v71h400v-71h-400zM50 700l400 -204v-92l-400 -204v82l329 168l-329 168v82z" />
    <glyph glyph-name="uniE132" unicode="&#xe132;" horiz-adv-x="470" 
d="M163 0h-81v500h81v-500zM220 -113c58.667 0 88 26.333 88 79v534h80v-543c0 -42.667 -12 -76.167 -36 -100.5s-59 -36.5 -105 -36.5h-79v67h52zM70 550l111 150h84l-126 -150h-69zM295 550l111 150h84l-126 -150h-69z" />
    <glyph glyph-name="uniE133" unicode="&#xe133;" horiz-adv-x="851" 
d="M104 700h88v-700h-88v700zM320 210v23h84v-23c0 -54.667 10 -94 30 -118s52.667 -36 98 -36c46 0 79 12 99 36s30 63.333 30 118v490h88v-490c0 -79.333 -17.167 -136.833 -51.5 -172.5s-89.5 -53.5 -165.5 -53.5c-74.667 0 -128.667 17.833 -162 53.5
s-50 93.167 -50 172.5zM100 750l104 120h81l-116 -120h-69zM656 750l104 120h81l-116 -120h-69z" />
    <glyph glyph-name=".null" horiz-adv-x="0" 
 />
    <glyph glyph-name="nonmarkingreturn" horiz-adv-x="333" 
 />
    <glyph glyph-name="a.alt1" horiz-adv-x="594" 
d="M264 -10c-74.667 0 -129 20.5 -163 61.5s-51 107.167 -51 198.5s17 157.5 51 198.5s88.333 61.5 163 61.5c81.333 0 138.666 -25.333 171.999 -76l13 66h65v-500h-65l-13 66c-33.333 -50.667 -90.666 -76 -171.999 -76zM283 57c53.333 0 92 15.333 116 46
s36 79.667 36 147s-12 116.333 -36 147s-62.667 46 -116 46s-92.166 -15.333 -116.499 -46s-36.5 -79.667 -36.5 -147s12.167 -116.333 36.5 -147s63.166 -46 116.499 -46z" />
    <glyph glyph-name="aacute.alt1" horiz-adv-x="594" 
d="M264 -10c-74.667 0 -129 20.5 -163 61.5s-51 107.167 -51 198.5s17 157.5 51 198.5s88.333 61.5 163 61.5c81.333 0 138.666 -25.333 171.999 -76l13 66h65v-500h-65l-13 66c-33.333 -50.667 -90.666 -76 -171.999 -76zM283 57c53.333 0 92 15.333 116 46
s36 79.667 36 147s-12 116.333 -36 147s-62.667 46 -116 46s-92.166 -15.333 -116.499 -46s-36.5 -79.667 -36.5 -147s12.167 -116.333 36.5 -147s63.166 -46 116.499 -46zM357 700h84l-126 -150h-69z" />
    <glyph glyph-name="aacutering.alt1" horiz-adv-x="594" 
d="M264 -10c-74.667 0 -129 20.5 -163 61.5s-51 107.167 -51 198.5s17 157.5 51 198.5s88.333 61.5 163 61.5c81.333 0 138.666 -25.333 171.999 -76l13 66h65v-500h-65l-13 66c-33.333 -50.667 -90.666 -76 -171.999 -76zM283 57c53.333 0 92 15.333 116 46
s36 79.667 36 147s-12 116.333 -36 147s-62.667 46 -116 46s-92.166 -15.333 -116.499 -46s-36.5 -79.667 -36.5 -147s12.167 -116.333 36.5 -147s63.166 -46 116.499 -46zM375 780h64l-76 -78c33.333 -14 50 -41.667 50 -83c0 -63.333 -37.333 -95 -112 -95
c-74 0 -111 31.667 -111 95c0 62.667 37.333 94 112 94h15zM303 566c24 0 40.667 4 50 12s14 21.667 14 41c0 18.667 -4.83301 32 -14.5 40s-26.167 12 -49.5 12c-24 0 -40.833 -3.83301 -50.5 -11.5s-14.5 -21.167 -14.5 -40.5s4.83301 -33 14.5 -41s26.5 -12 50.5 -12z
" />
    <glyph glyph-name="abreve.alt1" horiz-adv-x="594" 
d="M264 -10c-74.667 0 -129 20.5 -163 61.5s-51 107.167 -51 198.5s17 157.5 51 198.5s88.333 61.5 163 61.5c81.333 0 138.666 -25.333 171.999 -76l13 66h65v-500h-65l-13 66c-33.333 -50.667 -90.666 -76 -171.999 -76zM283 57c53.333 0 92 15.333 116 46
s36 79.667 36 147s-12 116.333 -36 147s-62.667 46 -116 46s-92.166 -15.333 -116.499 -46s-36.5 -79.667 -36.5 -147s12.167 -116.333 36.5 -147s63.166 -46 116.499 -46zM402 700h57.999c0 -52.667 -12.5 -90.834 -37.5 -114.501s-64.833 -35.5 -119.5 -35.5
c-55.333 0 -95.5 11.833 -120.5 35.5s-37.5 61.834 -37.5 114.501h58c0 -34.667 7.83301 -60 23.5 -76s41.167 -24 76.5 -24c34.667 0 59.834 8 75.501 24s23.5 41.333 23.5 76z" />
    <glyph glyph-name="acircumflex.alt1" horiz-adv-x="594" 
d="M264 -10c-74.667 0 -129 20.5 -163 61.5s-51 107.167 -51 198.5s17 157.5 51 198.5s88.333 61.5 163 61.5c81.333 0 138.666 -25.333 171.999 -76l13 66h65v-500h-65l-13 66c-33.333 -50.667 -90.666 -76 -171.999 -76zM283 57c53.333 0 92 15.333 116 46
s36 79.667 36 147s-12 116.333 -36 147s-62.667 46 -116 46s-92.166 -15.333 -116.499 -46s-36.5 -79.667 -36.5 -147s12.167 -116.333 36.5 -147s63.166 -46 116.499 -46zM343 700l92 -150h-56l-76 104l-77 -104h-56l92 150h81z" />
    <glyph glyph-name="acute.case" horiz-adv-x="285" 
d="M50 550l104 120h81l-115 -120h-70z" />
    <glyph glyph-name="adieresis.alt1" horiz-adv-x="594" 
d="M264 -10c-74.667 0 -129 20.5 -163 61.5s-51 107.167 -51 198.5s17 157.5 51 198.5s88.333 61.5 163 61.5c81.333 0 138.666 -25.333 171.999 -76l13 66h65v-500h-65l-13 66c-33.333 -50.667 -90.666 -76 -171.999 -76zM283 57c53.333 0 92 15.333 116 46
s36 79.667 36 147s-12 116.333 -36 147s-62.667 46 -116 46s-92.166 -15.333 -116.499 -46s-36.5 -79.667 -36.5 -147s12.167 -116.333 36.5 -147s63.166 -46 116.499 -46zM214 687c37.333 0 56 -19.333 56 -58s-18.667 -58 -56 -58c-38 0 -57 19.333 -57 58
c0 20.667 4.5 35.5 13.5 44.5s23.5 13.5 43.5 13.5zM391 687c38 0 57 -19.333 57 -58s-19 -58 -57 -58c-37.333 0 -56 19.333 -56 58c0 20.667 4.5 35.5 13.5 44.5s23.167 13.5 42.5 13.5z" />
    <glyph glyph-name="agrave.alt1" horiz-adv-x="594" 
d="M264 -10c-74.667 0 -129 20.5 -163 61.5s-51 107.167 -51 198.5s17 157.5 51 198.5s88.333 61.5 163 61.5c81.333 0 138.666 -25.333 171.999 -76l13 66h65v-500h-65l-13 66c-33.333 -50.667 -90.666 -76 -171.999 -76zM283 57c53.333 0 92 15.333 116 46
s36 79.667 36 147s-12 116.333 -36 147s-62.667 46 -116 46s-92.166 -15.333 -116.499 -46s-36.5 -79.667 -36.5 -147s12.167 -116.333 36.5 -147s63.166 -46 116.499 -46zM229 700l111 -150h-69l-126 150h84z" />
    <glyph glyph-name="amacron.alt1" horiz-adv-x="594" 
d="M264 -10c-74.667 0 -129 20.5 -163 61.5s-51 107.167 -51 198.5s17 157.5 51 198.5s88.333 61.5 163 61.5c81.333 0 138.666 -25.333 171.999 -76l13 66h65v-500h-65l-13 66c-33.333 -50.667 -90.666 -76 -171.999 -76zM283 57c53.333 0 92 15.333 116 46
s36 79.667 36 147s-12 116.333 -36 147s-62.667 46 -116 46s-92.166 -15.333 -116.499 -46s-36.5 -79.667 -36.5 -147s12.167 -116.333 36.5 -147s63.166 -46 116.499 -46zM132 603v54h340v-54h-340z" />
    <glyph glyph-name="aogonek.alt1" horiz-adv-x="603" 
d="M453 -250c-24.667 0 -45.3311 6.16699 -61.998 18.5s-27.334 28.5 -32.001 48.5s-5.16699 41.167 -1.5 63.5s13.5 45 29.5 68s36.333 42.167 61 57.5l-12 60c-33.333 -50.667 -90.666 -76 -171.999 -76c-74.667 0 -129 20.5 -163 61.5s-51 107.167 -51 198.5
s17 157.5 51 198.5s88.333 61.5 163 61.5c81.333 0 138.666 -25.333 171.999 -76l13 66h65v-500h-27c-42.667 -30 -68 -64.667 -76 -104c-7.33301 -34 2 -56 28 -66c7.33301 -2.66699 15.666 -4 24.999 -4c10 0 19.833 1.5 29.5 4.5s17.167 6.16699 22.5 9.5l7 4v-74
c-20 -13.333 -43.333 -20 -70 -20zM282.003 58c53.333 0 92 15.333 116 46s36 79.667 36 147s-12 116.333 -36 147s-62.667 46 -116 46s-92.166 -15.333 -116.499 -46s-36.5 -79.667 -36.5 -147s12.167 -116.333 36.5 -147s63.166 -46 116.499 -46z" />
    <glyph glyph-name="aring.alt1" horiz-adv-x="594" 
d="M264 -10c-74.667 0 -129 20.5 -163 61.5s-51 107.167 -51 198.5s17 157.5 51 198.5s88.333 61.5 163 61.5c81.333 0 138.666 -25.333 171.999 -76l13 66h65v-500h-65l-13 66c-33.333 -50.667 -90.666 -76 -171.999 -76zM283 57c53.333 0 92 15.333 116 46
s36 79.667 36 147s-12 116.333 -36 147s-62.667 46 -116 46s-92.166 -15.333 -116.499 -46s-36.5 -79.667 -36.5 -147s12.167 -116.333 36.5 -147s63.166 -46 116.499 -46zM303 739c38.667 0 66.834 -7.83301 84.501 -23.5s26.5 -40.834 26.5 -75.501
s-8.83301 -59.834 -26.5 -75.501s-46.167 -23.5 -85.5 -23.5c-38.667 0 -66.834 7.83301 -84.501 23.5s-26.5 40.834 -26.5 75.501s8.83301 59.834 26.5 75.501s46.167 23.5 85.5 23.5zM303 583c23.333 0 39.833 4.33301 49.5 13s14.5 23.334 14.5 44.001
s-4.83301 35.334 -14.5 44.001s-26.167 13 -49.5 13c-24 0 -40.833 -4.33301 -50.5 -13s-14.5 -23.334 -14.5 -44.001s4.83301 -35.334 14.5 -44.001s26.5 -13 50.5 -13z" />
    <glyph glyph-name="atilde.alt1" horiz-adv-x="594" 
d="M264 -10c-74.667 0 -129 20.5 -163 61.5s-51 107.167 -51 198.5s17 157.5 51 198.5s88.333 61.5 163 61.5c81.333 0 138.666 -25.333 171.999 -76l13 66h65v-500h-65l-13 66c-33.333 -50.667 -90.666 -76 -171.999 -76zM283 57c53.333 0 92 15.333 116 46
s36 79.667 36 147s-12 116.333 -36 147s-62.667 46 -116 46s-92.166 -15.333 -116.499 -46s-36.5 -79.667 -36.5 -147s12.167 -116.333 36.5 -147s63.166 -46 116.499 -46zM145 575c0 34.667 8.16699 63 24.5 85s36.5 33 60.5 33c17.333 0 33.666 -4.83301 48.999 -14.5
s27.5 -20.334 36.5 -32.001s19.167 -22.334 30.5 -32.001s22.333 -14.5 33 -14.5c11.333 0 20.5 5.83301 27.5 17.5s10.5 27.5 10.5 47.5h43c0 -34.667 -8.16699 -63.167 -24.5 -85.5s-36.5 -33.5 -60.5 -33.5c-17.333 0 -33.666 4.83301 -48.999 14.5
s-27.5 20.334 -36.5 32.001s-19.167 22.334 -30.5 32.001s-22.333 14.5 -33 14.5c-11.333 0 -20.5 -5.83301 -27.5 -17.5s-10.5 -27.167 -10.5 -46.5h-43z" />
    <glyph glyph-name="breve.case" horiz-adv-x="415" 
d="M303 670h62.002c0 -42 -12.5 -72.5 -37.5 -91.5s-65.167 -28.5 -120.5 -28.5c-54.667 0 -94.5 9.5 -119.5 28.5s-37.5 49.5 -37.5 91.5h61c0 -26 7.66699 -44.833 23 -56.5s39.666 -17.5 72.999 -17.5s57.666 5.83301 72.999 17.5s23 30.5 23 56.5z" />
    <glyph glyph-name="caron.case" horiz-adv-x="378" 
d="M328 670l-99 -120h-80l-99 120h61l78 -79l77 79h62z" />
    <glyph glyph-name="circumflex.case" horiz-adv-x="378" 
d="M229 670l99 -120h-62l-77 79l-78 -79h-61l99 120h80z" />
    <glyph glyph-name="commaaccent" horiz-adv-x="190" 
d="M92 -46h1c31.333 0 47 -24.333 47 -73c0 -34 -6.5 -58.667 -19.5 -74s-33.167 -23 -60.5 -23v36c24 0 36 17.667 36 53c-16.667 0 -28.5 3 -35.5 9s-10.5 16 -10.5 30c0 28 14 42 42 42z" />
    <glyph glyph-name="dieresis.case" horiz-adv-x="398" 
d="M106 709c38 0 57 -17.333 57 -52c0 -34 -19 -51 -57 -51c-19.333 0 -33.5 4 -42.5 12s-13.5 21 -13.5 39c0 34.667 18.667 52 56 52zM291 709c38 0 57 -17.333 57 -52c0 -18 -4.5 -31 -13.5 -39s-23.5 -12 -43.5 -12c-19.333 0 -33.5 4 -42.5 12s-13.5 21 -13.5 39
c0 34.667 18.667 52 56 52z" />
    <glyph glyph-name="dotaccent.case" horiz-adv-x="213" 
d="M106 659c38 0 57 -17.333 57 -52c0 -34 -19 -51 -57 -51c-19.333 0 -33.5 4 -42.5 12s-13.5 21 -13.5 39c0 34.667 18.667 52 56 52z" />
    <glyph glyph-name="grave.case" horiz-adv-x="285" 
d="M127 670l108 -120h-66l-119 120h77z" />
    <glyph glyph-name="hungarumlaut.case" horiz-adv-x="436" 
d="M50 550l100 120h78l-112 -120h-66zM208 550l101 120h77l-112 -120h-66z" />
    <glyph glyph-name="tilde.case" horiz-adv-x="415" 
d="M50 580c0 34 7.83301 59.833 23.5 77.5s36.167 26.5 61.5 26.5c22 0 42 -5.66699 60 -17s34.333 -22.666 49 -33.999s29 -17 43 -17c26 0 39 18 39 54h39c0 -33.333 -8 -59 -24 -77s-36.333 -27 -61 -27c-22 0 -42 5.66699 -60 17s-34.5 22.666 -49.5 33.999
s-29.5 17 -43.5 17c-25.333 0 -38 -18 -38 -54h-39z" />
    </font>
</defs>
</svg>
